<?xml version="1.0" encoding="utf-8" standalone="no"?>
<!DOCTYPE svg PUBLIC "-//W3C//DTD SVG 1.1//EN"
  "http://www.w3.org/Graphics/SVG/1.1/DTD/svg11.dtd">
<svg xmlns:xlink="http://www.w3.org/1999/xlink" width="496.380313pt" height="207.907985pt" viewBox="0 0 496.380313 207.907985" xmlns="http://www.w3.org/2000/svg" version="1.1">
 <metadata>
  <rdf:RDF xmlns:dc="http://purl.org/dc/elements/1.1/" xmlns:cc="http://creativecommons.org/ns#" xmlns:rdf="http://www.w3.org/1999/02/22-rdf-syntax-ns#">
   <cc:Work>
    <dc:type rdf:resource="http://purl.org/dc/dcmitype/StillImage"/>
    <dc:date>2025-07-17T11:18:18.062810</dc:date>
    <dc:format>image/svg+xml</dc:format>
    <dc:creator>
     <cc:Agent>
      <dc:title>Matplotlib v3.10.3, https://matplotlib.org/</dc:title>
     </cc:Agent>
    </dc:creator>
   </cc:Work>
  </rdf:RDF>
 </metadata>
 <defs>
  <style type="text/css">*{stroke-linejoin: round; stroke-linecap: butt}</style>
 </defs>
 <g id="figure_1">
  <g id="patch_1">
   <path d="M 0 207.907985 
L 496.380313 207.907985 
L 496.380313 0 
L 0 0 
z
" style="fill: #ffffff"/>
  </g>
  <g id="axes_1">
   <g id="patch_2">
    <path d="M 42.620313 170.351735 
L 242.580312 170.351735 
L 242.580312 8.125814 
L 42.620313 8.125814 
z
" style="fill: #ffffff"/>
   </g>
   <g id="matplotlib.axis_1">
    <g id="xtick_1">
     <g id="line2d_1">
      <defs>
       <path id="mdf2e59ccf4" d="M 0 0 
L 0 3.5 
" style="stroke: #000000; stroke-width: 0.8"/>
      </defs>
      <g>
       <use xlink:href="#mdf2e59ccf4" x="70.271627" y="170.351735" style="stroke: #000000; stroke-width: 0.8"/>
      </g>
     </g>
     <g id="text_1">
      <!-- −5.0 -->
      <g transform="translate(58.130221 184.950172) scale(0.1 -0.1)">
       <defs>
        <path id="DejaVuSans-2212" d="M 678 2272 
L 4684 2272 
L 4684 1741 
L 678 1741 
L 678 2272 
z
" transform="scale(0.015625)"/>
        <path id="DejaVuSans-35" d="M 691 4666 
L 3169 4666 
L 3169 4134 
L 1269 4134 
L 1269 2991 
Q 1406 3038 1543 3061 
Q 1681 3084 1819 3084 
Q 2600 3084 3056 2656 
Q 3513 2228 3513 1497 
Q 3513 744 3044 326 
Q 2575 -91 1722 -91 
Q 1428 -91 1123 -41 
Q 819 9 494 109 
L 494 744 
Q 775 591 1075 516 
Q 1375 441 1709 441 
Q 2250 441 2565 725 
Q 2881 1009 2881 1497 
Q 2881 1984 2565 2268 
Q 2250 2553 1709 2553 
Q 1456 2553 1204 2497 
Q 953 2441 691 2322 
L 691 4666 
z
" transform="scale(0.015625)"/>
        <path id="DejaVuSans-2e" d="M 684 794 
L 1344 794 
L 1344 0 
L 684 0 
L 684 794 
z
" transform="scale(0.015625)"/>
        <path id="DejaVuSans-30" d="M 2034 4250 
Q 1547 4250 1301 3770 
Q 1056 3291 1056 2328 
Q 1056 1369 1301 889 
Q 1547 409 2034 409 
Q 2525 409 2770 889 
Q 3016 1369 3016 2328 
Q 3016 3291 2770 3770 
Q 2525 4250 2034 4250 
z
M 2034 4750 
Q 2819 4750 3233 4129 
Q 3647 3509 3647 2328 
Q 3647 1150 3233 529 
Q 2819 -91 2034 -91 
Q 1250 -91 836 529 
Q 422 1150 422 2328 
Q 422 3509 836 4129 
Q 1250 4750 2034 4750 
z
" transform="scale(0.015625)"/>
       </defs>
       <use xlink:href="#DejaVuSans-2212"/>
       <use xlink:href="#DejaVuSans-35" transform="translate(83.789062 0)"/>
       <use xlink:href="#DejaVuSans-2e" transform="translate(147.412109 0)"/>
       <use xlink:href="#DejaVuSans-30" transform="translate(179.199219 0)"/>
      </g>
     </g>
    </g>
    <g id="xtick_2">
     <g id="line2d_2">
      <g>
       <use xlink:href="#mdf2e59ccf4" x="106.43597" y="170.351735" style="stroke: #000000; stroke-width: 0.8"/>
      </g>
     </g>
     <g id="text_2">
      <!-- −2.5 -->
      <g transform="translate(94.294564 184.950172) scale(0.1 -0.1)">
       <defs>
        <path id="DejaVuSans-32" d="M 1228 531 
L 3431 531 
L 3431 0 
L 469 0 
L 469 531 
Q 828 903 1448 1529 
Q 2069 2156 2228 2338 
Q 2531 2678 2651 2914 
Q 2772 3150 2772 3378 
Q 2772 3750 2511 3984 
Q 2250 4219 1831 4219 
Q 1534 4219 1204 4116 
Q 875 4013 500 3803 
L 500 4441 
Q 881 4594 1212 4672 
Q 1544 4750 1819 4750 
Q 2544 4750 2975 4387 
Q 3406 4025 3406 3419 
Q 3406 3131 3298 2873 
Q 3191 2616 2906 2266 
Q 2828 2175 2409 1742 
Q 1991 1309 1228 531 
z
" transform="scale(0.015625)"/>
       </defs>
       <use xlink:href="#DejaVuSans-2212"/>
       <use xlink:href="#DejaVuSans-32" transform="translate(83.789062 0)"/>
       <use xlink:href="#DejaVuSans-2e" transform="translate(147.412109 0)"/>
       <use xlink:href="#DejaVuSans-35" transform="translate(179.199219 0)"/>
      </g>
     </g>
    </g>
    <g id="xtick_3">
     <g id="line2d_3">
      <g>
       <use xlink:href="#mdf2e59ccf4" x="142.600312" y="170.351735" style="stroke: #000000; stroke-width: 0.8"/>
      </g>
     </g>
     <g id="text_3">
      <!-- 0.0 -->
      <g transform="translate(134.64875 184.950172) scale(0.1 -0.1)">
       <use xlink:href="#DejaVuSans-30"/>
       <use xlink:href="#DejaVuSans-2e" transform="translate(63.623047 0)"/>
       <use xlink:href="#DejaVuSans-30" transform="translate(95.410156 0)"/>
      </g>
     </g>
    </g>
    <g id="xtick_4">
     <g id="line2d_4">
      <g>
       <use xlink:href="#mdf2e59ccf4" x="178.764655" y="170.351735" style="stroke: #000000; stroke-width: 0.8"/>
      </g>
     </g>
     <g id="text_4">
      <!-- 2.5 -->
      <g transform="translate(170.813093 184.950172) scale(0.1 -0.1)">
       <use xlink:href="#DejaVuSans-32"/>
       <use xlink:href="#DejaVuSans-2e" transform="translate(63.623047 0)"/>
       <use xlink:href="#DejaVuSans-35" transform="translate(95.410156 0)"/>
      </g>
     </g>
    </g>
    <g id="xtick_5">
     <g id="line2d_5">
      <g>
       <use xlink:href="#mdf2e59ccf4" x="214.928998" y="170.351735" style="stroke: #000000; stroke-width: 0.8"/>
      </g>
     </g>
     <g id="text_5">
      <!-- 5.0 -->
      <g transform="translate(206.977435 184.950172) scale(0.1 -0.1)">
       <use xlink:href="#DejaVuSans-35"/>
       <use xlink:href="#DejaVuSans-2e" transform="translate(63.623047 0)"/>
       <use xlink:href="#DejaVuSans-30" transform="translate(95.410156 0)"/>
      </g>
     </g>
    </g>
    <g id="text_6">
     <!-- x -->
     <g transform="translate(139.640937 198.628297) scale(0.1 -0.1)">
      <defs>
       <path id="DejaVuSans-78" d="M 3513 3500 
L 2247 1797 
L 3578 0 
L 2900 0 
L 1881 1375 
L 863 0 
L 184 0 
L 1544 1831 
L 300 3500 
L 978 3500 
L 1906 2253 
L 2834 3500 
L 3513 3500 
z
" transform="scale(0.015625)"/>
      </defs>
      <use xlink:href="#DejaVuSans-78"/>
     </g>
    </g>
   </g>
   <g id="matplotlib.axis_2">
    <g id="ytick_1">
     <g id="line2d_6">
      <defs>
       <path id="ma03319efca" d="M 0 0 
L -3.5 0 
" style="stroke: #000000; stroke-width: 0.8"/>
      </defs>
      <g>
       <use xlink:href="#ma03319efca" x="42.620313" y="167.478329" style="stroke: #000000; stroke-width: 0.8"/>
      </g>
     </g>
     <g id="text_7">
      <!-- −2 -->
      <g transform="translate(20.878125 171.277548) scale(0.1 -0.1)">
       <use xlink:href="#DejaVuSans-2212"/>
       <use xlink:href="#DejaVuSans-32" transform="translate(83.789062 0)"/>
      </g>
     </g>
    </g>
    <g id="ytick_2">
     <g id="line2d_7">
      <g>
       <use xlink:href="#ma03319efca" x="42.620313" y="128.358552" style="stroke: #000000; stroke-width: 0.8"/>
      </g>
     </g>
     <g id="text_8">
      <!-- −1 -->
      <g transform="translate(20.878125 132.15777) scale(0.1 -0.1)">
       <defs>
        <path id="DejaVuSans-31" d="M 794 531 
L 1825 531 
L 1825 4091 
L 703 3866 
L 703 4441 
L 1819 4666 
L 2450 4666 
L 2450 531 
L 3481 531 
L 3481 0 
L 794 0 
L 794 531 
z
" transform="scale(0.015625)"/>
       </defs>
       <use xlink:href="#DejaVuSans-2212"/>
       <use xlink:href="#DejaVuSans-31" transform="translate(83.789062 0)"/>
      </g>
     </g>
    </g>
    <g id="ytick_3">
     <g id="line2d_8">
      <g>
       <use xlink:href="#ma03319efca" x="42.620313" y="89.238774" style="stroke: #000000; stroke-width: 0.8"/>
      </g>
     </g>
     <g id="text_9">
      <!-- 0 -->
      <g transform="translate(29.257813 93.037993) scale(0.1 -0.1)">
       <use xlink:href="#DejaVuSans-30"/>
      </g>
     </g>
    </g>
    <g id="ytick_4">
     <g id="line2d_9">
      <g>
       <use xlink:href="#ma03319efca" x="42.620313" y="50.118996" style="stroke: #000000; stroke-width: 0.8"/>
      </g>
     </g>
     <g id="text_10">
      <!-- 1 -->
      <g transform="translate(29.257813 53.918215) scale(0.1 -0.1)">
       <use xlink:href="#DejaVuSans-31"/>
      </g>
     </g>
    </g>
    <g id="ytick_5">
     <g id="line2d_10">
      <g>
       <use xlink:href="#ma03319efca" x="42.620313" y="10.999219" style="stroke: #000000; stroke-width: 0.8"/>
      </g>
     </g>
     <g id="text_11">
      <!-- 2 -->
      <g transform="translate(29.257813 14.798438) scale(0.1 -0.1)">
       <use xlink:href="#DejaVuSans-32"/>
      </g>
     </g>
    </g>
    <g id="text_12">
     <!-- y -->
     <g transform="translate(14.798438 92.198149) rotate(-90) scale(0.1 -0.1)">
      <defs>
       <path id="DejaVuSans-79" d="M 2059 -325 
Q 1816 -950 1584 -1140 
Q 1353 -1331 966 -1331 
L 506 -1331 
L 506 -850 
L 844 -850 
Q 1081 -850 1212 -737 
Q 1344 -625 1503 -206 
L 1606 56 
L 191 3500 
L 800 3500 
L 1894 763 
L 2988 3500 
L 3597 3500 
L 2059 -325 
z
" transform="scale(0.015625)"/>
      </defs>
      <use xlink:href="#DejaVuSans-79"/>
     </g>
    </g>
   </g>
   <g id="line2d_11">
    <path d="M 51.709403 162.977829 
L 57.35028 143.53045 
L 60.443668 133.680899 
L 62.991157 126.315825 
L 65.174725 120.674637 
L 67.176329 116.128578 
L 68.995962 112.56355 
L 70.633638 109.845915 
L 72.089349 107.835879 
L 73.545055 106.216492 
L 74.818802 105.123552 
L 76.09255 104.333616 
L 77.184334 103.896328 
L 78.276118 103.677752 
L 79.367902 103.674092 
L 80.459679 103.880318 
L 81.551463 104.290223 
L 82.825211 105.015962 
L 84.098959 105.99521 
L 85.554667 107.404672 
L 87.192343 109.328933 
L 89.01198 111.838368 
L 91.195544 115.279218 
L 93.743037 119.734975 
L 98.110169 127.914835 
L 102.113373 135.233783 
L 104.478902 139.137387 
L 106.480502 142.050946 
L 108.300142 144.311815 
L 109.937814 145.980025 
L 111.393526 147.138918 
L 112.667271 147.883241 
L 113.941019 148.361328 
L 115.032801 148.55029 
L 116.124585 148.528894 
L 117.216367 148.292225 
L 118.308149 147.836574 
L 119.399931 147.159507 
L 120.673679 146.088222 
L 121.947426 144.714293 
L 123.403136 142.776983 
L 124.858846 140.45555 
L 126.49652 137.399303 
L 128.316157 133.477648 
L 130.31776 128.569638 
L 132.501325 122.577704 
L 135.048818 114.871829 
L 138.142202 104.721758 
L 142.873256 88.27926 
L 148.332169 69.490312 
L 151.425554 59.665948 
L 153.973046 52.328574 
L 156.156612 46.715477 
L 158.158215 42.1981 
L 159.977851 38.661109 
L 161.615525 35.969939 
L 163.071235 33.984111 
L 164.526946 32.389326 
L 165.800694 31.318041 
L 167.07444 30.549706 
L 168.166222 30.130761 
L 169.258004 29.930252 
L 170.349788 29.944294 
L 171.44157 30.167752 
L 172.533354 30.594307 
L 173.807099 31.33863 
L 175.080847 32.335412 
L 176.536555 33.763451 
L 178.174231 35.70653 
L 179.993867 38.233993 
L 182.177435 41.692131 
L 184.906892 46.493773 
L 190.18384 56.395629 
L 193.459189 62.277627 
L 195.824717 66.095593 
L 197.826318 68.914356 
L 199.463994 70.876121 
L 200.919702 72.322639 
L 202.375414 73.461586 
L 203.649162 74.187325 
L 204.92291 74.645928 
L 206.014687 74.817573 
L 207.106471 74.778409 
L 208.198255 74.52361 
L 209.290039 74.049588 
L 210.381823 73.353996 
L 211.65557 72.261056 
L 212.929312 70.865586 
L 214.385023 68.904001 
L 215.840735 66.558901 
L 217.478411 63.477054 
L 219.298044 59.528619 
L 221.299648 54.593645 
L 223.483216 48.575864 
L 226.030705 40.845315 
L 229.124093 30.674206 
L 233.491222 15.499719 
L 233.491222 15.499719 
" clip-path="url(#pe5a2b637c0)" style="fill: none; stroke: #ff7f0e; stroke-width: 1.5; stroke-linecap: square"/>
   </g>
   <g id="patch_3">
    <path d="M 42.620313 170.351735 
L 42.620313 8.125814 
" style="fill: none; stroke: #000000; stroke-width: 0.8; stroke-linejoin: miter; stroke-linecap: square"/>
   </g>
   <g id="patch_4">
    <path d="M 242.580312 170.351735 
L 242.580312 8.125814 
" style="fill: none; stroke: #000000; stroke-width: 0.8; stroke-linejoin: miter; stroke-linecap: square"/>
   </g>
   <g id="patch_5">
    <path d="M 42.620312 170.351735 
L 242.580312 170.351735 
" style="fill: none; stroke: #000000; stroke-width: 0.8; stroke-linejoin: miter; stroke-linecap: square"/>
   </g>
   <g id="patch_6">
    <path d="M 42.620312 8.125814 
L 242.580312 8.125814 
" style="fill: none; stroke: #000000; stroke-width: 0.8; stroke-linejoin: miter; stroke-linecap: square"/>
   </g>
   <g id="PathCollection_1">
    <defs>
     <path id="C0_0_16dc7822ae" d="M 0 1.732051 
C 0.459345 1.732051 0.899939 1.549551 1.224745 1.224745 
C 1.549551 0.899939 1.732051 0.459345 1.732051 -0 
C 1.732051 -0.459345 1.549551 -0.899939 1.224745 -1.224745 
C 0.899939 -1.549551 0.459345 -1.732051 0 -1.732051 
C -0.459345 -1.732051 -0.899939 -1.549551 -1.224745 -1.224745 
C -1.549551 -0.899939 -1.732051 -0.459345 -1.732051 0 
C -1.732051 0.459345 -1.549551 0.899939 -1.224745 1.224745 
C -0.899939 1.549551 -0.459345 1.732051 0 1.732051 
z
"/>
    </defs>
    <g clip-path="url(#pe5a2b637c0)">
     <use xlink:href="#C0_0_16dc7822ae" x="63.900977" y="123.883903" style="fill: none; stroke: #000000"/>
    </g>
    <g clip-path="url(#pe5a2b637c0)">
     <use xlink:href="#C0_0_16dc7822ae" x="68.813998" y="112.894652" style="fill: none; stroke: #000000"/>
    </g>
    <g clip-path="url(#pe5a2b637c0)">
     <use xlink:href="#C0_0_16dc7822ae" x="72.817205" y="106.976981" style="fill: none; stroke: #000000"/>
    </g>
    <g clip-path="url(#pe5a2b637c0)">
     <use xlink:href="#C0_0_16dc7822ae" x="77.730226" y="103.759911" style="fill: none; stroke: #000000"/>
    </g>
    <g clip-path="url(#pe5a2b637c0)">
     <use xlink:href="#C0_0_16dc7822ae" x="84.462887" y="106.319421" style="fill: none; stroke: #000000"/>
    </g>
    <g clip-path="url(#pe5a2b637c0)">
     <use xlink:href="#C0_0_16dc7822ae" x="110.483706" y="146.451812" style="fill: none; stroke: #000000"/>
    </g>
    <g clip-path="url(#pe5a2b637c0)">
     <use xlink:href="#C0_0_16dc7822ae" x="117.944221" y="148.012964" style="fill: none; stroke: #000000"/>
    </g>
    <g clip-path="url(#pe5a2b637c0)">
     <use xlink:href="#C0_0_16dc7822ae" x="142.873256" y="88.27926" style="fill: none; stroke: #000000"/>
    </g>
    <g clip-path="url(#pe5a2b637c0)">
     <use xlink:href="#C0_0_16dc7822ae" x="143.965038" y="84.446419" style="fill: none; stroke: #000000"/>
    </g>
    <g clip-path="url(#pe5a2b637c0)">
     <use xlink:href="#C0_0_16dc7822ae" x="150.515735" y="62.46364" style="fill: none; stroke: #000000"/>
    </g>
    <g clip-path="url(#pe5a2b637c0)">
     <use xlink:href="#C0_0_16dc7822ae" x="157.612323" y="43.366973" style="fill: none; stroke: #000000"/>
    </g>
    <g clip-path="url(#pe5a2b637c0)">
     <use xlink:href="#C0_0_16dc7822ae" x="161.797489" y="35.700565" style="fill: none; stroke: #000000"/>
    </g>
    <g clip-path="url(#pe5a2b637c0)">
     <use xlink:href="#C0_0_16dc7822ae" x="168.53015" y="30.039819" style="fill: none; stroke: #000000"/>
    </g>
    <g clip-path="url(#pe5a2b637c0)">
     <use xlink:href="#C0_0_16dc7822ae" x="171.805498" y="30.287714" style="fill: none; stroke: #000000"/>
    </g>
    <g clip-path="url(#pe5a2b637c0)">
     <use xlink:href="#C0_0_16dc7822ae" x="176.718519" y="33.962412" style="fill: none; stroke: #000000"/>
    </g>
    <g clip-path="url(#pe5a2b637c0)">
     <use xlink:href="#C0_0_16dc7822ae" x="178.538159" y="36.182774" style="fill: none; stroke: #000000"/>
    </g>
    <g clip-path="url(#pe5a2b637c0)">
     <use xlink:href="#C0_0_16dc7822ae" x="182.54136" y="42.305956" style="fill: none; stroke: #000000"/>
    </g>
    <g clip-path="url(#pe5a2b637c0)">
     <use xlink:href="#C0_0_16dc7822ae" x="184.906892" y="46.493773" style="fill: none; stroke: #000000"/>
    </g>
    <g clip-path="url(#pe5a2b637c0)">
     <use xlink:href="#C0_0_16dc7822ae" x="185.998672" y="48.51253" style="fill: none; stroke: #000000"/>
    </g>
    <g clip-path="url(#pe5a2b637c0)">
     <use xlink:href="#C0_0_16dc7822ae" x="185.998672" y="48.51253" style="fill: none; stroke: #000000"/>
    </g>
    <g clip-path="url(#pe5a2b637c0)">
     <use xlink:href="#C0_0_16dc7822ae" x="204.377018" y="74.482885" style="fill: none; stroke: #000000"/>
    </g>
    <g clip-path="url(#pe5a2b637c0)">
     <use xlink:href="#C0_0_16dc7822ae" x="209.290039" y="74.049588" style="fill: none; stroke: #000000"/>
    </g>
    <g clip-path="url(#pe5a2b637c0)">
     <use xlink:href="#C0_0_16dc7822ae" x="224.029108" y="46.978659" style="fill: none; stroke: #000000"/>
    </g>
    <g clip-path="url(#pe5a2b637c0)">
     <use xlink:href="#C0_0_16dc7822ae" x="227.486417" y="36.14784" style="fill: none; stroke: #000000"/>
    </g>
   </g>
   <g id="legend_1">
    <g id="patch_7">
     <path d="M 49.620313 45.482064 
L 104.145313 45.482064 
Q 106.145313 45.482064 106.145313 43.482064 
L 106.145313 15.125814 
Q 106.145313 13.125814 104.145313 13.125814 
L 49.620313 13.125814 
Q 47.620313 13.125814 47.620313 15.125814 
L 47.620313 43.482064 
Q 47.620313 45.482064 49.620313 45.482064 
z
" style="fill: #ffffff; opacity: 0.8; stroke: #cccccc; stroke-linejoin: miter"/>
    </g>
    <g id="PathCollection_2">
     <path d="M 61.620313 23.831302 
C 62.079658 23.831302 62.520251 23.648802 62.845057 23.323996 
C 63.169864 22.99919 63.352363 22.558596 63.352363 22.099251 
C 63.352363 21.639906 63.169864 21.199312 62.845057 20.874506 
C 62.520251 20.5497 62.079658 20.3672 61.620313 20.3672 
C 61.160967 20.3672 60.720374 20.5497 60.395568 20.874506 
C 60.070761 21.199312 59.888262 21.639906 59.888262 22.099251 
C 59.888262 22.558596 60.070761 22.99919 60.395568 23.323996 
C 60.720374 23.648802 61.160967 23.831302 61.620313 23.831302 
L 61.620313 23.831302 
z
" style="fill: none; stroke: #000000"/>
    </g>
    <g id="text_13">
     <!-- data -->
     <g transform="translate(79.620313 24.724251) scale(0.1 -0.1)">
      <defs>
       <path id="DejaVuSans-64" d="M 2906 2969 
L 2906 4863 
L 3481 4863 
L 3481 0 
L 2906 0 
L 2906 525 
Q 2725 213 2448 61 
Q 2172 -91 1784 -91 
Q 1150 -91 751 415 
Q 353 922 353 1747 
Q 353 2572 751 3078 
Q 1150 3584 1784 3584 
Q 2172 3584 2448 3432 
Q 2725 3281 2906 2969 
z
M 947 1747 
Q 947 1113 1208 752 
Q 1469 391 1925 391 
Q 2381 391 2643 752 
Q 2906 1113 2906 1747 
Q 2906 2381 2643 2742 
Q 2381 3103 1925 3103 
Q 1469 3103 1208 2742 
Q 947 2381 947 1747 
z
" transform="scale(0.015625)"/>
       <path id="DejaVuSans-61" d="M 2194 1759 
Q 1497 1759 1228 1600 
Q 959 1441 959 1056 
Q 959 750 1161 570 
Q 1363 391 1709 391 
Q 2188 391 2477 730 
Q 2766 1069 2766 1631 
L 2766 1759 
L 2194 1759 
z
M 3341 1997 
L 3341 0 
L 2766 0 
L 2766 531 
Q 2569 213 2275 61 
Q 1981 -91 1556 -91 
Q 1019 -91 701 211 
Q 384 513 384 1019 
Q 384 1609 779 1909 
Q 1175 2209 1959 2209 
L 2766 2209 
L 2766 2266 
Q 2766 2663 2505 2880 
Q 2244 3097 1772 3097 
Q 1472 3097 1187 3025 
Q 903 2953 641 2809 
L 641 3341 
Q 956 3463 1253 3523 
Q 1550 3584 1831 3584 
Q 2591 3584 2966 3190 
Q 3341 2797 3341 1997 
z
" transform="scale(0.015625)"/>
       <path id="DejaVuSans-74" d="M 1172 4494 
L 1172 3500 
L 2356 3500 
L 2356 3053 
L 1172 3053 
L 1172 1153 
Q 1172 725 1289 603 
Q 1406 481 1766 481 
L 2356 481 
L 2356 0 
L 1766 0 
Q 1100 0 847 248 
Q 594 497 594 1153 
L 594 3053 
L 172 3053 
L 172 3500 
L 594 3500 
L 594 4494 
L 1172 4494 
z
" transform="scale(0.015625)"/>
      </defs>
      <use xlink:href="#DejaVuSans-64"/>
      <use xlink:href="#DejaVuSans-61" transform="translate(63.476562 0)"/>
      <use xlink:href="#DejaVuSans-74" transform="translate(124.755859 0)"/>
      <use xlink:href="#DejaVuSans-61" transform="translate(163.964844 0)"/>
     </g>
    </g>
    <g id="line2d_12">
     <path d="M 51.620313 35.902376 
L 61.620313 35.902376 
L 71.620313 35.902376 
" style="fill: none; stroke: #ff7f0e; stroke-width: 1.5; stroke-linecap: square"/>
    </g>
    <g id="text_14">
     <!-- f -->
     <g transform="translate(79.620313 39.402376) scale(0.1 -0.1)">
      <defs>
       <path id="DejaVuSans-66" d="M 2375 4863 
L 2375 4384 
L 1825 4384 
Q 1516 4384 1395 4259 
Q 1275 4134 1275 3809 
L 1275 3500 
L 2222 3500 
L 2222 3053 
L 1275 3053 
L 1275 0 
L 697 0 
L 697 3053 
L 147 3053 
L 147 3500 
L 697 3500 
L 697 3744 
Q 697 4328 969 4595 
Q 1241 4863 1831 4863 
L 2375 4863 
z
" transform="scale(0.015625)"/>
      </defs>
      <use xlink:href="#DejaVuSans-66"/>
     </g>
    </g>
   </g>
  </g>
  <g id="axes_2">
   <g id="patch_8">
    <path d="M 289.220312 170.351735 
L 489.180312 170.351735 
L 489.180312 8.125814 
L 289.220312 8.125814 
z
" style="fill: #ffffff"/>
   </g>
   <g id="matplotlib.axis_3">
    <g id="xtick_6">
     <g id="line2d_13">
      <g>
       <use xlink:href="#mdf2e59ccf4" x="316.871627" y="170.351735" style="stroke: #000000; stroke-width: 0.8"/>
      </g>
     </g>
     <g id="text_15">
      <!-- −5.0 -->
      <g transform="translate(304.730221 184.950172) scale(0.1 -0.1)">
       <use xlink:href="#DejaVuSans-2212"/>
       <use xlink:href="#DejaVuSans-35" transform="translate(83.789062 0)"/>
       <use xlink:href="#DejaVuSans-2e" transform="translate(147.412109 0)"/>
       <use xlink:href="#DejaVuSans-30" transform="translate(179.199219 0)"/>
      </g>
     </g>
    </g>
    <g id="xtick_7">
     <g id="line2d_14">
      <g>
       <use xlink:href="#mdf2e59ccf4" x="353.03597" y="170.351735" style="stroke: #000000; stroke-width: 0.8"/>
      </g>
     </g>
     <g id="text_16">
      <!-- −2.5 -->
      <g transform="translate(340.894564 184.950172) scale(0.1 -0.1)">
       <use xlink:href="#DejaVuSans-2212"/>
       <use xlink:href="#DejaVuSans-32" transform="translate(83.789062 0)"/>
       <use xlink:href="#DejaVuSans-2e" transform="translate(147.412109 0)"/>
       <use xlink:href="#DejaVuSans-35" transform="translate(179.199219 0)"/>
      </g>
     </g>
    </g>
    <g id="xtick_8">
     <g id="line2d_15">
      <g>
       <use xlink:href="#mdf2e59ccf4" x="389.200312" y="170.351735" style="stroke: #000000; stroke-width: 0.8"/>
      </g>
     </g>
     <g id="text_17">
      <!-- 0.0 -->
      <g transform="translate(381.24875 184.950172) scale(0.1 -0.1)">
       <use xlink:href="#DejaVuSans-30"/>
       <use xlink:href="#DejaVuSans-2e" transform="translate(63.623047 0)"/>
       <use xlink:href="#DejaVuSans-30" transform="translate(95.410156 0)"/>
      </g>
     </g>
    </g>
    <g id="xtick_9">
     <g id="line2d_16">
      <g>
       <use xlink:href="#mdf2e59ccf4" x="425.364655" y="170.351735" style="stroke: #000000; stroke-width: 0.8"/>
      </g>
     </g>
     <g id="text_18">
      <!-- 2.5 -->
      <g transform="translate(417.413093 184.950172) scale(0.1 -0.1)">
       <use xlink:href="#DejaVuSans-32"/>
       <use xlink:href="#DejaVuSans-2e" transform="translate(63.623047 0)"/>
       <use xlink:href="#DejaVuSans-35" transform="translate(95.410156 0)"/>
      </g>
     </g>
    </g>
    <g id="xtick_10">
     <g id="line2d_17">
      <g>
       <use xlink:href="#mdf2e59ccf4" x="461.528998" y="170.351735" style="stroke: #000000; stroke-width: 0.8"/>
      </g>
     </g>
     <g id="text_19">
      <!-- 5.0 -->
      <g transform="translate(453.577435 184.950172) scale(0.1 -0.1)">
       <use xlink:href="#DejaVuSans-35"/>
       <use xlink:href="#DejaVuSans-2e" transform="translate(63.623047 0)"/>
       <use xlink:href="#DejaVuSans-30" transform="translate(95.410156 0)"/>
      </g>
     </g>
    </g>
    <g id="text_20">
     <!-- x -->
     <g transform="translate(386.240937 198.628297) scale(0.1 -0.1)">
      <use xlink:href="#DejaVuSans-78"/>
     </g>
    </g>
   </g>
   <g id="matplotlib.axis_4">
    <g id="ytick_6">
     <g id="line2d_18">
      <g>
       <use xlink:href="#ma03319efca" x="289.220312" y="167.478329" style="stroke: #000000; stroke-width: 0.8"/>
      </g>
     </g>
     <g id="text_21">
      <!-- −2 -->
      <g transform="translate(267.478125 171.277548) scale(0.1 -0.1)">
       <use xlink:href="#DejaVuSans-2212"/>
       <use xlink:href="#DejaVuSans-32" transform="translate(83.789062 0)"/>
      </g>
     </g>
    </g>
    <g id="ytick_7">
     <g id="line2d_19">
      <g>
       <use xlink:href="#ma03319efca" x="289.220312" y="128.358552" style="stroke: #000000; stroke-width: 0.8"/>
      </g>
     </g>
     <g id="text_22">
      <!-- −1 -->
      <g transform="translate(267.478125 132.15777) scale(0.1 -0.1)">
       <use xlink:href="#DejaVuSans-2212"/>
       <use xlink:href="#DejaVuSans-31" transform="translate(83.789062 0)"/>
      </g>
     </g>
    </g>
    <g id="ytick_8">
     <g id="line2d_20">
      <g>
       <use xlink:href="#ma03319efca" x="289.220312" y="89.238774" style="stroke: #000000; stroke-width: 0.8"/>
      </g>
     </g>
     <g id="text_23">
      <!-- 0 -->
      <g transform="translate(275.857812 93.037993) scale(0.1 -0.1)">
       <use xlink:href="#DejaVuSans-30"/>
      </g>
     </g>
    </g>
    <g id="ytick_9">
     <g id="line2d_21">
      <g>
       <use xlink:href="#ma03319efca" x="289.220312" y="50.118996" style="stroke: #000000; stroke-width: 0.8"/>
      </g>
     </g>
     <g id="text_24">
      <!-- 1 -->
      <g transform="translate(275.857812 53.918215) scale(0.1 -0.1)">
       <use xlink:href="#DejaVuSans-31"/>
      </g>
     </g>
    </g>
    <g id="ytick_10">
     <g id="line2d_22">
      <g>
       <use xlink:href="#ma03319efca" x="289.220312" y="10.999219" style="stroke: #000000; stroke-width: 0.8"/>
      </g>
     </g>
     <g id="text_25">
      <!-- 2 -->
      <g transform="translate(275.857812 14.798438) scale(0.1 -0.1)">
       <use xlink:href="#DejaVuSans-32"/>
      </g>
     </g>
    </g>
    <g id="text_26">
     <!-- y -->
     <g transform="translate(261.398438 92.198149) rotate(-90) scale(0.1 -0.1)">
      <use xlink:href="#DejaVuSans-79"/>
     </g>
    </g>
   </g>
   <g id="line2d_23">
    <path d="M 298.309403 162.977829 
L 303.95028 143.53045 
L 307.043668 133.680899 
L 309.591157 126.315825 
L 311.774725 120.674637 
L 313.776329 116.128578 
L 315.595962 112.56355 
L 317.233638 109.845915 
L 318.689349 107.835879 
L 320.145055 106.216492 
L 321.418802 105.123552 
L 322.69255 104.333616 
L 323.784334 103.896328 
L 324.876118 103.677752 
L 325.967902 103.674092 
L 327.059679 103.880318 
L 328.151463 104.290223 
L 329.425211 105.015962 
L 330.698959 105.99521 
L 332.154667 107.404672 
L 333.792343 109.328933 
L 335.61198 111.838368 
L 337.795544 115.279218 
L 340.343037 119.734975 
L 344.710169 127.914835 
L 348.713373 135.233783 
L 351.078902 139.137387 
L 353.080502 142.050946 
L 354.900142 144.311815 
L 356.537814 145.980025 
L 357.993526 147.138918 
L 359.267271 147.883241 
L 360.541019 148.361328 
L 361.632801 148.55029 
L 362.724585 148.528894 
L 363.816367 148.292225 
L 364.908149 147.836574 
L 365.999931 147.159507 
L 367.273679 146.088222 
L 368.547426 144.714293 
L 370.003136 142.776983 
L 371.458846 140.45555 
L 373.09652 137.399303 
L 374.916157 133.477648 
L 376.91776 128.569638 
L 379.101325 122.577704 
L 381.648818 114.871829 
L 384.742202 104.721758 
L 389.473256 88.27926 
L 394.932169 69.490312 
L 398.025554 59.665948 
L 400.573046 52.328574 
L 402.756612 46.715477 
L 404.758215 42.1981 
L 406.577851 38.661109 
L 408.215525 35.969939 
L 409.671235 33.984111 
L 411.126946 32.389326 
L 412.400694 31.318041 
L 413.67444 30.549706 
L 414.766222 30.130761 
L 415.858004 29.930252 
L 416.949788 29.944294 
L 418.04157 30.167752 
L 419.133354 30.594307 
L 420.407099 31.33863 
L 421.680847 32.335412 
L 423.136555 33.763451 
L 424.774231 35.70653 
L 426.593867 38.233993 
L 428.777435 41.692131 
L 431.506892 46.493773 
L 436.78384 56.395629 
L 440.059189 62.277627 
L 442.424717 66.095593 
L 444.426318 68.914356 
L 446.063994 70.876121 
L 447.519702 72.322639 
L 448.975414 73.461586 
L 450.249162 74.187325 
L 451.52291 74.645928 
L 452.614687 74.817573 
L 453.706471 74.778409 
L 454.798255 74.52361 
L 455.890039 74.049588 
L 456.981823 73.353996 
L 458.25557 72.261056 
L 459.529312 70.865586 
L 460.985023 68.904001 
L 462.440735 66.558901 
L 464.078411 63.477054 
L 465.898044 59.528619 
L 467.899648 54.593645 
L 470.083216 48.575864 
L 472.630705 40.845315 
L 475.724093 30.674206 
L 480.091222 15.499719 
L 480.091222 15.499719 
" clip-path="url(#pcf5405af50)" style="fill: none; stroke: #ff7f0e; stroke-width: 1.5; stroke-linecap: square"/>
   </g>
   <g id="patch_9">
    <path d="M 289.220312 170.351735 
L 289.220312 8.125814 
" style="fill: none; stroke: #000000; stroke-width: 0.8; stroke-linejoin: miter; stroke-linecap: square"/>
   </g>
   <g id="patch_10">
    <path d="M 489.180312 170.351735 
L 489.180312 8.125814 
" style="fill: none; stroke: #000000; stroke-width: 0.8; stroke-linejoin: miter; stroke-linecap: square"/>
   </g>
   <g id="patch_11">
    <path d="M 289.220312 170.351735 
L 489.180313 170.351735 
" style="fill: none; stroke: #000000; stroke-width: 0.8; stroke-linejoin: miter; stroke-linecap: square"/>
   </g>
   <g id="patch_12">
    <path d="M 289.220312 8.125814 
L 489.180313 8.125814 
" style="fill: none; stroke: #000000; stroke-width: 0.8; stroke-linejoin: miter; stroke-linecap: square"/>
   </g>
   <g id="line2d_24">
    <path d="M 298.309403 123.883903 
L 310.500977 123.883903 
L 315.595962 112.625667 
L 319.599169 106.85783 
L 324.330226 103.759911 
L 331.062887 106.319421 
L 357.083706 146.451807 
L 364.544221 148.012959 
L 389.655219 87.64046 
L 393.112531 75.897558 
L 397.661626 60.994651 
L 404.576251 42.700315 
L 408.579453 35.547558 
L 415.13015 30.039833 
L 418.405498 30.287695 
L 423.500483 34.184448 
L 425.684051 37.017754 
L 429.869216 43.594497 
L 433.326528 49.541047 
L 450.977018 74.482913 
L 455.890039 74.049583 
L 470.629108 46.978654 
L 474.086417 36.147873 
L 480.091222 36.147836 
L 480.091222 36.147836 
" clip-path="url(#pcf5405af50)" style="fill: none; stroke: #1f77b4; stroke-width: 1.5; stroke-linecap: square"/>
   </g>
   <g id="PathCollection_3">
    <defs>
     <path id="C1_0_d418cd1784" d="M 0 1.732051 
C 0.459345 1.732051 0.899939 1.549551 1.224745 1.224745 
C 1.549551 0.899939 1.732051 0.459345 1.732051 -0 
C 1.732051 -0.459345 1.549551 -0.899939 1.224745 -1.224745 
C 0.899939 -1.549551 0.459345 -1.732051 0 -1.732051 
C -0.459345 -1.732051 -0.899939 -1.549551 -1.224745 -1.224745 
C -1.549551 -0.899939 -1.732051 -0.459345 -1.732051 0 
C -1.732051 0.459345 -1.549551 0.899939 -1.224745 1.224745 
C -0.899939 1.549551 -0.459345 1.732051 0 1.732051 
z
"/>
    </defs>
    <g clip-path="url(#pcf5405af50)">
     <use xlink:href="#C1_0_d418cd1784" x="310.500977" y="123.883903" style="fill: none; stroke: #000000"/>
    </g>
    <g clip-path="url(#pcf5405af50)">
     <use xlink:href="#C1_0_d418cd1784" x="315.413998" y="112.894652" style="fill: none; stroke: #000000"/>
    </g>
    <g clip-path="url(#pcf5405af50)">
     <use xlink:href="#C1_0_d418cd1784" x="319.417205" y="106.976981" style="fill: none; stroke: #000000"/>
    </g>
    <g clip-path="url(#pcf5405af50)">
     <use xlink:href="#C1_0_d418cd1784" x="324.330226" y="103.759911" style="fill: none; stroke: #000000"/>
    </g>
    <g clip-path="url(#pcf5405af50)">
     <use xlink:href="#C1_0_d418cd1784" x="331.062887" y="106.319421" style="fill: none; stroke: #000000"/>
    </g>
    <g clip-path="url(#pcf5405af50)">
     <use xlink:href="#C1_0_d418cd1784" x="357.083706" y="146.451812" style="fill: none; stroke: #000000"/>
    </g>
    <g clip-path="url(#pcf5405af50)">
     <use xlink:href="#C1_0_d418cd1784" x="364.544221" y="148.012964" style="fill: none; stroke: #000000"/>
    </g>
    <g clip-path="url(#pcf5405af50)">
     <use xlink:href="#C1_0_d418cd1784" x="389.473256" y="88.27926" style="fill: none; stroke: #000000"/>
    </g>
    <g clip-path="url(#pcf5405af50)">
     <use xlink:href="#C1_0_d418cd1784" x="390.565038" y="84.446419" style="fill: none; stroke: #000000"/>
    </g>
    <g clip-path="url(#pcf5405af50)">
     <use xlink:href="#C1_0_d418cd1784" x="397.115735" y="62.46364" style="fill: none; stroke: #000000"/>
    </g>
    <g clip-path="url(#pcf5405af50)">
     <use xlink:href="#C1_0_d418cd1784" x="404.212323" y="43.366973" style="fill: none; stroke: #000000"/>
    </g>
    <g clip-path="url(#pcf5405af50)">
     <use xlink:href="#C1_0_d418cd1784" x="408.397489" y="35.700565" style="fill: none; stroke: #000000"/>
    </g>
    <g clip-path="url(#pcf5405af50)">
     <use xlink:href="#C1_0_d418cd1784" x="415.13015" y="30.039819" style="fill: none; stroke: #000000"/>
    </g>
    <g clip-path="url(#pcf5405af50)">
     <use xlink:href="#C1_0_d418cd1784" x="418.405498" y="30.287714" style="fill: none; stroke: #000000"/>
    </g>
    <g clip-path="url(#pcf5405af50)">
     <use xlink:href="#C1_0_d418cd1784" x="423.318519" y="33.962412" style="fill: none; stroke: #000000"/>
    </g>
    <g clip-path="url(#pcf5405af50)">
     <use xlink:href="#C1_0_d418cd1784" x="425.138159" y="36.182774" style="fill: none; stroke: #000000"/>
    </g>
    <g clip-path="url(#pcf5405af50)">
     <use xlink:href="#C1_0_d418cd1784" x="429.14136" y="42.305956" style="fill: none; stroke: #000000"/>
    </g>
    <g clip-path="url(#pcf5405af50)">
     <use xlink:href="#C1_0_d418cd1784" x="431.506892" y="46.493773" style="fill: none; stroke: #000000"/>
    </g>
    <g clip-path="url(#pcf5405af50)">
     <use xlink:href="#C1_0_d418cd1784" x="432.598672" y="48.51253" style="fill: none; stroke: #000000"/>
    </g>
    <g clip-path="url(#pcf5405af50)">
     <use xlink:href="#C1_0_d418cd1784" x="432.598672" y="48.51253" style="fill: none; stroke: #000000"/>
    </g>
    <g clip-path="url(#pcf5405af50)">
     <use xlink:href="#C1_0_d418cd1784" x="450.977018" y="74.482885" style="fill: none; stroke: #000000"/>
    </g>
    <g clip-path="url(#pcf5405af50)">
     <use xlink:href="#C1_0_d418cd1784" x="455.890039" y="74.049588" style="fill: none; stroke: #000000"/>
    </g>
    <g clip-path="url(#pcf5405af50)">
     <use xlink:href="#C1_0_d418cd1784" x="470.629108" y="46.978659" style="fill: none; stroke: #000000"/>
    </g>
    <g clip-path="url(#pcf5405af50)">
     <use xlink:href="#C1_0_d418cd1784" x="474.086417" y="36.14784" style="fill: none; stroke: #000000"/>
    </g>
   </g>
   <g id="legend_2">
    <g id="patch_13">
     <path d="M 385.76 166.601735 
L 483.930313 166.601735 
Q 485.430313 166.601735 485.430313 165.101735 
L 485.430313 143.834547 
Q 485.430313 142.334547 483.930313 142.334547 
L 385.76 142.334547 
Q 384.26 142.334547 384.26 143.834547 
L 384.26 165.101735 
Q 384.26 166.601735 385.76 166.601735 
z
" style="fill: #ffffff; opacity: 0.8; stroke: #cccccc; stroke-linejoin: miter"/>
    </g>
    <g id="PathCollection_4">
     <path d="M 394.76 150.796676 
C 395.219345 150.796676 395.659939 150.614176 395.984745 150.28937 
C 396.309551 149.964564 396.492051 149.52397 396.492051 149.064625 
C 396.492051 148.60528 396.309551 148.164686 395.984745 147.83988 
C 395.659939 147.515074 395.219345 147.332574 394.76 147.332574 
C 394.300655 147.332574 393.860061 147.515074 393.535255 147.83988 
C 393.210449 148.164686 393.027949 148.60528 393.027949 149.064625 
C 393.027949 149.52397 393.210449 149.964564 393.535255 150.28937 
C 393.860061 150.614176 394.300655 150.796676 394.76 150.796676 
L 394.76 150.796676 
z
" style="fill: none; stroke: #000000"/>
    </g>
    <g id="text_27">
     <!-- data -->
     <g transform="translate(408.26 151.033375) scale(0.075 -0.075)">
      <use xlink:href="#DejaVuSans-64"/>
      <use xlink:href="#DejaVuSans-61" transform="translate(63.476562 0)"/>
      <use xlink:href="#DejaVuSans-74" transform="translate(124.755859 0)"/>
      <use xlink:href="#DejaVuSans-61" transform="translate(163.964844 0)"/>
     </g>
    </g>
    <g id="line2d_25">
     <path d="M 387.26 159.416969 
L 394.76 159.416969 
L 402.26 159.416969 
" style="fill: none; stroke: #1f77b4; stroke-width: 1.5; stroke-linecap: square"/>
    </g>
    <g id="text_28">
     <!-- relu approx. (B=24) -->
     <g transform="translate(408.26 162.041969) scale(0.075 -0.075)">
      <defs>
       <path id="DejaVuSans-72" d="M 2631 2963 
Q 2534 3019 2420 3045 
Q 2306 3072 2169 3072 
Q 1681 3072 1420 2755 
Q 1159 2438 1159 1844 
L 1159 0 
L 581 0 
L 581 3500 
L 1159 3500 
L 1159 2956 
Q 1341 3275 1631 3429 
Q 1922 3584 2338 3584 
Q 2397 3584 2469 3576 
Q 2541 3569 2628 3553 
L 2631 2963 
z
" transform="scale(0.015625)"/>
       <path id="DejaVuSans-65" d="M 3597 1894 
L 3597 1613 
L 953 1613 
Q 991 1019 1311 708 
Q 1631 397 2203 397 
Q 2534 397 2845 478 
Q 3156 559 3463 722 
L 3463 178 
Q 3153 47 2828 -22 
Q 2503 -91 2169 -91 
Q 1331 -91 842 396 
Q 353 884 353 1716 
Q 353 2575 817 3079 
Q 1281 3584 2069 3584 
Q 2775 3584 3186 3129 
Q 3597 2675 3597 1894 
z
M 3022 2063 
Q 3016 2534 2758 2815 
Q 2500 3097 2075 3097 
Q 1594 3097 1305 2825 
Q 1016 2553 972 2059 
L 3022 2063 
z
" transform="scale(0.015625)"/>
       <path id="DejaVuSans-6c" d="M 603 4863 
L 1178 4863 
L 1178 0 
L 603 0 
L 603 4863 
z
" transform="scale(0.015625)"/>
       <path id="DejaVuSans-75" d="M 544 1381 
L 544 3500 
L 1119 3500 
L 1119 1403 
Q 1119 906 1312 657 
Q 1506 409 1894 409 
Q 2359 409 2629 706 
Q 2900 1003 2900 1516 
L 2900 3500 
L 3475 3500 
L 3475 0 
L 2900 0 
L 2900 538 
Q 2691 219 2414 64 
Q 2138 -91 1772 -91 
Q 1169 -91 856 284 
Q 544 659 544 1381 
z
M 1991 3584 
L 1991 3584 
z
" transform="scale(0.015625)"/>
       <path id="DejaVuSans-20" transform="scale(0.015625)"/>
       <path id="DejaVuSans-70" d="M 1159 525 
L 1159 -1331 
L 581 -1331 
L 581 3500 
L 1159 3500 
L 1159 2969 
Q 1341 3281 1617 3432 
Q 1894 3584 2278 3584 
Q 2916 3584 3314 3078 
Q 3713 2572 3713 1747 
Q 3713 922 3314 415 
Q 2916 -91 2278 -91 
Q 1894 -91 1617 61 
Q 1341 213 1159 525 
z
M 3116 1747 
Q 3116 2381 2855 2742 
Q 2594 3103 2138 3103 
Q 1681 3103 1420 2742 
Q 1159 2381 1159 1747 
Q 1159 1113 1420 752 
Q 1681 391 2138 391 
Q 2594 391 2855 752 
Q 3116 1113 3116 1747 
z
" transform="scale(0.015625)"/>
       <path id="DejaVuSans-6f" d="M 1959 3097 
Q 1497 3097 1228 2736 
Q 959 2375 959 1747 
Q 959 1119 1226 758 
Q 1494 397 1959 397 
Q 2419 397 2687 759 
Q 2956 1122 2956 1747 
Q 2956 2369 2687 2733 
Q 2419 3097 1959 3097 
z
M 1959 3584 
Q 2709 3584 3137 3096 
Q 3566 2609 3566 1747 
Q 3566 888 3137 398 
Q 2709 -91 1959 -91 
Q 1206 -91 779 398 
Q 353 888 353 1747 
Q 353 2609 779 3096 
Q 1206 3584 1959 3584 
z
" transform="scale(0.015625)"/>
       <path id="DejaVuSans-28" d="M 1984 4856 
Q 1566 4138 1362 3434 
Q 1159 2731 1159 2009 
Q 1159 1288 1364 580 
Q 1569 -128 1984 -844 
L 1484 -844 
Q 1016 -109 783 600 
Q 550 1309 550 2009 
Q 550 2706 781 3412 
Q 1013 4119 1484 4856 
L 1984 4856 
z
" transform="scale(0.015625)"/>
       <path id="DejaVuSans-42" d="M 1259 2228 
L 1259 519 
L 2272 519 
Q 2781 519 3026 730 
Q 3272 941 3272 1375 
Q 3272 1813 3026 2020 
Q 2781 2228 2272 2228 
L 1259 2228 
z
M 1259 4147 
L 1259 2741 
L 2194 2741 
Q 2656 2741 2882 2914 
Q 3109 3088 3109 3444 
Q 3109 3797 2882 3972 
Q 2656 4147 2194 4147 
L 1259 4147 
z
M 628 4666 
L 2241 4666 
Q 2963 4666 3353 4366 
Q 3744 4066 3744 3513 
Q 3744 3084 3544 2831 
Q 3344 2578 2956 2516 
Q 3422 2416 3680 2098 
Q 3938 1781 3938 1306 
Q 3938 681 3513 340 
Q 3088 0 2303 0 
L 628 0 
L 628 4666 
z
" transform="scale(0.015625)"/>
       <path id="DejaVuSans-3d" d="M 678 2906 
L 4684 2906 
L 4684 2381 
L 678 2381 
L 678 2906 
z
M 678 1631 
L 4684 1631 
L 4684 1100 
L 678 1100 
L 678 1631 
z
" transform="scale(0.015625)"/>
       <path id="DejaVuSans-34" d="M 2419 4116 
L 825 1625 
L 2419 1625 
L 2419 4116 
z
M 2253 4666 
L 3047 4666 
L 3047 1625 
L 3713 1625 
L 3713 1100 
L 3047 1100 
L 3047 0 
L 2419 0 
L 2419 1100 
L 313 1100 
L 313 1709 
L 2253 4666 
z
" transform="scale(0.015625)"/>
       <path id="DejaVuSans-29" d="M 513 4856 
L 1013 4856 
Q 1481 4119 1714 3412 
Q 1947 2706 1947 2009 
Q 1947 1309 1714 600 
Q 1481 -109 1013 -844 
L 513 -844 
Q 928 -128 1133 580 
Q 1338 1288 1338 2009 
Q 1338 2731 1133 3434 
Q 928 4138 513 4856 
z
" transform="scale(0.015625)"/>
      </defs>
      <use xlink:href="#DejaVuSans-72"/>
      <use xlink:href="#DejaVuSans-65" transform="translate(38.863281 0)"/>
      <use xlink:href="#DejaVuSans-6c" transform="translate(100.386719 0)"/>
      <use xlink:href="#DejaVuSans-75" transform="translate(128.169922 0)"/>
      <use xlink:href="#DejaVuSans-20" transform="translate(191.548828 0)"/>
      <use xlink:href="#DejaVuSans-61" transform="translate(223.335938 0)"/>
      <use xlink:href="#DejaVuSans-70" transform="translate(284.615234 0)"/>
      <use xlink:href="#DejaVuSans-70" transform="translate(348.091797 0)"/>
      <use xlink:href="#DejaVuSans-72" transform="translate(411.568359 0)"/>
      <use xlink:href="#DejaVuSans-6f" transform="translate(450.431641 0)"/>
      <use xlink:href="#DejaVuSans-78" transform="translate(508.488281 0)"/>
      <use xlink:href="#DejaVuSans-2e" transform="translate(567.667969 0)"/>
      <use xlink:href="#DejaVuSans-20" transform="translate(599.455078 0)"/>
      <use xlink:href="#DejaVuSans-28" transform="translate(631.242188 0)"/>
      <use xlink:href="#DejaVuSans-42" transform="translate(670.255859 0)"/>
      <use xlink:href="#DejaVuSans-3d" transform="translate(738.859375 0)"/>
      <use xlink:href="#DejaVuSans-32" transform="translate(822.648438 0)"/>
      <use xlink:href="#DejaVuSans-34" transform="translate(886.271484 0)"/>
      <use xlink:href="#DejaVuSans-29" transform="translate(949.894531 0)"/>
     </g>
    </g>
   </g>
  </g>
 </g>
 <defs>
  <clipPath id="pe5a2b637c0">
   <rect x="42.620313" y="8.125814" width="199.96" height="162.225921"/>
  </clipPath>
  <clipPath id="pcf5405af50">
   <rect x="289.220312" y="8.125814" width="199.96" height="162.225921"/>
  </clipPath>
 </defs>
</svg>
