<?xml version="1.0" encoding="utf-8" standalone="no"?>
<!DOCTYPE svg PUBLIC "-//W3C//DTD SVG 1.1//EN"
  "http://www.w3.org/Graphics/SVG/1.1/DTD/svg11.dtd">
<svg xmlns:xlink="http://www.w3.org/1999/xlink" width="393.262187pt" height="297.190125pt" viewBox="0 0 393.262187 297.190125" xmlns="http://www.w3.org/2000/svg" version="1.1">
 <metadata>
  <rdf:RDF xmlns:dc="http://purl.org/dc/elements/1.1/" xmlns:cc="http://creativecommons.org/ns#" xmlns:rdf="http://www.w3.org/1999/02/22-rdf-syntax-ns#">
   <cc:Work>
    <dc:type rdf:resource="http://purl.org/dc/dcmitype/StillImage"/>
    <dc:date>2025-07-17T11:18:15.293148</dc:date>
    <dc:format>image/svg+xml</dc:format>
    <dc:creator>
     <cc:Agent>
      <dc:title>Matplotlib v3.10.3, https://matplotlib.org/</dc:title>
     </cc:Agent>
    </dc:creator>
   </cc:Work>
  </rdf:RDF>
 </metadata>
 <defs>
  <style type="text/css">*{stroke-linejoin: round; stroke-linecap: butt}</style>
 </defs>
 <g id="figure_1">
  <g id="patch_1">
   <path d="M 0 297.190125 
L 393.262187 297.190125 
L 393.262187 0 
L 0 0 
z
" style="fill: #ffffff"/>
  </g>
  <g id="axes_1">
   <g id="patch_2">
    <path d="M 28.942188 273.312 
L 386.062188 273.312 
L 386.062188 7.2 
L 28.942188 7.2 
z
" style="fill: #ffffff"/>
   </g>
   <g id="PathCollection_1">
    <defs>
     <path id="me2794a788e" d="M 0 3 
C 0.795609 3 1.55874 2.683901 2.12132 2.12132 
C 2.683901 1.55874 3 0.795609 3 0 
C 3 -0.795609 2.683901 -1.55874 2.12132 -2.12132 
C 1.55874 -2.683901 0.795609 -3 0 -3 
C -0.795609 -3 -1.55874 -2.683901 -2.12132 -2.12132 
C -2.683901 -1.55874 -3 -0.795609 -3 0 
C -3 0.795609 -2.683901 1.55874 -2.12132 2.12132 
C -1.55874 2.683901 -0.795609 3 0 3 
z
" style="stroke: #000000"/>
    </defs>
    <g clip-path="url(#pdf458d5dad)">
     <use xlink:href="#me2794a788e" x="208.077747" y="208.798812" style="fill: #1f77b4; stroke: #000000"/>
     <use xlink:href="#me2794a788e" x="253.385103" y="203.099884" style="fill: #1f77b4; stroke: #000000"/>
     <use xlink:href="#me2794a788e" x="152.647734" y="174.59589" style="fill: #1f77b4; stroke: #000000"/>
     <use xlink:href="#me2794a788e" x="204.422163" y="85.360105" style="fill: #1f77b4; stroke: #000000"/>
     <use xlink:href="#me2794a788e" x="148.853154" y="146.867269" style="fill: #1f77b4; stroke: #000000"/>
     <use xlink:href="#me2794a788e" x="159.058675" y="182.406988" style="fill: #1f77b4; stroke: #000000"/>
     <use xlink:href="#me2794a788e" x="240.031528" y="209.20273" style="fill: #1f77b4; stroke: #000000"/>
     <use xlink:href="#me2794a788e" x="154.601653" y="117.492239" style="fill: #1f77b4; stroke: #000000"/>
     <use xlink:href="#me2794a788e" x="202.038883" y="208.665094" style="fill: #1f77b4; stroke: #000000"/>
     <use xlink:href="#me2794a788e" x="259.929433" y="188.365675" style="fill: #1f77b4; stroke: #000000"/>
     <use xlink:href="#me2794a788e" x="138.156485" y="112.855141" style="fill: #1f77b4; stroke: #000000"/>
     <use xlink:href="#me2794a788e" x="205.880445" y="199.432452" style="fill: #1f77b4; stroke: #000000"/>
     <use xlink:href="#me2794a788e" x="266.778038" y="168.465458" style="fill: #1f77b4; stroke: #000000"/>
     <use xlink:href="#me2794a788e" x="175.028166" y="187.951476" style="fill: #1f77b4; stroke: #000000"/>
     <use xlink:href="#me2794a788e" x="180.679788" y="82.380548" style="fill: #1f77b4; stroke: #000000"/>
     <use xlink:href="#me2794a788e" x="167.236775" y="101.378638" style="fill: #1f77b4; stroke: #000000"/>
     <use xlink:href="#me2794a788e" x="192.603281" y="87.201575" style="fill: #1f77b4; stroke: #000000"/>
     <use xlink:href="#me2794a788e" x="269.610271" y="161.807187" style="fill: #1f77b4; stroke: #000000"/>
     <use xlink:href="#me2794a788e" x="274.753479" y="176.751462" style="fill: #1f77b4; stroke: #000000"/>
     <use xlink:href="#me2794a788e" x="278.547744" y="123.647424" style="fill: #1f77b4; stroke: #000000"/>
     <use xlink:href="#me2794a788e" x="272.039197" y="188.259832" style="fill: #1f77b4; stroke: #000000"/>
     <use xlink:href="#me2794a788e" x="147.50713" y="103.548516" style="fill: #1f77b4; stroke: #000000"/>
     <use xlink:href="#me2794a788e" x="196.313212" y="203.999389" style="fill: #1f77b4; stroke: #000000"/>
     <use xlink:href="#me2794a788e" x="251.297373" y="76.64358" style="fill: #1f77b4; stroke: #000000"/>
     <use xlink:href="#me2794a788e" x="291.180288" y="164.502379" style="fill: #1f77b4; stroke: #000000"/>
     <use xlink:href="#me2794a788e" x="159.139032" y="115.081674" style="fill: #1f77b4; stroke: #000000"/>
     <use xlink:href="#me2794a788e" x="185.101584" y="78.557229" style="fill: #1f77b4; stroke: #000000"/>
     <use xlink:href="#me2794a788e" x="155.745852" y="142.239347" style="fill: #1f77b4; stroke: #000000"/>
     <use xlink:href="#me2794a788e" x="173.921584" y="76.937297" style="fill: #1f77b4; stroke: #000000"/>
     <use xlink:href="#me2794a788e" x="211.915084" y="197.753908" style="fill: #1f77b4; stroke: #000000"/>
     <use xlink:href="#me2794a788e" x="165.189785" y="91.848935" style="fill: #1f77b4; stroke: #000000"/>
     <use xlink:href="#me2794a788e" x="274.141471" y="117.761288" style="fill: #1f77b4; stroke: #000000"/>
     <use xlink:href="#me2794a788e" x="269.709982" y="96.261551" style="fill: #1f77b4; stroke: #000000"/>
     <use xlink:href="#me2794a788e" x="255.515664" y="75.826805" style="fill: #1f77b4; stroke: #000000"/>
     <use xlink:href="#me2794a788e" x="252.333733" y="203.087442" style="fill: #1f77b4; stroke: #000000"/>
     <use xlink:href="#me2794a788e" x="214.770592" y="203.73884" style="fill: #1f77b4; stroke: #000000"/>
     <use xlink:href="#me2794a788e" x="247.235948" y="84.015333" style="fill: #1f77b4; stroke: #000000"/>
     <use xlink:href="#me2794a788e" x="159.316806" y="152.108299" style="fill: #1f77b4; stroke: #000000"/>
     <use xlink:href="#me2794a788e" x="164.782111" y="74.273122" style="fill: #1f77b4; stroke: #000000"/>
     <use xlink:href="#me2794a788e" x="233.853056" y="211.581652" style="fill: #1f77b4; stroke: #000000"/>
     <use xlink:href="#me2794a788e" x="194.082517" y="195.59572" style="fill: #1f77b4; stroke: #000000"/>
     <use xlink:href="#me2794a788e" x="281.086276" y="114.922962" style="fill: #1f77b4; stroke: #000000"/>
     <use xlink:href="#me2794a788e" x="279.914139" y="156.803345" style="fill: #1f77b4; stroke: #000000"/>
     <use xlink:href="#me2794a788e" x="142.820302" y="164.999914" style="fill: #1f77b4; stroke: #000000"/>
     <use xlink:href="#me2794a788e" x="178.90789" y="199.280986" style="fill: #1f77b4; stroke: #000000"/>
     <use xlink:href="#me2794a788e" x="274.043432" y="156.954537" style="fill: #1f77b4; stroke: #000000"/>
     <use xlink:href="#me2794a788e" x="153.461726" y="107.537956" style="fill: #1f77b4; stroke: #000000"/>
     <use xlink:href="#me2794a788e" x="168.411924" y="194.933765" style="fill: #1f77b4; stroke: #000000"/>
     <use xlink:href="#me2794a788e" x="180.655718" y="83.418719" style="fill: #1f77b4; stroke: #000000"/>
     <use xlink:href="#me2794a788e" x="279.966535" y="124.907413" style="fill: #1f77b4; stroke: #000000"/>
     <use xlink:href="#me2794a788e" x="281.662975" y="157.322069" style="fill: #1f77b4; stroke: #000000"/>
     <use xlink:href="#me2794a788e" x="166.418491" y="96.353379" style="fill: #1f77b4; stroke: #000000"/>
     <use xlink:href="#me2794a788e" x="172.284687" y="88.130069" style="fill: #1f77b4; stroke: #000000"/>
     <use xlink:href="#me2794a788e" x="183.229042" y="72.317193" style="fill: #1f77b4; stroke: #000000"/>
     <use xlink:href="#me2794a788e" x="192.088635" y="97.06919" style="fill: #1f77b4; stroke: #000000"/>
     <use xlink:href="#me2794a788e" x="249.053551" y="73.891571" style="fill: #1f77b4; stroke: #000000"/>
     <use xlink:href="#me2794a788e" x="151.415165" y="116.275588" style="fill: #1f77b4; stroke: #000000"/>
     <use xlink:href="#me2794a788e" x="227.800563" y="218.220146" style="fill: #1f77b4; stroke: #000000"/>
     <use xlink:href="#me2794a788e" x="263.412154" y="94.382275" style="fill: #1f77b4; stroke: #000000"/>
     <use xlink:href="#me2794a788e" x="231.710422" y="215.513885" style="fill: #1f77b4; stroke: #000000"/>
     <use xlink:href="#me2794a788e" x="157.142982" y="107.971224" style="fill: #1f77b4; stroke: #000000"/>
     <use xlink:href="#me2794a788e" x="171.463311" y="86.659355" style="fill: #1f77b4; stroke: #000000"/>
     <use xlink:href="#me2794a788e" x="222.486586" y="64.769511" style="fill: #1f77b4; stroke: #000000"/>
     <use xlink:href="#me2794a788e" x="238.108588" y="206.874054" style="fill: #1f77b4; stroke: #000000"/>
     <use xlink:href="#me2794a788e" x="149.254065" y="142.510647" style="fill: #1f77b4; stroke: #000000"/>
     <use xlink:href="#me2794a788e" x="284.491728" y="182.319772" style="fill: #1f77b4; stroke: #000000"/>
     <use xlink:href="#me2794a788e" x="147.816323" y="94.446971" style="fill: #1f77b4; stroke: #000000"/>
     <use xlink:href="#me2794a788e" x="174.703765" y="89.749455" style="fill: #1f77b4; stroke: #000000"/>
     <use xlink:href="#me2794a788e" x="176.263594" y="184.091888" style="fill: #1f77b4; stroke: #000000"/>
     <use xlink:href="#me2794a788e" x="249.123436" y="85.156753" style="fill: #1f77b4; stroke: #000000"/>
     <use xlink:href="#me2794a788e" x="171.334285" y="179.198689" style="fill: #1f77b4; stroke: #000000"/>
     <use xlink:href="#me2794a788e" x="281.700435" y="151.581119" style="fill: #1f77b4; stroke: #000000"/>
     <use xlink:href="#me2794a788e" x="174.228533" y="91.624903" style="fill: #1f77b4; stroke: #000000"/>
     <use xlink:href="#me2794a788e" x="209.792836" y="198.031918" style="fill: #1f77b4; stroke: #000000"/>
     <use xlink:href="#me2794a788e" x="144.688557" y="140.148786" style="fill: #1f77b4; stroke: #000000"/>
     <use xlink:href="#me2794a788e" x="278.257217" y="91.513268" style="fill: #1f77b4; stroke: #000000"/>
     <use xlink:href="#me2794a788e" x="236.898187" y="60.376131" style="fill: #1f77b4; stroke: #000000"/>
     <use xlink:href="#me2794a788e" x="193.727451" y="64.381055" style="fill: #1f77b4; stroke: #000000"/>
     <use xlink:href="#me2794a788e" x="271.929612" y="123.838807" style="fill: #1f77b4; stroke: #000000"/>
     <use xlink:href="#me2794a788e" x="253.847644" y="181.952431" style="fill: #1f77b4; stroke: #000000"/>
     <use xlink:href="#me2794a788e" x="267.380537" y="180.774358" style="fill: #1f77b4; stroke: #000000"/>
     <use xlink:href="#me2794a788e" x="281.98861" y="152.337315" style="fill: #1f77b4; stroke: #000000"/>
     <use xlink:href="#me2794a788e" x="280.696358" y="159.543334" style="fill: #1f77b4; stroke: #000000"/>
     <use xlink:href="#me2794a788e" x="161.521577" y="188.348296" style="fill: #1f77b4; stroke: #000000"/>
     <use xlink:href="#me2794a788e" x="156.656278" y="151.004619" style="fill: #1f77b4; stroke: #000000"/>
     <use xlink:href="#me2794a788e" x="194.506379" y="220.446938" style="fill: #1f77b4; stroke: #000000"/>
     <use xlink:href="#me2794a788e" x="188.170004" y="205.630034" style="fill: #1f77b4; stroke: #000000"/>
     <use xlink:href="#me2794a788e" x="224.337908" y="191.872135" style="fill: #1f77b4; stroke: #000000"/>
     <use xlink:href="#me2794a788e" x="200.105795" y="73.949573" style="fill: #1f77b4; stroke: #000000"/>
     <use xlink:href="#me2794a788e" x="159.312522" y="134.835073" style="fill: #1f77b4; stroke: #000000"/>
     <use xlink:href="#me2794a788e" x="253.503355" y="194.408613" style="fill: #1f77b4; stroke: #000000"/>
     <use xlink:href="#me2794a788e" x="150.833802" y="121.016189" style="fill: #1f77b4; stroke: #000000"/>
     <use xlink:href="#me2794a788e" x="173.435838" y="103.604685" style="fill: #1f77b4; stroke: #000000"/>
     <use xlink:href="#me2794a788e" x="208.57886" y="62.67215" style="fill: #1f77b4; stroke: #000000"/>
     <use xlink:href="#me2794a788e" x="252.802432" y="184.700374" style="fill: #1f77b4; stroke: #000000"/>
     <use xlink:href="#me2794a788e" x="192.448969" y="205.518447" style="fill: #1f77b4; stroke: #000000"/>
     <use xlink:href="#me2794a788e" x="187.030543" y="87.233452" style="fill: #1f77b4; stroke: #000000"/>
     <use xlink:href="#me2794a788e" x="228.637279" y="201.540747" style="fill: #1f77b4; stroke: #000000"/>
     <use xlink:href="#me2794a788e" x="162.881735" y="100.544859" style="fill: #1f77b4; stroke: #000000"/>
     <use xlink:href="#me2794a788e" x="247.049226" y="78.344697" style="fill: #1f77b4; stroke: #000000"/>
    </g>
   </g>
   <g id="PathCollection_2">
    <defs>
     <path id="m41deb6f26c" d="M 0 -5 
L -1.12257 -1.545085 
L -4.755283 -1.545085 
L -1.816356 0.59017 
L -2.938926 4.045085 
L -0 1.90983 
L 2.938926 4.045085 
L 1.816356 0.59017 
L 4.755283 -1.545085 
L 1.12257 -1.545085 
z
" style="stroke: #000000"/>
    </defs>
    <g clip-path="url(#pdf458d5dad)">
     <use xlink:href="#m41deb6f26c" x="152.050963" y="218.735735" style="fill: #ff7f0e; stroke: #000000"/>
     <use xlink:href="#m41deb6f26c" x="261.547565" y="246.917203" style="fill: #ff7f0e; stroke: #000000"/>
     <use xlink:href="#m41deb6f26c" x="103.779158" y="197.368942" style="fill: #ff7f0e; stroke: #000000"/>
     <use xlink:href="#m41deb6f26c" x="244.513604" y="247.646846" style="fill: #ff7f0e; stroke: #000000"/>
     <use xlink:href="#m41deb6f26c" x="241.311644" y="250.333898" style="fill: #ff7f0e; stroke: #000000"/>
     <use xlink:href="#m41deb6f26c" x="91.135747" y="153.546805" style="fill: #ff7f0e; stroke: #000000"/>
     <use xlink:href="#m41deb6f26c" x="187.203648" y="28.179365" style="fill: #ff7f0e; stroke: #000000"/>
     <use xlink:href="#m41deb6f26c" x="139.89383" y="44.826176" style="fill: #ff7f0e; stroke: #000000"/>
     <use xlink:href="#m41deb6f26c" x="107.559384" y="173.31806" style="fill: #ff7f0e; stroke: #000000"/>
     <use xlink:href="#m41deb6f26c" x="108.102473" y="143.527119" style="fill: #ff7f0e; stroke: #000000"/>
     <use xlink:href="#m41deb6f26c" x="130.632375" y="64.158122" style="fill: #ff7f0e; stroke: #000000"/>
     <use xlink:href="#m41deb6f26c" x="251.934915" y="36.46417" style="fill: #ff7f0e; stroke: #000000"/>
     <use xlink:href="#m41deb6f26c" x="119.740077" y="95.166761" style="fill: #ff7f0e; stroke: #000000"/>
     <use xlink:href="#m41deb6f26c" x="143.582775" y="219.078052" style="fill: #ff7f0e; stroke: #000000"/>
     <use xlink:href="#m41deb6f26c" x="154.956309" y="218.059524" style="fill: #ff7f0e; stroke: #000000"/>
     <use xlink:href="#m41deb6f26c" x="285.585344" y="50.142833" style="fill: #ff7f0e; stroke: #000000"/>
     <use xlink:href="#m41deb6f26c" x="105.348894" y="125.154101" style="fill: #ff7f0e; stroke: #000000"/>
     <use xlink:href="#m41deb6f26c" x="277.630234" y="50.25985" style="fill: #ff7f0e; stroke: #000000"/>
     <use xlink:href="#m41deb6f26c" x="227.392567" y="256.024971" style="fill: #ff7f0e; stroke: #000000"/>
     <use xlink:href="#m41deb6f26c" x="121.012721" y="222.616959" style="fill: #ff7f0e; stroke: #000000"/>
     <use xlink:href="#m41deb6f26c" x="320.345471" y="97.915251" style="fill: #ff7f0e; stroke: #000000"/>
     <use xlink:href="#m41deb6f26c" x="219.86699" y="29.080842" style="fill: #ff7f0e; stroke: #000000"/>
     <use xlink:href="#m41deb6f26c" x="276.873269" y="45.904786" style="fill: #ff7f0e; stroke: #000000"/>
     <use xlink:href="#m41deb6f26c" x="111.707099" y="193.893494" style="fill: #ff7f0e; stroke: #000000"/>
     <use xlink:href="#m41deb6f26c" x="330.025578" y="151.9337" style="fill: #ff7f0e; stroke: #000000"/>
     <use xlink:href="#m41deb6f26c" x="319.921714" y="97.173457" style="fill: #ff7f0e; stroke: #000000"/>
     <use xlink:href="#m41deb6f26c" x="225.413838" y="246.316332" style="fill: #ff7f0e; stroke: #000000"/>
     <use xlink:href="#m41deb6f26c" x="222.277614" y="253.892671" style="fill: #ff7f0e; stroke: #000000"/>
     <use xlink:href="#m41deb6f26c" x="309.280837" y="60.703195" style="fill: #ff7f0e; stroke: #000000"/>
     <use xlink:href="#m41deb6f26c" x="130.665813" y="64.094952" style="fill: #ff7f0e; stroke: #000000"/>
     <use xlink:href="#m41deb6f26c" x="270.764103" y="51.264523" style="fill: #ff7f0e; stroke: #000000"/>
     <use xlink:href="#m41deb6f26c" x="108.588007" y="147.5748" style="fill: #ff7f0e; stroke: #000000"/>
     <use xlink:href="#m41deb6f26c" x="113.544824" y="117.677231" style="fill: #ff7f0e; stroke: #000000"/>
     <use xlink:href="#m41deb6f26c" x="127.169648" y="214.276519" style="fill: #ff7f0e; stroke: #000000"/>
     <use xlink:href="#m41deb6f26c" x="175.979079" y="237.562479" style="fill: #ff7f0e; stroke: #000000"/>
     <use xlink:href="#m41deb6f26c" x="239.855291" y="19.296" style="fill: #ff7f0e; stroke: #000000"/>
     <use xlink:href="#m41deb6f26c" x="114.654395" y="190.686762" style="fill: #ff7f0e; stroke: #000000"/>
     <use xlink:href="#m41deb6f26c" x="128.445563" y="54.90059" style="fill: #ff7f0e; stroke: #000000"/>
     <use xlink:href="#m41deb6f26c" x="211.783836" y="249.733039" style="fill: #ff7f0e; stroke: #000000"/>
     <use xlink:href="#m41deb6f26c" x="208.64336" y="243.013432" style="fill: #ff7f0e; stroke: #000000"/>
     <use xlink:href="#m41deb6f26c" x="117.686494" y="195.038711" style="fill: #ff7f0e; stroke: #000000"/>
     <use xlink:href="#m41deb6f26c" x="192.729087" y="240.666052" style="fill: #ff7f0e; stroke: #000000"/>
     <use xlink:href="#m41deb6f26c" x="160.588026" y="31.720899" style="fill: #ff7f0e; stroke: #000000"/>
     <use xlink:href="#m41deb6f26c" x="313.602907" y="170.877986" style="fill: #ff7f0e; stroke: #000000"/>
     <use xlink:href="#m41deb6f26c" x="300.866402" y="59.942137" style="fill: #ff7f0e; stroke: #000000"/>
     <use xlink:href="#m41deb6f26c" x="296.536619" y="84.239127" style="fill: #ff7f0e; stroke: #000000"/>
     <use xlink:href="#m41deb6f26c" x="328.629329" y="154.202469" style="fill: #ff7f0e; stroke: #000000"/>
     <use xlink:href="#m41deb6f26c" x="95.732008" y="149.459328" style="fill: #ff7f0e; stroke: #000000"/>
     <use xlink:href="#m41deb6f26c" x="131.255396" y="59.956412" style="fill: #ff7f0e; stroke: #000000"/>
     <use xlink:href="#m41deb6f26c" x="137.279674" y="69.731558" style="fill: #ff7f0e; stroke: #000000"/>
     <use xlink:href="#m41deb6f26c" x="218.620424" y="249.022772" style="fill: #ff7f0e; stroke: #000000"/>
     <use xlink:href="#m41deb6f26c" x="121.952623" y="204.631467" style="fill: #ff7f0e; stroke: #000000"/>
     <use xlink:href="#m41deb6f26c" x="224.420494" y="251.923581" style="fill: #ff7f0e; stroke: #000000"/>
     <use xlink:href="#m41deb6f26c" x="214.98047" y="28.074613" style="fill: #ff7f0e; stroke: #000000"/>
     <use xlink:href="#m41deb6f26c" x="113.81968" y="176.472719" style="fill: #ff7f0e; stroke: #000000"/>
     <use xlink:href="#m41deb6f26c" x="313.706639" y="83.484132" style="fill: #ff7f0e; stroke: #000000"/>
     <use xlink:href="#m41deb6f26c" x="243.571461" y="28.867059" style="fill: #ff7f0e; stroke: #000000"/>
     <use xlink:href="#m41deb6f26c" x="205.171613" y="27.472254" style="fill: #ff7f0e; stroke: #000000"/>
     <use xlink:href="#m41deb6f26c" x="311.407068" y="195.204553" style="fill: #ff7f0e; stroke: #000000"/>
     <use xlink:href="#m41deb6f26c" x="299.475742" y="60.91933" style="fill: #ff7f0e; stroke: #000000"/>
     <use xlink:href="#m41deb6f26c" x="102.923095" y="134.412979" style="fill: #ff7f0e; stroke: #000000"/>
     <use xlink:href="#m41deb6f26c" x="207.542892" y="253.233878" style="fill: #ff7f0e; stroke: #000000"/>
     <use xlink:href="#m41deb6f26c" x="108.081244" y="168.25903" style="fill: #ff7f0e; stroke: #000000"/>
     <use xlink:href="#m41deb6f26c" x="120.117901" y="103.129789" style="fill: #ff7f0e; stroke: #000000"/>
     <use xlink:href="#m41deb6f26c" x="305.55852" y="86.703832" style="fill: #ff7f0e; stroke: #000000"/>
     <use xlink:href="#m41deb6f26c" x="271.644281" y="42.229827" style="fill: #ff7f0e; stroke: #000000"/>
     <use xlink:href="#m41deb6f26c" x="200.889623" y="258.672727" style="fill: #ff7f0e; stroke: #000000"/>
     <use xlink:href="#m41deb6f26c" x="103.779275" y="86.598084" style="fill: #ff7f0e; stroke: #000000"/>
     <use xlink:href="#m41deb6f26c" x="109.427274" y="158.857046" style="fill: #ff7f0e; stroke: #000000"/>
     <use xlink:href="#m41deb6f26c" x="301.521637" y="61.962795" style="fill: #ff7f0e; stroke: #000000"/>
     <use xlink:href="#m41deb6f26c" x="290.398086" y="68.416585" style="fill: #ff7f0e; stroke: #000000"/>
     <use xlink:href="#m41deb6f26c" x="204.074734" y="27.149819" style="fill: #ff7f0e; stroke: #000000"/>
     <use xlink:href="#m41deb6f26c" x="320.682005" y="89.932354" style="fill: #ff7f0e; stroke: #000000"/>
     <use xlink:href="#m41deb6f26c" x="315.707049" y="202.468076" style="fill: #ff7f0e; stroke: #000000"/>
     <use xlink:href="#m41deb6f26c" x="316.448417" y="114.568238" style="fill: #ff7f0e; stroke: #000000"/>
     <use xlink:href="#m41deb6f26c" x="149.559827" y="42.215669" style="fill: #ff7f0e; stroke: #000000"/>
     <use xlink:href="#m41deb6f26c" x="291.724519" y="227.961384" style="fill: #ff7f0e; stroke: #000000"/>
     <use xlink:href="#m41deb6f26c" x="84.978797" y="134.085877" style="fill: #ff7f0e; stroke: #000000"/>
     <use xlink:href="#m41deb6f26c" x="320.393373" y="123.040546" style="fill: #ff7f0e; stroke: #000000"/>
     <use xlink:href="#m41deb6f26c" x="302.370574" y="57.440883" style="fill: #ff7f0e; stroke: #000000"/>
     <use xlink:href="#m41deb6f26c" x="145.8819" y="34.10407" style="fill: #ff7f0e; stroke: #000000"/>
     <use xlink:href="#m41deb6f26c" x="135.791057" y="230.373648" style="fill: #ff7f0e; stroke: #000000"/>
     <use xlink:href="#m41deb6f26c" x="305.868234" y="69.671076" style="fill: #ff7f0e; stroke: #000000"/>
     <use xlink:href="#m41deb6f26c" x="99.575597" y="172.92352" style="fill: #ff7f0e; stroke: #000000"/>
     <use xlink:href="#m41deb6f26c" x="161.248666" y="235.383588" style="fill: #ff7f0e; stroke: #000000"/>
     <use xlink:href="#m41deb6f26c" x="184.204893" y="249.302979" style="fill: #ff7f0e; stroke: #000000"/>
     <use xlink:href="#m41deb6f26c" x="326.439784" y="156.553489" style="fill: #ff7f0e; stroke: #000000"/>
     <use xlink:href="#m41deb6f26c" x="309.030968" y="197.642257" style="fill: #ff7f0e; stroke: #000000"/>
     <use xlink:href="#m41deb6f26c" x="217.161271" y="19.388983" style="fill: #ff7f0e; stroke: #000000"/>
     <use xlink:href="#m41deb6f26c" x="105.824953" y="138.202262" style="fill: #ff7f0e; stroke: #000000"/>
     <use xlink:href="#m41deb6f26c" x="102.493418" y="98.157971" style="fill: #ff7f0e; stroke: #000000"/>
     <use xlink:href="#m41deb6f26c" x="207.710956" y="261.216" style="fill: #ff7f0e; stroke: #000000"/>
     <use xlink:href="#m41deb6f26c" x="103.986597" y="105.78522" style="fill: #ff7f0e; stroke: #000000"/>
     <use xlink:href="#m41deb6f26c" x="210.345434" y="20.062027" style="fill: #ff7f0e; stroke: #000000"/>
     <use xlink:href="#m41deb6f26c" x="271.19862" y="31.191251" style="fill: #ff7f0e; stroke: #000000"/>
     <use xlink:href="#m41deb6f26c" x="129.995773" y="219.12702" style="fill: #ff7f0e; stroke: #000000"/>
     <use xlink:href="#m41deb6f26c" x="131.476253" y="215.295275" style="fill: #ff7f0e; stroke: #000000"/>
     <use xlink:href="#m41deb6f26c" x="278.319509" y="238.788082" style="fill: #ff7f0e; stroke: #000000"/>
     <use xlink:href="#m41deb6f26c" x="110.955325" y="179.855096" style="fill: #ff7f0e; stroke: #000000"/>
     <use xlink:href="#m41deb6f26c" x="118.168716" y="101.939533" style="fill: #ff7f0e; stroke: #000000"/>
    </g>
   </g>
   <g id="PathCollection_3">
    <defs>
     <path id="mb01de57bb8" d="M -3 3 
L 3 3 
L 3 -3 
L -3 -3 
z
" style="stroke: #000000"/>
    </defs>
    <g clip-path="url(#pdf458d5dad)">
     <use xlink:href="#mb01de57bb8" x="187.328213" y="117.523295" style="fill: #2ca02c; stroke: #000000"/>
     <use xlink:href="#mb01de57bb8" x="192.306726" y="135.545472" style="fill: #2ca02c; stroke: #000000"/>
     <use xlink:href="#mb01de57bb8" x="202.806357" y="111.512046" style="fill: #2ca02c; stroke: #000000"/>
     <use xlink:href="#mb01de57bb8" x="178.670219" y="142.377929" style="fill: #2ca02c; stroke: #000000"/>
     <use xlink:href="#mb01de57bb8" x="185.572314" y="150.705878" style="fill: #2ca02c; stroke: #000000"/>
     <use xlink:href="#mb01de57bb8" x="205.546843" y="147.993433" style="fill: #2ca02c; stroke: #000000"/>
     <use xlink:href="#mb01de57bb8" x="221.045855" y="137.729105" style="fill: #2ca02c; stroke: #000000"/>
     <use xlink:href="#mb01de57bb8" x="213.374531" y="142.032958" style="fill: #2ca02c; stroke: #000000"/>
     <use xlink:href="#mb01de57bb8" x="239.817051" y="148.178083" style="fill: #2ca02c; stroke: #000000"/>
     <use xlink:href="#mb01de57bb8" x="236.752843" y="114.170963" style="fill: #2ca02c; stroke: #000000"/>
     <use xlink:href="#mb01de57bb8" x="202.645156" y="152.247907" style="fill: #2ca02c; stroke: #000000"/>
     <use xlink:href="#mb01de57bb8" x="222.562822" y="169.438889" style="fill: #2ca02c; stroke: #000000"/>
     <use xlink:href="#mb01de57bb8" x="209.766169" y="153.571724" style="fill: #2ca02c; stroke: #000000"/>
     <use xlink:href="#mb01de57bb8" x="232.927168" y="122.034956" style="fill: #2ca02c; stroke: #000000"/>
     <use xlink:href="#mb01de57bb8" x="207.404606" y="137.626204" style="fill: #2ca02c; stroke: #000000"/>
     <use xlink:href="#mb01de57bb8" x="239.823135" y="151.551374" style="fill: #2ca02c; stroke: #000000"/>
     <use xlink:href="#mb01de57bb8" x="228.878738" y="154.682198" style="fill: #2ca02c; stroke: #000000"/>
     <use xlink:href="#mb01de57bb8" x="219.624463" y="147.896252" style="fill: #2ca02c; stroke: #000000"/>
     <use xlink:href="#mb01de57bb8" x="217.172368" y="139.509794" style="fill: #2ca02c; stroke: #000000"/>
     <use xlink:href="#mb01de57bb8" x="190.322544" y="143.587647" style="fill: #2ca02c; stroke: #000000"/>
     <use xlink:href="#mb01de57bb8" x="222.135742" y="112.742695" style="fill: #2ca02c; stroke: #000000"/>
     <use xlink:href="#mb01de57bb8" x="228.335554" y="153.265703" style="fill: #2ca02c; stroke: #000000"/>
     <use xlink:href="#mb01de57bb8" x="219.875577" y="135.541308" style="fill: #2ca02c; stroke: #000000"/>
     <use xlink:href="#mb01de57bb8" x="216.251366" y="116.261253" style="fill: #2ca02c; stroke: #000000"/>
     <use xlink:href="#mb01de57bb8" x="240.370778" y="140.779892" style="fill: #2ca02c; stroke: #000000"/>
     <use xlink:href="#mb01de57bb8" x="206.794712" y="155.948741" style="fill: #2ca02c; stroke: #000000"/>
     <use xlink:href="#mb01de57bb8" x="194.495746" y="127.64156" style="fill: #2ca02c; stroke: #000000"/>
     <use xlink:href="#mb01de57bb8" x="226.748224" y="149.422049" style="fill: #2ca02c; stroke: #000000"/>
     <use xlink:href="#mb01de57bb8" x="222.602088" y="145.161244" style="fill: #2ca02c; stroke: #000000"/>
     <use xlink:href="#mb01de57bb8" x="241.690742" y="149.122468" style="fill: #2ca02c; stroke: #000000"/>
     <use xlink:href="#mb01de57bb8" x="235.542613" y="153.299787" style="fill: #2ca02c; stroke: #000000"/>
     <use xlink:href="#mb01de57bb8" x="206.06673" y="150.33951" style="fill: #2ca02c; stroke: #000000"/>
     <use xlink:href="#mb01de57bb8" x="227.953275" y="159.951304" style="fill: #2ca02c; stroke: #000000"/>
     <use xlink:href="#mb01de57bb8" x="215.30408" y="123.288865" style="fill: #2ca02c; stroke: #000000"/>
     <use xlink:href="#mb01de57bb8" x="201.008715" y="119.381096" style="fill: #2ca02c; stroke: #000000"/>
     <use xlink:href="#mb01de57bb8" x="219.606612" y="113.895592" style="fill: #2ca02c; stroke: #000000"/>
     <use xlink:href="#mb01de57bb8" x="238.095654" y="161.106931" style="fill: #2ca02c; stroke: #000000"/>
     <use xlink:href="#mb01de57bb8" x="202.821555" y="129.482316" style="fill: #2ca02c; stroke: #000000"/>
     <use xlink:href="#mb01de57bb8" x="223.272418" y="166.197917" style="fill: #2ca02c; stroke: #000000"/>
     <use xlink:href="#mb01de57bb8" x="238.855203" y="141.260521" style="fill: #2ca02c; stroke: #000000"/>
     <use xlink:href="#mb01de57bb8" x="234.751506" y="123.600471" style="fill: #2ca02c; stroke: #000000"/>
     <use xlink:href="#mb01de57bb8" x="196.630847" y="152.900758" style="fill: #2ca02c; stroke: #000000"/>
     <use xlink:href="#mb01de57bb8" x="231.902847" y="133.790789" style="fill: #2ca02c; stroke: #000000"/>
     <use xlink:href="#mb01de57bb8" x="204.679553" y="137.54636" style="fill: #2ca02c; stroke: #000000"/>
     <use xlink:href="#mb01de57bb8" x="206.583018" y="150.185796" style="fill: #2ca02c; stroke: #000000"/>
     <use xlink:href="#mb01de57bb8" x="230.947455" y="150.271909" style="fill: #2ca02c; stroke: #000000"/>
     <use xlink:href="#mb01de57bb8" x="202.361994" y="164.31387" style="fill: #2ca02c; stroke: #000000"/>
     <use xlink:href="#mb01de57bb8" x="181.43083" y="142.162769" style="fill: #2ca02c; stroke: #000000"/>
     <use xlink:href="#mb01de57bb8" x="234.316342" y="134.703759" style="fill: #2ca02c; stroke: #000000"/>
     <use xlink:href="#mb01de57bb8" x="231.842346" y="141.914358" style="fill: #2ca02c; stroke: #000000"/>
     <use xlink:href="#mb01de57bb8" x="193.939541" y="158.868112" style="fill: #2ca02c; stroke: #000000"/>
     <use xlink:href="#mb01de57bb8" x="234.307628" y="145.749009" style="fill: #2ca02c; stroke: #000000"/>
     <use xlink:href="#mb01de57bb8" x="201.189025" y="151.425483" style="fill: #2ca02c; stroke: #000000"/>
     <use xlink:href="#mb01de57bb8" x="205.705645" y="142.40709" style="fill: #2ca02c; stroke: #000000"/>
     <use xlink:href="#mb01de57bb8" x="176.690688" y="124.679016" style="fill: #2ca02c; stroke: #000000"/>
     <use xlink:href="#mb01de57bb8" x="204.84083" y="138.184114" style="fill: #2ca02c; stroke: #000000"/>
     <use xlink:href="#mb01de57bb8" x="209.326787" y="118.976671" style="fill: #2ca02c; stroke: #000000"/>
     <use xlink:href="#mb01de57bb8" x="206.929881" y="116.201845" style="fill: #2ca02c; stroke: #000000"/>
     <use xlink:href="#mb01de57bb8" x="232.340749" y="158.347203" style="fill: #2ca02c; stroke: #000000"/>
     <use xlink:href="#mb01de57bb8" x="216.91857" y="160.061603" style="fill: #2ca02c; stroke: #000000"/>
     <use xlink:href="#mb01de57bb8" x="215.737863" y="126.033066" style="fill: #2ca02c; stroke: #000000"/>
     <use xlink:href="#mb01de57bb8" x="186.184086" y="118.141128" style="fill: #2ca02c; stroke: #000000"/>
     <use xlink:href="#mb01de57bb8" x="219.253278" y="149.157573" style="fill: #2ca02c; stroke: #000000"/>
     <use xlink:href="#mb01de57bb8" x="198.550822" y="165.733537" style="fill: #2ca02c; stroke: #000000"/>
     <use xlink:href="#mb01de57bb8" x="210.075437" y="152.465981" style="fill: #2ca02c; stroke: #000000"/>
     <use xlink:href="#mb01de57bb8" x="226.102435" y="155.649576" style="fill: #2ca02c; stroke: #000000"/>
     <use xlink:href="#mb01de57bb8" x="203.073636" y="137.669037" style="fill: #2ca02c; stroke: #000000"/>
     <use xlink:href="#mb01de57bb8" x="204.450398" y="163.789117" style="fill: #2ca02c; stroke: #000000"/>
     <use xlink:href="#mb01de57bb8" x="192.628297" y="130.285763" style="fill: #2ca02c; stroke: #000000"/>
     <use xlink:href="#mb01de57bb8" x="222.805611" y="115.318965" style="fill: #2ca02c; stroke: #000000"/>
     <use xlink:href="#mb01de57bb8" x="229.847693" y="106.033357" style="fill: #2ca02c; stroke: #000000"/>
     <use xlink:href="#mb01de57bb8" x="183.243133" y="133.165555" style="fill: #2ca02c; stroke: #000000"/>
     <use xlink:href="#mb01de57bb8" x="229.957386" y="109.622014" style="fill: #2ca02c; stroke: #000000"/>
     <use xlink:href="#mb01de57bb8" x="208.321453" y="116.946191" style="fill: #2ca02c; stroke: #000000"/>
     <use xlink:href="#mb01de57bb8" x="214.065738" y="154.066223" style="fill: #2ca02c; stroke: #000000"/>
     <use xlink:href="#mb01de57bb8" x="217.704837" y="119.62293" style="fill: #2ca02c; stroke: #000000"/>
     <use xlink:href="#mb01de57bb8" x="232.691065" y="110.244429" style="fill: #2ca02c; stroke: #000000"/>
     <use xlink:href="#mb01de57bb8" x="189.162977" y="153.580261" style="fill: #2ca02c; stroke: #000000"/>
     <use xlink:href="#mb01de57bb8" x="236.770187" y="137.655639" style="fill: #2ca02c; stroke: #000000"/>
     <use xlink:href="#mb01de57bb8" x="195.968259" y="157.470809" style="fill: #2ca02c; stroke: #000000"/>
     <use xlink:href="#mb01de57bb8" x="221.736948" y="131.058617" style="fill: #2ca02c; stroke: #000000"/>
     <use xlink:href="#mb01de57bb8" x="182.343268" y="144.572392" style="fill: #2ca02c; stroke: #000000"/>
     <use xlink:href="#mb01de57bb8" x="235.033376" y="162.124327" style="fill: #2ca02c; stroke: #000000"/>
     <use xlink:href="#mb01de57bb8" x="210.35016" y="141.95461" style="fill: #2ca02c; stroke: #000000"/>
     <use xlink:href="#mb01de57bb8" x="205.070614" y="119.326724" style="fill: #2ca02c; stroke: #000000"/>
     <use xlink:href="#mb01de57bb8" x="229.055254" y="145.982926" style="fill: #2ca02c; stroke: #000000"/>
     <use xlink:href="#mb01de57bb8" x="237.475099" y="123.80324" style="fill: #2ca02c; stroke: #000000"/>
     <use xlink:href="#mb01de57bb8" x="227.239576" y="115.822268" style="fill: #2ca02c; stroke: #000000"/>
     <use xlink:href="#mb01de57bb8" x="214.414956" y="126.494188" style="fill: #2ca02c; stroke: #000000"/>
     <use xlink:href="#mb01de57bb8" x="194.87501" y="133.816775" style="fill: #2ca02c; stroke: #000000"/>
     <use xlink:href="#mb01de57bb8" x="228.134503" y="132.785833" style="fill: #2ca02c; stroke: #000000"/>
     <use xlink:href="#mb01de57bb8" x="233.925064" y="137.161896" style="fill: #2ca02c; stroke: #000000"/>
     <use xlink:href="#mb01de57bb8" x="235.06756" y="138.248952" style="fill: #2ca02c; stroke: #000000"/>
     <use xlink:href="#mb01de57bb8" x="210.495538" y="118.277765" style="fill: #2ca02c; stroke: #000000"/>
     <use xlink:href="#mb01de57bb8" x="192.602787" y="135.670843" style="fill: #2ca02c; stroke: #000000"/>
     <use xlink:href="#mb01de57bb8" x="203.855964" y="121.004984" style="fill: #2ca02c; stroke: #000000"/>
     <use xlink:href="#mb01de57bb8" x="230.586728" y="136.694805" style="fill: #2ca02c; stroke: #000000"/>
     <use xlink:href="#mb01de57bb8" x="213.430895" y="174.369603" style="fill: #2ca02c; stroke: #000000"/>
     <use xlink:href="#mb01de57bb8" x="224.06502" y="153.650569" style="fill: #2ca02c; stroke: #000000"/>
     <use xlink:href="#mb01de57bb8" x="207.933297" y="145.441989" style="fill: #2ca02c; stroke: #000000"/>
    </g>
   </g>
   <g id="matplotlib.axis_1">
    <g id="xtick_1">
     <g id="line2d_1">
      <defs>
       <path id="m5e9599307a" d="M 0 0 
L 0 3.5 
" style="stroke: #000000; stroke-width: 0.8"/>
      </defs>
      <g>
       <use xlink:href="#m5e9599307a" x="33.465076" y="273.312" style="stroke: #000000; stroke-width: 0.8"/>
      </g>
     </g>
     <g id="text_1">
      <!-- −8 -->
      <g transform="translate(26.093982 287.910437) scale(0.1 -0.1)">
       <defs>
        <path id="DejaVuSans-2212" d="M 678 2272 
L 4684 2272 
L 4684 1741 
L 678 1741 
L 678 2272 
z
" transform="scale(0.015625)"/>
        <path id="DejaVuSans-38" d="M 2034 2216 
Q 1584 2216 1326 1975 
Q 1069 1734 1069 1313 
Q 1069 891 1326 650 
Q 1584 409 2034 409 
Q 2484 409 2743 651 
Q 3003 894 3003 1313 
Q 3003 1734 2745 1975 
Q 2488 2216 2034 2216 
z
M 1403 2484 
Q 997 2584 770 2862 
Q 544 3141 544 3541 
Q 544 4100 942 4425 
Q 1341 4750 2034 4750 
Q 2731 4750 3128 4425 
Q 3525 4100 3525 3541 
Q 3525 3141 3298 2862 
Q 3072 2584 2669 2484 
Q 3125 2378 3379 2068 
Q 3634 1759 3634 1313 
Q 3634 634 3220 271 
Q 2806 -91 2034 -91 
Q 1263 -91 848 271 
Q 434 634 434 1313 
Q 434 1759 690 2068 
Q 947 2378 1403 2484 
z
M 1172 3481 
Q 1172 3119 1398 2916 
Q 1625 2713 2034 2713 
Q 2441 2713 2670 2916 
Q 2900 3119 2900 3481 
Q 2900 3844 2670 4047 
Q 2441 4250 2034 4250 
Q 1625 4250 1398 4047 
Q 1172 3844 1172 3481 
z
" transform="scale(0.015625)"/>
       </defs>
       <use xlink:href="#DejaVuSans-2212"/>
       <use xlink:href="#DejaVuSans-38" transform="translate(83.789062 0)"/>
      </g>
     </g>
    </g>
    <g id="xtick_2">
     <g id="line2d_2">
      <g>
       <use xlink:href="#m5e9599307a" x="78.693362" y="273.312" style="stroke: #000000; stroke-width: 0.8"/>
      </g>
     </g>
     <g id="text_2">
      <!-- −6 -->
      <g transform="translate(71.322268 287.910437) scale(0.1 -0.1)">
       <defs>
        <path id="DejaVuSans-36" d="M 2113 2584 
Q 1688 2584 1439 2293 
Q 1191 2003 1191 1497 
Q 1191 994 1439 701 
Q 1688 409 2113 409 
Q 2538 409 2786 701 
Q 3034 994 3034 1497 
Q 3034 2003 2786 2293 
Q 2538 2584 2113 2584 
z
M 3366 4563 
L 3366 3988 
Q 3128 4100 2886 4159 
Q 2644 4219 2406 4219 
Q 1781 4219 1451 3797 
Q 1122 3375 1075 2522 
Q 1259 2794 1537 2939 
Q 1816 3084 2150 3084 
Q 2853 3084 3261 2657 
Q 3669 2231 3669 1497 
Q 3669 778 3244 343 
Q 2819 -91 2113 -91 
Q 1303 -91 875 529 
Q 447 1150 447 2328 
Q 447 3434 972 4092 
Q 1497 4750 2381 4750 
Q 2619 4750 2861 4703 
Q 3103 4656 3366 4563 
z
" transform="scale(0.015625)"/>
       </defs>
       <use xlink:href="#DejaVuSans-2212"/>
       <use xlink:href="#DejaVuSans-36" transform="translate(83.789062 0)"/>
      </g>
     </g>
    </g>
    <g id="xtick_3">
     <g id="line2d_3">
      <g>
       <use xlink:href="#m5e9599307a" x="123.921649" y="273.312" style="stroke: #000000; stroke-width: 0.8"/>
      </g>
     </g>
     <g id="text_3">
      <!-- −4 -->
      <g transform="translate(116.550555 287.910437) scale(0.1 -0.1)">
       <defs>
        <path id="DejaVuSans-34" d="M 2419 4116 
L 825 1625 
L 2419 1625 
L 2419 4116 
z
M 2253 4666 
L 3047 4666 
L 3047 1625 
L 3713 1625 
L 3713 1100 
L 3047 1100 
L 3047 0 
L 2419 0 
L 2419 1100 
L 313 1100 
L 313 1709 
L 2253 4666 
z
" transform="scale(0.015625)"/>
       </defs>
       <use xlink:href="#DejaVuSans-2212"/>
       <use xlink:href="#DejaVuSans-34" transform="translate(83.789062 0)"/>
      </g>
     </g>
    </g>
    <g id="xtick_4">
     <g id="line2d_4">
      <g>
       <use xlink:href="#m5e9599307a" x="169.149935" y="273.312" style="stroke: #000000; stroke-width: 0.8"/>
      </g>
     </g>
     <g id="text_4">
      <!-- −2 -->
      <g transform="translate(161.778841 287.910437) scale(0.1 -0.1)">
       <defs>
        <path id="DejaVuSans-32" d="M 1228 531 
L 3431 531 
L 3431 0 
L 469 0 
L 469 531 
Q 828 903 1448 1529 
Q 2069 2156 2228 2338 
Q 2531 2678 2651 2914 
Q 2772 3150 2772 3378 
Q 2772 3750 2511 3984 
Q 2250 4219 1831 4219 
Q 1534 4219 1204 4116 
Q 875 4013 500 3803 
L 500 4441 
Q 881 4594 1212 4672 
Q 1544 4750 1819 4750 
Q 2544 4750 2975 4387 
Q 3406 4025 3406 3419 
Q 3406 3131 3298 2873 
Q 3191 2616 2906 2266 
Q 2828 2175 2409 1742 
Q 1991 1309 1228 531 
z
" transform="scale(0.015625)"/>
       </defs>
       <use xlink:href="#DejaVuSans-2212"/>
       <use xlink:href="#DejaVuSans-32" transform="translate(83.789062 0)"/>
      </g>
     </g>
    </g>
    <g id="xtick_5">
     <g id="line2d_5">
      <g>
       <use xlink:href="#m5e9599307a" x="214.378221" y="273.312" style="stroke: #000000; stroke-width: 0.8"/>
      </g>
     </g>
     <g id="text_5">
      <!-- 0 -->
      <g transform="translate(211.196971 287.910437) scale(0.1 -0.1)">
       <defs>
        <path id="DejaVuSans-30" d="M 2034 4250 
Q 1547 4250 1301 3770 
Q 1056 3291 1056 2328 
Q 1056 1369 1301 889 
Q 1547 409 2034 409 
Q 2525 409 2770 889 
Q 3016 1369 3016 2328 
Q 3016 3291 2770 3770 
Q 2525 4250 2034 4250 
z
M 2034 4750 
Q 2819 4750 3233 4129 
Q 3647 3509 3647 2328 
Q 3647 1150 3233 529 
Q 2819 -91 2034 -91 
Q 1250 -91 836 529 
Q 422 1150 422 2328 
Q 422 3509 836 4129 
Q 1250 4750 2034 4750 
z
" transform="scale(0.015625)"/>
       </defs>
       <use xlink:href="#DejaVuSans-30"/>
      </g>
     </g>
    </g>
    <g id="xtick_6">
     <g id="line2d_6">
      <g>
       <use xlink:href="#m5e9599307a" x="259.606507" y="273.312" style="stroke: #000000; stroke-width: 0.8"/>
      </g>
     </g>
     <g id="text_6">
      <!-- 2 -->
      <g transform="translate(256.425257 287.910437) scale(0.1 -0.1)">
       <use xlink:href="#DejaVuSans-32"/>
      </g>
     </g>
    </g>
    <g id="xtick_7">
     <g id="line2d_7">
      <g>
       <use xlink:href="#m5e9599307a" x="304.834794" y="273.312" style="stroke: #000000; stroke-width: 0.8"/>
      </g>
     </g>
     <g id="text_7">
      <!-- 4 -->
      <g transform="translate(301.653544 287.910437) scale(0.1 -0.1)">
       <use xlink:href="#DejaVuSans-34"/>
      </g>
     </g>
    </g>
    <g id="xtick_8">
     <g id="line2d_8">
      <g>
       <use xlink:href="#m5e9599307a" x="350.06308" y="273.312" style="stroke: #000000; stroke-width: 0.8"/>
      </g>
     </g>
     <g id="text_8">
      <!-- 6 -->
      <g transform="translate(346.88183 287.910437) scale(0.1 -0.1)">
       <use xlink:href="#DejaVuSans-36"/>
      </g>
     </g>
    </g>
   </g>
   <g id="matplotlib.axis_2">
    <g id="ytick_1">
     <g id="line2d_9">
      <defs>
       <path id="m10ee8616f1" d="M 0 0 
L -3.5 0 
" style="stroke: #000000; stroke-width: 0.8"/>
      </defs>
      <g>
       <use xlink:href="#m10ee8616f1" x="28.942188" y="228.68904" style="stroke: #000000; stroke-width: 0.8"/>
      </g>
     </g>
     <g id="text_9">
      <!-- −4 -->
      <g transform="translate(7.2 232.488259) scale(0.1 -0.1)">
       <use xlink:href="#DejaVuSans-2212"/>
       <use xlink:href="#DejaVuSans-34" transform="translate(83.789062 0)"/>
      </g>
     </g>
    </g>
    <g id="ytick_2">
     <g id="line2d_10">
      <g>
       <use xlink:href="#m10ee8616f1" x="28.942188" y="183.460754" style="stroke: #000000; stroke-width: 0.8"/>
      </g>
     </g>
     <g id="text_10">
      <!-- −2 -->
      <g transform="translate(7.2 187.259972) scale(0.1 -0.1)">
       <use xlink:href="#DejaVuSans-2212"/>
       <use xlink:href="#DejaVuSans-32" transform="translate(83.789062 0)"/>
      </g>
     </g>
    </g>
    <g id="ytick_3">
     <g id="line2d_11">
      <g>
       <use xlink:href="#m10ee8616f1" x="28.942188" y="138.232467" style="stroke: #000000; stroke-width: 0.8"/>
      </g>
     </g>
     <g id="text_11">
      <!-- 0 -->
      <g transform="translate(15.579688 142.031686) scale(0.1 -0.1)">
       <use xlink:href="#DejaVuSans-30"/>
      </g>
     </g>
    </g>
    <g id="ytick_4">
     <g id="line2d_12">
      <g>
       <use xlink:href="#m10ee8616f1" x="28.942188" y="93.004181" style="stroke: #000000; stroke-width: 0.8"/>
      </g>
     </g>
     <g id="text_12">
      <!-- 2 -->
      <g transform="translate(15.579688 96.8034) scale(0.1 -0.1)">
       <use xlink:href="#DejaVuSans-32"/>
      </g>
     </g>
    </g>
    <g id="ytick_5">
     <g id="line2d_13">
      <g>
       <use xlink:href="#m10ee8616f1" x="28.942188" y="47.775895" style="stroke: #000000; stroke-width: 0.8"/>
      </g>
     </g>
     <g id="text_13">
      <!-- 4 -->
      <g transform="translate(15.579688 51.575114) scale(0.1 -0.1)">
       <use xlink:href="#DejaVuSans-34"/>
      </g>
     </g>
    </g>
   </g>
   <g id="patch_3">
    <path d="M 28.942188 273.312 
L 28.942188 7.2 
" style="fill: none; stroke: #000000; stroke-width: 0.8; stroke-linejoin: miter; stroke-linecap: square"/>
   </g>
   <g id="patch_4">
    <path d="M 386.062188 273.312 
L 386.062188 7.2 
" style="fill: none; stroke: #000000; stroke-width: 0.8; stroke-linejoin: miter; stroke-linecap: square"/>
   </g>
   <g id="patch_5">
    <path d="M 28.942187 273.312 
L 386.062188 273.312 
" style="fill: none; stroke: #000000; stroke-width: 0.8; stroke-linejoin: miter; stroke-linecap: square"/>
   </g>
   <g id="patch_6">
    <path d="M 28.942187 7.2 
L 386.062188 7.2 
" style="fill: none; stroke: #000000; stroke-width: 0.8; stroke-linejoin: miter; stroke-linecap: square"/>
   </g>
  </g>
 </g>
 <defs>
  <clipPath id="pdf458d5dad">
   <rect x="28.942188" y="7.2" width="357.12" height="266.112"/>
  </clipPath>
 </defs>
</svg>
