<?xml version="1.0" encoding="utf-8" standalone="no"?>
<!DOCTYPE svg PUBLIC "-//W3C//DTD SVG 1.1//EN"
  "http://www.w3.org/Graphics/SVG/1.1/DTD/svg11.dtd">
<svg xmlns:xlink="http://www.w3.org/1999/xlink" width="537.146875pt" height="211.07625pt" viewBox="0 0 537.146875 211.07625" xmlns="http://www.w3.org/2000/svg" version="1.1">
 <metadata>
  <rdf:RDF xmlns:dc="http://purl.org/dc/elements/1.1/" xmlns:cc="http://creativecommons.org/ns#" xmlns:rdf="http://www.w3.org/1999/02/22-rdf-syntax-ns#">
   <cc:Work>
    <dc:type rdf:resource="http://purl.org/dc/dcmitype/StillImage"/>
    <dc:date>2025-07-21T05:36:56.760518</dc:date>
    <dc:format>image/svg+xml</dc:format>
    <dc:creator>
     <cc:Agent>
      <dc:title>Matplotlib v3.10.3, https://matplotlib.org/</dc:title>
     </cc:Agent>
    </dc:creator>
   </cc:Work>
  </rdf:RDF>
 </metadata>
 <defs>
  <style type="text/css">*{stroke-linejoin: round; stroke-linecap: butt}</style>
 </defs>
 <g id="figure_1">
  <g id="patch_1">
   <path d="M 0 211.07625 
L 537.146875 211.07625 
L 537.146875 0 
L 0 0 
z
" style="fill: #ffffff"/>
  </g>
  <g id="axes_1">
   <g id="patch_2">
    <path d="M 43.78125 173.52 
L 490.18125 173.52 
L 490.18125 7.2 
L 43.78125 7.2 
z
" style="fill: #ffffff"/>
   </g>
   <g id="matplotlib.axis_1">
    <g id="xtick_1">
     <g id="line2d_1">
      <path d="M 64.072159 173.52 
L 64.072159 7.2 
" clip-path="url(#p8719e14df2)" style="fill: none; stroke-dasharray: 0.8,1.32; stroke-dashoffset: 0; stroke: #b0b0b0; stroke-opacity: 0.8; stroke-width: 0.8"/>
     </g>
     <g id="line2d_2">
      <defs>
       <path id="m950352d52b" d="M 0 0 
L 0 3.5 
" style="stroke: #000000; stroke-width: 0.8"/>
      </defs>
      <g>
       <use xlink:href="#m950352d52b" x="64.072159" y="173.52" style="stroke: #000000; stroke-width: 0.8"/>
      </g>
     </g>
     <g id="text_1">
      <!-- 0 -->
      <g transform="translate(60.890909 188.118438) scale(0.1 -0.1)">
       <defs>
        <path id="DejaVuSans-30" d="M 2034 4250 
Q 1547 4250 1301 3770 
Q 1056 3291 1056 2328 
Q 1056 1369 1301 889 
Q 1547 409 2034 409 
Q 2525 409 2770 889 
Q 3016 1369 3016 2328 
Q 3016 3291 2770 3770 
Q 2525 4250 2034 4250 
z
M 2034 4750 
Q 2819 4750 3233 4129 
Q 3647 3509 3647 2328 
Q 3647 1150 3233 529 
Q 2819 -91 2034 -91 
Q 1250 -91 836 529 
Q 422 1150 422 2328 
Q 422 3509 836 4129 
Q 1250 4750 2034 4750 
z
" transform="scale(0.015625)"/>
       </defs>
       <use xlink:href="#DejaVuSans-30"/>
      </g>
     </g>
    </g>
    <g id="xtick_2">
     <g id="line2d_3">
      <path d="M 118.184858 173.52 
L 118.184858 7.2 
" clip-path="url(#p8719e14df2)" style="fill: none; stroke-dasharray: 0.8,1.32; stroke-dashoffset: 0; stroke: #b0b0b0; stroke-opacity: 0.8; stroke-width: 0.8"/>
     </g>
     <g id="line2d_4">
      <g>
       <use xlink:href="#m950352d52b" x="118.184858" y="173.52" style="stroke: #000000; stroke-width: 0.8"/>
      </g>
     </g>
     <g id="text_2">
      <!-- 2 -->
      <g transform="translate(115.003608 188.118438) scale(0.1 -0.1)">
       <defs>
        <path id="DejaVuSans-32" d="M 1228 531 
L 3431 531 
L 3431 0 
L 469 0 
L 469 531 
Q 828 903 1448 1529 
Q 2069 2156 2228 2338 
Q 2531 2678 2651 2914 
Q 2772 3150 2772 3378 
Q 2772 3750 2511 3984 
Q 2250 4219 1831 4219 
Q 1534 4219 1204 4116 
Q 875 4013 500 3803 
L 500 4441 
Q 881 4594 1212 4672 
Q 1544 4750 1819 4750 
Q 2544 4750 2975 4387 
Q 3406 4025 3406 3419 
Q 3406 3131 3298 2873 
Q 3191 2616 2906 2266 
Q 2828 2175 2409 1742 
Q 1991 1309 1228 531 
z
" transform="scale(0.015625)"/>
       </defs>
       <use xlink:href="#DejaVuSans-32"/>
      </g>
     </g>
    </g>
    <g id="xtick_3">
     <g id="line2d_5">
      <path d="M 172.297556 173.52 
L 172.297556 7.2 
" clip-path="url(#p8719e14df2)" style="fill: none; stroke-dasharray: 0.8,1.32; stroke-dashoffset: 0; stroke: #b0b0b0; stroke-opacity: 0.8; stroke-width: 0.8"/>
     </g>
     <g id="line2d_6">
      <g>
       <use xlink:href="#m950352d52b" x="172.297556" y="173.52" style="stroke: #000000; stroke-width: 0.8"/>
      </g>
     </g>
     <g id="text_3">
      <!-- 4 -->
      <g transform="translate(169.116306 188.118438) scale(0.1 -0.1)">
       <defs>
        <path id="DejaVuSans-34" d="M 2419 4116 
L 825 1625 
L 2419 1625 
L 2419 4116 
z
M 2253 4666 
L 3047 4666 
L 3047 1625 
L 3713 1625 
L 3713 1100 
L 3047 1100 
L 3047 0 
L 2419 0 
L 2419 1100 
L 313 1100 
L 313 1709 
L 2253 4666 
z
" transform="scale(0.015625)"/>
       </defs>
       <use xlink:href="#DejaVuSans-34"/>
      </g>
     </g>
    </g>
    <g id="xtick_4">
     <g id="line2d_7">
      <path d="M 226.410254 173.52 
L 226.410254 7.2 
" clip-path="url(#p8719e14df2)" style="fill: none; stroke-dasharray: 0.8,1.32; stroke-dashoffset: 0; stroke: #b0b0b0; stroke-opacity: 0.8; stroke-width: 0.8"/>
     </g>
     <g id="line2d_8">
      <g>
       <use xlink:href="#m950352d52b" x="226.410254" y="173.52" style="stroke: #000000; stroke-width: 0.8"/>
      </g>
     </g>
     <g id="text_4">
      <!-- 6 -->
      <g transform="translate(223.229004 188.118438) scale(0.1 -0.1)">
       <defs>
        <path id="DejaVuSans-36" d="M 2113 2584 
Q 1688 2584 1439 2293 
Q 1191 2003 1191 1497 
Q 1191 994 1439 701 
Q 1688 409 2113 409 
Q 2538 409 2786 701 
Q 3034 994 3034 1497 
Q 3034 2003 2786 2293 
Q 2538 2584 2113 2584 
z
M 3366 4563 
L 3366 3988 
Q 3128 4100 2886 4159 
Q 2644 4219 2406 4219 
Q 1781 4219 1451 3797 
Q 1122 3375 1075 2522 
Q 1259 2794 1537 2939 
Q 1816 3084 2150 3084 
Q 2853 3084 3261 2657 
Q 3669 2231 3669 1497 
Q 3669 778 3244 343 
Q 2819 -91 2113 -91 
Q 1303 -91 875 529 
Q 447 1150 447 2328 
Q 447 3434 972 4092 
Q 1497 4750 2381 4750 
Q 2619 4750 2861 4703 
Q 3103 4656 3366 4563 
z
" transform="scale(0.015625)"/>
       </defs>
       <use xlink:href="#DejaVuSans-36"/>
      </g>
     </g>
    </g>
    <g id="xtick_5">
     <g id="line2d_9">
      <path d="M 280.522953 173.52 
L 280.522953 7.2 
" clip-path="url(#p8719e14df2)" style="fill: none; stroke-dasharray: 0.8,1.32; stroke-dashoffset: 0; stroke: #b0b0b0; stroke-opacity: 0.8; stroke-width: 0.8"/>
     </g>
     <g id="line2d_10">
      <g>
       <use xlink:href="#m950352d52b" x="280.522953" y="173.52" style="stroke: #000000; stroke-width: 0.8"/>
      </g>
     </g>
     <g id="text_5">
      <!-- 8 -->
      <g transform="translate(277.341703 188.118438) scale(0.1 -0.1)">
       <defs>
        <path id="DejaVuSans-38" d="M 2034 2216 
Q 1584 2216 1326 1975 
Q 1069 1734 1069 1313 
Q 1069 891 1326 650 
Q 1584 409 2034 409 
Q 2484 409 2743 651 
Q 3003 894 3003 1313 
Q 3003 1734 2745 1975 
Q 2488 2216 2034 2216 
z
M 1403 2484 
Q 997 2584 770 2862 
Q 544 3141 544 3541 
Q 544 4100 942 4425 
Q 1341 4750 2034 4750 
Q 2731 4750 3128 4425 
Q 3525 4100 3525 3541 
Q 3525 3141 3298 2862 
Q 3072 2584 2669 2484 
Q 3125 2378 3379 2068 
Q 3634 1759 3634 1313 
Q 3634 634 3220 271 
Q 2806 -91 2034 -91 
Q 1263 -91 848 271 
Q 434 634 434 1313 
Q 434 1759 690 2068 
Q 947 2378 1403 2484 
z
M 1172 3481 
Q 1172 3119 1398 2916 
Q 1625 2713 2034 2713 
Q 2441 2713 2670 2916 
Q 2900 3119 2900 3481 
Q 2900 3844 2670 4047 
Q 2441 4250 2034 4250 
Q 1625 4250 1398 4047 
Q 1172 3844 1172 3481 
z
" transform="scale(0.015625)"/>
       </defs>
       <use xlink:href="#DejaVuSans-38"/>
      </g>
     </g>
    </g>
    <g id="xtick_6">
     <g id="line2d_11">
      <path d="M 334.635651 173.52 
L 334.635651 7.2 
" clip-path="url(#p8719e14df2)" style="fill: none; stroke-dasharray: 0.8,1.32; stroke-dashoffset: 0; stroke: #b0b0b0; stroke-opacity: 0.8; stroke-width: 0.8"/>
     </g>
     <g id="line2d_12">
      <g>
       <use xlink:href="#m950352d52b" x="334.635651" y="173.52" style="stroke: #000000; stroke-width: 0.8"/>
      </g>
     </g>
     <g id="text_6">
      <!-- 10 -->
      <g transform="translate(328.273151 188.118438) scale(0.1 -0.1)">
       <defs>
        <path id="DejaVuSans-31" d="M 794 531 
L 1825 531 
L 1825 4091 
L 703 3866 
L 703 4441 
L 1819 4666 
L 2450 4666 
L 2450 531 
L 3481 531 
L 3481 0 
L 794 0 
L 794 531 
z
" transform="scale(0.015625)"/>
       </defs>
       <use xlink:href="#DejaVuSans-31"/>
       <use xlink:href="#DejaVuSans-30" transform="translate(63.623047 0)"/>
      </g>
     </g>
    </g>
    <g id="xtick_7">
     <g id="line2d_13">
      <path d="M 388.74835 173.52 
L 388.74835 7.2 
" clip-path="url(#p8719e14df2)" style="fill: none; stroke-dasharray: 0.8,1.32; stroke-dashoffset: 0; stroke: #b0b0b0; stroke-opacity: 0.8; stroke-width: 0.8"/>
     </g>
     <g id="line2d_14">
      <g>
       <use xlink:href="#m950352d52b" x="388.74835" y="173.52" style="stroke: #000000; stroke-width: 0.8"/>
      </g>
     </g>
     <g id="text_7">
      <!-- 12 -->
      <g transform="translate(382.38585 188.118438) scale(0.1 -0.1)">
       <use xlink:href="#DejaVuSans-31"/>
       <use xlink:href="#DejaVuSans-32" transform="translate(63.623047 0)"/>
      </g>
     </g>
    </g>
    <g id="xtick_8">
     <g id="line2d_15">
      <path d="M 442.861048 173.52 
L 442.861048 7.2 
" clip-path="url(#p8719e14df2)" style="fill: none; stroke-dasharray: 0.8,1.32; stroke-dashoffset: 0; stroke: #b0b0b0; stroke-opacity: 0.8; stroke-width: 0.8"/>
     </g>
     <g id="line2d_16">
      <g>
       <use xlink:href="#m950352d52b" x="442.861048" y="173.52" style="stroke: #000000; stroke-width: 0.8"/>
      </g>
     </g>
     <g id="text_8">
      <!-- 14 -->
      <g transform="translate(436.498548 188.118438) scale(0.1 -0.1)">
       <use xlink:href="#DejaVuSans-31"/>
       <use xlink:href="#DejaVuSans-34" transform="translate(63.623047 0)"/>
      </g>
     </g>
    </g>
    <g id="text_9">
     <!-- step -->
     <g transform="translate(256.165625 201.796563) scale(0.1 -0.1)">
      <defs>
       <path id="DejaVuSans-73" d="M 2834 3397 
L 2834 2853 
Q 2591 2978 2328 3040 
Q 2066 3103 1784 3103 
Q 1356 3103 1142 2972 
Q 928 2841 928 2578 
Q 928 2378 1081 2264 
Q 1234 2150 1697 2047 
L 1894 2003 
Q 2506 1872 2764 1633 
Q 3022 1394 3022 966 
Q 3022 478 2636 193 
Q 2250 -91 1575 -91 
Q 1294 -91 989 -36 
Q 684 19 347 128 
L 347 722 
Q 666 556 975 473 
Q 1284 391 1588 391 
Q 1994 391 2212 530 
Q 2431 669 2431 922 
Q 2431 1156 2273 1281 
Q 2116 1406 1581 1522 
L 1381 1569 
Q 847 1681 609 1914 
Q 372 2147 372 2553 
Q 372 3047 722 3315 
Q 1072 3584 1716 3584 
Q 2034 3584 2315 3537 
Q 2597 3491 2834 3397 
z
" transform="scale(0.015625)"/>
       <path id="DejaVuSans-74" d="M 1172 4494 
L 1172 3500 
L 2356 3500 
L 2356 3053 
L 1172 3053 
L 1172 1153 
Q 1172 725 1289 603 
Q 1406 481 1766 481 
L 2356 481 
L 2356 0 
L 1766 0 
Q 1100 0 847 248 
Q 594 497 594 1153 
L 594 3053 
L 172 3053 
L 172 3500 
L 594 3500 
L 594 4494 
L 1172 4494 
z
" transform="scale(0.015625)"/>
       <path id="DejaVuSans-65" d="M 3597 1894 
L 3597 1613 
L 953 1613 
Q 991 1019 1311 708 
Q 1631 397 2203 397 
Q 2534 397 2845 478 
Q 3156 559 3463 722 
L 3463 178 
Q 3153 47 2828 -22 
Q 2503 -91 2169 -91 
Q 1331 -91 842 396 
Q 353 884 353 1716 
Q 353 2575 817 3079 
Q 1281 3584 2069 3584 
Q 2775 3584 3186 3129 
Q 3597 2675 3597 1894 
z
M 3022 2063 
Q 3016 2534 2758 2815 
Q 2500 3097 2075 3097 
Q 1594 3097 1305 2825 
Q 1016 2553 972 2059 
L 3022 2063 
z
" transform="scale(0.015625)"/>
       <path id="DejaVuSans-70" d="M 1159 525 
L 1159 -1331 
L 581 -1331 
L 581 3500 
L 1159 3500 
L 1159 2969 
Q 1341 3281 1617 3432 
Q 1894 3584 2278 3584 
Q 2916 3584 3314 3078 
Q 3713 2572 3713 1747 
Q 3713 922 3314 415 
Q 2916 -91 2278 -91 
Q 1894 -91 1617 61 
Q 1341 213 1159 525 
z
M 3116 1747 
Q 3116 2381 2855 2742 
Q 2594 3103 2138 3103 
Q 1681 3103 1420 2742 
Q 1159 2381 1159 1747 
Q 1159 1113 1420 752 
Q 1681 391 2138 391 
Q 2594 391 2855 752 
Q 3116 1113 3116 1747 
z
" transform="scale(0.015625)"/>
      </defs>
      <use xlink:href="#DejaVuSans-73"/>
      <use xlink:href="#DejaVuSans-74" transform="translate(52.099609 0)"/>
      <use xlink:href="#DejaVuSans-65" transform="translate(91.308594 0)"/>
      <use xlink:href="#DejaVuSans-70" transform="translate(152.832031 0)"/>
     </g>
    </g>
    <g id="text_10">
     <!-- 1e3 -->
     <g transform="translate(471.303125 200.796563) scale(0.1 -0.1)">
      <defs>
       <path id="DejaVuSans-33" d="M 2597 2516 
Q 3050 2419 3304 2112 
Q 3559 1806 3559 1356 
Q 3559 666 3084 287 
Q 2609 -91 1734 -91 
Q 1441 -91 1130 -33 
Q 819 25 488 141 
L 488 750 
Q 750 597 1062 519 
Q 1375 441 1716 441 
Q 2309 441 2620 675 
Q 2931 909 2931 1356 
Q 2931 1769 2642 2001 
Q 2353 2234 1838 2234 
L 1294 2234 
L 1294 2753 
L 1863 2753 
Q 2328 2753 2575 2939 
Q 2822 3125 2822 3475 
Q 2822 3834 2567 4026 
Q 2313 4219 1838 4219 
Q 1578 4219 1281 4162 
Q 984 4106 628 3988 
L 628 4550 
Q 988 4650 1302 4700 
Q 1616 4750 1894 4750 
Q 2613 4750 3031 4423 
Q 3450 4097 3450 3541 
Q 3450 3153 3228 2886 
Q 3006 2619 2597 2516 
z
" transform="scale(0.015625)"/>
      </defs>
      <use xlink:href="#DejaVuSans-31"/>
      <use xlink:href="#DejaVuSans-65" transform="translate(63.623047 0)"/>
      <use xlink:href="#DejaVuSans-33" transform="translate(125.146484 0)"/>
     </g>
    </g>
   </g>
   <g id="matplotlib.axis_2">
    <g id="ytick_1">
     <g id="line2d_17">
      <path d="M 43.78125 172.401648 
L 490.18125 172.401648 
" clip-path="url(#p8719e14df2)" style="fill: none; stroke-dasharray: 0.8,1.32; stroke-dashoffset: 0; stroke: #b0b0b0; stroke-opacity: 0.8; stroke-width: 0.8"/>
     </g>
     <g id="line2d_18">
      <defs>
       <path id="mcfefcae256" d="M 0 0 
L -3.5 0 
" style="stroke: #000000; stroke-width: 0.8"/>
      </defs>
      <g>
       <use xlink:href="#mcfefcae256" x="43.78125" y="172.401648" style="stroke: #000000; stroke-width: 0.8"/>
      </g>
     </g>
     <g id="text_11">
      <!-- 0.0 -->
      <g transform="translate(20.878125 176.200866) scale(0.1 -0.1)">
       <defs>
        <path id="DejaVuSans-2e" d="M 684 794 
L 1344 794 
L 1344 0 
L 684 0 
L 684 794 
z
" transform="scale(0.015625)"/>
       </defs>
       <use xlink:href="#DejaVuSans-30"/>
       <use xlink:href="#DejaVuSans-2e" transform="translate(63.623047 0)"/>
       <use xlink:href="#DejaVuSans-30" transform="translate(95.410156 0)"/>
      </g>
     </g>
    </g>
    <g id="ytick_2">
     <g id="line2d_19">
      <path d="M 43.78125 149.376356 
L 490.18125 149.376356 
" clip-path="url(#p8719e14df2)" style="fill: none; stroke-dasharray: 0.8,1.32; stroke-dashoffset: 0; stroke: #b0b0b0; stroke-opacity: 0.8; stroke-width: 0.8"/>
     </g>
     <g id="line2d_20">
      <g>
       <use xlink:href="#mcfefcae256" x="43.78125" y="149.376356" style="stroke: #000000; stroke-width: 0.8"/>
      </g>
     </g>
     <g id="text_12">
      <!-- 0.1 -->
      <g transform="translate(20.878125 153.175574) scale(0.1 -0.1)">
       <use xlink:href="#DejaVuSans-30"/>
       <use xlink:href="#DejaVuSans-2e" transform="translate(63.623047 0)"/>
       <use xlink:href="#DejaVuSans-31" transform="translate(95.410156 0)"/>
      </g>
     </g>
    </g>
    <g id="ytick_3">
     <g id="line2d_21">
      <path d="M 43.78125 126.351063 
L 490.18125 126.351063 
" clip-path="url(#p8719e14df2)" style="fill: none; stroke-dasharray: 0.8,1.32; stroke-dashoffset: 0; stroke: #b0b0b0; stroke-opacity: 0.8; stroke-width: 0.8"/>
     </g>
     <g id="line2d_22">
      <g>
       <use xlink:href="#mcfefcae256" x="43.78125" y="126.351063" style="stroke: #000000; stroke-width: 0.8"/>
      </g>
     </g>
     <g id="text_13">
      <!-- 0.2 -->
      <g transform="translate(20.878125 130.150282) scale(0.1 -0.1)">
       <use xlink:href="#DejaVuSans-30"/>
       <use xlink:href="#DejaVuSans-2e" transform="translate(63.623047 0)"/>
       <use xlink:href="#DejaVuSans-32" transform="translate(95.410156 0)"/>
      </g>
     </g>
    </g>
    <g id="ytick_4">
     <g id="line2d_23">
      <path d="M 43.78125 103.325771 
L 490.18125 103.325771 
" clip-path="url(#p8719e14df2)" style="fill: none; stroke-dasharray: 0.8,1.32; stroke-dashoffset: 0; stroke: #b0b0b0; stroke-opacity: 0.8; stroke-width: 0.8"/>
     </g>
     <g id="line2d_24">
      <g>
       <use xlink:href="#mcfefcae256" x="43.78125" y="103.325771" style="stroke: #000000; stroke-width: 0.8"/>
      </g>
     </g>
     <g id="text_14">
      <!-- 0.3 -->
      <g transform="translate(20.878125 107.12499) scale(0.1 -0.1)">
       <use xlink:href="#DejaVuSans-30"/>
       <use xlink:href="#DejaVuSans-2e" transform="translate(63.623047 0)"/>
       <use xlink:href="#DejaVuSans-33" transform="translate(95.410156 0)"/>
      </g>
     </g>
    </g>
    <g id="ytick_5">
     <g id="line2d_25">
      <path d="M 43.78125 80.300479 
L 490.18125 80.300479 
" clip-path="url(#p8719e14df2)" style="fill: none; stroke-dasharray: 0.8,1.32; stroke-dashoffset: 0; stroke: #b0b0b0; stroke-opacity: 0.8; stroke-width: 0.8"/>
     </g>
     <g id="line2d_26">
      <g>
       <use xlink:href="#mcfefcae256" x="43.78125" y="80.300479" style="stroke: #000000; stroke-width: 0.8"/>
      </g>
     </g>
     <g id="text_15">
      <!-- 0.4 -->
      <g transform="translate(20.878125 84.099698) scale(0.1 -0.1)">
       <use xlink:href="#DejaVuSans-30"/>
       <use xlink:href="#DejaVuSans-2e" transform="translate(63.623047 0)"/>
       <use xlink:href="#DejaVuSans-34" transform="translate(95.410156 0)"/>
      </g>
     </g>
    </g>
    <g id="ytick_6">
     <g id="line2d_27">
      <path d="M 43.78125 57.275187 
L 490.18125 57.275187 
" clip-path="url(#p8719e14df2)" style="fill: none; stroke-dasharray: 0.8,1.32; stroke-dashoffset: 0; stroke: #b0b0b0; stroke-opacity: 0.8; stroke-width: 0.8"/>
     </g>
     <g id="line2d_28">
      <g>
       <use xlink:href="#mcfefcae256" x="43.78125" y="57.275187" style="stroke: #000000; stroke-width: 0.8"/>
      </g>
     </g>
     <g id="text_16">
      <!-- 0.5 -->
      <g transform="translate(20.878125 61.074406) scale(0.1 -0.1)">
       <defs>
        <path id="DejaVuSans-35" d="M 691 4666 
L 3169 4666 
L 3169 4134 
L 1269 4134 
L 1269 2991 
Q 1406 3038 1543 3061 
Q 1681 3084 1819 3084 
Q 2600 3084 3056 2656 
Q 3513 2228 3513 1497 
Q 3513 744 3044 326 
Q 2575 -91 1722 -91 
Q 1428 -91 1123 -41 
Q 819 9 494 109 
L 494 744 
Q 775 591 1075 516 
Q 1375 441 1709 441 
Q 2250 441 2565 725 
Q 2881 1009 2881 1497 
Q 2881 1984 2565 2268 
Q 2250 2553 1709 2553 
Q 1456 2553 1204 2497 
Q 953 2441 691 2322 
L 691 4666 
z
" transform="scale(0.015625)"/>
       </defs>
       <use xlink:href="#DejaVuSans-30"/>
       <use xlink:href="#DejaVuSans-2e" transform="translate(63.623047 0)"/>
       <use xlink:href="#DejaVuSans-35" transform="translate(95.410156 0)"/>
      </g>
     </g>
    </g>
    <g id="ytick_7">
     <g id="line2d_29">
      <path d="M 43.78125 34.249895 
L 490.18125 34.249895 
" clip-path="url(#p8719e14df2)" style="fill: none; stroke-dasharray: 0.8,1.32; stroke-dashoffset: 0; stroke: #b0b0b0; stroke-opacity: 0.8; stroke-width: 0.8"/>
     </g>
     <g id="line2d_30">
      <g>
       <use xlink:href="#mcfefcae256" x="43.78125" y="34.249895" style="stroke: #000000; stroke-width: 0.8"/>
      </g>
     </g>
     <g id="text_17">
      <!-- 0.6 -->
      <g transform="translate(20.878125 38.049114) scale(0.1 -0.1)">
       <use xlink:href="#DejaVuSans-30"/>
       <use xlink:href="#DejaVuSans-2e" transform="translate(63.623047 0)"/>
       <use xlink:href="#DejaVuSans-36" transform="translate(95.410156 0)"/>
      </g>
     </g>
    </g>
    <g id="ytick_8">
     <g id="line2d_31">
      <path d="M 43.78125 11.224603 
L 490.18125 11.224603 
" clip-path="url(#p8719e14df2)" style="fill: none; stroke-dasharray: 0.8,1.32; stroke-dashoffset: 0; stroke: #b0b0b0; stroke-opacity: 0.8; stroke-width: 0.8"/>
     </g>
     <g id="line2d_32">
      <g>
       <use xlink:href="#mcfefcae256" x="43.78125" y="11.224603" style="stroke: #000000; stroke-width: 0.8"/>
      </g>
     </g>
     <g id="text_18">
      <!-- 0.7 -->
      <g transform="translate(20.878125 15.023822) scale(0.1 -0.1)">
       <defs>
        <path id="DejaVuSans-37" d="M 525 4666 
L 3525 4666 
L 3525 4397 
L 1831 0 
L 1172 0 
L 2766 4134 
L 525 4134 
L 525 4666 
z
" transform="scale(0.015625)"/>
       </defs>
       <use xlink:href="#DejaVuSans-30"/>
       <use xlink:href="#DejaVuSans-2e" transform="translate(63.623047 0)"/>
       <use xlink:href="#DejaVuSans-37" transform="translate(95.410156 0)"/>
      </g>
     </g>
    </g>
    <g id="text_19">
     <!-- Batch loss -->
     <g style="fill: #0000ff" transform="translate(14.798438 115.979531) rotate(-90) scale(0.1 -0.1)">
      <defs>
       <path id="DejaVuSans-42" d="M 1259 2228 
L 1259 519 
L 2272 519 
Q 2781 519 3026 730 
Q 3272 941 3272 1375 
Q 3272 1813 3026 2020 
Q 2781 2228 2272 2228 
L 1259 2228 
z
M 1259 4147 
L 1259 2741 
L 2194 2741 
Q 2656 2741 2882 2914 
Q 3109 3088 3109 3444 
Q 3109 3797 2882 3972 
Q 2656 4147 2194 4147 
L 1259 4147 
z
M 628 4666 
L 2241 4666 
Q 2963 4666 3353 4366 
Q 3744 4066 3744 3513 
Q 3744 3084 3544 2831 
Q 3344 2578 2956 2516 
Q 3422 2416 3680 2098 
Q 3938 1781 3938 1306 
Q 3938 681 3513 340 
Q 3088 0 2303 0 
L 628 0 
L 628 4666 
z
" transform="scale(0.015625)"/>
       <path id="DejaVuSans-61" d="M 2194 1759 
Q 1497 1759 1228 1600 
Q 959 1441 959 1056 
Q 959 750 1161 570 
Q 1363 391 1709 391 
Q 2188 391 2477 730 
Q 2766 1069 2766 1631 
L 2766 1759 
L 2194 1759 
z
M 3341 1997 
L 3341 0 
L 2766 0 
L 2766 531 
Q 2569 213 2275 61 
Q 1981 -91 1556 -91 
Q 1019 -91 701 211 
Q 384 513 384 1019 
Q 384 1609 779 1909 
Q 1175 2209 1959 2209 
L 2766 2209 
L 2766 2266 
Q 2766 2663 2505 2880 
Q 2244 3097 1772 3097 
Q 1472 3097 1187 3025 
Q 903 2953 641 2809 
L 641 3341 
Q 956 3463 1253 3523 
Q 1550 3584 1831 3584 
Q 2591 3584 2966 3190 
Q 3341 2797 3341 1997 
z
" transform="scale(0.015625)"/>
       <path id="DejaVuSans-63" d="M 3122 3366 
L 3122 2828 
Q 2878 2963 2633 3030 
Q 2388 3097 2138 3097 
Q 1578 3097 1268 2742 
Q 959 2388 959 1747 
Q 959 1106 1268 751 
Q 1578 397 2138 397 
Q 2388 397 2633 464 
Q 2878 531 3122 666 
L 3122 134 
Q 2881 22 2623 -34 
Q 2366 -91 2075 -91 
Q 1284 -91 818 406 
Q 353 903 353 1747 
Q 353 2603 823 3093 
Q 1294 3584 2113 3584 
Q 2378 3584 2631 3529 
Q 2884 3475 3122 3366 
z
" transform="scale(0.015625)"/>
       <path id="DejaVuSans-68" d="M 3513 2113 
L 3513 0 
L 2938 0 
L 2938 2094 
Q 2938 2591 2744 2837 
Q 2550 3084 2163 3084 
Q 1697 3084 1428 2787 
Q 1159 2491 1159 1978 
L 1159 0 
L 581 0 
L 581 4863 
L 1159 4863 
L 1159 2956 
Q 1366 3272 1645 3428 
Q 1925 3584 2291 3584 
Q 2894 3584 3203 3211 
Q 3513 2838 3513 2113 
z
" transform="scale(0.015625)"/>
       <path id="DejaVuSans-20" transform="scale(0.015625)"/>
       <path id="DejaVuSans-6c" d="M 603 4863 
L 1178 4863 
L 1178 0 
L 603 0 
L 603 4863 
z
" transform="scale(0.015625)"/>
       <path id="DejaVuSans-6f" d="M 1959 3097 
Q 1497 3097 1228 2736 
Q 959 2375 959 1747 
Q 959 1119 1226 758 
Q 1494 397 1959 397 
Q 2419 397 2687 759 
Q 2956 1122 2956 1747 
Q 2956 2369 2687 2733 
Q 2419 3097 1959 3097 
z
M 1959 3584 
Q 2709 3584 3137 3096 
Q 3566 2609 3566 1747 
Q 3566 888 3137 398 
Q 2709 -91 1959 -91 
Q 1206 -91 779 398 
Q 353 888 353 1747 
Q 353 2609 779 3096 
Q 1206 3584 1959 3584 
z
" transform="scale(0.015625)"/>
      </defs>
      <use xlink:href="#DejaVuSans-42"/>
      <use xlink:href="#DejaVuSans-61" transform="translate(68.603516 0)"/>
      <use xlink:href="#DejaVuSans-74" transform="translate(129.882812 0)"/>
      <use xlink:href="#DejaVuSans-63" transform="translate(169.091797 0)"/>
      <use xlink:href="#DejaVuSans-68" transform="translate(224.072266 0)"/>
      <use xlink:href="#DejaVuSans-20" transform="translate(287.451172 0)"/>
      <use xlink:href="#DejaVuSans-6c" transform="translate(319.238281 0)"/>
      <use xlink:href="#DejaVuSans-6f" transform="translate(347.021484 0)"/>
      <use xlink:href="#DejaVuSans-73" transform="translate(408.203125 0)"/>
      <use xlink:href="#DejaVuSans-73" transform="translate(460.302734 0)"/>
     </g>
    </g>
   </g>
   <g id="line2d_33">
    <path d="M 64.072159 14.76 
L 65.019131 16.914224 
L 66.020216 18.646677 
L 67.156583 20.167024 
L 68.563513 21.661199 
L 70.700965 23.566989 
L 74.732361 27.143555 
L 76.923925 29.420212 
L 78.926095 31.823749 
L 80.874152 34.516467 
L 82.822209 37.596426 
L 84.851435 41.23202 
L 87.043 45.626065 
L 89.640409 51.358558 
L 93.482411 60.452944 
L 99.001906 73.440465 
L 102.167499 80.293465 
L 105.062528 86.037746 
L 107.876388 91.134612 
L 110.690249 95.779679 
L 113.585278 100.129347 
L 116.53442 104.159572 
L 119.564731 107.927193 
L 122.703268 111.477375 
L 125.977086 114.845197 
L 129.386186 118.033141 
L 132.930568 121.045549 
L 136.664344 123.927787 
L 140.587515 126.675073 
L 144.70008 129.285038 
L 149.056152 131.786695 
L 153.655731 134.172548 
L 158.552931 136.461807 
L 163.774806 138.655577 
L 169.321358 140.744166 
L 175.273754 142.747204 
L 181.686109 144.668392 
L 188.585478 146.501935 
L 196.053031 148.255401 
L 204.251104 149.947847 
L 213.206756 151.56466 
L 223.055267 153.111451 
L 233.823694 154.575454 
L 245.809657 155.978197 
L 259.229606 157.320752 
L 274.191767 158.591696 
L 291.237267 159.811538 
L 310.5555 160.966161 
L 332.71465 162.06252 
L 358.391126 163.103264 
L 388.396617 164.088085 
L 423.732209 165.015409 
L 465.020198 165.871647 
L 469.890341 165.96 
L 469.890341 165.96 
" clip-path="url(#p8719e14df2)" style="fill: none; stroke: #0000ff; stroke-width: 2; stroke-linecap: square"/>
   </g>
   <g id="patch_3">
    <path d="M 43.78125 173.52 
L 43.78125 7.2 
" style="fill: none; stroke: #000000; stroke-width: 0.8; stroke-linejoin: miter; stroke-linecap: square"/>
   </g>
   <g id="patch_4">
    <path d="M 490.18125 173.52 
L 490.18125 7.2 
" style="fill: none; stroke: #000000; stroke-width: 0.8; stroke-linejoin: miter; stroke-linecap: square"/>
   </g>
   <g id="patch_5">
    <path d="M 43.78125 173.52 
L 490.18125 173.52 
" style="fill: none; stroke: #000000; stroke-width: 0.8; stroke-linejoin: miter; stroke-linecap: square"/>
   </g>
   <g id="patch_6">
    <path d="M 43.78125 7.2 
L 490.18125 7.2 
" style="fill: none; stroke: #000000; stroke-width: 0.8; stroke-linejoin: miter; stroke-linecap: square"/>
   </g>
  </g>
  <g id="axes_2">
   <g id="matplotlib.axis_3">
    <g id="ytick_9">
     <g id="line2d_34">
      <defs>
       <path id="m6df7edf39e" d="M 0 0 
L 3.5 0 
" style="stroke: #000000; stroke-width: 0.8"/>
      </defs>
      <g>
       <use xlink:href="#m6df7edf39e" x="490.18125" y="171.534188" style="stroke: #000000; stroke-width: 0.8"/>
      </g>
     </g>
     <g id="text_20">
      <!-- 70 -->
      <g transform="translate(497.18125 175.333407) scale(0.1 -0.1)">
       <use xlink:href="#DejaVuSans-37"/>
       <use xlink:href="#DejaVuSans-30" transform="translate(63.623047 0)"/>
      </g>
     </g>
    </g>
    <g id="ytick_10">
     <g id="line2d_35">
      <g>
       <use xlink:href="#m6df7edf39e" x="490.18125" y="145.405157" style="stroke: #000000; stroke-width: 0.8"/>
      </g>
     </g>
     <g id="text_21">
      <!-- 75 -->
      <g transform="translate(497.18125 149.204375) scale(0.1 -0.1)">
       <use xlink:href="#DejaVuSans-37"/>
       <use xlink:href="#DejaVuSans-35" transform="translate(63.623047 0)"/>
      </g>
     </g>
    </g>
    <g id="ytick_11">
     <g id="line2d_36">
      <g>
       <use xlink:href="#m6df7edf39e" x="490.18125" y="119.276125" style="stroke: #000000; stroke-width: 0.8"/>
      </g>
     </g>
     <g id="text_22">
      <!-- 80 -->
      <g transform="translate(497.18125 123.075344) scale(0.1 -0.1)">
       <use xlink:href="#DejaVuSans-38"/>
       <use xlink:href="#DejaVuSans-30" transform="translate(63.623047 0)"/>
      </g>
     </g>
    </g>
    <g id="ytick_12">
     <g id="line2d_37">
      <g>
       <use xlink:href="#m6df7edf39e" x="490.18125" y="93.147094" style="stroke: #000000; stroke-width: 0.8"/>
      </g>
     </g>
     <g id="text_23">
      <!-- 85 -->
      <g transform="translate(497.18125 96.946313) scale(0.1 -0.1)">
       <use xlink:href="#DejaVuSans-38"/>
       <use xlink:href="#DejaVuSans-35" transform="translate(63.623047 0)"/>
      </g>
     </g>
    </g>
    <g id="ytick_13">
     <g id="line2d_38">
      <g>
       <use xlink:href="#m6df7edf39e" x="490.18125" y="67.018063" style="stroke: #000000; stroke-width: 0.8"/>
      </g>
     </g>
     <g id="text_24">
      <!-- 90 -->
      <g transform="translate(497.18125 70.817281) scale(0.1 -0.1)">
       <defs>
        <path id="DejaVuSans-39" d="M 703 97 
L 703 672 
Q 941 559 1184 500 
Q 1428 441 1663 441 
Q 2288 441 2617 861 
Q 2947 1281 2994 2138 
Q 2813 1869 2534 1725 
Q 2256 1581 1919 1581 
Q 1219 1581 811 2004 
Q 403 2428 403 3163 
Q 403 3881 828 4315 
Q 1253 4750 1959 4750 
Q 2769 4750 3195 4129 
Q 3622 3509 3622 2328 
Q 3622 1225 3098 567 
Q 2575 -91 1691 -91 
Q 1453 -91 1209 -44 
Q 966 3 703 97 
z
M 1959 2075 
Q 2384 2075 2632 2365 
Q 2881 2656 2881 3163 
Q 2881 3666 2632 3958 
Q 2384 4250 1959 4250 
Q 1534 4250 1286 3958 
Q 1038 3666 1038 3163 
Q 1038 2656 1286 2365 
Q 1534 2075 1959 2075 
z
" transform="scale(0.015625)"/>
       </defs>
       <use xlink:href="#DejaVuSans-39"/>
       <use xlink:href="#DejaVuSans-30" transform="translate(63.623047 0)"/>
      </g>
     </g>
    </g>
    <g id="ytick_14">
     <g id="line2d_39">
      <g>
       <use xlink:href="#m6df7edf39e" x="490.18125" y="40.889031" style="stroke: #000000; stroke-width: 0.8"/>
      </g>
     </g>
     <g id="text_25">
      <!-- 95 -->
      <g transform="translate(497.18125 44.68825) scale(0.1 -0.1)">
       <use xlink:href="#DejaVuSans-39"/>
       <use xlink:href="#DejaVuSans-35" transform="translate(63.623047 0)"/>
      </g>
     </g>
    </g>
    <g id="ytick_15">
     <g id="line2d_40">
      <g>
       <use xlink:href="#m6df7edf39e" x="490.18125" y="14.76" style="stroke: #000000; stroke-width: 0.8"/>
      </g>
     </g>
     <g id="text_26">
      <!-- 100 -->
      <g transform="translate(497.18125 18.559219) scale(0.1 -0.1)">
       <use xlink:href="#DejaVuSans-31"/>
       <use xlink:href="#DejaVuSans-30" transform="translate(63.623047 0)"/>
       <use xlink:href="#DejaVuSans-30" transform="translate(127.246094 0)"/>
      </g>
     </g>
    </g>
    <g id="text_27">
     <!-- Batch accs (%) -->
     <g style="fill: #ff0000" transform="translate(527.867188 127.730313) rotate(-90) scale(0.1 -0.1)">
      <defs>
       <path id="DejaVuSans-28" d="M 1984 4856 
Q 1566 4138 1362 3434 
Q 1159 2731 1159 2009 
Q 1159 1288 1364 580 
Q 1569 -128 1984 -844 
L 1484 -844 
Q 1016 -109 783 600 
Q 550 1309 550 2009 
Q 550 2706 781 3412 
Q 1013 4119 1484 4856 
L 1984 4856 
z
" transform="scale(0.015625)"/>
       <path id="DejaVuSans-25" d="M 4653 2053 
Q 4381 2053 4226 1822 
Q 4072 1591 4072 1178 
Q 4072 772 4226 539 
Q 4381 306 4653 306 
Q 4919 306 5073 539 
Q 5228 772 5228 1178 
Q 5228 1588 5073 1820 
Q 4919 2053 4653 2053 
z
M 4653 2450 
Q 5147 2450 5437 2106 
Q 5728 1763 5728 1178 
Q 5728 594 5436 251 
Q 5144 -91 4653 -91 
Q 4153 -91 3862 251 
Q 3572 594 3572 1178 
Q 3572 1766 3864 2108 
Q 4156 2450 4653 2450 
z
M 1428 4353 
Q 1159 4353 1004 4120 
Q 850 3888 850 3481 
Q 850 3069 1003 2837 
Q 1156 2606 1428 2606 
Q 1700 2606 1854 2837 
Q 2009 3069 2009 3481 
Q 2009 3884 1853 4118 
Q 1697 4353 1428 4353 
z
M 4250 4750 
L 4750 4750 
L 1831 -91 
L 1331 -91 
L 4250 4750 
z
M 1428 4750 
Q 1922 4750 2215 4408 
Q 2509 4066 2509 3481 
Q 2509 2891 2217 2550 
Q 1925 2209 1428 2209 
Q 931 2209 642 2551 
Q 353 2894 353 3481 
Q 353 4063 643 4406 
Q 934 4750 1428 4750 
z
" transform="scale(0.015625)"/>
       <path id="DejaVuSans-29" d="M 513 4856 
L 1013 4856 
Q 1481 4119 1714 3412 
Q 1947 2706 1947 2009 
Q 1947 1309 1714 600 
Q 1481 -109 1013 -844 
L 513 -844 
Q 928 -128 1133 580 
Q 1338 1288 1338 2009 
Q 1338 2731 1133 3434 
Q 928 4138 513 4856 
z
" transform="scale(0.015625)"/>
      </defs>
      <use xlink:href="#DejaVuSans-42"/>
      <use xlink:href="#DejaVuSans-61" transform="translate(68.603516 0)"/>
      <use xlink:href="#DejaVuSans-74" transform="translate(129.882812 0)"/>
      <use xlink:href="#DejaVuSans-63" transform="translate(169.091797 0)"/>
      <use xlink:href="#DejaVuSans-68" transform="translate(224.072266 0)"/>
      <use xlink:href="#DejaVuSans-20" transform="translate(287.451172 0)"/>
      <use xlink:href="#DejaVuSans-61" transform="translate(319.238281 0)"/>
      <use xlink:href="#DejaVuSans-63" transform="translate(380.517578 0)"/>
      <use xlink:href="#DejaVuSans-63" transform="translate(435.498047 0)"/>
      <use xlink:href="#DejaVuSans-73" transform="translate(490.478516 0)"/>
      <use xlink:href="#DejaVuSans-20" transform="translate(542.578125 0)"/>
      <use xlink:href="#DejaVuSans-28" transform="translate(574.365234 0)"/>
      <use xlink:href="#DejaVuSans-25" transform="translate(613.378906 0)"/>
      <use xlink:href="#DejaVuSans-29" transform="translate(708.398438 0)"/>
     </g>
    </g>
   </g>
   <g id="line2d_41">
    <path d="M 64.072159 165.611618 
L 64.099215 165.611618 
L 64.180384 165.437427 
L 64.207441 165.611618 
L 64.234497 165.785769 
L 64.315666 165.611618 
L 64.342723 165.611618 
L 64.396835 165.96 
L 64.450948 165.785769 
L 64.613286 165.437427 
L 64.640342 165.437427 
L 64.937962 164.218051 
L 64.992075 164.218051 
L 65.046188 164.04386 
L 65.1003 164.218051 
L 65.154413 164.218051 
L 65.289695 164.392242 
L 65.316751 164.392242 
L 65.370864 164.566473 
L 65.424977 164.392242 
L 65.533202 163.86967 
L 65.587315 164.04386 
L 65.722596 164.04386 
L 65.966104 163.172906 
L 66.047273 163.521288 
L 66.101385 163.347097 
L 66.155498 163.347097 
L 66.317836 163.695479 
L 66.534287 162.998715 
L 66.615456 162.998715 
L 66.642512 163.172906 
L 66.696625 162.824524 
L 66.80485 162.301912 
L 66.831907 162.476142 
L 66.967188 162.476142 
L 67.10247 162.824524 
L 67.183639 162.476142 
L 67.210696 162.650333 
L 67.373034 162.650333 
L 67.616541 161.779339 
L 67.643597 161.779339 
L 67.670654 161.430957 
L 67.751823 161.779339 
L 67.914161 161.430957 
L 67.941217 161.430957 
L 68.076499 161.256766 
L 68.29295 161.256766 
L 68.320006 161.430957 
L 68.401175 161.256766 
L 68.455288 161.256766 
L 68.536457 161.430957 
L 68.563513 161.256766 
L 68.590569 161.082576 
L 68.671738 161.256766 
L 68.698795 161.256766 
L 68.725851 161.082576 
L 68.80702 161.256766 
L 68.888189 161.256766 
L 69.023471 160.734194 
L 69.077584 160.734194 
L 69.266978 160.211581 
L 69.483429 160.211581 
L 69.69988 159.514858 
L 69.781049 159.514858 
L 69.916331 159.166436 
L 69.970443 159.340627 
L 70.024556 159.166436 
L 70.051612 159.166436 
L 70.186894 158.992285 
L 70.241007 158.992285 
L 70.403345 158.643863 
L 70.51157 158.643863 
L 70.646852 158.469672 
L 70.673908 158.469672 
L 70.700965 158.295481 
L 70.782134 158.469672 
L 70.80919 158.469672 
L 70.971528 158.121291 
L 71.160923 158.121291 
L 71.296204 157.9471 
L 71.323261 157.9471 
L 71.539711 157.250336 
L 71.647937 157.250336 
L 71.810275 156.901954 
L 71.837331 156.901954 
L 72.026726 156.379382 
L 72.21612 156.379382 
L 72.486684 155.334197 
L 72.567853 155.334197 
L 72.757247 154.811624 
L 72.784304 154.811624 
L 72.946642 154.463202 
L 73.081923 154.463202 
L 73.541881 152.198721 
L 73.568938 152.198721 
L 73.731276 151.501917 
L 73.893614 151.153536 
L 73.947727 151.153536 
L 74.353572 149.237436 
L 74.488854 149.237436 
L 74.624135 149.063245 
L 74.786473 149.063245 
L 75.057037 148.01806 
L 75.192319 148.01806 
L 75.3276 147.495487 
L 75.354657 147.495487 
L 75.652277 146.276111 
L 75.679333 146.276111 
L 75.814615 146.10196 
L 75.92284 146.10196 
L 76.112234 145.579348 
L 76.22046 145.579348 
L 76.626305 143.663208 
L 76.653361 143.663208 
L 76.923925 142.618063 
L 76.978038 142.618063 
L 77.194488 141.921299 
L 77.275658 141.921299 
L 77.465052 141.398726 
L 77.573277 141.398726 
L 77.735615 141.050305 
L 77.762672 141.050305 
L 77.979123 140.353541 
L 78.033235 140.353541 
L 78.168517 139.830969 
L 78.276742 139.830969 
L 78.439081 139.482587 
L 78.601419 139.482587 
L 78.7367 139.308396 
L 78.817869 139.308396 
L 79.03432 138.611593 
L 79.115489 138.611593 
L 79.277827 138.263211 
L 79.358996 138.263211 
L 79.548391 137.043875 
L 79.656616 137.043875 
L 79.873067 136.347111 
L 79.900123 136.347111 
L 80.089518 135.824538 
L 80.143631 135.824538 
L 80.278912 135.650308 
L 80.305969 135.650308 
L 80.44125 135.476117 
L 80.468307 135.476117 
L 80.603588 135.301926 
L 80.657701 135.301926 
L 80.955321 134.08259 
L 81.009434 134.08259 
L 81.144715 133.211635 
L 81.198828 133.211635 
L 81.361166 132.863214 
L 81.442335 132.863214 
L 81.712899 131.818029 
L 81.902293 131.818029 
L 82.091688 131.295456 
L 82.172857 131.295456 
L 82.308138 131.121305 
L 82.335195 131.121305 
L 82.551646 130.424501 
L 82.632815 130.424501 
L 82.795153 129.727738 
L 82.849265 129.727738 
L 83.092773 128.856744 
L 83.146885 128.856744 
L 83.606843 126.592262 
L 83.6339 126.592262 
L 83.823294 126.069689 
L 83.85035 126.069689 
L 83.985632 125.895499 
L 84.039745 125.895499 
L 84.229139 125.372886 
L 84.310308 125.372886 
L 84.44559 125.198695 
L 84.607928 125.198695 
L 84.824379 124.501932 
L 85.013773 124.501932 
L 85.203168 123.979359 
L 85.365506 123.979359 
L 85.527844 123.108365 
L 85.5549 123.108365 
L 85.798408 122.23741 
L 85.825464 122.23741 
L 86.096027 121.192265 
L 86.231309 121.192265 
L 86.393647 120.843883 
L 86.555985 120.843883 
L 86.691267 119.972889 
L 86.718323 119.972889 
L 86.853605 119.798698 
L 86.880661 119.798698 
L 87.070056 119.276125 
L 87.232394 119.276125 
L 87.421788 118.056749 
L 87.55707 118.056749 
L 88.044084 115.618077 
L 88.15231 115.618077 
L 88.341704 115.095464 
L 88.476986 115.095464 
L 88.639324 114.747122 
L 88.666381 114.747122 
L 88.828719 113.876128 
L 89.018113 113.876128 
L 89.26162 113.005174 
L 89.315733 113.005174 
L 89.451015 112.830943 
L 89.505127 112.830943 
L 89.775691 111.785798 
L 89.802747 111.785798 
L 90.019198 111.089034 
L 90.100367 111.089034 
L 90.533269 108.998704 
L 90.587381 108.998704 
L 90.749719 108.127749 
L 90.776776 108.127749 
L 90.912058 107.953558 
L 91.020283 107.953558 
L 91.26379 107.082564 
L 91.534354 107.082564 
L 91.669635 106.908373 
L 91.750804 106.908373 
L 91.994311 106.037419 
L 92.048424 106.037419 
L 92.237819 105.514846 
L 92.264875 105.514846 
L 92.427213 104.818083 
L 92.454269 104.818083 
L 92.616608 104.469701 
L 92.697777 104.469701 
L 92.860115 103.598707 
L 92.887171 103.598707 
L 93.049509 102.901943 
L 93.238904 102.37937 
L 93.26596 102.37937 
L 93.509467 100.637422 
L 93.56358 100.637422 
L 93.752974 100.114849 
L 93.780031 100.114849 
L 94.07765 98.895473 
L 94.131763 98.895473 
L 94.267045 98.198709 
L 94.321158 98.198709 
L 94.456439 98.024519 
L 94.483496 98.024519 
L 94.645834 97.676137 
L 94.67289 97.676137 
L 94.835228 97.327755 
L 94.889341 97.327755 
L 95.295186 95.411615 
L 95.322242 95.411615 
L 95.484581 95.063234 
L 95.538693 95.063234 
L 95.728088 94.540661 
L 95.7822 94.540661 
L 96.052764 93.495476 
L 96.106877 93.495476 
L 96.431553 91.927758 
L 96.458609 92.101949 
L 96.512722 91.753527 
L 96.539778 91.753527 
L 96.756229 91.056803 
L 96.783285 91.056803 
L 96.810342 90.882573 
L 96.864454 91.056803 
L 97.405581 94.192279 
L 97.432638 94.018048 
L 97.459694 94.018048 
L 97.513807 94.540661 
L 97.567919 94.018048 
L 97.622032 93.843858 
L 97.649088 94.192279 
L 97.676145 94.192279 
L 97.946708 95.237424 
L 97.973765 95.237424 
L 98.000821 95.411615 
L 98.054934 95.063234 
L 98.163159 95.063234 
L 98.217272 95.411615 
L 98.271384 95.063234 
L 98.406666 94.889003 
L 98.433723 95.063234 
L 98.460779 94.714852 
L 98.514892 94.36643 
L 98.596061 94.540661 
L 98.623117 94.540661 
L 98.731342 95.063234 
L 98.866624 94.540661 
L 99.218357 92.972903 
L 99.245413 92.972903 
L 99.353638 92.624521 
L 99.380695 92.798712 
L 99.407751 92.798712 
L 99.48892 92.972903 
L 99.515977 92.798712 
L 99.813596 91.405145 
L 99.867709 91.579376 
L 99.894765 91.230954 
L 100.057104 89.663197 
L 100.246498 87.921288 
L 100.273554 87.921288 
L 100.625287 85.134194 
L 100.814681 83.566436 
L 101.112301 81.476105 
L 101.355808 77.121293 
L 101.599315 74.50839 
L 101.842823 72.766442 
L 102.032217 70.850342 
L 102.38395 67.540635 
L 102.411006 67.540635 
L 102.762738 64.230969 
L 102.789795 64.230969 
L 102.925077 63.882587 
L 103.439147 59.876117 
L 103.872049 55.695456 
L 103.899105 55.695456 
L 104.386119 51.863217 
L 104.575514 50.295499 
L 104.60257 50.295499 
L 104.683739 49.947117 
L 104.737852 50.121268 
L 104.764908 50.121268 
L 105.387204 46.811641 
L 105.49543 46.811641 
L 105.738937 45.940647 
L 105.79305 46.289028 
L 105.820106 45.766456 
L 106.036557 45.069692 
L 106.144782 45.069692 
L 106.361233 44.372889 
L 106.388289 44.372889 
L 106.631796 43.501934 
L 106.658853 43.501934 
L 106.848247 42.979362 
L 106.90236 42.979362 
L 107.037642 42.63098 
L 107.064698 42.63098 
L 107.19998 41.934177 
L 107.254092 42.108407 
L 107.281149 42.108407 
L 107.308205 42.282558 
L 107.362318 41.934177 
L 107.443487 41.934177 
L 107.578769 41.585795 
L 107.659938 41.934177 
L 107.71405 41.759986 
L 107.741107 41.759986 
L 107.930501 40.889031 
L 107.957558 41.063222 
L 108.092839 41.237413 
L 108.119896 41.237413 
L 108.255177 41.063222 
L 108.30929 41.063222 
L 108.471628 41.411604 
L 108.579854 41.411604 
L 108.796304 40.71484 
L 108.823361 40.71484 
L 109.012755 40.192268 
L 109.472713 40.192268 
L 109.607995 40.018077 
L 109.878558 40.018077 
L 110.095009 39.321274 
L 110.122065 39.495504 
L 110.176178 39.321274 
L 110.31146 39.147122 
L 110.419685 39.147122 
L 110.527911 39.321274 
L 110.717305 38.798701 
L 110.879643 38.798701 
L 111.014925 38.62451 
L 111.069038 38.62451 
L 111.12315 38.798701 
L 111.177263 38.62451 
L 111.312545 38.62451 
L 111.474883 38.276128 
L 111.826615 38.276128 
L 111.961897 38.101937 
L 112.232461 38.101937 
L 112.367742 37.927746 
L 112.665362 37.927746 
L 112.8277 37.579365 
L 113.341771 37.579365 
L 113.477053 37.405174 
L 113.693504 37.405174 
L 113.855842 37.056792 
L 114.424025 37.056792 
L 114.559307 36.882561 
L 115.073377 36.882561 
L 115.208659 36.70837 
L 115.587448 36.70837 
L 115.72273 36.534219 
L 115.993293 36.534219 
L 116.128575 36.359989 
L 116.182688 36.359989 
L 116.317969 36.185798 
L 116.886153 36.185798 
L 117.021434 36.011607 
L 117.075547 36.011607 
L 117.210829 35.837416 
L 118.076632 35.837416 
L 118.23897 35.489034 
L 118.347196 35.489034 
L 118.482477 35.314843 
L 118.861266 35.314843 
L 118.996548 35.140613 
L 119.348281 35.140613 
L 119.483562 34.966462 
L 120.592873 34.966462 
L 120.728154 34.792271 
L 120.944605 34.792271 
L 121.079887 34.61804 
L 121.837465 34.61804 
L 121.972746 34.443889 
L 122.053915 34.443889 
L 122.189197 34.269658 
L 122.595042 34.269658 
L 122.730324 34.095467 
L 122.946775 34.095467 
L 123.109113 33.747085 
L 123.190282 33.747085 
L 123.325564 33.572895 
L 123.785522 33.572895 
L 123.94786 33.224513 
L 124.164311 33.224513 
L 124.299592 32.876131 
L 124.488987 32.876131 
L 124.624269 32.70194 
L 125.679466 32.70194 
L 125.814748 32.527749 
L 126.24765 32.527749 
L 126.382931 32.353558 
L 126.437044 32.353558 
L 126.572326 32.179368 
L 126.951115 32.179368 
L 127.086396 32.005177 
L 127.248734 32.005177 
L 127.411073 31.656755 
L 127.762805 31.656755 
L 127.898087 31.308413 
L 128.114538 31.308413 
L 128.249819 31.134182 
L 128.520383 31.134182 
L 128.655665 30.959991 
L 129.494411 30.959991 
L 129.629693 30.785801 
L 129.65675 30.785801 
L 129.792031 30.61161 
L 129.900257 30.61161 
L 130.062595 30.263228 
L 130.116708 30.263228 
L 130.279046 29.914846 
L 130.306102 29.914846 
L 130.441384 29.740655 
L 130.576665 29.740655 
L 130.739004 29.392273 
L 130.76606 29.392273 
L 130.901342 29.218083 
L 131.06368 29.218083 
L 131.198961 29.043852 
L 131.334243 29.043852 
L 131.469525 28.869701 
L 131.550694 28.869701 
L 131.740088 28.347128 
L 132.17299 28.347128 
L 132.308272 27.998707 
L 132.443554 27.824516 
L 132.47061 27.824516 
L 132.632948 27.476134 
L 132.660004 27.476134 
L 132.849399 26.953521 
L 132.903511 26.953521 
L 133.06585 26.605179 
L 133.119962 26.605179 
L 133.2823 26.256798 
L 133.363469 26.256798 
L 133.498751 26.082567 
L 133.606977 26.082567 
L 133.769315 25.211613 
L 133.850484 25.211613 
L 134.066935 24.514849 
L 134.310442 24.514849 
L 134.499836 23.992236 
L 134.689231 23.992236 
L 134.824512 23.818046 
L 134.932738 23.818046 
L 135.203301 22.7729 
L 135.338583 22.7729 
L 135.500921 22.076137 
L 135.744428 22.076137 
L 136.880795 15.456803 
L 137.151358 15.456803 
L 137.313696 15.108382 
L 137.367809 15.108382 
L 137.503091 14.934191 
L 138.206556 14.934191 
L 138.341838 14.76 
L 469.890341 14.76 
L 469.890341 14.76 
" clip-path="url(#p8719e14df2)" style="fill: none; stroke: #ff0000; stroke-width: 2; stroke-linecap: square"/>
   </g>
   <g id="patch_7">
    <path d="M 43.78125 173.52 
L 43.78125 7.2 
" style="fill: none; stroke: #000000; stroke-width: 0.8; stroke-linejoin: miter; stroke-linecap: square"/>
   </g>
   <g id="patch_8">
    <path d="M 490.18125 173.52 
L 490.18125 7.2 
" style="fill: none; stroke: #000000; stroke-width: 0.8; stroke-linejoin: miter; stroke-linecap: square"/>
   </g>
   <g id="patch_9">
    <path d="M 43.78125 173.52 
L 490.18125 173.52 
" style="fill: none; stroke: #000000; stroke-width: 0.8; stroke-linejoin: miter; stroke-linecap: square"/>
   </g>
   <g id="patch_10">
    <path d="M 43.78125 7.2 
L 490.18125 7.2 
" style="fill: none; stroke: #000000; stroke-width: 0.8; stroke-linejoin: miter; stroke-linecap: square"/>
   </g>
  </g>
 </g>
 <defs>
  <clipPath id="p8719e14df2">
   <rect x="43.78125" y="7.2" width="446.4" height="166.32"/>
  </clipPath>
 </defs>
</svg>
