<?xml version="1.0" encoding="UTF-8" standalone="no"?>
<!DOCTYPE svg PUBLIC "-//W3C//DTD SVG 1.1//EN"
 "http://www.w3.org/Graphics/SVG/1.1/DTD/svg11.dtd">
<!-- Generated by graphviz version 13.0.1 (20250615.1724)
 -->
<!-- Pages: 1 -->
<svg width="478pt" height="641pt"
 viewBox="0.00 0.00 478.00 641.00" xmlns="http://www.w3.org/2000/svg" xmlns:xlink="http://www.w3.org/1999/xlink">
<g id="graph0" class="graph" transform="scale(1 1) rotate(0) translate(4 636.75)">
<polygon fill="white" stroke="none" points="-4,4 -4,-636.75 474,-636.75 474,4 -4,4"/>
<!-- 4505618144 -->
<g id="node1" class="node">
<title>4505618144</title>
<polygon fill="#caff70" stroke="black" points="74,-32.75 20,-32.75 20,0 74,0 74,-32.75"/>
<text xml:space="preserve" text-anchor="middle" x="47" y="-7.25" font-family="monospace" font-size="10.00"> ()</text>
</g>
<!-- 4505315520 -->
<g id="node2" class="node">
<title>4505315520</title>
<polygon fill="lightgrey" stroke="black" points="94,-95.88 0,-95.88 0,-75.12 94,-75.12 94,-95.88"/>
<text xml:space="preserve" text-anchor="middle" x="47" y="-82.38" font-family="monospace" font-size="10.00">MeanBackward0</text>
</g>
<!-- 4505315520&#45;&gt;4505618144 -->
<g id="edge20" class="edge">
<title>4505315520&#45;&gt;4505618144</title>
<path fill="none" stroke="black" d="M47,-74.88C47,-66.98 47,-55.38 47,-44.67"/>
<polygon fill="black" stroke="black" points="50.5,-44.71 47,-34.71 43.5,-44.71 50.5,-44.71"/>
</g>
<!-- 4505315616 -->
<g id="node3" class="node">
<title>4505315616</title>
<polygon fill="lightgrey" stroke="black" points="238,-165.38 126,-165.38 126,-144.62 238,-144.62 238,-165.38"/>
<text xml:space="preserve" text-anchor="middle" x="182" y="-151.88" font-family="monospace" font-size="10.00">NllLossBackward0</text>
</g>
<!-- 4505315616&#45;&gt;4505315520 -->
<g id="edge1" class="edge">
<title>4505315616&#45;&gt;4505315520</title>
<path fill="none" stroke="black" d="M162.37,-144.18C139.87,-132.94 102.76,-114.38 76.72,-101.36"/>
<polygon fill="black" stroke="black" points="78.52,-98.35 68.01,-97 75.39,-104.61 78.52,-98.35"/>
</g>
<!-- 5038618848 -->
<g id="node4" class="node">
<title>5038618848</title>
<polygon fill="orange" stroke="black" points="176,-102.25 112,-102.25 112,-68.75 176,-68.75 176,-102.25"/>
<text xml:space="preserve" text-anchor="middle" x="144" y="-88.75" font-family="monospace" font-size="10.00">self</text>
<text xml:space="preserve" text-anchor="middle" x="144" y="-76" font-family="monospace" font-size="10.00"> (8, 10)</text>
</g>
<!-- 4505315616&#45;&gt;5038618848 -->
<g id="edge2" class="edge">
<title>4505315616&#45;&gt;5038618848</title>
<path fill="none" stroke="black" d="M176.56,-144.33C170.44,-133.47 160.41,-115.66 153.1,-102.67"/>
</g>
<!-- 4505620464 -->
<g id="node5" class="node">
<title>4505620464</title>
<polygon fill="orange" stroke="black" points="248,-102.25 194,-102.25 194,-68.75 248,-68.75 248,-102.25"/>
<text xml:space="preserve" text-anchor="middle" x="221" y="-88.75" font-family="monospace" font-size="10.00">target</text>
<text xml:space="preserve" text-anchor="middle" x="221" y="-76" font-family="monospace" font-size="10.00"> (8)</text>
</g>
<!-- 4505315616&#45;&gt;4505620464 -->
<g id="edge3" class="edge">
<title>4505315616&#45;&gt;4505620464</title>
<path fill="none" stroke="black" d="M187.59,-144.33C193.86,-133.47 204.15,-115.66 211.66,-102.67"/>
</g>
<!-- 5038728176 -->
<g id="node6" class="node">
<title>5038728176</title>
<polygon fill="orange" stroke="black" points="354,-102.25 266,-102.25 266,-68.75 354,-68.75 354,-102.25"/>
<text xml:space="preserve" text-anchor="middle" x="310" y="-88.75" font-family="monospace" font-size="10.00">total_weight</text>
<text xml:space="preserve" text-anchor="middle" x="310" y="-76" font-family="monospace" font-size="10.00"> ()</text>
</g>
<!-- 4505315616&#45;&gt;5038728176 -->
<g id="edge4" class="edge">
<title>4505315616&#45;&gt;5038728176</title>
<path fill="none" stroke="black" d="M200.61,-144.18C221.27,-133.29 254.94,-115.54 279.47,-102.6"/>
</g>
<!-- 4505316000 -->
<g id="node7" class="node">
<title>4505316000</title>
<polygon fill="lightgrey" stroke="black" points="300,-234.88 170,-234.88 170,-214.12 300,-214.12 300,-234.88"/>
<text xml:space="preserve" text-anchor="middle" x="235" y="-221.38" font-family="monospace" font-size="10.00">LogSoftmaxBackward0</text>
</g>
<!-- 4505316000&#45;&gt;4505315616 -->
<g id="edge5" class="edge">
<title>4505316000&#45;&gt;4505315616</title>
<path fill="none" stroke="black" d="M227.41,-213.83C219.38,-203.6 206.52,-187.23 196.53,-174.5"/>
<polygon fill="black" stroke="black" points="199.44,-172.55 190.51,-166.84 193.94,-176.87 199.44,-172.55"/>
</g>
<!-- 5038813616 -->
<g id="node8" class="node">
<title>5038813616</title>
<polygon fill="orange" stroke="black" points="320,-171.75 256,-171.75 256,-138.25 320,-138.25 320,-171.75"/>
<text xml:space="preserve" text-anchor="middle" x="288" y="-158.25" font-family="monospace" font-size="10.00">result</text>
<text xml:space="preserve" text-anchor="middle" x="288" y="-145.5" font-family="monospace" font-size="10.00"> (8, 10)</text>
</g>
<!-- 4505316000&#45;&gt;5038813616 -->
<g id="edge6" class="edge">
<title>4505316000&#45;&gt;5038813616</title>
<path fill="none" stroke="black" d="M242.59,-213.83C251.12,-202.97 265.11,-185.16 275.3,-172.17"/>
</g>
<!-- 4505315952 -->
<g id="node9" class="node">
<title>4505315952</title>
<polygon fill="lightgrey" stroke="black" points="394,-304.38 312,-304.38 312,-283.62 394,-283.62 394,-304.38"/>
<text xml:space="preserve" text-anchor="middle" x="353" y="-290.88" font-family="monospace" font-size="10.00">MmBackward0</text>
</g>
<!-- 4505315952&#45;&gt;4505316000 -->
<g id="edge7" class="edge">
<title>4505315952&#45;&gt;4505316000</title>
<path fill="none" stroke="black" d="M335.84,-283.18C316.44,-272.09 284.6,-253.88 261.89,-240.88"/>
<polygon fill="black" stroke="black" points="263.91,-238.01 253.49,-236.08 260.43,-244.08 263.91,-238.01"/>
</g>
<!-- 5038813216 -->
<g id="node10" class="node">
<title>5038813216</title>
<polygon fill="orange" stroke="black" points="388,-241.25 318,-241.25 318,-207.75 388,-207.75 388,-241.25"/>
<text xml:space="preserve" text-anchor="middle" x="353" y="-227.75" font-family="monospace" font-size="10.00">mat2</text>
<text xml:space="preserve" text-anchor="middle" x="353" y="-215" font-family="monospace" font-size="10.00"> (32, 10)</text>
</g>
<!-- 4505315952&#45;&gt;5038813216 -->
<g id="edge8" class="edge">
<title>4505315952&#45;&gt;5038813216</title>
<path fill="none" stroke="black" d="M353,-283.33C353,-272.47 353,-254.66 353,-241.67"/>
</g>
<!-- 4505617744 -->
<g id="node11" class="node">
<title>4505617744</title>
<polygon fill="orange" stroke="black" points="470,-241.25 406,-241.25 406,-207.75 470,-207.75 470,-241.25"/>
<text xml:space="preserve" text-anchor="middle" x="438" y="-227.75" font-family="monospace" font-size="10.00">self</text>
<text xml:space="preserve" text-anchor="middle" x="438" y="-215" font-family="monospace" font-size="10.00"> (8, 32)</text>
</g>
<!-- 4505315952&#45;&gt;4505617744 -->
<g id="edge9" class="edge">
<title>4505315952&#45;&gt;4505617744</title>
<path fill="none" stroke="black" d="M365.18,-283.33C378.86,-272.47 401.28,-254.66 417.64,-241.67"/>
</g>
<!-- 4505316960 -->
<g id="node12" class="node">
<title>4505316960</title>
<polygon fill="lightgrey" stroke="black" points="262,-373.88 168,-373.88 168,-353.12 262,-353.12 262,-373.88"/>
<text xml:space="preserve" text-anchor="middle" x="215" y="-360.38" font-family="monospace" font-size="10.00">ReluBackward0</text>
</g>
<!-- 4505316960&#45;&gt;4505315952 -->
<g id="edge10" class="edge">
<title>4505316960&#45;&gt;4505315952</title>
<path fill="none" stroke="black" d="M235.07,-352.68C258.06,-341.44 296,-322.88 322.62,-309.86"/>
<polygon fill="black" stroke="black" points="324.1,-313.03 331.55,-305.49 321.03,-306.74 324.1,-313.03"/>
</g>
<!-- 5039292496 -->
<g id="node13" class="node">
<title>5039292496</title>
<polygon fill="orange" stroke="black" points="247,-310.75 183,-310.75 183,-277.25 247,-277.25 247,-310.75"/>
<text xml:space="preserve" text-anchor="middle" x="215" y="-297.25" font-family="monospace" font-size="10.00">result</text>
<text xml:space="preserve" text-anchor="middle" x="215" y="-284.5" font-family="monospace" font-size="10.00"> (8, 32)</text>
</g>
<!-- 4505316960&#45;&gt;5039292496 -->
<g id="edge11" class="edge">
<title>4505316960&#45;&gt;5039292496</title>
<path fill="none" stroke="black" d="M215,-352.83C215,-341.97 215,-324.16 215,-311.17"/>
</g>
<!-- 4505317152 -->
<g id="node14" class="node">
<title>4505317152</title>
<polygon fill="lightgrey" stroke="black" points="294,-437 212,-437 212,-416.25 294,-416.25 294,-437"/>
<text xml:space="preserve" text-anchor="middle" x="253" y="-423.5" font-family="monospace" font-size="10.00">MmBackward0</text>
</g>
<!-- 4505317152&#45;&gt;4505316960 -->
<g id="edge12" class="edge">
<title>4505317152&#45;&gt;4505316960</title>
<path fill="none" stroke="black" d="M246.89,-415.8C241.54,-407.2 233.61,-394.44 227,-383.8"/>
<polygon fill="black" stroke="black" points="230.02,-382.03 221.76,-375.38 224.07,-385.72 230.02,-382.03"/>
</g>
<!-- 4501218128 -->
<g id="node15" class="node">
<title>4501218128</title>
<polygon fill="orange" stroke="black" points="344,-380.25 280,-380.25 280,-346.75 344,-346.75 344,-380.25"/>
<text xml:space="preserve" text-anchor="middle" x="312" y="-366.75" font-family="monospace" font-size="10.00">self</text>
<text xml:space="preserve" text-anchor="middle" x="312" y="-354" font-family="monospace" font-size="10.00"> (8, 16)</text>
</g>
<!-- 4505317152&#45;&gt;4501218128 -->
<g id="edge13" class="edge">
<title>4505317152&#45;&gt;4501218128</title>
<path fill="none" stroke="black" d="M262.48,-415.8C271.6,-406.35 285.56,-391.9 296.33,-380.73"/>
</g>
<!-- 4505317200 -->
<g id="node16" class="node">
<title>4505317200</title>
<polygon fill="lightgrey" stroke="black" points="291,-500.12 215,-500.12 215,-479.38 291,-479.38 291,-500.12"/>
<text xml:space="preserve" text-anchor="middle" x="253" y="-486.62" font-family="monospace" font-size="10.00">TBackward0</text>
</g>
<!-- 4505317200&#45;&gt;4505317152 -->
<g id="edge14" class="edge">
<title>4505317200&#45;&gt;4505317152</title>
<path fill="none" stroke="black" d="M253,-478.93C253,-470.77 253,-458.88 253,-448.6"/>
<polygon fill="black" stroke="black" points="256.5,-448.73 253,-438.73 249.5,-448.73 256.5,-448.73"/>
</g>
<!-- 4505317296 -->
<g id="node17" class="node">
<title>4505317296</title>
<polygon fill="lightgrey" stroke="black" points="303,-563.25 203,-563.25 203,-542.5 303,-542.5 303,-563.25"/>
<text xml:space="preserve" text-anchor="middle" x="253" y="-549.75" font-family="monospace" font-size="10.00">AccumulateGrad</text>
</g>
<!-- 4505317296&#45;&gt;4505317200 -->
<g id="edge15" class="edge">
<title>4505317296&#45;&gt;4505317200</title>
<path fill="none" stroke="black" d="M253,-542.05C253,-533.9 253,-522.01 253,-511.73"/>
<polygon fill="black" stroke="black" points="256.5,-511.86 253,-501.86 249.5,-511.86 256.5,-511.86"/>
</g>
<!-- 4500137824 -->
<g id="node18" class="node">
<title>4500137824</title>
<polygon fill="lightblue" stroke="black" points="288,-632.75 218,-632.75 218,-599.25 288,-599.25 288,-632.75"/>
<text xml:space="preserve" text-anchor="middle" x="253" y="-619.25" font-family="monospace" font-size="10.00">0.weight</text>
<text xml:space="preserve" text-anchor="middle" x="253" y="-606.5" font-family="monospace" font-size="10.00"> (32, 16)</text>
</g>
<!-- 4500137824&#45;&gt;4505317296 -->
<g id="edge16" class="edge">
<title>4500137824&#45;&gt;4505317296</title>
<path fill="none" stroke="black" d="M253,-598.94C253,-591.6 253,-582.82 253,-574.96"/>
<polygon fill="black" stroke="black" points="256.5,-575.23 253,-565.23 249.5,-575.23 256.5,-575.23"/>
</g>
<!-- 4505317104 -->
<g id="node19" class="node">
<title>4505317104</title>
<polygon fill="lightgrey" stroke="black" points="438,-373.88 362,-373.88 362,-353.12 438,-353.12 438,-373.88"/>
<text xml:space="preserve" text-anchor="middle" x="400" y="-360.38" font-family="monospace" font-size="10.00">TBackward0</text>
</g>
<!-- 4505317104&#45;&gt;4505315952 -->
<g id="edge17" class="edge">
<title>4505317104&#45;&gt;4505315952</title>
<path fill="none" stroke="black" d="M393.27,-352.83C386.22,-342.7 374.97,-326.55 366.15,-313.88"/>
<polygon fill="black" stroke="black" points="369.17,-312.1 360.59,-305.9 363.43,-316.1 369.17,-312.1"/>
</g>
<!-- 4505317344 -->
<g id="node20" class="node">
<title>4505317344</title>
<polygon fill="lightgrey" stroke="black" points="450,-437 350,-437 350,-416.25 450,-416.25 450,-437"/>
<text xml:space="preserve" text-anchor="middle" x="400" y="-423.5" font-family="monospace" font-size="10.00">AccumulateGrad</text>
</g>
<!-- 4505317344&#45;&gt;4505317104 -->
<g id="edge18" class="edge">
<title>4505317344&#45;&gt;4505317104</title>
<path fill="none" stroke="black" d="M400,-415.8C400,-407.65 400,-395.76 400,-385.48"/>
<polygon fill="black" stroke="black" points="403.5,-385.61 400,-375.61 396.5,-385.61 403.5,-385.61"/>
</g>
<!-- 4505617104 -->
<g id="node21" class="node">
<title>4505617104</title>
<polygon fill="lightblue" stroke="black" points="435,-506.5 365,-506.5 365,-473 435,-473 435,-506.5"/>
<text xml:space="preserve" text-anchor="middle" x="400" y="-493" font-family="monospace" font-size="10.00">2.weight</text>
<text xml:space="preserve" text-anchor="middle" x="400" y="-480.25" font-family="monospace" font-size="10.00"> (10, 32)</text>
</g>
<!-- 4505617104&#45;&gt;4505317344 -->
<g id="edge19" class="edge">
<title>4505617104&#45;&gt;4505317344</title>
<path fill="none" stroke="black" d="M400,-472.69C400,-465.35 400,-456.57 400,-448.71"/>
<polygon fill="black" stroke="black" points="403.5,-448.98 400,-438.98 396.5,-448.98 403.5,-448.98"/>
</g>
</g>
</svg>
