<?xml version="1.0" encoding="utf-8" standalone="no"?>
<!DOCTYPE svg PUBLIC "-//W3C//DTD SVG 1.1//EN"
  "http://www.w3.org/Graphics/SVG/1.1/DTD/svg11.dtd">
<svg xmlns:xlink="http://www.w3.org/1999/xlink" width="393.262187pt" height="297.190125pt" viewBox="0 0 393.262187 297.190125" xmlns="http://www.w3.org/2000/svg" version="1.1">
 <metadata>
  <rdf:RDF xmlns:dc="http://purl.org/dc/elements/1.1/" xmlns:cc="http://creativecommons.org/ns#" xmlns:rdf="http://www.w3.org/1999/02/22-rdf-syntax-ns#">
   <cc:Work>
    <dc:type rdf:resource="http://purl.org/dc/dcmitype/StillImage"/>
    <dc:date>2025-07-25T22:47:30.757302</dc:date>
    <dc:format>image/svg+xml</dc:format>
    <dc:creator>
     <cc:Agent>
      <dc:title>Matplotlib v3.10.3, https://matplotlib.org/</dc:title>
     </cc:Agent>
    </dc:creator>
   </cc:Work>
  </rdf:RDF>
 </metadata>
 <defs>
  <style type="text/css">*{stroke-linejoin: round; stroke-linecap: butt}</style>
 </defs>
 <g id="figure_1">
  <g id="patch_1">
   <path d="M 0 297.190125 
L 393.262187 297.190125 
L 393.262187 0 
L 0 0 
z
" style="fill: #ffffff"/>
  </g>
  <g id="axes_1">
   <g id="patch_2">
    <path d="M 28.942188 273.312 
L 386.062188 273.312 
L 386.062188 7.2 
L 28.942188 7.2 
z
" style="fill: #ffffff"/>
   </g>
   <g id="PathCollection_1">
    <defs>
     <path id="mc6b3f81c73" d="M 0 3 
C 0.795609 3 1.55874 2.683901 2.12132 2.12132 
C 2.683901 1.55874 3 0.795609 3 0 
C 3 -0.795609 2.683901 -1.55874 2.12132 -2.12132 
C 1.55874 -2.683901 0.795609 -3 0 -3 
C -0.795609 -3 -1.55874 -2.683901 -2.12132 -2.12132 
C -2.683901 -1.55874 -3 -0.795609 -3 0 
C -3 0.795609 -2.683901 1.55874 -2.12132 2.12132 
C -1.55874 2.683901 -0.795609 3 0 3 
z
" style="stroke: #000000"/>
    </defs>
    <g clip-path="url(#p8634dddf7b)">
     <use xlink:href="#mc6b3f81c73" x="233.494381" y="93.493329" style="fill: #1f77b4; stroke: #000000"/>
     <use xlink:href="#mc6b3f81c73" x="252.432543" y="89.935879" style="fill: #1f77b4; stroke: #000000"/>
     <use xlink:href="#mc6b3f81c73" x="233.976335" y="77.753733" style="fill: #1f77b4; stroke: #000000"/>
     <use xlink:href="#mc6b3f81c73" x="268.35984" y="174.477065" style="fill: #1f77b4; stroke: #000000"/>
     <use xlink:href="#mc6b3f81c73" x="226.672258" y="194.924331" style="fill: #1f77b4; stroke: #000000"/>
     <use xlink:href="#mc6b3f81c73" x="216.131745" y="203.849456" style="fill: #1f77b4; stroke: #000000"/>
     <use xlink:href="#mc6b3f81c73" x="291.741292" y="138.166296" style="fill: #1f77b4; stroke: #000000"/>
     <use xlink:href="#mc6b3f81c73" x="181.738998" y="201.178942" style="fill: #1f77b4; stroke: #000000"/>
     <use xlink:href="#mc6b3f81c73" x="242.774032" y="90.586407" style="fill: #1f77b4; stroke: #000000"/>
     <use xlink:href="#mc6b3f81c73" x="233.719587" y="196.581577" style="fill: #1f77b4; stroke: #000000"/>
     <use xlink:href="#mc6b3f81c73" x="196.089243" y="69.491226" style="fill: #1f77b4; stroke: #000000"/>
     <use xlink:href="#mc6b3f81c73" x="269.553987" y="164.152275" style="fill: #1f77b4; stroke: #000000"/>
     <use xlink:href="#mc6b3f81c73" x="170.735201" y="190.284567" style="fill: #1f77b4; stroke: #000000"/>
     <use xlink:href="#mc6b3f81c73" x="269.167517" y="168.229624" style="fill: #1f77b4; stroke: #000000"/>
     <use xlink:href="#mc6b3f81c73" x="154.46672" y="167.383535" style="fill: #1f77b4; stroke: #000000"/>
     <use xlink:href="#mc6b3f81c73" x="263.011275" y="175.459677" style="fill: #1f77b4; stroke: #000000"/>
     <use xlink:href="#mc6b3f81c73" x="265.827576" y="147.464967" style="fill: #1f77b4; stroke: #000000"/>
     <use xlink:href="#mc6b3f81c73" x="146.160277" y="158.190971" style="fill: #1f77b4; stroke: #000000"/>
     <use xlink:href="#mc6b3f81c73" x="151.305812" y="114.297317" style="fill: #1f77b4; stroke: #000000"/>
     <use xlink:href="#mc6b3f81c73" x="170.898404" y="189.024284" style="fill: #1f77b4; stroke: #000000"/>
     <use xlink:href="#mc6b3f81c73" x="252.476855" y="180.781897" style="fill: #1f77b4; stroke: #000000"/>
     <use xlink:href="#mc6b3f81c73" x="210.765268" y="206.022269" style="fill: #1f77b4; stroke: #000000"/>
     <use xlink:href="#mc6b3f81c73" x="268.980487" y="121.85253" style="fill: #1f77b4; stroke: #000000"/>
     <use xlink:href="#mc6b3f81c73" x="252.87834" y="198.293435" style="fill: #1f77b4; stroke: #000000"/>
     <use xlink:href="#mc6b3f81c73" x="201.515961" y="69.166369" style="fill: #1f77b4; stroke: #000000"/>
     <use xlink:href="#mc6b3f81c73" x="186.889844" y="200.816541" style="fill: #1f77b4; stroke: #000000"/>
     <use xlink:href="#mc6b3f81c73" x="238.670322" y="205.589499" style="fill: #1f77b4; stroke: #000000"/>
     <use xlink:href="#mc6b3f81c73" x="163.681792" y="179.533433" style="fill: #1f77b4; stroke: #000000"/>
     <use xlink:href="#mc6b3f81c73" x="185.695642" y="195.901078" style="fill: #1f77b4; stroke: #000000"/>
     <use xlink:href="#mc6b3f81c73" x="246.435644" y="194.315683" style="fill: #1f77b4; stroke: #000000"/>
     <use xlink:href="#mc6b3f81c73" x="141.761406" y="138.813808" style="fill: #1f77b4; stroke: #000000"/>
     <use xlink:href="#mc6b3f81c73" x="173.02153" y="180.334968" style="fill: #1f77b4; stroke: #000000"/>
     <use xlink:href="#mc6b3f81c73" x="264.350354" y="94.090565" style="fill: #1f77b4; stroke: #000000"/>
     <use xlink:href="#mc6b3f81c73" x="283.823826" y="155.681691" style="fill: #1f77b4; stroke: #000000"/>
     <use xlink:href="#mc6b3f81c73" x="270.041196" y="119.065497" style="fill: #1f77b4; stroke: #000000"/>
     <use xlink:href="#mc6b3f81c73" x="257.002892" y="196.396803" style="fill: #1f77b4; stroke: #000000"/>
     <use xlink:href="#mc6b3f81c73" x="168.548907" y="196.627916" style="fill: #1f77b4; stroke: #000000"/>
     <use xlink:href="#mc6b3f81c73" x="167.472606" y="175.959268" style="fill: #1f77b4; stroke: #000000"/>
     <use xlink:href="#mc6b3f81c73" x="181.532946" y="98.057267" style="fill: #1f77b4; stroke: #000000"/>
     <use xlink:href="#mc6b3f81c73" x="142.884632" y="149.560298" style="fill: #1f77b4; stroke: #000000"/>
     <use xlink:href="#mc6b3f81c73" x="173.12646" y="84.244303" style="fill: #1f77b4; stroke: #000000"/>
     <use xlink:href="#mc6b3f81c73" x="261.999027" y="166.589777" style="fill: #1f77b4; stroke: #000000"/>
     <use xlink:href="#mc6b3f81c73" x="148.606828" y="138.683354" style="fill: #1f77b4; stroke: #000000"/>
     <use xlink:href="#mc6b3f81c73" x="251.563706" y="84.090516" style="fill: #1f77b4; stroke: #000000"/>
     <use xlink:href="#mc6b3f81c73" x="154.277016" y="106.742391" style="fill: #1f77b4; stroke: #000000"/>
     <use xlink:href="#mc6b3f81c73" x="214.385101" y="72.300588" style="fill: #1f77b4; stroke: #000000"/>
     <use xlink:href="#mc6b3f81c73" x="272.599979" y="148.901892" style="fill: #1f77b4; stroke: #000000"/>
     <use xlink:href="#mc6b3f81c73" x="252.229089" y="78.367944" style="fill: #1f77b4; stroke: #000000"/>
     <use xlink:href="#mc6b3f81c73" x="198.033202" y="208.725064" style="fill: #1f77b4; stroke: #000000"/>
     <use xlink:href="#mc6b3f81c73" x="278.270085" y="161.475024" style="fill: #1f77b4; stroke: #000000"/>
     <use xlink:href="#mc6b3f81c73" x="181.989808" y="78.171667" style="fill: #1f77b4; stroke: #000000"/>
     <use xlink:href="#mc6b3f81c73" x="282.032163" y="139.707252" style="fill: #1f77b4; stroke: #000000"/>
     <use xlink:href="#mc6b3f81c73" x="276.486099" y="99.468711" style="fill: #1f77b4; stroke: #000000"/>
     <use xlink:href="#mc6b3f81c73" x="182.861448" y="85.945613" style="fill: #1f77b4; stroke: #000000"/>
     <use xlink:href="#mc6b3f81c73" x="152.21284" y="120.887887" style="fill: #1f77b4; stroke: #000000"/>
     <use xlink:href="#mc6b3f81c73" x="182.46041" y="213.380628" style="fill: #1f77b4; stroke: #000000"/>
     <use xlink:href="#mc6b3f81c73" x="270.449283" y="190.775385" style="fill: #1f77b4; stroke: #000000"/>
     <use xlink:href="#mc6b3f81c73" x="280.946573" y="117.922454" style="fill: #1f77b4; stroke: #000000"/>
     <use xlink:href="#mc6b3f81c73" x="238.401946" y="71.820187" style="fill: #1f77b4; stroke: #000000"/>
     <use xlink:href="#mc6b3f81c73" x="204.571766" y="204.588698" style="fill: #1f77b4; stroke: #000000"/>
     <use xlink:href="#mc6b3f81c73" x="264.948757" y="180.444419" style="fill: #1f77b4; stroke: #000000"/>
     <use xlink:href="#mc6b3f81c73" x="217.949512" y="83.300517" style="fill: #1f77b4; stroke: #000000"/>
     <use xlink:href="#mc6b3f81c73" x="146.862307" y="163.685314" style="fill: #1f77b4; stroke: #000000"/>
     <use xlink:href="#mc6b3f81c73" x="175.534154" y="192.424381" style="fill: #1f77b4; stroke: #000000"/>
     <use xlink:href="#mc6b3f81c73" x="182.018335" y="69.657828" style="fill: #1f77b4; stroke: #000000"/>
     <use xlink:href="#mc6b3f81c73" x="240.051494" y="191.957913" style="fill: #1f77b4; stroke: #000000"/>
     <use xlink:href="#mc6b3f81c73" x="197.486573" y="196.217643" style="fill: #1f77b4; stroke: #000000"/>
     <use xlink:href="#mc6b3f81c73" x="170.999855" y="196.262741" style="fill: #1f77b4; stroke: #000000"/>
     <use xlink:href="#mc6b3f81c73" x="235.453839" y="75.99785" style="fill: #1f77b4; stroke: #000000"/>
     <use xlink:href="#mc6b3f81c73" x="263.801275" y="174.23422" style="fill: #1f77b4; stroke: #000000"/>
     <use xlink:href="#mc6b3f81c73" x="156.28243" y="105.499023" style="fill: #1f77b4; stroke: #000000"/>
     <use xlink:href="#mc6b3f81c73" x="157.691444" y="129.024882" style="fill: #1f77b4; stroke: #000000"/>
     <use xlink:href="#mc6b3f81c73" x="263.333649" y="166.708423" style="fill: #1f77b4; stroke: #000000"/>
     <use xlink:href="#mc6b3f81c73" x="206.152341" y="202.348655" style="fill: #1f77b4; stroke: #000000"/>
     <use xlink:href="#mc6b3f81c73" x="232.263555" y="87.451355" style="fill: #1f77b4; stroke: #000000"/>
     <use xlink:href="#mc6b3f81c73" x="217.149156" y="79.466428" style="fill: #1f77b4; stroke: #000000"/>
     <use xlink:href="#mc6b3f81c73" x="186.473032" y="77.049386" style="fill: #1f77b4; stroke: #000000"/>
     <use xlink:href="#mc6b3f81c73" x="153.791165" y="121.633012" style="fill: #1f77b4; stroke: #000000"/>
     <use xlink:href="#mc6b3f81c73" x="260.056624" y="86.32834" style="fill: #1f77b4; stroke: #000000"/>
     <use xlink:href="#mc6b3f81c73" x="232.870436" y="70.444792" style="fill: #1f77b4; stroke: #000000"/>
     <use xlink:href="#mc6b3f81c73" x="244.733728" y="74.202251" style="fill: #1f77b4; stroke: #000000"/>
     <use xlink:href="#mc6b3f81c73" x="177.968459" y="207.450968" style="fill: #1f77b4; stroke: #000000"/>
     <use xlink:href="#mc6b3f81c73" x="176.160708" y="197.681926" style="fill: #1f77b4; stroke: #000000"/>
     <use xlink:href="#mc6b3f81c73" x="267.827216" y="160.798709" style="fill: #1f77b4; stroke: #000000"/>
     <use xlink:href="#mc6b3f81c73" x="192.498746" y="199.202304" style="fill: #1f77b4; stroke: #000000"/>
     <use xlink:href="#mc6b3f81c73" x="245.510041" y="67.576538" style="fill: #1f77b4; stroke: #000000"/>
     <use xlink:href="#mc6b3f81c73" x="219.692817" y="213.190127" style="fill: #1f77b4; stroke: #000000"/>
     <use xlink:href="#mc6b3f81c73" x="276.525134" y="104.76896" style="fill: #1f77b4; stroke: #000000"/>
     <use xlink:href="#mc6b3f81c73" x="201.642471" y="201.727581" style="fill: #1f77b4; stroke: #000000"/>
     <use xlink:href="#mc6b3f81c73" x="243.066869" y="207.784535" style="fill: #1f77b4; stroke: #000000"/>
     <use xlink:href="#mc6b3f81c73" x="199.58769" y="66.079915" style="fill: #1f77b4; stroke: #000000"/>
     <use xlink:href="#mc6b3f81c73" x="243.642719" y="196.187291" style="fill: #1f77b4; stroke: #000000"/>
     <use xlink:href="#mc6b3f81c73" x="274.754525" y="151.072231" style="fill: #1f77b4; stroke: #000000"/>
     <use xlink:href="#mc6b3f81c73" x="162.599347" y="107.276399" style="fill: #1f77b4; stroke: #000000"/>
     <use xlink:href="#mc6b3f81c73" x="132.522612" y="145.24343" style="fill: #1f77b4; stroke: #000000"/>
     <use xlink:href="#mc6b3f81c73" x="274.713187" y="134.283622" style="fill: #1f77b4; stroke: #000000"/>
     <use xlink:href="#mc6b3f81c73" x="184.260453" y="89.023528" style="fill: #1f77b4; stroke: #000000"/>
     <use xlink:href="#mc6b3f81c73" x="256.742234" y="95.155228" style="fill: #1f77b4; stroke: #000000"/>
     <use xlink:href="#mc6b3f81c73" x="276.011192" y="138.161229" style="fill: #1f77b4; stroke: #000000"/>
     <use xlink:href="#mc6b3f81c73" x="227.507775" y="77.592102" style="fill: #1f77b4; stroke: #000000"/>
    </g>
   </g>
   <g id="PathCollection_2">
    <defs>
     <path id="md79a43cfa3" d="M 0 -5 
L -1.12257 -1.545085 
L -4.755283 -1.545085 
L -1.816356 0.59017 
L -2.938926 4.045085 
L -0 1.90983 
L 2.938926 4.045085 
L 1.816356 0.59017 
L 4.755283 -1.545085 
L 1.12257 -1.545085 
z
" style="stroke: #000000"/>
    </defs>
    <g clip-path="url(#p8634dddf7b)">
     <use xlink:href="#md79a43cfa3" x="132.316139" y="198.426138" style="fill: #ff7f0e; stroke: #000000"/>
     <use xlink:href="#md79a43cfa3" x="260.002962" y="31.181847" style="fill: #ff7f0e; stroke: #000000"/>
     <use xlink:href="#md79a43cfa3" x="135.192326" y="225.642104" style="fill: #ff7f0e; stroke: #000000"/>
     <use xlink:href="#md79a43cfa3" x="112.298439" y="99.7481" style="fill: #ff7f0e; stroke: #000000"/>
     <use xlink:href="#md79a43cfa3" x="140.7119" y="213.098913" style="fill: #ff7f0e; stroke: #000000"/>
     <use xlink:href="#md79a43cfa3" x="211.18165" y="27.945907" style="fill: #ff7f0e; stroke: #000000"/>
     <use xlink:href="#md79a43cfa3" x="275.781475" y="240.210287" style="fill: #ff7f0e; stroke: #000000"/>
     <use xlink:href="#md79a43cfa3" x="150.377028" y="231.121113" style="fill: #ff7f0e; stroke: #000000"/>
     <use xlink:href="#md79a43cfa3" x="106.957625" y="162.985511" style="fill: #ff7f0e; stroke: #000000"/>
     <use xlink:href="#md79a43cfa3" x="305.29523" y="112.065359" style="fill: #ff7f0e; stroke: #000000"/>
     <use xlink:href="#md79a43cfa3" x="106.937607" y="74.708724" style="fill: #ff7f0e; stroke: #000000"/>
     <use xlink:href="#md79a43cfa3" x="256.1878" y="35.556082" style="fill: #ff7f0e; stroke: #000000"/>
     <use xlink:href="#md79a43cfa3" x="247.494802" y="237.995158" style="fill: #ff7f0e; stroke: #000000"/>
     <use xlink:href="#md79a43cfa3" x="270.37808" y="226.462253" style="fill: #ff7f0e; stroke: #000000"/>
     <use xlink:href="#md79a43cfa3" x="319.715982" y="166.793428" style="fill: #ff7f0e; stroke: #000000"/>
     <use xlink:href="#md79a43cfa3" x="123.825497" y="182.052806" style="fill: #ff7f0e; stroke: #000000"/>
     <use xlink:href="#md79a43cfa3" x="265.731616" y="222.728072" style="fill: #ff7f0e; stroke: #000000"/>
     <use xlink:href="#md79a43cfa3" x="312.092903" y="128.282641" style="fill: #ff7f0e; stroke: #000000"/>
     <use xlink:href="#md79a43cfa3" x="255.635136" y="35.844153" style="fill: #ff7f0e; stroke: #000000"/>
     <use xlink:href="#md79a43cfa3" x="317.521953" y="122.141434" style="fill: #ff7f0e; stroke: #000000"/>
     <use xlink:href="#md79a43cfa3" x="134.242901" y="55.978835" style="fill: #ff7f0e; stroke: #000000"/>
     <use xlink:href="#md79a43cfa3" x="147.673532" y="223.706186" style="fill: #ff7f0e; stroke: #000000"/>
     <use xlink:href="#md79a43cfa3" x="225.450057" y="19.296" style="fill: #ff7f0e; stroke: #000000"/>
     <use xlink:href="#md79a43cfa3" x="110.64154" y="207.432717" style="fill: #ff7f0e; stroke: #000000"/>
     <use xlink:href="#md79a43cfa3" x="92.937761" y="90.493303" style="fill: #ff7f0e; stroke: #000000"/>
     <use xlink:href="#md79a43cfa3" x="307.247051" y="202.603501" style="fill: #ff7f0e; stroke: #000000"/>
     <use xlink:href="#md79a43cfa3" x="322.066614" y="133.698992" style="fill: #ff7f0e; stroke: #000000"/>
     <use xlink:href="#md79a43cfa3" x="254.889918" y="34.183592" style="fill: #ff7f0e; stroke: #000000"/>
     <use xlink:href="#md79a43cfa3" x="203.697991" y="246.724125" style="fill: #ff7f0e; stroke: #000000"/>
     <use xlink:href="#md79a43cfa3" x="276.9179" y="217.41225" style="fill: #ff7f0e; stroke: #000000"/>
     <use xlink:href="#md79a43cfa3" x="217.409489" y="261.216" style="fill: #ff7f0e; stroke: #000000"/>
     <use xlink:href="#md79a43cfa3" x="205.250574" y="247.099675" style="fill: #ff7f0e; stroke: #000000"/>
     <use xlink:href="#md79a43cfa3" x="134.380543" y="55.880925" style="fill: #ff7f0e; stroke: #000000"/>
     <use xlink:href="#md79a43cfa3" x="144.313475" y="212.975234" style="fill: #ff7f0e; stroke: #000000"/>
     <use xlink:href="#md79a43cfa3" x="99.583703" y="152.97758" style="fill: #ff7f0e; stroke: #000000"/>
     <use xlink:href="#md79a43cfa3" x="259.832733" y="48.372691" style="fill: #ff7f0e; stroke: #000000"/>
     <use xlink:href="#md79a43cfa3" x="251.273564" y="37.178739" style="fill: #ff7f0e; stroke: #000000"/>
     <use xlink:href="#md79a43cfa3" x="100.157358" y="160.060386" style="fill: #ff7f0e; stroke: #000000"/>
     <use xlink:href="#md79a43cfa3" x="95.852236" y="130.817004" style="fill: #ff7f0e; stroke: #000000"/>
     <use xlink:href="#md79a43cfa3" x="106.730811" y="103.707998" style="fill: #ff7f0e; stroke: #000000"/>
     <use xlink:href="#md79a43cfa3" x="251.196915" y="234.443423" style="fill: #ff7f0e; stroke: #000000"/>
     <use xlink:href="#md79a43cfa3" x="309.058657" y="193.172304" style="fill: #ff7f0e; stroke: #000000"/>
     <use xlink:href="#md79a43cfa3" x="112.673734" y="197.457143" style="fill: #ff7f0e; stroke: #000000"/>
     <use xlink:href="#md79a43cfa3" x="112.789827" y="90.415215" style="fill: #ff7f0e; stroke: #000000"/>
     <use xlink:href="#md79a43cfa3" x="250.227184" y="237.924257" style="fill: #ff7f0e; stroke: #000000"/>
     <use xlink:href="#md79a43cfa3" x="307.635979" y="188.268214" style="fill: #ff7f0e; stroke: #000000"/>
     <use xlink:href="#md79a43cfa3" x="185.004025" y="248.464034" style="fill: #ff7f0e; stroke: #000000"/>
     <use xlink:href="#md79a43cfa3" x="249.772278" y="37.446447" style="fill: #ff7f0e; stroke: #000000"/>
     <use xlink:href="#md79a43cfa3" x="311.829037" y="183.579639" style="fill: #ff7f0e; stroke: #000000"/>
     <use xlink:href="#md79a43cfa3" x="291.638555" y="64.273598" style="fill: #ff7f0e; stroke: #000000"/>
     <use xlink:href="#md79a43cfa3" x="296.531087" y="206.354236" style="fill: #ff7f0e; stroke: #000000"/>
     <use xlink:href="#md79a43cfa3" x="211.027182" y="29.704549" style="fill: #ff7f0e; stroke: #000000"/>
     <use xlink:href="#md79a43cfa3" x="308.249741" y="200.270826" style="fill: #ff7f0e; stroke: #000000"/>
     <use xlink:href="#md79a43cfa3" x="131.804574" y="215.210601" style="fill: #ff7f0e; stroke: #000000"/>
     <use xlink:href="#md79a43cfa3" x="240.919341" y="38.790796" style="fill: #ff7f0e; stroke: #000000"/>
     <use xlink:href="#md79a43cfa3" x="168.947655" y="38.713922" style="fill: #ff7f0e; stroke: #000000"/>
     <use xlink:href="#md79a43cfa3" x="309.987302" y="145.76802" style="fill: #ff7f0e; stroke: #000000"/>
     <use xlink:href="#md79a43cfa3" x="290.997846" y="221.146305" style="fill: #ff7f0e; stroke: #000000"/>
     <use xlink:href="#md79a43cfa3" x="290.846068" y="208.736735" style="fill: #ff7f0e; stroke: #000000"/>
     <use xlink:href="#md79a43cfa3" x="172.793809" y="247.68486" style="fill: #ff7f0e; stroke: #000000"/>
     <use xlink:href="#md79a43cfa3" x="227.841855" y="46.819617" style="fill: #ff7f0e; stroke: #000000"/>
     <use xlink:href="#md79a43cfa3" x="110.428338" y="143.692019" style="fill: #ff7f0e; stroke: #000000"/>
     <use xlink:href="#md79a43cfa3" x="105.309162" y="143.799404" style="fill: #ff7f0e; stroke: #000000"/>
     <use xlink:href="#md79a43cfa3" x="266.811573" y="59.210122" style="fill: #ff7f0e; stroke: #000000"/>
     <use xlink:href="#md79a43cfa3" x="112.840221" y="181.299662" style="fill: #ff7f0e; stroke: #000000"/>
     <use xlink:href="#md79a43cfa3" x="284.408561" y="206.046914" style="fill: #ff7f0e; stroke: #000000"/>
     <use xlink:href="#md79a43cfa3" x="98.953463" y="136.154584" style="fill: #ff7f0e; stroke: #000000"/>
     <use xlink:href="#md79a43cfa3" x="258.394076" y="53.129381" style="fill: #ff7f0e; stroke: #000000"/>
     <use xlink:href="#md79a43cfa3" x="243.185039" y="44.396131" style="fill: #ff7f0e; stroke: #000000"/>
     <use xlink:href="#md79a43cfa3" x="275.403175" y="56.232383" style="fill: #ff7f0e; stroke: #000000"/>
     <use xlink:href="#md79a43cfa3" x="277.214373" y="232.797624" style="fill: #ff7f0e; stroke: #000000"/>
     <use xlink:href="#md79a43cfa3" x="261.855601" y="236.349077" style="fill: #ff7f0e; stroke: #000000"/>
     <use xlink:href="#md79a43cfa3" x="215.663866" y="29.63829" style="fill: #ff7f0e; stroke: #000000"/>
     <use xlink:href="#md79a43cfa3" x="94.107932" y="165.226684" style="fill: #ff7f0e; stroke: #000000"/>
     <use xlink:href="#md79a43cfa3" x="114.698417" y="201.25932" style="fill: #ff7f0e; stroke: #000000"/>
     <use xlink:href="#md79a43cfa3" x="306.009049" y="103.293495" style="fill: #ff7f0e; stroke: #000000"/>
     <use xlink:href="#md79a43cfa3" x="103.668757" y="111.662676" style="fill: #ff7f0e; stroke: #000000"/>
     <use xlink:href="#md79a43cfa3" x="160.481716" y="233.097581" style="fill: #ff7f0e; stroke: #000000"/>
     <use xlink:href="#md79a43cfa3" x="118.593721" y="194.435591" style="fill: #ff7f0e; stroke: #000000"/>
     <use xlink:href="#md79a43cfa3" x="157.208274" y="235.133934" style="fill: #ff7f0e; stroke: #000000"/>
     <use xlink:href="#md79a43cfa3" x="276.553557" y="210.041271" style="fill: #ff7f0e; stroke: #000000"/>
     <use xlink:href="#md79a43cfa3" x="184.71656" y="228.896895" style="fill: #ff7f0e; stroke: #000000"/>
     <use xlink:href="#md79a43cfa3" x="125.125625" y="206.291956" style="fill: #ff7f0e; stroke: #000000"/>
     <use xlink:href="#md79a43cfa3" x="302.619344" y="201.650776" style="fill: #ff7f0e; stroke: #000000"/>
     <use xlink:href="#md79a43cfa3" x="99.813664" y="152.597819" style="fill: #ff7f0e; stroke: #000000"/>
     <use xlink:href="#md79a43cfa3" x="292.490319" y="62.932913" style="fill: #ff7f0e; stroke: #000000"/>
     <use xlink:href="#md79a43cfa3" x="107.877292" y="156.702237" style="fill: #ff7f0e; stroke: #000000"/>
     <use xlink:href="#md79a43cfa3" x="118.867994" y="189.306382" style="fill: #ff7f0e; stroke: #000000"/>
     <use xlink:href="#md79a43cfa3" x="96.881693" y="107.812471" style="fill: #ff7f0e; stroke: #000000"/>
     <use xlink:href="#md79a43cfa3" x="108.288087" y="159.733972" style="fill: #ff7f0e; stroke: #000000"/>
     <use xlink:href="#md79a43cfa3" x="114.182876" y="138.909581" style="fill: #ff7f0e; stroke: #000000"/>
     <use xlink:href="#md79a43cfa3" x="230.794085" y="245.064166" style="fill: #ff7f0e; stroke: #000000"/>
     <use xlink:href="#md79a43cfa3" x="182.666435" y="38.024842" style="fill: #ff7f0e; stroke: #000000"/>
     <use xlink:href="#md79a43cfa3" x="113.867171" y="170.330732" style="fill: #ff7f0e; stroke: #000000"/>
     <use xlink:href="#md79a43cfa3" x="307.100321" y="70.931388" style="fill: #ff7f0e; stroke: #000000"/>
     <use xlink:href="#md79a43cfa3" x="122.330907" y="77.582509" style="fill: #ff7f0e; stroke: #000000"/>
     <use xlink:href="#md79a43cfa3" x="102.077362" y="156.951544" style="fill: #ff7f0e; stroke: #000000"/>
     <use xlink:href="#md79a43cfa3" x="294.77013" y="222.846869" style="fill: #ff7f0e; stroke: #000000"/>
     <use xlink:href="#md79a43cfa3" x="235.159816" y="25.133497" style="fill: #ff7f0e; stroke: #000000"/>
     <use xlink:href="#md79a43cfa3" x="286.966435" y="209.269551" style="fill: #ff7f0e; stroke: #000000"/>
    </g>
   </g>
   <g id="PathCollection_3">
    <defs>
     <path id="m55fc4f5126" d="M -3 3 
L 3 3 
L 3 -3 
L -3 -3 
z
" style="stroke: #000000"/>
    </defs>
    <g clip-path="url(#p8634dddf7b)">
     <use xlink:href="#m55fc4f5126" x="193.426154" y="159.428289" style="fill: #2ca02c; stroke: #000000"/>
     <use xlink:href="#m55fc4f5126" x="206.065515" y="160.440789" style="fill: #2ca02c; stroke: #000000"/>
     <use xlink:href="#m55fc4f5126" x="209.934009" y="129.565725" style="fill: #2ca02c; stroke: #000000"/>
     <use xlink:href="#m55fc4f5126" x="199.480581" y="120.459417" style="fill: #2ca02c; stroke: #000000"/>
     <use xlink:href="#m55fc4f5126" x="179.815552" y="129.270389" style="fill: #2ca02c; stroke: #000000"/>
     <use xlink:href="#m55fc4f5126" x="217.473864" y="113.186297" style="fill: #2ca02c; stroke: #000000"/>
     <use xlink:href="#m55fc4f5126" x="230.310245" y="142.000857" style="fill: #2ca02c; stroke: #000000"/>
     <use xlink:href="#m55fc4f5126" x="216.831736" y="163.164526" style="fill: #2ca02c; stroke: #000000"/>
     <use xlink:href="#m55fc4f5126" x="239.388217" y="127.693965" style="fill: #2ca02c; stroke: #000000"/>
     <use xlink:href="#m55fc4f5126" x="203.766152" y="124.108117" style="fill: #2ca02c; stroke: #000000"/>
     <use xlink:href="#m55fc4f5126" x="209.427889" y="162.366568" style="fill: #2ca02c; stroke: #000000"/>
     <use xlink:href="#m55fc4f5126" x="195.136175" y="161.999237" style="fill: #2ca02c; stroke: #000000"/>
     <use xlink:href="#m55fc4f5126" x="219.718337" y="152.21755" style="fill: #2ca02c; stroke: #000000"/>
     <use xlink:href="#m55fc4f5126" x="200.027367" y="116.932154" style="fill: #2ca02c; stroke: #000000"/>
     <use xlink:href="#m55fc4f5126" x="225.982425" y="150.526907" style="fill: #2ca02c; stroke: #000000"/>
     <use xlink:href="#m55fc4f5126" x="187.753943" y="117.436633" style="fill: #2ca02c; stroke: #000000"/>
     <use xlink:href="#m55fc4f5126" x="234.08943" y="165.989398" style="fill: #2ca02c; stroke: #000000"/>
     <use xlink:href="#m55fc4f5126" x="223.274884" y="117.049816" style="fill: #2ca02c; stroke: #000000"/>
     <use xlink:href="#m55fc4f5126" x="216.640508" y="121.501843" style="fill: #2ca02c; stroke: #000000"/>
     <use xlink:href="#m55fc4f5126" x="194.974131" y="142.021841" style="fill: #2ca02c; stroke: #000000"/>
     <use xlink:href="#m55fc4f5126" x="191.887989" y="125.205236" style="fill: #2ca02c; stroke: #000000"/>
     <use xlink:href="#m55fc4f5126" x="198.250195" y="135.459996" style="fill: #2ca02c; stroke: #000000"/>
     <use xlink:href="#m55fc4f5126" x="193.919984" y="155.782202" style="fill: #2ca02c; stroke: #000000"/>
     <use xlink:href="#m55fc4f5126" x="191.473343" y="156.122679" style="fill: #2ca02c; stroke: #000000"/>
     <use xlink:href="#m55fc4f5126" x="233.973392" y="144.552163" style="fill: #2ca02c; stroke: #000000"/>
     <use xlink:href="#m55fc4f5126" x="202.644982" y="121.426506" style="fill: #2ca02c; stroke: #000000"/>
     <use xlink:href="#m55fc4f5126" x="213.262845" y="158.962507" style="fill: #2ca02c; stroke: #000000"/>
     <use xlink:href="#m55fc4f5126" x="203.435976" y="119.369155" style="fill: #2ca02c; stroke: #000000"/>
     <use xlink:href="#m55fc4f5126" x="193.630044" y="126.887907" style="fill: #2ca02c; stroke: #000000"/>
     <use xlink:href="#m55fc4f5126" x="211.263217" y="153.205767" style="fill: #2ca02c; stroke: #000000"/>
     <use xlink:href="#m55fc4f5126" x="228.786074" y="135.957383" style="fill: #2ca02c; stroke: #000000"/>
     <use xlink:href="#m55fc4f5126" x="222.758396" y="120.86585" style="fill: #2ca02c; stroke: #000000"/>
     <use xlink:href="#m55fc4f5126" x="214.041814" y="115.628998" style="fill: #2ca02c; stroke: #000000"/>
     <use xlink:href="#m55fc4f5126" x="222.230908" y="114.368741" style="fill: #2ca02c; stroke: #000000"/>
     <use xlink:href="#m55fc4f5126" x="199.448103" y="158.506661" style="fill: #2ca02c; stroke: #000000"/>
     <use xlink:href="#m55fc4f5126" x="241.250216" y="122.692348" style="fill: #2ca02c; stroke: #000000"/>
     <use xlink:href="#m55fc4f5126" x="191.532155" y="145.311369" style="fill: #2ca02c; stroke: #000000"/>
     <use xlink:href="#m55fc4f5126" x="207.407143" y="126.866521" style="fill: #2ca02c; stroke: #000000"/>
     <use xlink:href="#m55fc4f5126" x="221.335976" y="131.481268" style="fill: #2ca02c; stroke: #000000"/>
     <use xlink:href="#m55fc4f5126" x="199.816735" y="164.891055" style="fill: #2ca02c; stroke: #000000"/>
     <use xlink:href="#m55fc4f5126" x="197.041965" y="149.27826" style="fill: #2ca02c; stroke: #000000"/>
     <use xlink:href="#m55fc4f5126" x="210.326707" y="119.094062" style="fill: #2ca02c; stroke: #000000"/>
     <use xlink:href="#m55fc4f5126" x="234.525161" y="126.541674" style="fill: #2ca02c; stroke: #000000"/>
     <use xlink:href="#m55fc4f5126" x="196.914226" y="110.560053" style="fill: #2ca02c; stroke: #000000"/>
     <use xlink:href="#m55fc4f5126" x="232.695036" y="161.543759" style="fill: #2ca02c; stroke: #000000"/>
     <use xlink:href="#m55fc4f5126" x="190.446938" y="134.282499" style="fill: #2ca02c; stroke: #000000"/>
     <use xlink:href="#m55fc4f5126" x="215.065153" y="125.473665" style="fill: #2ca02c; stroke: #000000"/>
     <use xlink:href="#m55fc4f5126" x="186.23198" y="151.334326" style="fill: #2ca02c; stroke: #000000"/>
     <use xlink:href="#m55fc4f5126" x="233.289798" y="151.330668" style="fill: #2ca02c; stroke: #000000"/>
     <use xlink:href="#m55fc4f5126" x="233.132558" y="147.889844" style="fill: #2ca02c; stroke: #000000"/>
     <use xlink:href="#m55fc4f5126" x="239.651282" y="136.274387" style="fill: #2ca02c; stroke: #000000"/>
     <use xlink:href="#m55fc4f5126" x="219.37874" y="119.879276" style="fill: #2ca02c; stroke: #000000"/>
     <use xlink:href="#m55fc4f5126" x="214.706199" y="120.318215" style="fill: #2ca02c; stroke: #000000"/>
     <use xlink:href="#m55fc4f5126" x="189.34116" y="141.64799" style="fill: #2ca02c; stroke: #000000"/>
     <use xlink:href="#m55fc4f5126" x="229.538978" y="155.931351" style="fill: #2ca02c; stroke: #000000"/>
     <use xlink:href="#m55fc4f5126" x="200.788207" y="115.145101" style="fill: #2ca02c; stroke: #000000"/>
     <use xlink:href="#m55fc4f5126" x="211.593074" y="158.347156" style="fill: #2ca02c; stroke: #000000"/>
     <use xlink:href="#m55fc4f5126" x="202.688992" y="138.83614" style="fill: #2ca02c; stroke: #000000"/>
     <use xlink:href="#m55fc4f5126" x="207.681119" y="137.653408" style="fill: #2ca02c; stroke: #000000"/>
     <use xlink:href="#m55fc4f5126" x="234.7543" y="142.157719" style="fill: #2ca02c; stroke: #000000"/>
     <use xlink:href="#m55fc4f5126" x="237.422332" y="140.551283" style="fill: #2ca02c; stroke: #000000"/>
     <use xlink:href="#m55fc4f5126" x="214.398089" y="126.424091" style="fill: #2ca02c; stroke: #000000"/>
     <use xlink:href="#m55fc4f5126" x="199.91247" y="153.834349" style="fill: #2ca02c; stroke: #000000"/>
     <use xlink:href="#m55fc4f5126" x="231.760205" y="122.925984" style="fill: #2ca02c; stroke: #000000"/>
     <use xlink:href="#m55fc4f5126" x="184.532967" y="138.206882" style="fill: #2ca02c; stroke: #000000"/>
     <use xlink:href="#m55fc4f5126" x="190.014722" y="132.752349" style="fill: #2ca02c; stroke: #000000"/>
     <use xlink:href="#m55fc4f5126" x="213.214305" y="117.845939" style="fill: #2ca02c; stroke: #000000"/>
     <use xlink:href="#m55fc4f5126" x="203.278317" y="116.311859" style="fill: #2ca02c; stroke: #000000"/>
     <use xlink:href="#m55fc4f5126" x="195.832038" y="122.927693" style="fill: #2ca02c; stroke: #000000"/>
     <use xlink:href="#m55fc4f5126" x="204.668869" y="154.822228" style="fill: #2ca02c; stroke: #000000"/>
     <use xlink:href="#m55fc4f5126" x="196.859608" y="151.00356" style="fill: #2ca02c; stroke: #000000"/>
     <use xlink:href="#m55fc4f5126" x="191.449006" y="155.188969" style="fill: #2ca02c; stroke: #000000"/>
     <use xlink:href="#m55fc4f5126" x="219.818925" y="159.5874" style="fill: #2ca02c; stroke: #000000"/>
     <use xlink:href="#m55fc4f5126" x="193.917542" y="130.334351" style="fill: #2ca02c; stroke: #000000"/>
     <use xlink:href="#m55fc4f5126" x="226.427847" y="150.246705" style="fill: #2ca02c; stroke: #000000"/>
     <use xlink:href="#m55fc4f5126" x="232.058654" y="162.533308" style="fill: #2ca02c; stroke: #000000"/>
     <use xlink:href="#m55fc4f5126" x="193.616327" y="147.334467" style="fill: #2ca02c; stroke: #000000"/>
     <use xlink:href="#m55fc4f5126" x="198.049018" y="125.251817" style="fill: #2ca02c; stroke: #000000"/>
     <use xlink:href="#m55fc4f5126" x="182.084386" y="136.003573" style="fill: #2ca02c; stroke: #000000"/>
     <use xlink:href="#m55fc4f5126" x="232.033505" y="158.679698" style="fill: #2ca02c; stroke: #000000"/>
     <use xlink:href="#m55fc4f5126" x="191.519974" y="126.433258" style="fill: #2ca02c; stroke: #000000"/>
     <use xlink:href="#m55fc4f5126" x="230.611326" y="157.06281" style="fill: #2ca02c; stroke: #000000"/>
     <use xlink:href="#m55fc4f5126" x="191.052174" y="121.082637" style="fill: #2ca02c; stroke: #000000"/>
     <use xlink:href="#m55fc4f5126" x="206.261169" y="154.210061" style="fill: #2ca02c; stroke: #000000"/>
     <use xlink:href="#m55fc4f5126" x="237.498113" y="137.014239" style="fill: #2ca02c; stroke: #000000"/>
     <use xlink:href="#m55fc4f5126" x="226.350609" y="113.68518" style="fill: #2ca02c; stroke: #000000"/>
     <use xlink:href="#m55fc4f5126" x="200.996871" y="115.795541" style="fill: #2ca02c; stroke: #000000"/>
     <use xlink:href="#m55fc4f5126" x="191.112585" y="112.346439" style="fill: #2ca02c; stroke: #000000"/>
     <use xlink:href="#m55fc4f5126" x="202.220739" y="108.581603" style="fill: #2ca02c; stroke: #000000"/>
     <use xlink:href="#m55fc4f5126" x="208.744649" y="116.158544" style="fill: #2ca02c; stroke: #000000"/>
     <use xlink:href="#m55fc4f5126" x="204.18027" y="107.847348" style="fill: #2ca02c; stroke: #000000"/>
     <use xlink:href="#m55fc4f5126" x="189.633331" y="122.474473" style="fill: #2ca02c; stroke: #000000"/>
     <use xlink:href="#m55fc4f5126" x="187.720598" y="131.560521" style="fill: #2ca02c; stroke: #000000"/>
     <use xlink:href="#m55fc4f5126" x="218.200358" y="134.046249" style="fill: #2ca02c; stroke: #000000"/>
     <use xlink:href="#m55fc4f5126" x="197.136161" y="156.154377" style="fill: #2ca02c; stroke: #000000"/>
     <use xlink:href="#m55fc4f5126" x="193.571424" y="137.290082" style="fill: #2ca02c; stroke: #000000"/>
     <use xlink:href="#m55fc4f5126" x="190.379081" y="132.946466" style="fill: #2ca02c; stroke: #000000"/>
     <use xlink:href="#m55fc4f5126" x="196.891436" y="117.456626" style="fill: #2ca02c; stroke: #000000"/>
     <use xlink:href="#m55fc4f5126" x="214.394524" y="169.165629" style="fill: #2ca02c; stroke: #000000"/>
     <use xlink:href="#m55fc4f5126" x="237.681296" y="157.308193" style="fill: #2ca02c; stroke: #000000"/>
    </g>
   </g>
   <g id="matplotlib.axis_1">
    <g id="xtick_1">
     <g id="line2d_1">
      <defs>
       <path id="mc6638d2e22" d="M 0 0 
L 0 3.5 
" style="stroke: #000000; stroke-width: 0.8"/>
      </defs>
      <g>
       <use xlink:href="#mc6638d2e22" x="36.404121" y="273.312" style="stroke: #000000; stroke-width: 0.8"/>
      </g>
     </g>
     <g id="text_1">
      <!-- −8 -->
      <g transform="translate(29.033027 287.910437) scale(0.1 -0.1)">
       <defs>
        <path id="DejaVuSans-2212" d="M 678 2272 
L 4684 2272 
L 4684 1741 
L 678 1741 
L 678 2272 
z
" transform="scale(0.015625)"/>
        <path id="DejaVuSans-38" d="M 2034 2216 
Q 1584 2216 1326 1975 
Q 1069 1734 1069 1313 
Q 1069 891 1326 650 
Q 1584 409 2034 409 
Q 2484 409 2743 651 
Q 3003 894 3003 1313 
Q 3003 1734 2745 1975 
Q 2488 2216 2034 2216 
z
M 1403 2484 
Q 997 2584 770 2862 
Q 544 3141 544 3541 
Q 544 4100 942 4425 
Q 1341 4750 2034 4750 
Q 2731 4750 3128 4425 
Q 3525 4100 3525 3541 
Q 3525 3141 3298 2862 
Q 3072 2584 2669 2484 
Q 3125 2378 3379 2068 
Q 3634 1759 3634 1313 
Q 3634 634 3220 271 
Q 2806 -91 2034 -91 
Q 1263 -91 848 271 
Q 434 634 434 1313 
Q 434 1759 690 2068 
Q 947 2378 1403 2484 
z
M 1172 3481 
Q 1172 3119 1398 2916 
Q 1625 2713 2034 2713 
Q 2441 2713 2670 2916 
Q 2900 3119 2900 3481 
Q 2900 3844 2670 4047 
Q 2441 4250 2034 4250 
Q 1625 4250 1398 4047 
Q 1172 3844 1172 3481 
z
" transform="scale(0.015625)"/>
       </defs>
       <use xlink:href="#DejaVuSans-2212"/>
       <use xlink:href="#DejaVuSans-38" transform="translate(83.789062 0)"/>
      </g>
     </g>
    </g>
    <g id="xtick_2">
     <g id="line2d_2">
      <g>
       <use xlink:href="#mc6638d2e22" x="80.409445" y="273.312" style="stroke: #000000; stroke-width: 0.8"/>
      </g>
     </g>
     <g id="text_2">
      <!-- −6 -->
      <g transform="translate(73.038352 287.910437) scale(0.1 -0.1)">
       <defs>
        <path id="DejaVuSans-36" d="M 2113 2584 
Q 1688 2584 1439 2293 
Q 1191 2003 1191 1497 
Q 1191 994 1439 701 
Q 1688 409 2113 409 
Q 2538 409 2786 701 
Q 3034 994 3034 1497 
Q 3034 2003 2786 2293 
Q 2538 2584 2113 2584 
z
M 3366 4563 
L 3366 3988 
Q 3128 4100 2886 4159 
Q 2644 4219 2406 4219 
Q 1781 4219 1451 3797 
Q 1122 3375 1075 2522 
Q 1259 2794 1537 2939 
Q 1816 3084 2150 3084 
Q 2853 3084 3261 2657 
Q 3669 2231 3669 1497 
Q 3669 778 3244 343 
Q 2819 -91 2113 -91 
Q 1303 -91 875 529 
Q 447 1150 447 2328 
Q 447 3434 972 4092 
Q 1497 4750 2381 4750 
Q 2619 4750 2861 4703 
Q 3103 4656 3366 4563 
z
" transform="scale(0.015625)"/>
       </defs>
       <use xlink:href="#DejaVuSans-2212"/>
       <use xlink:href="#DejaVuSans-36" transform="translate(83.789062 0)"/>
      </g>
     </g>
    </g>
    <g id="xtick_3">
     <g id="line2d_3">
      <g>
       <use xlink:href="#mc6638d2e22" x="124.41477" y="273.312" style="stroke: #000000; stroke-width: 0.8"/>
      </g>
     </g>
     <g id="text_3">
      <!-- −4 -->
      <g transform="translate(117.043676 287.910437) scale(0.1 -0.1)">
       <defs>
        <path id="DejaVuSans-34" d="M 2419 4116 
L 825 1625 
L 2419 1625 
L 2419 4116 
z
M 2253 4666 
L 3047 4666 
L 3047 1625 
L 3713 1625 
L 3713 1100 
L 3047 1100 
L 3047 0 
L 2419 0 
L 2419 1100 
L 313 1100 
L 313 1709 
L 2253 4666 
z
" transform="scale(0.015625)"/>
       </defs>
       <use xlink:href="#DejaVuSans-2212"/>
       <use xlink:href="#DejaVuSans-34" transform="translate(83.789062 0)"/>
      </g>
     </g>
    </g>
    <g id="xtick_4">
     <g id="line2d_4">
      <g>
       <use xlink:href="#mc6638d2e22" x="168.420094" y="273.312" style="stroke: #000000; stroke-width: 0.8"/>
      </g>
     </g>
     <g id="text_4">
      <!-- −2 -->
      <g transform="translate(161.049 287.910437) scale(0.1 -0.1)">
       <defs>
        <path id="DejaVuSans-32" d="M 1228 531 
L 3431 531 
L 3431 0 
L 469 0 
L 469 531 
Q 828 903 1448 1529 
Q 2069 2156 2228 2338 
Q 2531 2678 2651 2914 
Q 2772 3150 2772 3378 
Q 2772 3750 2511 3984 
Q 2250 4219 1831 4219 
Q 1534 4219 1204 4116 
Q 875 4013 500 3803 
L 500 4441 
Q 881 4594 1212 4672 
Q 1544 4750 1819 4750 
Q 2544 4750 2975 4387 
Q 3406 4025 3406 3419 
Q 3406 3131 3298 2873 
Q 3191 2616 2906 2266 
Q 2828 2175 2409 1742 
Q 1991 1309 1228 531 
z
" transform="scale(0.015625)"/>
       </defs>
       <use xlink:href="#DejaVuSans-2212"/>
       <use xlink:href="#DejaVuSans-32" transform="translate(83.789062 0)"/>
      </g>
     </g>
    </g>
    <g id="xtick_5">
     <g id="line2d_5">
      <g>
       <use xlink:href="#mc6638d2e22" x="212.425419" y="273.312" style="stroke: #000000; stroke-width: 0.8"/>
      </g>
     </g>
     <g id="text_5">
      <!-- 0 -->
      <g transform="translate(209.244169 287.910437) scale(0.1 -0.1)">
       <defs>
        <path id="DejaVuSans-30" d="M 2034 4250 
Q 1547 4250 1301 3770 
Q 1056 3291 1056 2328 
Q 1056 1369 1301 889 
Q 1547 409 2034 409 
Q 2525 409 2770 889 
Q 3016 1369 3016 2328 
Q 3016 3291 2770 3770 
Q 2525 4250 2034 4250 
z
M 2034 4750 
Q 2819 4750 3233 4129 
Q 3647 3509 3647 2328 
Q 3647 1150 3233 529 
Q 2819 -91 2034 -91 
Q 1250 -91 836 529 
Q 422 1150 422 2328 
Q 422 3509 836 4129 
Q 1250 4750 2034 4750 
z
" transform="scale(0.015625)"/>
       </defs>
       <use xlink:href="#DejaVuSans-30"/>
      </g>
     </g>
    </g>
    <g id="xtick_6">
     <g id="line2d_6">
      <g>
       <use xlink:href="#mc6638d2e22" x="256.430743" y="273.312" style="stroke: #000000; stroke-width: 0.8"/>
      </g>
     </g>
     <g id="text_6">
      <!-- 2 -->
      <g transform="translate(253.249493 287.910437) scale(0.1 -0.1)">
       <use xlink:href="#DejaVuSans-32"/>
      </g>
     </g>
    </g>
    <g id="xtick_7">
     <g id="line2d_7">
      <g>
       <use xlink:href="#mc6638d2e22" x="300.436067" y="273.312" style="stroke: #000000; stroke-width: 0.8"/>
      </g>
     </g>
     <g id="text_7">
      <!-- 4 -->
      <g transform="translate(297.254817 287.910437) scale(0.1 -0.1)">
       <use xlink:href="#DejaVuSans-34"/>
      </g>
     </g>
    </g>
    <g id="xtick_8">
     <g id="line2d_8">
      <g>
       <use xlink:href="#mc6638d2e22" x="344.441392" y="273.312" style="stroke: #000000; stroke-width: 0.8"/>
      </g>
     </g>
     <g id="text_8">
      <!-- 6 -->
      <g transform="translate(341.260142 287.910437) scale(0.1 -0.1)">
       <use xlink:href="#DejaVuSans-36"/>
      </g>
     </g>
    </g>
   </g>
   <g id="matplotlib.axis_2">
    <g id="ytick_1">
     <g id="line2d_9">
      <defs>
       <path id="m56db09674b" d="M 0 0 
L -3.5 0 
" style="stroke: #000000; stroke-width: 0.8"/>
      </defs>
      <g>
       <use xlink:href="#m56db09674b" x="28.942188" y="270.277973" style="stroke: #000000; stroke-width: 0.8"/>
      </g>
     </g>
     <g id="text_9">
      <!-- −6 -->
      <g transform="translate(7.2 274.077192) scale(0.1 -0.1)">
       <use xlink:href="#DejaVuSans-2212"/>
       <use xlink:href="#DejaVuSans-36" transform="translate(83.789062 0)"/>
      </g>
     </g>
    </g>
    <g id="ytick_2">
     <g id="line2d_10">
      <g>
       <use xlink:href="#m56db09674b" x="28.942188" y="226.272648" style="stroke: #000000; stroke-width: 0.8"/>
      </g>
     </g>
     <g id="text_10">
      <!-- −4 -->
      <g transform="translate(7.2 230.071867) scale(0.1 -0.1)">
       <use xlink:href="#DejaVuSans-2212"/>
       <use xlink:href="#DejaVuSans-34" transform="translate(83.789062 0)"/>
      </g>
     </g>
    </g>
    <g id="ytick_3">
     <g id="line2d_11">
      <g>
       <use xlink:href="#m56db09674b" x="28.942188" y="182.267324" style="stroke: #000000; stroke-width: 0.8"/>
      </g>
     </g>
     <g id="text_11">
      <!-- −2 -->
      <g transform="translate(7.2 186.066543) scale(0.1 -0.1)">
       <use xlink:href="#DejaVuSans-2212"/>
       <use xlink:href="#DejaVuSans-32" transform="translate(83.789062 0)"/>
      </g>
     </g>
    </g>
    <g id="ytick_4">
     <g id="line2d_12">
      <g>
       <use xlink:href="#m56db09674b" x="28.942188" y="138.262" style="stroke: #000000; stroke-width: 0.8"/>
      </g>
     </g>
     <g id="text_12">
      <!-- 0 -->
      <g transform="translate(15.579688 142.061218) scale(0.1 -0.1)">
       <use xlink:href="#DejaVuSans-30"/>
      </g>
     </g>
    </g>
    <g id="ytick_5">
     <g id="line2d_13">
      <g>
       <use xlink:href="#m56db09674b" x="28.942188" y="94.256675" style="stroke: #000000; stroke-width: 0.8"/>
      </g>
     </g>
     <g id="text_13">
      <!-- 2 -->
      <g transform="translate(15.579688 98.055894) scale(0.1 -0.1)">
       <use xlink:href="#DejaVuSans-32"/>
      </g>
     </g>
    </g>
    <g id="ytick_6">
     <g id="line2d_14">
      <g>
       <use xlink:href="#m56db09674b" x="28.942188" y="50.251351" style="stroke: #000000; stroke-width: 0.8"/>
      </g>
     </g>
     <g id="text_14">
      <!-- 4 -->
      <g transform="translate(15.579688 54.05057) scale(0.1 -0.1)">
       <use xlink:href="#DejaVuSans-34"/>
      </g>
     </g>
    </g>
   </g>
   <g id="patch_3">
    <path d="M 28.942188 273.312 
L 28.942188 7.2 
" style="fill: none; stroke: #000000; stroke-width: 0.8; stroke-linejoin: miter; stroke-linecap: square"/>
   </g>
   <g id="patch_4">
    <path d="M 386.062188 273.312 
L 386.062188 7.2 
" style="fill: none; stroke: #000000; stroke-width: 0.8; stroke-linejoin: miter; stroke-linecap: square"/>
   </g>
   <g id="patch_5">
    <path d="M 28.942187 273.312 
L 386.062188 273.312 
" style="fill: none; stroke: #000000; stroke-width: 0.8; stroke-linejoin: miter; stroke-linecap: square"/>
   </g>
   <g id="patch_6">
    <path d="M 28.942187 7.2 
L 386.062188 7.2 
" style="fill: none; stroke: #000000; stroke-width: 0.8; stroke-linejoin: miter; stroke-linecap: square"/>
   </g>
  </g>
 </g>
 <defs>
  <clipPath id="p8634dddf7b">
   <rect x="28.942188" y="7.2" width="357.12" height="266.112"/>
  </clipPath>
 </defs>
</svg>
