<?xml version="1.0" encoding="utf-8" standalone="no"?>
<!DOCTYPE svg PUBLIC "-//W3C//DTD SVG 1.1//EN"
  "http://www.w3.org/Graphics/SVG/1.1/DTD/svg11.dtd">
<svg xmlns:xlink="http://www.w3.org/1999/xlink" width="395.286883pt" height="297.190125pt" viewBox="0 0 395.286883 297.190125" xmlns="http://www.w3.org/2000/svg" version="1.1">
 <metadata>
  <rdf:RDF xmlns:dc="http://purl.org/dc/elements/1.1/" xmlns:cc="http://creativecommons.org/ns#" xmlns:rdf="http://www.w3.org/1999/02/22-rdf-syntax-ns#">
   <cc:Work>
    <dc:type rdf:resource="http://purl.org/dc/dcmitype/StillImage"/>
    <dc:date>2025-07-21T05:36:41.783665</dc:date>
    <dc:format>image/svg+xml</dc:format>
    <dc:creator>
     <cc:Agent>
      <dc:title>Matplotlib v3.10.3, https://matplotlib.org/</dc:title>
     </cc:Agent>
    </dc:creator>
   </cc:Work>
  </rdf:RDF>
 </metadata>
 <defs>
  <style type="text/css">*{stroke-linejoin: round; stroke-linecap: butt}</style>
 </defs>
 <g id="figure_1">
  <g id="patch_1">
   <path d="M 0 297.190125 
L 395.286883 297.190125 
L 395.286883 0 
L 0 0 
z
" style="fill: #ffffff"/>
  </g>
  <g id="axes_1">
   <g id="patch_2">
    <path d="M 28.942188 273.312 
L 386.062188 273.312 
L 386.062188 7.2 
L 28.942188 7.2 
z
" style="fill: #ffffff"/>
   </g>
   <g id="PathCollection_1">
    <defs>
     <path id="m608e961ffa" d="M 0 3 
C 0.795609 3 1.55874 2.683901 2.12132 2.12132 
C 2.683901 1.55874 3 0.795609 3 0 
C 3 -0.795609 2.683901 -1.55874 2.12132 -2.12132 
C 1.55874 -2.683901 0.795609 -3 0 -3 
C -0.795609 -3 -1.55874 -2.683901 -2.12132 -2.12132 
C -2.683901 -1.55874 -3 -0.795609 -3 0 
C -3 0.795609 -2.683901 1.55874 -2.12132 2.12132 
C -1.55874 2.683901 -0.795609 3 0 3 
z
" style="stroke: #000000"/>
    </defs>
    <g clip-path="url(#p05ce901394)">
     <use xlink:href="#m608e961ffa" x="146.92768" y="200.120164" style="fill: #1f77b4; stroke: #000000"/>
     <use xlink:href="#m608e961ffa" x="193.486113" y="76.392389" style="fill: #1f77b4; stroke: #000000"/>
     <use xlink:href="#m608e961ffa" x="274.662687" y="155.55137" style="fill: #1f77b4; stroke: #000000"/>
     <use xlink:href="#m608e961ffa" x="250.150368" y="196.115578" style="fill: #1f77b4; stroke: #000000"/>
     <use xlink:href="#m608e961ffa" x="142.721699" y="161.700713" style="fill: #1f77b4; stroke: #000000"/>
     <use xlink:href="#m608e961ffa" x="174.6484" y="72.438218" style="fill: #1f77b4; stroke: #000000"/>
     <use xlink:href="#m608e961ffa" x="153.764469" y="94.245357" style="fill: #1f77b4; stroke: #000000"/>
     <use xlink:href="#m608e961ffa" x="124.300828" y="153.089547" style="fill: #1f77b4; stroke: #000000"/>
     <use xlink:href="#m608e961ffa" x="175.736557" y="89.914083" style="fill: #1f77b4; stroke: #000000"/>
     <use xlink:href="#m608e961ffa" x="214.372536" y="204.995534" style="fill: #1f77b4; stroke: #000000"/>
     <use xlink:href="#m608e961ffa" x="277.465058" y="97.409124" style="fill: #1f77b4; stroke: #000000"/>
     <use xlink:href="#m608e961ffa" x="263.373574" y="98.208945" style="fill: #1f77b4; stroke: #000000"/>
     <use xlink:href="#m608e961ffa" x="148.988305" y="148.184789" style="fill: #1f77b4; stroke: #000000"/>
     <use xlink:href="#m608e961ffa" x="154.727808" y="115.678312" style="fill: #1f77b4; stroke: #000000"/>
     <use xlink:href="#m608e961ffa" x="268.502399" y="113.955519" style="fill: #1f77b4; stroke: #000000"/>
     <use xlink:href="#m608e961ffa" x="155.464585" y="86.272341" style="fill: #1f77b4; stroke: #000000"/>
     <use xlink:href="#m608e961ffa" x="198.809562" y="77.401283" style="fill: #1f77b4; stroke: #000000"/>
     <use xlink:href="#m608e961ffa" x="231.772915" y="87.015443" style="fill: #1f77b4; stroke: #000000"/>
     <use xlink:href="#m608e961ffa" x="275.711353" y="150.532561" style="fill: #1f77b4; stroke: #000000"/>
     <use xlink:href="#m608e961ffa" x="161.092025" y="81.523796" style="fill: #1f77b4; stroke: #000000"/>
     <use xlink:href="#m608e961ffa" x="138.867987" y="170.731174" style="fill: #1f77b4; stroke: #000000"/>
     <use xlink:href="#m608e961ffa" x="253.946748" y="99.809758" style="fill: #1f77b4; stroke: #000000"/>
     <use xlink:href="#m608e961ffa" x="254.395113" y="187.94502" style="fill: #1f77b4; stroke: #000000"/>
     <use xlink:href="#m608e961ffa" x="191.944783" y="197.967486" style="fill: #1f77b4; stroke: #000000"/>
     <use xlink:href="#m608e961ffa" x="162.260577" y="207.432515" style="fill: #1f77b4; stroke: #000000"/>
     <use xlink:href="#m608e961ffa" x="228.411255" y="202.899376" style="fill: #1f77b4; stroke: #000000"/>
     <use xlink:href="#m608e961ffa" x="151.504152" y="95.744623" style="fill: #1f77b4; stroke: #000000"/>
     <use xlink:href="#m608e961ffa" x="144.603716" y="153.453055" style="fill: #1f77b4; stroke: #000000"/>
     <use xlink:href="#m608e961ffa" x="264.211769" y="113.677821" style="fill: #1f77b4; stroke: #000000"/>
     <use xlink:href="#m608e961ffa" x="241.207835" y="77.987368" style="fill: #1f77b4; stroke: #000000"/>
     <use xlink:href="#m608e961ffa" x="157.870104" y="89.545656" style="fill: #1f77b4; stroke: #000000"/>
     <use xlink:href="#m608e961ffa" x="258.055092" y="142.950723" style="fill: #1f77b4; stroke: #000000"/>
     <use xlink:href="#m608e961ffa" x="271.589375" y="127.648057" style="fill: #1f77b4; stroke: #000000"/>
     <use xlink:href="#m608e961ffa" x="144.091912" y="145.315169" style="fill: #1f77b4; stroke: #000000"/>
     <use xlink:href="#m608e961ffa" x="259.019508" y="142.567231" style="fill: #1f77b4; stroke: #000000"/>
     <use xlink:href="#m608e961ffa" x="262.671418" y="133.971708" style="fill: #1f77b4; stroke: #000000"/>
     <use xlink:href="#m608e961ffa" x="256.835543" y="91.963451" style="fill: #1f77b4; stroke: #000000"/>
     <use xlink:href="#m608e961ffa" x="271.138927" y="111.266394" style="fill: #1f77b4; stroke: #000000"/>
     <use xlink:href="#m608e961ffa" x="261.145956" y="133.110624" style="fill: #1f77b4; stroke: #000000"/>
     <use xlink:href="#m608e961ffa" x="240.005707" y="80.214522" style="fill: #1f77b4; stroke: #000000"/>
     <use xlink:href="#m608e961ffa" x="149.803731" y="133.777247" style="fill: #1f77b4; stroke: #000000"/>
     <use xlink:href="#m608e961ffa" x="280.127043" y="133.773274" style="fill: #1f77b4; stroke: #000000"/>
     <use xlink:href="#m608e961ffa" x="225.363703" y="74.325148" style="fill: #1f77b4; stroke: #000000"/>
     <use xlink:href="#m608e961ffa" x="242.906678" y="94.266831" style="fill: #1f77b4; stroke: #000000"/>
     <use xlink:href="#m608e961ffa" x="266.142798" y="175.95001" style="fill: #1f77b4; stroke: #000000"/>
     <use xlink:href="#m608e961ffa" x="148.765883" y="115.131022" style="fill: #1f77b4; stroke: #000000"/>
     <use xlink:href="#m608e961ffa" x="180.929376" y="194.938068" style="fill: #1f77b4; stroke: #000000"/>
     <use xlink:href="#m608e961ffa" x="193.242401" y="77.081149" style="fill: #1f77b4; stroke: #000000"/>
     <use xlink:href="#m608e961ffa" x="259.933976" y="149.90635" style="fill: #1f77b4; stroke: #000000"/>
     <use xlink:href="#m608e961ffa" x="153.238788" y="157.511298" style="fill: #1f77b4; stroke: #000000"/>
     <use xlink:href="#m608e961ffa" x="261.079093" y="134.784839" style="fill: #1f77b4; stroke: #000000"/>
     <use xlink:href="#m608e961ffa" x="141.816576" y="137.887282" style="fill: #1f77b4; stroke: #000000"/>
     <use xlink:href="#m608e961ffa" x="276.101623" y="102.645642" style="fill: #1f77b4; stroke: #000000"/>
     <use xlink:href="#m608e961ffa" x="137.236484" y="130.913855" style="fill: #1f77b4; stroke: #000000"/>
     <use xlink:href="#m608e961ffa" x="223.092347" y="66.130981" style="fill: #1f77b4; stroke: #000000"/>
     <use xlink:href="#m608e961ffa" x="224.047113" y="77.093471" style="fill: #1f77b4; stroke: #000000"/>
     <use xlink:href="#m608e961ffa" x="212.166598" y="73.249598" style="fill: #1f77b4; stroke: #000000"/>
     <use xlink:href="#m608e961ffa" x="188.968664" y="214.727422" style="fill: #1f77b4; stroke: #000000"/>
     <use xlink:href="#m608e961ffa" x="142.664674" y="100.661555" style="fill: #1f77b4; stroke: #000000"/>
     <use xlink:href="#m608e961ffa" x="186.238478" y="71.209697" style="fill: #1f77b4; stroke: #000000"/>
     <use xlink:href="#m608e961ffa" x="235.163711" y="73.483534" style="fill: #1f77b4; stroke: #000000"/>
     <use xlink:href="#m608e961ffa" x="147.605405" y="113.802798" style="fill: #1f77b4; stroke: #000000"/>
     <use xlink:href="#m608e961ffa" x="223.229168" y="201.70502" style="fill: #1f77b4; stroke: #000000"/>
     <use xlink:href="#m608e961ffa" x="179.630905" y="75.956627" style="fill: #1f77b4; stroke: #000000"/>
     <use xlink:href="#m608e961ffa" x="187.358502" y="191.73943" style="fill: #1f77b4; stroke: #000000"/>
     <use xlink:href="#m608e961ffa" x="154.406757" y="86.490753" style="fill: #1f77b4; stroke: #000000"/>
     <use xlink:href="#m608e961ffa" x="139.13109" y="111.858981" style="fill: #1f77b4; stroke: #000000"/>
     <use xlink:href="#m608e961ffa" x="146.359325" y="119.615215" style="fill: #1f77b4; stroke: #000000"/>
     <use xlink:href="#m608e961ffa" x="243.833428" y="195.652385" style="fill: #1f77b4; stroke: #000000"/>
     <use xlink:href="#m608e961ffa" x="195.114136" y="80.299703" style="fill: #1f77b4; stroke: #000000"/>
     <use xlink:href="#m608e961ffa" x="128.307408" y="141.393117" style="fill: #1f77b4; stroke: #000000"/>
     <use xlink:href="#m608e961ffa" x="270.827554" y="154.668185" style="fill: #1f77b4; stroke: #000000"/>
     <use xlink:href="#m608e961ffa" x="246.09631" y="194.41944" style="fill: #1f77b4; stroke: #000000"/>
     <use xlink:href="#m608e961ffa" x="174.49305" y="196.299928" style="fill: #1f77b4; stroke: #000000"/>
     <use xlink:href="#m608e961ffa" x="252.431395" y="177.041096" style="fill: #1f77b4; stroke: #000000"/>
     <use xlink:href="#m608e961ffa" x="221.151187" y="87.111171" style="fill: #1f77b4; stroke: #000000"/>
     <use xlink:href="#m608e961ffa" x="196.254669" y="79.890506" style="fill: #1f77b4; stroke: #000000"/>
     <use xlink:href="#m608e961ffa" x="259.688073" y="134.419761" style="fill: #1f77b4; stroke: #000000"/>
     <use xlink:href="#m608e961ffa" x="131.795671" y="157.464275" style="fill: #1f77b4; stroke: #000000"/>
     <use xlink:href="#m608e961ffa" x="244.264637" y="186.71268" style="fill: #1f77b4; stroke: #000000"/>
     <use xlink:href="#m608e961ffa" x="284.405602" y="171.446094" style="fill: #1f77b4; stroke: #000000"/>
     <use xlink:href="#m608e961ffa" x="214.328628" y="209.658465" style="fill: #1f77b4; stroke: #000000"/>
     <use xlink:href="#m608e961ffa" x="239.969223" y="93.690076" style="fill: #1f77b4; stroke: #000000"/>
     <use xlink:href="#m608e961ffa" x="232.119529" y="88.329495" style="fill: #1f77b4; stroke: #000000"/>
     <use xlink:href="#m608e961ffa" x="177.553123" y="84.294015" style="fill: #1f77b4; stroke: #000000"/>
     <use xlink:href="#m608e961ffa" x="144.908951" y="165.692669" style="fill: #1f77b4; stroke: #000000"/>
     <use xlink:href="#m608e961ffa" x="210.003726" y="70.564234" style="fill: #1f77b4; stroke: #000000"/>
     <use xlink:href="#m608e961ffa" x="221.085147" y="81.227844" style="fill: #1f77b4; stroke: #000000"/>
     <use xlink:href="#m608e961ffa" x="142.284879" y="105.061735" style="fill: #1f77b4; stroke: #000000"/>
     <use xlink:href="#m608e961ffa" x="155.288965" y="95.394419" style="fill: #1f77b4; stroke: #000000"/>
     <use xlink:href="#m608e961ffa" x="258.909486" y="186.44304" style="fill: #1f77b4; stroke: #000000"/>
     <use xlink:href="#m608e961ffa" x="131.367059" y="141.92937" style="fill: #1f77b4; stroke: #000000"/>
     <use xlink:href="#m608e961ffa" x="146.914207" y="111.955849" style="fill: #1f77b4; stroke: #000000"/>
     <use xlink:href="#m608e961ffa" x="176.457176" y="186.194827" style="fill: #1f77b4; stroke: #000000"/>
     <use xlink:href="#m608e961ffa" x="215.162468" y="200.9559" style="fill: #1f77b4; stroke: #000000"/>
     <use xlink:href="#m608e961ffa" x="226.463701" y="198.939818" style="fill: #1f77b4; stroke: #000000"/>
     <use xlink:href="#m608e961ffa" x="150.761772" y="181.337563" style="fill: #1f77b4; stroke: #000000"/>
     <use xlink:href="#m608e961ffa" x="267.988795" y="164.872171" style="fill: #1f77b4; stroke: #000000"/>
     <use xlink:href="#m608e961ffa" x="147.704732" y="97.596644" style="fill: #1f77b4; stroke: #000000"/>
     <use xlink:href="#m608e961ffa" x="199.059891" y="199.516176" style="fill: #1f77b4; stroke: #000000"/>
    </g>
   </g>
   <g id="PathCollection_2">
    <defs>
     <path id="mf0f51909e2" d="M 0 -5 
L -1.12257 -1.545085 
L -4.755283 -1.545085 
L -1.816356 0.59017 
L -2.938926 4.045085 
L -0 1.90983 
L 2.938926 4.045085 
L 1.816356 0.59017 
L 4.755283 -1.545085 
L 1.12257 -1.545085 
z
" style="stroke: #000000"/>
    </defs>
    <g clip-path="url(#p05ce901394)">
     <use xlink:href="#mf0f51909e2" x="234.886271" y="243.066682" style="fill: #ff7f0e; stroke: #000000"/>
     <use xlink:href="#mf0f51909e2" x="99.0681" y="106.370011" style="fill: #ff7f0e; stroke: #000000"/>
     <use xlink:href="#mf0f51909e2" x="329.657649" y="104.662336" style="fill: #ff7f0e; stroke: #000000"/>
     <use xlink:href="#mf0f51909e2" x="103.348846" y="210.71555" style="fill: #ff7f0e; stroke: #000000"/>
     <use xlink:href="#mf0f51909e2" x="308.934888" y="106.054171" style="fill: #ff7f0e; stroke: #000000"/>
     <use xlink:href="#mf0f51909e2" x="159.535224" y="251.803717" style="fill: #ff7f0e; stroke: #000000"/>
     <use xlink:href="#mf0f51909e2" x="85.346726" y="179.189625" style="fill: #ff7f0e; stroke: #000000"/>
     <use xlink:href="#mf0f51909e2" x="307.103581" y="97.604717" style="fill: #ff7f0e; stroke: #000000"/>
     <use xlink:href="#mf0f51909e2" x="127.170403" y="65.737516" style="fill: #ff7f0e; stroke: #000000"/>
     <use xlink:href="#mf0f51909e2" x="187.964654" y="248.071839" style="fill: #ff7f0e; stroke: #000000"/>
     <use xlink:href="#mf0f51909e2" x="266.229888" y="42.533843" style="fill: #ff7f0e; stroke: #000000"/>
     <use xlink:href="#mf0f51909e2" x="210.426052" y="238.144166" style="fill: #ff7f0e; stroke: #000000"/>
     <use xlink:href="#mf0f51909e2" x="173.969194" y="247.12356" style="fill: #ff7f0e; stroke: #000000"/>
     <use xlink:href="#mf0f51909e2" x="138.900648" y="221.381713" style="fill: #ff7f0e; stroke: #000000"/>
     <use xlink:href="#mf0f51909e2" x="148.757645" y="29.01422" style="fill: #ff7f0e; stroke: #000000"/>
     <use xlink:href="#mf0f51909e2" x="294.340244" y="94.404423" style="fill: #ff7f0e; stroke: #000000"/>
     <use xlink:href="#mf0f51909e2" x="110.463851" y="208.909156" style="fill: #ff7f0e; stroke: #000000"/>
     <use xlink:href="#mf0f51909e2" x="275.68099" y="30.020048" style="fill: #ff7f0e; stroke: #000000"/>
     <use xlink:href="#mf0f51909e2" x="236.522541" y="242.581207" style="fill: #ff7f0e; stroke: #000000"/>
     <use xlink:href="#mf0f51909e2" x="86.876045" y="162.414557" style="fill: #ff7f0e; stroke: #000000"/>
     <use xlink:href="#mf0f51909e2" x="178.26788" y="258.337426" style="fill: #ff7f0e; stroke: #000000"/>
     <use xlink:href="#mf0f51909e2" x="102.361452" y="115.31636" style="fill: #ff7f0e; stroke: #000000"/>
     <use xlink:href="#mf0f51909e2" x="246.570892" y="38.195924" style="fill: #ff7f0e; stroke: #000000"/>
     <use xlink:href="#mf0f51909e2" x="126.545199" y="218.848608" style="fill: #ff7f0e; stroke: #000000"/>
     <use xlink:href="#mf0f51909e2" x="105.226658" y="117.772028" style="fill: #ff7f0e; stroke: #000000"/>
     <use xlink:href="#mf0f51909e2" x="317.985573" y="147.839586" style="fill: #ff7f0e; stroke: #000000"/>
     <use xlink:href="#mf0f51909e2" x="201.114827" y="243.628528" style="fill: #ff7f0e; stroke: #000000"/>
     <use xlink:href="#mf0f51909e2" x="288.261828" y="73.335659" style="fill: #ff7f0e; stroke: #000000"/>
     <use xlink:href="#mf0f51909e2" x="239.30096" y="37.118718" style="fill: #ff7f0e; stroke: #000000"/>
     <use xlink:href="#mf0f51909e2" x="147.333507" y="38.323153" style="fill: #ff7f0e; stroke: #000000"/>
     <use xlink:href="#mf0f51909e2" x="124.021499" y="230.165696" style="fill: #ff7f0e; stroke: #000000"/>
     <use xlink:href="#mf0f51909e2" x="135.619159" y="247.30053" style="fill: #ff7f0e; stroke: #000000"/>
     <use xlink:href="#mf0f51909e2" x="318.640174" y="162.403388" style="fill: #ff7f0e; stroke: #000000"/>
     <use xlink:href="#mf0f51909e2" x="277.649281" y="229.785805" style="fill: #ff7f0e; stroke: #000000"/>
     <use xlink:href="#mf0f51909e2" x="110.852712" y="69.302269" style="fill: #ff7f0e; stroke: #000000"/>
     <use xlink:href="#mf0f51909e2" x="136.762275" y="235.375549" style="fill: #ff7f0e; stroke: #000000"/>
     <use xlink:href="#mf0f51909e2" x="286.263905" y="205.377216" style="fill: #ff7f0e; stroke: #000000"/>
     <use xlink:href="#mf0f51909e2" x="121.892545" y="69.783031" style="fill: #ff7f0e; stroke: #000000"/>
     <use xlink:href="#mf0f51909e2" x="90.079762" y="146.638402" style="fill: #ff7f0e; stroke: #000000"/>
     <use xlink:href="#mf0f51909e2" x="276.73083" y="237.687017" style="fill: #ff7f0e; stroke: #000000"/>
     <use xlink:href="#mf0f51909e2" x="181.342032" y="241.466524" style="fill: #ff7f0e; stroke: #000000"/>
     <use xlink:href="#mf0f51909e2" x="228.732142" y="29.321736" style="fill: #ff7f0e; stroke: #000000"/>
     <use xlink:href="#mf0f51909e2" x="105.978405" y="102.77322" style="fill: #ff7f0e; stroke: #000000"/>
     <use xlink:href="#mf0f51909e2" x="248.531604" y="34.151785" style="fill: #ff7f0e; stroke: #000000"/>
     <use xlink:href="#mf0f51909e2" x="246.908917" y="249.348376" style="fill: #ff7f0e; stroke: #000000"/>
     <use xlink:href="#mf0f51909e2" x="309.388638" y="118.002061" style="fill: #ff7f0e; stroke: #000000"/>
     <use xlink:href="#mf0f51909e2" x="249.395115" y="231.774743" style="fill: #ff7f0e; stroke: #000000"/>
     <use xlink:href="#mf0f51909e2" x="307.273894" y="112.544376" style="fill: #ff7f0e; stroke: #000000"/>
     <use xlink:href="#mf0f51909e2" x="213.561861" y="240.076426" style="fill: #ff7f0e; stroke: #000000"/>
     <use xlink:href="#mf0f51909e2" x="176.360031" y="249.339308" style="fill: #ff7f0e; stroke: #000000"/>
     <use xlink:href="#mf0f51909e2" x="173.944357" y="27.248951" style="fill: #ff7f0e; stroke: #000000"/>
     <use xlink:href="#mf0f51909e2" x="317.102864" y="175.376117" style="fill: #ff7f0e; stroke: #000000"/>
     <use xlink:href="#mf0f51909e2" x="143.191741" y="60.911414" style="fill: #ff7f0e; stroke: #000000"/>
     <use xlink:href="#mf0f51909e2" x="127.142025" y="231.480475" style="fill: #ff7f0e; stroke: #000000"/>
     <use xlink:href="#mf0f51909e2" x="103.456725" y="119.795566" style="fill: #ff7f0e; stroke: #000000"/>
     <use xlink:href="#mf0f51909e2" x="250.047915" y="241.933762" style="fill: #ff7f0e; stroke: #000000"/>
     <use xlink:href="#mf0f51909e2" x="87.603651" y="142.502026" style="fill: #ff7f0e; stroke: #000000"/>
     <use xlink:href="#mf0f51909e2" x="198.516417" y="27.208345" style="fill: #ff7f0e; stroke: #000000"/>
     <use xlink:href="#mf0f51909e2" x="99.761765" y="113.683236" style="fill: #ff7f0e; stroke: #000000"/>
     <use xlink:href="#mf0f51909e2" x="213.110789" y="259.581842" style="fill: #ff7f0e; stroke: #000000"/>
     <use xlink:href="#mf0f51909e2" x="296.624449" y="188.080565" style="fill: #ff7f0e; stroke: #000000"/>
     <use xlink:href="#mf0f51909e2" x="248.444619" y="244.729724" style="fill: #ff7f0e; stroke: #000000"/>
     <use xlink:href="#mf0f51909e2" x="227.238899" y="37.125365" style="fill: #ff7f0e; stroke: #000000"/>
     <use xlink:href="#mf0f51909e2" x="310.597085" y="97.594234" style="fill: #ff7f0e; stroke: #000000"/>
     <use xlink:href="#mf0f51909e2" x="167.738457" y="30.391917" style="fill: #ff7f0e; stroke: #000000"/>
     <use xlink:href="#mf0f51909e2" x="269.742112" y="226.249243" style="fill: #ff7f0e; stroke: #000000"/>
     <use xlink:href="#mf0f51909e2" x="130.315382" y="205.715739" style="fill: #ff7f0e; stroke: #000000"/>
     <use xlink:href="#mf0f51909e2" x="217.346217" y="242.217641" style="fill: #ff7f0e; stroke: #000000"/>
     <use xlink:href="#mf0f51909e2" x="275.724321" y="209.437403" style="fill: #ff7f0e; stroke: #000000"/>
     <use xlink:href="#mf0f51909e2" x="134.448642" y="41.107412" style="fill: #ff7f0e; stroke: #000000"/>
     <use xlink:href="#mf0f51909e2" x="302.231758" y="85.595743" style="fill: #ff7f0e; stroke: #000000"/>
     <use xlink:href="#mf0f51909e2" x="283.688915" y="53.628713" style="fill: #ff7f0e; stroke: #000000"/>
     <use xlink:href="#mf0f51909e2" x="258.824675" y="242.91492" style="fill: #ff7f0e; stroke: #000000"/>
     <use xlink:href="#mf0f51909e2" x="317.764477" y="85.794245" style="fill: #ff7f0e; stroke: #000000"/>
     <use xlink:href="#mf0f51909e2" x="94.354942" y="124.849628" style="fill: #ff7f0e; stroke: #000000"/>
     <use xlink:href="#mf0f51909e2" x="318.965037" y="136.61739" style="fill: #ff7f0e; stroke: #000000"/>
     <use xlink:href="#mf0f51909e2" x="133.916754" y="242.268778" style="fill: #ff7f0e; stroke: #000000"/>
     <use xlink:href="#mf0f51909e2" x="221.459125" y="22.498835" style="fill: #ff7f0e; stroke: #000000"/>
     <use xlink:href="#mf0f51909e2" x="279.519671" y="208.336063" style="fill: #ff7f0e; stroke: #000000"/>
     <use xlink:href="#mf0f51909e2" x="305.346288" y="183.192988" style="fill: #ff7f0e; stroke: #000000"/>
     <use xlink:href="#mf0f51909e2" x="328.456853" y="156.239502" style="fill: #ff7f0e; stroke: #000000"/>
     <use xlink:href="#mf0f51909e2" x="246.736604" y="35.610756" style="fill: #ff7f0e; stroke: #000000"/>
     <use xlink:href="#mf0f51909e2" x="310.889729" y="67.54948" style="fill: #ff7f0e; stroke: #000000"/>
     <use xlink:href="#mf0f51909e2" x="139.696348" y="230.139438" style="fill: #ff7f0e; stroke: #000000"/>
     <use xlink:href="#mf0f51909e2" x="96.139626" y="185.21502" style="fill: #ff7f0e; stroke: #000000"/>
     <use xlink:href="#mf0f51909e2" x="150.424035" y="231.390723" style="fill: #ff7f0e; stroke: #000000"/>
     <use xlink:href="#mf0f51909e2" x="296.913305" y="75.191598" style="fill: #ff7f0e; stroke: #000000"/>
     <use xlink:href="#mf0f51909e2" x="254.705336" y="244.680775" style="fill: #ff7f0e; stroke: #000000"/>
     <use xlink:href="#mf0f51909e2" x="90.259652" y="136.308774" style="fill: #ff7f0e; stroke: #000000"/>
     <use xlink:href="#mf0f51909e2" x="272.414469" y="216.687228" style="fill: #ff7f0e; stroke: #000000"/>
     <use xlink:href="#mf0f51909e2" x="139.001634" y="245.184706" style="fill: #ff7f0e; stroke: #000000"/>
     <use xlink:href="#mf0f51909e2" x="178.553022" y="40.761054" style="fill: #ff7f0e; stroke: #000000"/>
     <use xlink:href="#mf0f51909e2" x="234.558677" y="19.296" style="fill: #ff7f0e; stroke: #000000"/>
     <use xlink:href="#mf0f51909e2" x="197.065918" y="41.988596" style="fill: #ff7f0e; stroke: #000000"/>
     <use xlink:href="#mf0f51909e2" x="323.487289" y="158.571082" style="fill: #ff7f0e; stroke: #000000"/>
     <use xlink:href="#mf0f51909e2" x="245.872486" y="240.730142" style="fill: #ff7f0e; stroke: #000000"/>
     <use xlink:href="#mf0f51909e2" x="243.137927" y="261.216" style="fill: #ff7f0e; stroke: #000000"/>
     <use xlink:href="#mf0f51909e2" x="116.994673" y="97.288701" style="fill: #ff7f0e; stroke: #000000"/>
     <use xlink:href="#mf0f51909e2" x="279.427351" y="227.841355" style="fill: #ff7f0e; stroke: #000000"/>
     <use xlink:href="#mf0f51909e2" x="126.957591" y="64.998202" style="fill: #ff7f0e; stroke: #000000"/>
    </g>
   </g>
   <g id="PathCollection_3">
    <defs>
     <path id="m268cc7cf6f" d="M -3 3 
L 3 3 
L 3 -3 
L -3 -3 
z
" style="stroke: #000000"/>
    </defs>
    <g clip-path="url(#p05ce901394)">
     <use xlink:href="#m268cc7cf6f" x="237.366794" y="149.588877" style="fill: #2ca02c; stroke: #000000"/>
     <use xlink:href="#m268cc7cf6f" x="179.96181" y="150.404211" style="fill: #2ca02c; stroke: #000000"/>
     <use xlink:href="#m268cc7cf6f" x="206.192937" y="119.504399" style="fill: #2ca02c; stroke: #000000"/>
     <use xlink:href="#m268cc7cf6f" x="216.650676" y="129.151004" style="fill: #2ca02c; stroke: #000000"/>
     <use xlink:href="#m268cc7cf6f" x="184.258501" y="132.712967" style="fill: #2ca02c; stroke: #000000"/>
     <use xlink:href="#m268cc7cf6f" x="216.993419" y="160.217513" style="fill: #2ca02c; stroke: #000000"/>
     <use xlink:href="#m268cc7cf6f" x="224.649152" y="142.045504" style="fill: #2ca02c; stroke: #000000"/>
     <use xlink:href="#m268cc7cf6f" x="197.610368" y="162.222629" style="fill: #2ca02c; stroke: #000000"/>
     <use xlink:href="#m268cc7cf6f" x="226.24905" y="159.071258" style="fill: #2ca02c; stroke: #000000"/>
     <use xlink:href="#m268cc7cf6f" x="228.950103" y="118.723553" style="fill: #2ca02c; stroke: #000000"/>
     <use xlink:href="#m268cc7cf6f" x="199.008318" y="165.509002" style="fill: #2ca02c; stroke: #000000"/>
     <use xlink:href="#m268cc7cf6f" x="228.383529" y="145.253749" style="fill: #2ca02c; stroke: #000000"/>
     <use xlink:href="#m268cc7cf6f" x="204.114066" y="160.214632" style="fill: #2ca02c; stroke: #000000"/>
     <use xlink:href="#m268cc7cf6f" x="227.821986" y="148.386472" style="fill: #2ca02c; stroke: #000000"/>
     <use xlink:href="#m268cc7cf6f" x="193.094122" y="122.588372" style="fill: #2ca02c; stroke: #000000"/>
     <use xlink:href="#m268cc7cf6f" x="175.932092" y="143.451102" style="fill: #2ca02c; stroke: #000000"/>
     <use xlink:href="#m268cc7cf6f" x="179.961766" y="130.359005" style="fill: #2ca02c; stroke: #000000"/>
     <use xlink:href="#m268cc7cf6f" x="213.584464" y="150.438043" style="fill: #2ca02c; stroke: #000000"/>
     <use xlink:href="#m268cc7cf6f" x="183.249912" y="142.532396" style="fill: #2ca02c; stroke: #000000"/>
     <use xlink:href="#m268cc7cf6f" x="215.711029" y="166.070013" style="fill: #2ca02c; stroke: #000000"/>
     <use xlink:href="#m268cc7cf6f" x="190.256243" y="158.809685" style="fill: #2ca02c; stroke: #000000"/>
     <use xlink:href="#m268cc7cf6f" x="220.013393" y="117.557488" style="fill: #2ca02c; stroke: #000000"/>
     <use xlink:href="#m268cc7cf6f" x="174.346481" y="141.818824" style="fill: #2ca02c; stroke: #000000"/>
     <use xlink:href="#m268cc7cf6f" x="193.40283" y="115.528014" style="fill: #2ca02c; stroke: #000000"/>
     <use xlink:href="#m268cc7cf6f" x="183.025819" y="135.426397" style="fill: #2ca02c; stroke: #000000"/>
     <use xlink:href="#m268cc7cf6f" x="218.941004" y="128.687596" style="fill: #2ca02c; stroke: #000000"/>
     <use xlink:href="#m268cc7cf6f" x="209.839958" y="105.292534" style="fill: #2ca02c; stroke: #000000"/>
     <use xlink:href="#m268cc7cf6f" x="181.278986" y="126.267691" style="fill: #2ca02c; stroke: #000000"/>
     <use xlink:href="#m268cc7cf6f" x="189.264032" y="160.29236" style="fill: #2ca02c; stroke: #000000"/>
     <use xlink:href="#m268cc7cf6f" x="179.874894" y="127.964412" style="fill: #2ca02c; stroke: #000000"/>
     <use xlink:href="#m268cc7cf6f" x="228.600208" y="128.181372" style="fill: #2ca02c; stroke: #000000"/>
     <use xlink:href="#m268cc7cf6f" x="195.785787" y="162.35926" style="fill: #2ca02c; stroke: #000000"/>
     <use xlink:href="#m268cc7cf6f" x="206.502441" y="166.601092" style="fill: #2ca02c; stroke: #000000"/>
     <use xlink:href="#m268cc7cf6f" x="219.72027" y="146.682156" style="fill: #2ca02c; stroke: #000000"/>
     <use xlink:href="#m268cc7cf6f" x="211.077879" y="111.09619" style="fill: #2ca02c; stroke: #000000"/>
     <use xlink:href="#m268cc7cf6f" x="189.914166" y="152.491194" style="fill: #2ca02c; stroke: #000000"/>
     <use xlink:href="#m268cc7cf6f" x="231.2019" y="147.22362" style="fill: #2ca02c; stroke: #000000"/>
     <use xlink:href="#m268cc7cf6f" x="199.738374" y="126.680168" style="fill: #2ca02c; stroke: #000000"/>
     <use xlink:href="#m268cc7cf6f" x="223.31621" y="142.662754" style="fill: #2ca02c; stroke: #000000"/>
     <use xlink:href="#m268cc7cf6f" x="187.204908" y="141.254761" style="fill: #2ca02c; stroke: #000000"/>
     <use xlink:href="#m268cc7cf6f" x="212.384041" y="164.805291" style="fill: #2ca02c; stroke: #000000"/>
     <use xlink:href="#m268cc7cf6f" x="177.848571" y="150.300039" style="fill: #2ca02c; stroke: #000000"/>
     <use xlink:href="#m268cc7cf6f" x="208.160714" y="155.014245" style="fill: #2ca02c; stroke: #000000"/>
     <use xlink:href="#m268cc7cf6f" x="229.896577" y="137.263593" style="fill: #2ca02c; stroke: #000000"/>
     <use xlink:href="#m268cc7cf6f" x="189.699748" y="140.921689" style="fill: #2ca02c; stroke: #000000"/>
     <use xlink:href="#m268cc7cf6f" x="180.480323" y="155.978257" style="fill: #2ca02c; stroke: #000000"/>
     <use xlink:href="#m268cc7cf6f" x="199.38903" y="125.50128" style="fill: #2ca02c; stroke: #000000"/>
     <use xlink:href="#m268cc7cf6f" x="199.969092" y="120.646079" style="fill: #2ca02c; stroke: #000000"/>
     <use xlink:href="#m268cc7cf6f" x="207.042451" y="114.087273" style="fill: #2ca02c; stroke: #000000"/>
     <use xlink:href="#m268cc7cf6f" x="179.328669" y="134.521686" style="fill: #2ca02c; stroke: #000000"/>
     <use xlink:href="#m268cc7cf6f" x="214.197884" y="138.108607" style="fill: #2ca02c; stroke: #000000"/>
     <use xlink:href="#m268cc7cf6f" x="191.311739" y="124.041215" style="fill: #2ca02c; stroke: #000000"/>
     <use xlink:href="#m268cc7cf6f" x="206.295709" y="153.223094" style="fill: #2ca02c; stroke: #000000"/>
     <use xlink:href="#m268cc7cf6f" x="228.458927" y="125.05542" style="fill: #2ca02c; stroke: #000000"/>
     <use xlink:href="#m268cc7cf6f" x="233.723528" y="161.406399" style="fill: #2ca02c; stroke: #000000"/>
     <use xlink:href="#m268cc7cf6f" x="212.732196" y="150.76201" style="fill: #2ca02c; stroke: #000000"/>
     <use xlink:href="#m268cc7cf6f" x="214.095406" y="112.56487" style="fill: #2ca02c; stroke: #000000"/>
     <use xlink:href="#m268cc7cf6f" x="207.41289" y="128.77002" style="fill: #2ca02c; stroke: #000000"/>
     <use xlink:href="#m268cc7cf6f" x="197.522745" y="117.537202" style="fill: #2ca02c; stroke: #000000"/>
     <use xlink:href="#m268cc7cf6f" x="207.319567" y="155.308181" style="fill: #2ca02c; stroke: #000000"/>
     <use xlink:href="#m268cc7cf6f" x="205.98084" y="114.432175" style="fill: #2ca02c; stroke: #000000"/>
     <use xlink:href="#m268cc7cf6f" x="190.921273" y="124.682266" style="fill: #2ca02c; stroke: #000000"/>
     <use xlink:href="#m268cc7cf6f" x="195.494997" y="167.183025" style="fill: #2ca02c; stroke: #000000"/>
     <use xlink:href="#m268cc7cf6f" x="188.095818" y="162.083332" style="fill: #2ca02c; stroke: #000000"/>
     <use xlink:href="#m268cc7cf6f" x="178.814818" y="146.557594" style="fill: #2ca02c; stroke: #000000"/>
     <use xlink:href="#m268cc7cf6f" x="202.030067" y="157.132515" style="fill: #2ca02c; stroke: #000000"/>
     <use xlink:href="#m268cc7cf6f" x="207.977636" y="160.33986" style="fill: #2ca02c; stroke: #000000"/>
     <use xlink:href="#m268cc7cf6f" x="191.984234" y="117.990142" style="fill: #2ca02c; stroke: #000000"/>
     <use xlink:href="#m268cc7cf6f" x="198.680091" y="124.474211" style="fill: #2ca02c; stroke: #000000"/>
     <use xlink:href="#m268cc7cf6f" x="230.678805" y="126.957924" style="fill: #2ca02c; stroke: #000000"/>
     <use xlink:href="#m268cc7cf6f" x="215.085175" y="116.454486" style="fill: #2ca02c; stroke: #000000"/>
     <use xlink:href="#m268cc7cf6f" x="216.637351" y="122.916342" style="fill: #2ca02c; stroke: #000000"/>
     <use xlink:href="#m268cc7cf6f" x="230.579943" y="148.383131" style="fill: #2ca02c; stroke: #000000"/>
     <use xlink:href="#m268cc7cf6f" x="185.156291" y="160.859911" style="fill: #2ca02c; stroke: #000000"/>
     <use xlink:href="#m268cc7cf6f" x="207.241974" y="163.726927" style="fill: #2ca02c; stroke: #000000"/>
     <use xlink:href="#m268cc7cf6f" x="212.792141" y="162.96119" style="fill: #2ca02c; stroke: #000000"/>
     <use xlink:href="#m268cc7cf6f" x="175.439761" y="124.933547" style="fill: #2ca02c; stroke: #000000"/>
     <use xlink:href="#m268cc7cf6f" x="205.747499" y="163.427511" style="fill: #2ca02c; stroke: #000000"/>
     <use xlink:href="#m268cc7cf6f" x="199.38586" y="121.375635" style="fill: #2ca02c; stroke: #000000"/>
     <use xlink:href="#m268cc7cf6f" x="186.820651" y="139.976377" style="fill: #2ca02c; stroke: #000000"/>
     <use xlink:href="#m268cc7cf6f" x="207.148959" y="158.990256" style="fill: #2ca02c; stroke: #000000"/>
     <use xlink:href="#m268cc7cf6f" x="184.295587" y="130.753541" style="fill: #2ca02c; stroke: #000000"/>
     <use xlink:href="#m268cc7cf6f" x="205.501662" y="116.932445" style="fill: #2ca02c; stroke: #000000"/>
     <use xlink:href="#m268cc7cf6f" x="229.355625" y="148.3436" style="fill: #2ca02c; stroke: #000000"/>
     <use xlink:href="#m268cc7cf6f" x="218.882944" y="150.95579" style="fill: #2ca02c; stroke: #000000"/>
     <use xlink:href="#m268cc7cf6f" x="227.486993" y="151.770091" style="fill: #2ca02c; stroke: #000000"/>
     <use xlink:href="#m268cc7cf6f" x="219.795047" y="164.504455" style="fill: #2ca02c; stroke: #000000"/>
     <use xlink:href="#m268cc7cf6f" x="213.438709" y="150.474162" style="fill: #2ca02c; stroke: #000000"/>
     <use xlink:href="#m268cc7cf6f" x="184.312998" y="122.322114" style="fill: #2ca02c; stroke: #000000"/>
     <use xlink:href="#m268cc7cf6f" x="224.905734" y="145.977591" style="fill: #2ca02c; stroke: #000000"/>
     <use xlink:href="#m268cc7cf6f" x="232.574038" y="128.081629" style="fill: #2ca02c; stroke: #000000"/>
     <use xlink:href="#m268cc7cf6f" x="180.399772" y="125.807829" style="fill: #2ca02c; stroke: #000000"/>
     <use xlink:href="#m268cc7cf6f" x="190.63168" y="172.035283" style="fill: #2ca02c; stroke: #000000"/>
     <use xlink:href="#m268cc7cf6f" x="184.092442" y="115.99874" style="fill: #2ca02c; stroke: #000000"/>
     <use xlink:href="#m268cc7cf6f" x="204.4434" y="109.850337" style="fill: #2ca02c; stroke: #000000"/>
     <use xlink:href="#m268cc7cf6f" x="182.771856" y="159.013134" style="fill: #2ca02c; stroke: #000000"/>
     <use xlink:href="#m268cc7cf6f" x="215.559471" y="160.162692" style="fill: #2ca02c; stroke: #000000"/>
     <use xlink:href="#m268cc7cf6f" x="178.237745" y="137.203155" style="fill: #2ca02c; stroke: #000000"/>
     <use xlink:href="#m268cc7cf6f" x="185.313929" y="123.575724" style="fill: #2ca02c; stroke: #000000"/>
     <use xlink:href="#m268cc7cf6f" x="206.842398" y="159.266645" style="fill: #2ca02c; stroke: #000000"/>
    </g>
   </g>
   <g id="matplotlib.axis_1">
    <g id="xtick_1">
     <g id="line2d_1">
      <defs>
       <path id="m631d5d06a6" d="M 0 0 
L 0 3.5 
" style="stroke: #000000; stroke-width: 0.8"/>
      </defs>
      <g>
       <use xlink:href="#m631d5d06a6" x="69.072333" y="273.312" style="stroke: #000000; stroke-width: 0.8"/>
      </g>
     </g>
     <g id="text_1">
      <!-- −6 -->
      <g transform="translate(61.70124 287.910437) scale(0.1 -0.1)">
       <defs>
        <path id="DejaVuSans-2212" d="M 678 2272 
L 4684 2272 
L 4684 1741 
L 678 1741 
L 678 2272 
z
" transform="scale(0.015625)"/>
        <path id="DejaVuSans-36" d="M 2113 2584 
Q 1688 2584 1439 2293 
Q 1191 2003 1191 1497 
Q 1191 994 1439 701 
Q 1688 409 2113 409 
Q 2538 409 2786 701 
Q 3034 994 3034 1497 
Q 3034 2003 2786 2293 
Q 2538 2584 2113 2584 
z
M 3366 4563 
L 3366 3988 
Q 3128 4100 2886 4159 
Q 2644 4219 2406 4219 
Q 1781 4219 1451 3797 
Q 1122 3375 1075 2522 
Q 1259 2794 1537 2939 
Q 1816 3084 2150 3084 
Q 2853 3084 3261 2657 
Q 3669 2231 3669 1497 
Q 3669 778 3244 343 
Q 2819 -91 2113 -91 
Q 1303 -91 875 529 
Q 447 1150 447 2328 
Q 447 3434 972 4092 
Q 1497 4750 2381 4750 
Q 2619 4750 2861 4703 
Q 3103 4656 3366 4563 
z
" transform="scale(0.015625)"/>
       </defs>
       <use xlink:href="#DejaVuSans-2212"/>
       <use xlink:href="#DejaVuSans-36" transform="translate(83.789062 0)"/>
      </g>
     </g>
    </g>
    <g id="xtick_2">
     <g id="line2d_2">
      <g>
       <use xlink:href="#m631d5d06a6" x="114.191376" y="273.312" style="stroke: #000000; stroke-width: 0.8"/>
      </g>
     </g>
     <g id="text_2">
      <!-- −4 -->
      <g transform="translate(106.820282 287.910437) scale(0.1 -0.1)">
       <defs>
        <path id="DejaVuSans-34" d="M 2419 4116 
L 825 1625 
L 2419 1625 
L 2419 4116 
z
M 2253 4666 
L 3047 4666 
L 3047 1625 
L 3713 1625 
L 3713 1100 
L 3047 1100 
L 3047 0 
L 2419 0 
L 2419 1100 
L 313 1100 
L 313 1709 
L 2253 4666 
z
" transform="scale(0.015625)"/>
       </defs>
       <use xlink:href="#DejaVuSans-2212"/>
       <use xlink:href="#DejaVuSans-34" transform="translate(83.789062 0)"/>
      </g>
     </g>
    </g>
    <g id="xtick_3">
     <g id="line2d_3">
      <g>
       <use xlink:href="#m631d5d06a6" x="159.310419" y="273.312" style="stroke: #000000; stroke-width: 0.8"/>
      </g>
     </g>
     <g id="text_3">
      <!-- −2 -->
      <g transform="translate(151.939325 287.910437) scale(0.1 -0.1)">
       <defs>
        <path id="DejaVuSans-32" d="M 1228 531 
L 3431 531 
L 3431 0 
L 469 0 
L 469 531 
Q 828 903 1448 1529 
Q 2069 2156 2228 2338 
Q 2531 2678 2651 2914 
Q 2772 3150 2772 3378 
Q 2772 3750 2511 3984 
Q 2250 4219 1831 4219 
Q 1534 4219 1204 4116 
Q 875 4013 500 3803 
L 500 4441 
Q 881 4594 1212 4672 
Q 1544 4750 1819 4750 
Q 2544 4750 2975 4387 
Q 3406 4025 3406 3419 
Q 3406 3131 3298 2873 
Q 3191 2616 2906 2266 
Q 2828 2175 2409 1742 
Q 1991 1309 1228 531 
z
" transform="scale(0.015625)"/>
       </defs>
       <use xlink:href="#DejaVuSans-2212"/>
       <use xlink:href="#DejaVuSans-32" transform="translate(83.789062 0)"/>
      </g>
     </g>
    </g>
    <g id="xtick_4">
     <g id="line2d_4">
      <g>
       <use xlink:href="#m631d5d06a6" x="204.429462" y="273.312" style="stroke: #000000; stroke-width: 0.8"/>
      </g>
     </g>
     <g id="text_4">
      <!-- 0 -->
      <g transform="translate(201.248212 287.910437) scale(0.1 -0.1)">
       <defs>
        <path id="DejaVuSans-30" d="M 2034 4250 
Q 1547 4250 1301 3770 
Q 1056 3291 1056 2328 
Q 1056 1369 1301 889 
Q 1547 409 2034 409 
Q 2525 409 2770 889 
Q 3016 1369 3016 2328 
Q 3016 3291 2770 3770 
Q 2525 4250 2034 4250 
z
M 2034 4750 
Q 2819 4750 3233 4129 
Q 3647 3509 3647 2328 
Q 3647 1150 3233 529 
Q 2819 -91 2034 -91 
Q 1250 -91 836 529 
Q 422 1150 422 2328 
Q 422 3509 836 4129 
Q 1250 4750 2034 4750 
z
" transform="scale(0.015625)"/>
       </defs>
       <use xlink:href="#DejaVuSans-30"/>
      </g>
     </g>
    </g>
    <g id="xtick_5">
     <g id="line2d_5">
      <g>
       <use xlink:href="#m631d5d06a6" x="249.548505" y="273.312" style="stroke: #000000; stroke-width: 0.8"/>
      </g>
     </g>
     <g id="text_5">
      <!-- 2 -->
      <g transform="translate(246.367255 287.910437) scale(0.1 -0.1)">
       <use xlink:href="#DejaVuSans-32"/>
      </g>
     </g>
    </g>
    <g id="xtick_6">
     <g id="line2d_6">
      <g>
       <use xlink:href="#m631d5d06a6" x="294.667547" y="273.312" style="stroke: #000000; stroke-width: 0.8"/>
      </g>
     </g>
     <g id="text_6">
      <!-- 4 -->
      <g transform="translate(291.486297 287.910437) scale(0.1 -0.1)">
       <use xlink:href="#DejaVuSans-34"/>
      </g>
     </g>
    </g>
    <g id="xtick_7">
     <g id="line2d_7">
      <g>
       <use xlink:href="#m631d5d06a6" x="339.78659" y="273.312" style="stroke: #000000; stroke-width: 0.8"/>
      </g>
     </g>
     <g id="text_7">
      <!-- 6 -->
      <g transform="translate(336.60534 287.910437) scale(0.1 -0.1)">
       <use xlink:href="#DejaVuSans-36"/>
      </g>
     </g>
    </g>
    <g id="xtick_8">
     <g id="line2d_8">
      <g>
       <use xlink:href="#m631d5d06a6" x="384.905633" y="273.312" style="stroke: #000000; stroke-width: 0.8"/>
      </g>
     </g>
     <g id="text_8">
      <!-- 8 -->
      <g transform="translate(381.724383 287.910437) scale(0.1 -0.1)">
       <defs>
        <path id="DejaVuSans-38" d="M 2034 2216 
Q 1584 2216 1326 1975 
Q 1069 1734 1069 1313 
Q 1069 891 1326 650 
Q 1584 409 2034 409 
Q 2484 409 2743 651 
Q 3003 894 3003 1313 
Q 3003 1734 2745 1975 
Q 2488 2216 2034 2216 
z
M 1403 2484 
Q 997 2584 770 2862 
Q 544 3141 544 3541 
Q 544 4100 942 4425 
Q 1341 4750 2034 4750 
Q 2731 4750 3128 4425 
Q 3525 4100 3525 3541 
Q 3525 3141 3298 2862 
Q 3072 2584 2669 2484 
Q 3125 2378 3379 2068 
Q 3634 1759 3634 1313 
Q 3634 634 3220 271 
Q 2806 -91 2034 -91 
Q 1263 -91 848 271 
Q 434 634 434 1313 
Q 434 1759 690 2068 
Q 947 2378 1403 2484 
z
M 1172 3481 
Q 1172 3119 1398 2916 
Q 1625 2713 2034 2713 
Q 2441 2713 2670 2916 
Q 2900 3119 2900 3481 
Q 2900 3844 2670 4047 
Q 2441 4250 2034 4250 
Q 1625 4250 1398 4047 
Q 1172 3844 1172 3481 
z
" transform="scale(0.015625)"/>
       </defs>
       <use xlink:href="#DejaVuSans-38"/>
      </g>
     </g>
    </g>
   </g>
   <g id="matplotlib.axis_2">
    <g id="ytick_1">
     <g id="line2d_9">
      <defs>
       <path id="mda42f11bc0" d="M 0 0 
L -3.5 0 
" style="stroke: #000000; stroke-width: 0.8"/>
      </defs>
      <g>
       <use xlink:href="#mda42f11bc0" x="28.942188" y="229.355391" style="stroke: #000000; stroke-width: 0.8"/>
      </g>
     </g>
     <g id="text_9">
      <!-- −4 -->
      <g transform="translate(7.2 233.154609) scale(0.1 -0.1)">
       <use xlink:href="#DejaVuSans-2212"/>
       <use xlink:href="#DejaVuSans-34" transform="translate(83.789062 0)"/>
      </g>
     </g>
    </g>
    <g id="ytick_2">
     <g id="line2d_10">
      <g>
       <use xlink:href="#mda42f11bc0" x="28.942188" y="184.236348" style="stroke: #000000; stroke-width: 0.8"/>
      </g>
     </g>
     <g id="text_10">
      <!-- −2 -->
      <g transform="translate(7.2 188.035566) scale(0.1 -0.1)">
       <use xlink:href="#DejaVuSans-2212"/>
       <use xlink:href="#DejaVuSans-32" transform="translate(83.789062 0)"/>
      </g>
     </g>
    </g>
    <g id="ytick_3">
     <g id="line2d_11">
      <g>
       <use xlink:href="#mda42f11bc0" x="28.942188" y="139.117305" style="stroke: #000000; stroke-width: 0.8"/>
      </g>
     </g>
     <g id="text_11">
      <!-- 0 -->
      <g transform="translate(15.579688 142.916524) scale(0.1 -0.1)">
       <use xlink:href="#DejaVuSans-30"/>
      </g>
     </g>
    </g>
    <g id="ytick_4">
     <g id="line2d_12">
      <g>
       <use xlink:href="#mda42f11bc0" x="28.942188" y="93.998262" style="stroke: #000000; stroke-width: 0.8"/>
      </g>
     </g>
     <g id="text_12">
      <!-- 2 -->
      <g transform="translate(15.579688 97.797481) scale(0.1 -0.1)">
       <use xlink:href="#DejaVuSans-32"/>
      </g>
     </g>
    </g>
    <g id="ytick_5">
     <g id="line2d_13">
      <g>
       <use xlink:href="#mda42f11bc0" x="28.942188" y="48.879219" style="stroke: #000000; stroke-width: 0.8"/>
      </g>
     </g>
     <g id="text_13">
      <!-- 4 -->
      <g transform="translate(15.579688 52.678438) scale(0.1 -0.1)">
       <use xlink:href="#DejaVuSans-34"/>
      </g>
     </g>
    </g>
   </g>
   <g id="patch_3">
    <path d="M 28.942188 273.312 
L 28.942188 7.2 
" style="fill: none; stroke: #000000; stroke-width: 0.8; stroke-linejoin: miter; stroke-linecap: square"/>
   </g>
   <g id="patch_4">
    <path d="M 386.062188 273.312 
L 386.062188 7.2 
" style="fill: none; stroke: #000000; stroke-width: 0.8; stroke-linejoin: miter; stroke-linecap: square"/>
   </g>
   <g id="patch_5">
    <path d="M 28.942188 273.312 
L 386.062188 273.312 
" style="fill: none; stroke: #000000; stroke-width: 0.8; stroke-linejoin: miter; stroke-linecap: square"/>
   </g>
   <g id="patch_6">
    <path d="M 28.942188 7.2 
L 386.062188 7.2 
" style="fill: none; stroke: #000000; stroke-width: 0.8; stroke-linejoin: miter; stroke-linecap: square"/>
   </g>
  </g>
 </g>
 <defs>
  <clipPath id="p05ce901394">
   <rect x="28.942188" y="7.2" width="357.12" height="266.112"/>
  </clipPath>
 </defs>
</svg>
