<?xml version="1.0" encoding="utf-8" standalone="no"?>
<!DOCTYPE svg PUBLIC "-//W3C//DTD SVG 1.1//EN"
  "http://www.w3.org/Graphics/SVG/1.1/DTD/svg11.dtd">
<svg xmlns:xlink="http://www.w3.org/1999/xlink" width="393.262187pt" height="297.190125pt" viewBox="0 0 393.262187 297.190125" xmlns="http://www.w3.org/2000/svg" version="1.1">
 <metadata>
  <rdf:RDF xmlns:dc="http://purl.org/dc/elements/1.1/" xmlns:cc="http://creativecommons.org/ns#" xmlns:rdf="http://www.w3.org/1999/02/22-rdf-syntax-ns#">
   <cc:Work>
    <dc:type rdf:resource="http://purl.org/dc/dcmitype/StillImage"/>
    <dc:date>2025-07-31T10:48:50.116873</dc:date>
    <dc:format>image/svg+xml</dc:format>
    <dc:creator>
     <cc:Agent>
      <dc:title>Matplotlib v3.10.3, https://matplotlib.org/</dc:title>
     </cc:Agent>
    </dc:creator>
   </cc:Work>
  </rdf:RDF>
 </metadata>
 <defs>
  <style type="text/css">*{stroke-linejoin: round; stroke-linecap: butt}</style>
 </defs>
 <g id="figure_1">
  <g id="patch_1">
   <path d="M 0 297.190125 
L 393.262187 297.190125 
L 393.262187 0 
L 0 0 
z
" style="fill: #ffffff"/>
  </g>
  <g id="axes_1">
   <g id="patch_2">
    <path d="M 28.942188 273.312 
L 386.062188 273.312 
L 386.062188 7.2 
L 28.942188 7.2 
z
" style="fill: #ffffff"/>
   </g>
   <g id="PathCollection_1">
    <defs>
     <path id="m76d0672430" d="M 0 3 
C 0.795609 3 1.55874 2.683901 2.12132 2.12132 
C 2.683901 1.55874 3 0.795609 3 0 
C 3 -0.795609 2.683901 -1.55874 2.12132 -2.12132 
C 1.55874 -2.683901 0.795609 -3 0 -3 
C -0.795609 -3 -1.55874 -2.683901 -2.12132 -2.12132 
C -2.683901 -1.55874 -3 -0.795609 -3 0 
C -3 0.795609 -2.683901 1.55874 -2.12132 2.12132 
C -1.55874 2.683901 -0.795609 3 0 3 
z
" style="stroke: #000000"/>
    </defs>
    <g clip-path="url(#pb5377f351d)">
     <use xlink:href="#m76d0672430" x="244.623295" y="176.66414" style="fill: #1f77b4; stroke: #000000"/>
     <use xlink:href="#m76d0672430" x="234.542966" y="80.409643" style="fill: #1f77b4; stroke: #000000"/>
     <use xlink:href="#m76d0672430" x="128.175599" y="158.14339" style="fill: #1f77b4; stroke: #000000"/>
     <use xlink:href="#m76d0672430" x="158.545598" y="84.334078" style="fill: #1f77b4; stroke: #000000"/>
     <use xlink:href="#m76d0672430" x="147.743976" y="179.420285" style="fill: #1f77b4; stroke: #000000"/>
     <use xlink:href="#m76d0672430" x="219.459803" y="80.844186" style="fill: #1f77b4; stroke: #000000"/>
     <use xlink:href="#m76d0672430" x="134.52" y="125.849563" style="fill: #1f77b4; stroke: #000000"/>
     <use xlink:href="#m76d0672430" x="271.259115" y="113.386548" style="fill: #1f77b4; stroke: #000000"/>
     <use xlink:href="#m76d0672430" x="140.316439" y="174.195834" style="fill: #1f77b4; stroke: #000000"/>
     <use xlink:href="#m76d0672430" x="272.074921" y="144.093683" style="fill: #1f77b4; stroke: #000000"/>
     <use xlink:href="#m76d0672430" x="272.681537" y="147.894823" style="fill: #1f77b4; stroke: #000000"/>
     <use xlink:href="#m76d0672430" x="142.716333" y="158.190391" style="fill: #1f77b4; stroke: #000000"/>
     <use xlink:href="#m76d0672430" x="144.992473" y="116.615729" style="fill: #1f77b4; stroke: #000000"/>
     <use xlink:href="#m76d0672430" x="201.435872" y="203.023071" style="fill: #1f77b4; stroke: #000000"/>
     <use xlink:href="#m76d0672430" x="262.482932" y="162.089626" style="fill: #1f77b4; stroke: #000000"/>
     <use xlink:href="#m76d0672430" x="171.625347" y="85.277449" style="fill: #1f77b4; stroke: #000000"/>
     <use xlink:href="#m76d0672430" x="164.687893" y="180.971867" style="fill: #1f77b4; stroke: #000000"/>
     <use xlink:href="#m76d0672430" x="180.789583" y="78.368576" style="fill: #1f77b4; stroke: #000000"/>
     <use xlink:href="#m76d0672430" x="144.95833" y="141.099271" style="fill: #1f77b4; stroke: #000000"/>
     <use xlink:href="#m76d0672430" x="265.126456" y="167.567436" style="fill: #1f77b4; stroke: #000000"/>
     <use xlink:href="#m76d0672430" x="259.15251" y="118.762571" style="fill: #1f77b4; stroke: #000000"/>
     <use xlink:href="#m76d0672430" x="218.051738" y="81.946833" style="fill: #1f77b4; stroke: #000000"/>
     <use xlink:href="#m76d0672430" x="180.931903" y="89.49124" style="fill: #1f77b4; stroke: #000000"/>
     <use xlink:href="#m76d0672430" x="145.005658" y="158.473656" style="fill: #1f77b4; stroke: #000000"/>
     <use xlink:href="#m76d0672430" x="189.143422" y="76.878712" style="fill: #1f77b4; stroke: #000000"/>
     <use xlink:href="#m76d0672430" x="270.199631" y="119.094961" style="fill: #1f77b4; stroke: #000000"/>
     <use xlink:href="#m76d0672430" x="248.563212" y="107.555365" style="fill: #1f77b4; stroke: #000000"/>
     <use xlink:href="#m76d0672430" x="135.868005" y="113.921122" style="fill: #1f77b4; stroke: #000000"/>
     <use xlink:href="#m76d0672430" x="138.99229" y="103.896488" style="fill: #1f77b4; stroke: #000000"/>
     <use xlink:href="#m76d0672430" x="137.512509" y="172.175592" style="fill: #1f77b4; stroke: #000000"/>
     <use xlink:href="#m76d0672430" x="176.646136" y="189.998833" style="fill: #1f77b4; stroke: #000000"/>
     <use xlink:href="#m76d0672430" x="174.889165" y="201.143294" style="fill: #1f77b4; stroke: #000000"/>
     <use xlink:href="#m76d0672430" x="281.048573" y="133.026055" style="fill: #1f77b4; stroke: #000000"/>
     <use xlink:href="#m76d0672430" x="221.950056" y="192.76841" style="fill: #1f77b4; stroke: #000000"/>
     <use xlink:href="#m76d0672430" x="251.402369" y="76.290878" style="fill: #1f77b4; stroke: #000000"/>
     <use xlink:href="#m76d0672430" x="275.206935" y="137.749818" style="fill: #1f77b4; stroke: #000000"/>
     <use xlink:href="#m76d0672430" x="148.509069" y="142.510841" style="fill: #1f77b4; stroke: #000000"/>
     <use xlink:href="#m76d0672430" x="136.140832" y="121.310502" style="fill: #1f77b4; stroke: #000000"/>
     <use xlink:href="#m76d0672430" x="131.568692" y="136.413991" style="fill: #1f77b4; stroke: #000000"/>
     <use xlink:href="#m76d0672430" x="176.799029" y="75.594012" style="fill: #1f77b4; stroke: #000000"/>
     <use xlink:href="#m76d0672430" x="223.310936" y="80.150235" style="fill: #1f77b4; stroke: #000000"/>
     <use xlink:href="#m76d0672430" x="256.572311" y="94.254244" style="fill: #1f77b4; stroke: #000000"/>
     <use xlink:href="#m76d0672430" x="127.724867" y="145.834384" style="fill: #1f77b4; stroke: #000000"/>
     <use xlink:href="#m76d0672430" x="190.703578" y="191.201533" style="fill: #1f77b4; stroke: #000000"/>
     <use xlink:href="#m76d0672430" x="256.958457" y="169.241936" style="fill: #1f77b4; stroke: #000000"/>
     <use xlink:href="#m76d0672430" x="274.504936" y="151.720931" style="fill: #1f77b4; stroke: #000000"/>
     <use xlink:href="#m76d0672430" x="198.048437" y="71.158774" style="fill: #1f77b4; stroke: #000000"/>
     <use xlink:href="#m76d0672430" x="145.692554" y="136.984935" style="fill: #1f77b4; stroke: #000000"/>
     <use xlink:href="#m76d0672430" x="151.537555" y="183.754726" style="fill: #1f77b4; stroke: #000000"/>
     <use xlink:href="#m76d0672430" x="157.363358" y="104.714567" style="fill: #1f77b4; stroke: #000000"/>
     <use xlink:href="#m76d0672430" x="250.863815" y="192.84975" style="fill: #1f77b4; stroke: #000000"/>
     <use xlink:href="#m76d0672430" x="143.835159" y="100.882571" style="fill: #1f77b4; stroke: #000000"/>
     <use xlink:href="#m76d0672430" x="236.317953" y="194.41538" style="fill: #1f77b4; stroke: #000000"/>
     <use xlink:href="#m76d0672430" x="259.148632" y="86.055314" style="fill: #1f77b4; stroke: #000000"/>
     <use xlink:href="#m76d0672430" x="261.015203" y="189.634653" style="fill: #1f77b4; stroke: #000000"/>
     <use xlink:href="#m76d0672430" x="274.644708" y="148.650083" style="fill: #1f77b4; stroke: #000000"/>
     <use xlink:href="#m76d0672430" x="277.052205" y="110.847667" style="fill: #1f77b4; stroke: #000000"/>
     <use xlink:href="#m76d0672430" x="197.832901" y="203.916846" style="fill: #1f77b4; stroke: #000000"/>
     <use xlink:href="#m76d0672430" x="250.011076" y="172.10461" style="fill: #1f77b4; stroke: #000000"/>
     <use xlink:href="#m76d0672430" x="170.714074" y="77.812988" style="fill: #1f77b4; stroke: #000000"/>
     <use xlink:href="#m76d0672430" x="197.124346" y="202.640698" style="fill: #1f77b4; stroke: #000000"/>
     <use xlink:href="#m76d0672430" x="245.939098" y="184.913845" style="fill: #1f77b4; stroke: #000000"/>
     <use xlink:href="#m76d0672430" x="238.982174" y="196.387193" style="fill: #1f77b4; stroke: #000000"/>
     <use xlink:href="#m76d0672430" x="230.824278" y="68.861912" style="fill: #1f77b4; stroke: #000000"/>
     <use xlink:href="#m76d0672430" x="242.167783" y="185.626024" style="fill: #1f77b4; stroke: #000000"/>
     <use xlink:href="#m76d0672430" x="244.184429" y="180.098271" style="fill: #1f77b4; stroke: #000000"/>
     <use xlink:href="#m76d0672430" x="252.112477" y="182.542035" style="fill: #1f77b4; stroke: #000000"/>
     <use xlink:href="#m76d0672430" x="246.786679" y="190.73358" style="fill: #1f77b4; stroke: #000000"/>
     <use xlink:href="#m76d0672430" x="250.834194" y="94.87535" style="fill: #1f77b4; stroke: #000000"/>
     <use xlink:href="#m76d0672430" x="218.743991" y="67.080829" style="fill: #1f77b4; stroke: #000000"/>
     <use xlink:href="#m76d0672430" x="260.235776" y="121.801039" style="fill: #1f77b4; stroke: #000000"/>
     <use xlink:href="#m76d0672430" x="173.026406" y="202.815907" style="fill: #1f77b4; stroke: #000000"/>
     <use xlink:href="#m76d0672430" x="223.18878" y="68.439536" style="fill: #1f77b4; stroke: #000000"/>
     <use xlink:href="#m76d0672430" x="267.710344" y="151.941628" style="fill: #1f77b4; stroke: #000000"/>
     <use xlink:href="#m76d0672430" x="260.691525" y="111.800897" style="fill: #1f77b4; stroke: #000000"/>
     <use xlink:href="#m76d0672430" x="137.300732" y="144.780411" style="fill: #1f77b4; stroke: #000000"/>
     <use xlink:href="#m76d0672430" x="220.684624" y="70.100762" style="fill: #1f77b4; stroke: #000000"/>
     <use xlink:href="#m76d0672430" x="187.481602" y="89.017691" style="fill: #1f77b4; stroke: #000000"/>
     <use xlink:href="#m76d0672430" x="262.410452" y="102.685721" style="fill: #1f77b4; stroke: #000000"/>
     <use xlink:href="#m76d0672430" x="218.286898" y="65.732262" style="fill: #1f77b4; stroke: #000000"/>
     <use xlink:href="#m76d0672430" x="235.231087" y="204.523224" style="fill: #1f77b4; stroke: #000000"/>
     <use xlink:href="#m76d0672430" x="129.557972" y="111.815408" style="fill: #1f77b4; stroke: #000000"/>
     <use xlink:href="#m76d0672430" x="178.344702" y="210.146562" style="fill: #1f77b4; stroke: #000000"/>
     <use xlink:href="#m76d0672430" x="161.785614" y="168.41785" style="fill: #1f77b4; stroke: #000000"/>
     <use xlink:href="#m76d0672430" x="208.564846" y="200.254756" style="fill: #1f77b4; stroke: #000000"/>
     <use xlink:href="#m76d0672430" x="164.333719" y="182.198728" style="fill: #1f77b4; stroke: #000000"/>
     <use xlink:href="#m76d0672430" x="184.333346" y="193.135544" style="fill: #1f77b4; stroke: #000000"/>
     <use xlink:href="#m76d0672430" x="127.832842" y="130.472423" style="fill: #1f77b4; stroke: #000000"/>
     <use xlink:href="#m76d0672430" x="219.675621" y="73.179959" style="fill: #1f77b4; stroke: #000000"/>
     <use xlink:href="#m76d0672430" x="178.388663" y="197.276385" style="fill: #1f77b4; stroke: #000000"/>
     <use xlink:href="#m76d0672430" x="204.17435" y="61.36474" style="fill: #1f77b4; stroke: #000000"/>
     <use xlink:href="#m76d0672430" x="220.141779" y="63.612165" style="fill: #1f77b4; stroke: #000000"/>
     <use xlink:href="#m76d0672430" x="176.519997" y="78.599966" style="fill: #1f77b4; stroke: #000000"/>
     <use xlink:href="#m76d0672430" x="136.452264" y="161.644566" style="fill: #1f77b4; stroke: #000000"/>
     <use xlink:href="#m76d0672430" x="228.710845" y="197.270878" style="fill: #1f77b4; stroke: #000000"/>
     <use xlink:href="#m76d0672430" x="248.263975" y="89.13127" style="fill: #1f77b4; stroke: #000000"/>
     <use xlink:href="#m76d0672430" x="277.866117" y="132.663006" style="fill: #1f77b4; stroke: #000000"/>
     <use xlink:href="#m76d0672430" x="165.258043" y="198.997386" style="fill: #1f77b4; stroke: #000000"/>
     <use xlink:href="#m76d0672430" x="138.369377" y="145.870834" style="fill: #1f77b4; stroke: #000000"/>
     <use xlink:href="#m76d0672430" x="266.955293" y="131.709935" style="fill: #1f77b4; stroke: #000000"/>
    </g>
   </g>
   <g id="PathCollection_2">
    <defs>
     <path id="m8f2958ce82" d="M 0 -5 
L -1.12257 -1.545085 
L -4.755283 -1.545085 
L -1.816356 0.59017 
L -2.938926 4.045085 
L -0 1.90983 
L 2.938926 4.045085 
L 1.816356 0.59017 
L 4.755283 -1.545085 
L 1.12257 -1.545085 
z
" style="stroke: #000000"/>
    </defs>
    <g clip-path="url(#pb5377f351d)">
     <use xlink:href="#m8f2958ce82" x="222.404994" y="253.176244" style="fill: #ff7f0e; stroke: #000000"/>
     <use xlink:href="#m8f2958ce82" x="301.201356" y="69.230423" style="fill: #ff7f0e; stroke: #000000"/>
     <use xlink:href="#m8f2958ce82" x="184.0265" y="227.77052" style="fill: #ff7f0e; stroke: #000000"/>
     <use xlink:href="#m8f2958ce82" x="156.726535" y="226.113205" style="fill: #ff7f0e; stroke: #000000"/>
     <use xlink:href="#m8f2958ce82" x="96.08494" y="169.6778" style="fill: #ff7f0e; stroke: #000000"/>
     <use xlink:href="#m8f2958ce82" x="179.835261" y="35.511013" style="fill: #ff7f0e; stroke: #000000"/>
     <use xlink:href="#m8f2958ce82" x="212.36793" y="238.907502" style="fill: #ff7f0e; stroke: #000000"/>
     <use xlink:href="#m8f2958ce82" x="104.896165" y="79.894355" style="fill: #ff7f0e; stroke: #000000"/>
     <use xlink:href="#m8f2958ce82" x="115.505033" y="73.978178" style="fill: #ff7f0e; stroke: #000000"/>
     <use xlink:href="#m8f2958ce82" x="258.17679" y="241.710666" style="fill: #ff7f0e; stroke: #000000"/>
     <use xlink:href="#m8f2958ce82" x="211.974054" y="19.296" style="fill: #ff7f0e; stroke: #000000"/>
     <use xlink:href="#m8f2958ce82" x="106.126846" y="187.658422" style="fill: #ff7f0e; stroke: #000000"/>
     <use xlink:href="#m8f2958ce82" x="98.477126" y="165.527172" style="fill: #ff7f0e; stroke: #000000"/>
     <use xlink:href="#m8f2958ce82" x="201.96639" y="39.873204" style="fill: #ff7f0e; stroke: #000000"/>
     <use xlink:href="#m8f2958ce82" x="275.427552" y="65.945429" style="fill: #ff7f0e; stroke: #000000"/>
     <use xlink:href="#m8f2958ce82" x="204.246499" y="261.216" style="fill: #ff7f0e; stroke: #000000"/>
     <use xlink:href="#m8f2958ce82" x="92.095311" y="157.006163" style="fill: #ff7f0e; stroke: #000000"/>
     <use xlink:href="#m8f2958ce82" x="269.288115" y="228.386741" style="fill: #ff7f0e; stroke: #000000"/>
     <use xlink:href="#m8f2958ce82" x="156.119164" y="231.631636" style="fill: #ff7f0e; stroke: #000000"/>
     <use xlink:href="#m8f2958ce82" x="269.743303" y="236.582547" style="fill: #ff7f0e; stroke: #000000"/>
     <use xlink:href="#m8f2958ce82" x="163.436019" y="243.563262" style="fill: #ff7f0e; stroke: #000000"/>
     <use xlink:href="#m8f2958ce82" x="307.449339" y="208.938418" style="fill: #ff7f0e; stroke: #000000"/>
     <use xlink:href="#m8f2958ce82" x="281.858596" y="56.913438" style="fill: #ff7f0e; stroke: #000000"/>
     <use xlink:href="#m8f2958ce82" x="304.749946" y="182.918303" style="fill: #ff7f0e; stroke: #000000"/>
     <use xlink:href="#m8f2958ce82" x="141.252606" y="236.429718" style="fill: #ff7f0e; stroke: #000000"/>
     <use xlink:href="#m8f2958ce82" x="247.518467" y="230.439943" style="fill: #ff7f0e; stroke: #000000"/>
     <use xlink:href="#m8f2958ce82" x="252.231453" y="38.297735" style="fill: #ff7f0e; stroke: #000000"/>
     <use xlink:href="#m8f2958ce82" x="130.429481" y="49.770428" style="fill: #ff7f0e; stroke: #000000"/>
     <use xlink:href="#m8f2958ce82" x="222.843669" y="241.062089" style="fill: #ff7f0e; stroke: #000000"/>
     <use xlink:href="#m8f2958ce82" x="274.984073" y="37.057723" style="fill: #ff7f0e; stroke: #000000"/>
     <use xlink:href="#m8f2958ce82" x="196.685923" y="26.063973" style="fill: #ff7f0e; stroke: #000000"/>
     <use xlink:href="#m8f2958ce82" x="294.450839" y="214.880973" style="fill: #ff7f0e; stroke: #000000"/>
     <use xlink:href="#m8f2958ce82" x="106.978933" y="85.965354" style="fill: #ff7f0e; stroke: #000000"/>
     <use xlink:href="#m8f2958ce82" x="310.062078" y="131.729456" style="fill: #ff7f0e; stroke: #000000"/>
     <use xlink:href="#m8f2958ce82" x="167.155129" y="39.565207" style="fill: #ff7f0e; stroke: #000000"/>
     <use xlink:href="#m8f2958ce82" x="202.5863" y="26.763027" style="fill: #ff7f0e; stroke: #000000"/>
     <use xlink:href="#m8f2958ce82" x="310.354144" y="148.174892" style="fill: #ff7f0e; stroke: #000000"/>
     <use xlink:href="#m8f2958ce82" x="285.668037" y="209.693756" style="fill: #ff7f0e; stroke: #000000"/>
     <use xlink:href="#m8f2958ce82" x="157.891596" y="31.901103" style="fill: #ff7f0e; stroke: #000000"/>
     <use xlink:href="#m8f2958ce82" x="289.276987" y="47.881221" style="fill: #ff7f0e; stroke: #000000"/>
     <use xlink:href="#m8f2958ce82" x="193.324211" y="28.449787" style="fill: #ff7f0e; stroke: #000000"/>
     <use xlink:href="#m8f2958ce82" x="220.86959" y="249.347592" style="fill: #ff7f0e; stroke: #000000"/>
     <use xlink:href="#m8f2958ce82" x="289.206342" y="77.070688" style="fill: #ff7f0e; stroke: #000000"/>
     <use xlink:href="#m8f2958ce82" x="95.777855" y="175.524948" style="fill: #ff7f0e; stroke: #000000"/>
     <use xlink:href="#m8f2958ce82" x="97.642882" y="102.54182" style="fill: #ff7f0e; stroke: #000000"/>
     <use xlink:href="#m8f2958ce82" x="234.07159" y="232.802946" style="fill: #ff7f0e; stroke: #000000"/>
     <use xlink:href="#m8f2958ce82" x="292.932238" y="62.570101" style="fill: #ff7f0e; stroke: #000000"/>
     <use xlink:href="#m8f2958ce82" x="250.249138" y="35.225014" style="fill: #ff7f0e; stroke: #000000"/>
     <use xlink:href="#m8f2958ce82" x="173.924962" y="36.093403" style="fill: #ff7f0e; stroke: #000000"/>
     <use xlink:href="#m8f2958ce82" x="222.177528" y="33.857215" style="fill: #ff7f0e; stroke: #000000"/>
     <use xlink:href="#m8f2958ce82" x="94.371799" y="168.801464" style="fill: #ff7f0e; stroke: #000000"/>
     <use xlink:href="#m8f2958ce82" x="127.981225" y="212.26115" style="fill: #ff7f0e; stroke: #000000"/>
     <use xlink:href="#m8f2958ce82" x="101.732359" y="139.772343" style="fill: #ff7f0e; stroke: #000000"/>
     <use xlink:href="#m8f2958ce82" x="156.98279" y="43.572003" style="fill: #ff7f0e; stroke: #000000"/>
     <use xlink:href="#m8f2958ce82" x="180.060079" y="247.668427" style="fill: #ff7f0e; stroke: #000000"/>
     <use xlink:href="#m8f2958ce82" x="168.808308" y="30.399698" style="fill: #ff7f0e; stroke: #000000"/>
     <use xlink:href="#m8f2958ce82" x="169.14911" y="35.609391" style="fill: #ff7f0e; stroke: #000000"/>
     <use xlink:href="#m8f2958ce82" x="94.631962" y="140.740673" style="fill: #ff7f0e; stroke: #000000"/>
     <use xlink:href="#m8f2958ce82" x="216.307998" y="247.351388" style="fill: #ff7f0e; stroke: #000000"/>
     <use xlink:href="#m8f2958ce82" x="101.175427" y="194.513408" style="fill: #ff7f0e; stroke: #000000"/>
     <use xlink:href="#m8f2958ce82" x="127.716044" y="216.738245" style="fill: #ff7f0e; stroke: #000000"/>
     <use xlink:href="#m8f2958ce82" x="283.283643" y="215.721077" style="fill: #ff7f0e; stroke: #000000"/>
     <use xlink:href="#m8f2958ce82" x="302.4615" y="91.08375" style="fill: #ff7f0e; stroke: #000000"/>
     <use xlink:href="#m8f2958ce82" x="168.871051" y="239.152446" style="fill: #ff7f0e; stroke: #000000"/>
     <use xlink:href="#m8f2958ce82" x="329.353042" y="106.818956" style="fill: #ff7f0e; stroke: #000000"/>
     <use xlink:href="#m8f2958ce82" x="171.815317" y="238.079323" style="fill: #ff7f0e; stroke: #000000"/>
     <use xlink:href="#m8f2958ce82" x="85.651333" y="139.488128" style="fill: #ff7f0e; stroke: #000000"/>
     <use xlink:href="#m8f2958ce82" x="306.823802" y="138.419144" style="fill: #ff7f0e; stroke: #000000"/>
     <use xlink:href="#m8f2958ce82" x="310.366583" y="177.830916" style="fill: #ff7f0e; stroke: #000000"/>
     <use xlink:href="#m8f2958ce82" x="284.249952" y="81.268932" style="fill: #ff7f0e; stroke: #000000"/>
     <use xlink:href="#m8f2958ce82" x="289.554887" y="73.643544" style="fill: #ff7f0e; stroke: #000000"/>
     <use xlink:href="#m8f2958ce82" x="295.656238" y="53.940443" style="fill: #ff7f0e; stroke: #000000"/>
     <use xlink:href="#m8f2958ce82" x="246.653711" y="40.531422" style="fill: #ff7f0e; stroke: #000000"/>
     <use xlink:href="#m8f2958ce82" x="174.788034" y="253.541669" style="fill: #ff7f0e; stroke: #000000"/>
     <use xlink:href="#m8f2958ce82" x="254.518621" y="26.834562" style="fill: #ff7f0e; stroke: #000000"/>
     <use xlink:href="#m8f2958ce82" x="308.063147" y="142.391851" style="fill: #ff7f0e; stroke: #000000"/>
     <use xlink:href="#m8f2958ce82" x="214.566239" y="221.459345" style="fill: #ff7f0e; stroke: #000000"/>
     <use xlink:href="#m8f2958ce82" x="294.046354" y="210.369596" style="fill: #ff7f0e; stroke: #000000"/>
     <use xlink:href="#m8f2958ce82" x="165.414685" y="30.190174" style="fill: #ff7f0e; stroke: #000000"/>
     <use xlink:href="#m8f2958ce82" x="326.138376" y="144.352206" style="fill: #ff7f0e; stroke: #000000"/>
     <use xlink:href="#m8f2958ce82" x="181.330894" y="257.91067" style="fill: #ff7f0e; stroke: #000000"/>
     <use xlink:href="#m8f2958ce82" x="109.504546" y="72.713794" style="fill: #ff7f0e; stroke: #000000"/>
     <use xlink:href="#m8f2958ce82" x="211.557094" y="239.563356" style="fill: #ff7f0e; stroke: #000000"/>
     <use xlink:href="#m8f2958ce82" x="201.080958" y="231.068185" style="fill: #ff7f0e; stroke: #000000"/>
     <use xlink:href="#m8f2958ce82" x="168.154564" y="34.406319" style="fill: #ff7f0e; stroke: #000000"/>
     <use xlink:href="#m8f2958ce82" x="101.657728" y="123.976016" style="fill: #ff7f0e; stroke: #000000"/>
     <use xlink:href="#m8f2958ce82" x="259.031631" y="36.649558" style="fill: #ff7f0e; stroke: #000000"/>
     <use xlink:href="#m8f2958ce82" x="185.126124" y="235.320193" style="fill: #ff7f0e; stroke: #000000"/>
     <use xlink:href="#m8f2958ce82" x="209.659366" y="36.785481" style="fill: #ff7f0e; stroke: #000000"/>
     <use xlink:href="#m8f2958ce82" x="90.41903" y="155.729386" style="fill: #ff7f0e; stroke: #000000"/>
     <use xlink:href="#m8f2958ce82" x="272.663061" y="217.363781" style="fill: #ff7f0e; stroke: #000000"/>
     <use xlink:href="#m8f2958ce82" x="293.724849" y="98.722919" style="fill: #ff7f0e; stroke: #000000"/>
     <use xlink:href="#m8f2958ce82" x="268.746673" y="54.557495" style="fill: #ff7f0e; stroke: #000000"/>
     <use xlink:href="#m8f2958ce82" x="311.637355" y="132.803707" style="fill: #ff7f0e; stroke: #000000"/>
     <use xlink:href="#m8f2958ce82" x="122.513986" y="89.374929" style="fill: #ff7f0e; stroke: #000000"/>
     <use xlink:href="#m8f2958ce82" x="226.424115" y="246.255898" style="fill: #ff7f0e; stroke: #000000"/>
     <use xlink:href="#m8f2958ce82" x="310.087531" y="90.920394" style="fill: #ff7f0e; stroke: #000000"/>
     <use xlink:href="#m8f2958ce82" x="281.691281" y="209.199049" style="fill: #ff7f0e; stroke: #000000"/>
     <use xlink:href="#m8f2958ce82" x="126.236428" y="204.906194" style="fill: #ff7f0e; stroke: #000000"/>
     <use xlink:href="#m8f2958ce82" x="145.827058" y="229.164012" style="fill: #ff7f0e; stroke: #000000"/>
    </g>
   </g>
   <g id="PathCollection_3">
    <defs>
     <path id="m36d1aba1a4" d="M -3 3 
L 3 3 
L 3 -3 
L -3 -3 
z
" style="stroke: #000000"/>
    </defs>
    <g clip-path="url(#pb5377f351d)">
     <use xlink:href="#m36d1aba1a4" x="222.233404" y="151.762233" style="fill: #2ca02c; stroke: #000000"/>
     <use xlink:href="#m36d1aba1a4" x="204.110894" y="129.791853" style="fill: #2ca02c; stroke: #000000"/>
     <use xlink:href="#m36d1aba1a4" x="201.695436" y="104.567869" style="fill: #2ca02c; stroke: #000000"/>
     <use xlink:href="#m36d1aba1a4" x="216.129125" y="131.982504" style="fill: #2ca02c; stroke: #000000"/>
     <use xlink:href="#m36d1aba1a4" x="198.550874" y="163.875424" style="fill: #2ca02c; stroke: #000000"/>
     <use xlink:href="#m36d1aba1a4" x="186.78208" y="146.016952" style="fill: #2ca02c; stroke: #000000"/>
     <use xlink:href="#m36d1aba1a4" x="228.663383" y="134.468036" style="fill: #2ca02c; stroke: #000000"/>
     <use xlink:href="#m36d1aba1a4" x="203.871933" y="104.342359" style="fill: #2ca02c; stroke: #000000"/>
     <use xlink:href="#m36d1aba1a4" x="219.975887" y="124.961348" style="fill: #2ca02c; stroke: #000000"/>
     <use xlink:href="#m36d1aba1a4" x="210.354138" y="151.958938" style="fill: #2ca02c; stroke: #000000"/>
     <use xlink:href="#m36d1aba1a4" x="189.046806" y="133.488183" style="fill: #2ca02c; stroke: #000000"/>
     <use xlink:href="#m36d1aba1a4" x="182.242601" y="136.582685" style="fill: #2ca02c; stroke: #000000"/>
     <use xlink:href="#m36d1aba1a4" x="222.079817" y="114.366669" style="fill: #2ca02c; stroke: #000000"/>
     <use xlink:href="#m36d1aba1a4" x="191.717159" y="156.492784" style="fill: #2ca02c; stroke: #000000"/>
     <use xlink:href="#m36d1aba1a4" x="184.96694" y="145.657133" style="fill: #2ca02c; stroke: #000000"/>
     <use xlink:href="#m36d1aba1a4" x="233.495677" y="137.706539" style="fill: #2ca02c; stroke: #000000"/>
     <use xlink:href="#m36d1aba1a4" x="192.233457" y="113.465058" style="fill: #2ca02c; stroke: #000000"/>
     <use xlink:href="#m36d1aba1a4" x="233.286923" y="136.815468" style="fill: #2ca02c; stroke: #000000"/>
     <use xlink:href="#m36d1aba1a4" x="193.19551" y="133.285798" style="fill: #2ca02c; stroke: #000000"/>
     <use xlink:href="#m36d1aba1a4" x="201.372445" y="117.237655" style="fill: #2ca02c; stroke: #000000"/>
     <use xlink:href="#m36d1aba1a4" x="224.195092" y="129.892273" style="fill: #2ca02c; stroke: #000000"/>
     <use xlink:href="#m36d1aba1a4" x="186.770519" y="129.234492" style="fill: #2ca02c; stroke: #000000"/>
     <use xlink:href="#m36d1aba1a4" x="194.675291" y="167.732337" style="fill: #2ca02c; stroke: #000000"/>
     <use xlink:href="#m36d1aba1a4" x="233.210651" y="138.938387" style="fill: #2ca02c; stroke: #000000"/>
     <use xlink:href="#m36d1aba1a4" x="216.69114" y="110.520025" style="fill: #2ca02c; stroke: #000000"/>
     <use xlink:href="#m36d1aba1a4" x="213.028801" y="152.13979" style="fill: #2ca02c; stroke: #000000"/>
     <use xlink:href="#m36d1aba1a4" x="230.885773" y="143.186778" style="fill: #2ca02c; stroke: #000000"/>
     <use xlink:href="#m36d1aba1a4" x="225.109373" y="157.184773" style="fill: #2ca02c; stroke: #000000"/>
     <use xlink:href="#m36d1aba1a4" x="218.620838" y="123.878582" style="fill: #2ca02c; stroke: #000000"/>
     <use xlink:href="#m36d1aba1a4" x="232.282354" y="146.505685" style="fill: #2ca02c; stroke: #000000"/>
     <use xlink:href="#m36d1aba1a4" x="175.865684" y="134.529681" style="fill: #2ca02c; stroke: #000000"/>
     <use xlink:href="#m36d1aba1a4" x="214.118675" y="149.439781" style="fill: #2ca02c; stroke: #000000"/>
     <use xlink:href="#m36d1aba1a4" x="232.443703" y="133.7433" style="fill: #2ca02c; stroke: #000000"/>
     <use xlink:href="#m36d1aba1a4" x="212.2977" y="123.244019" style="fill: #2ca02c; stroke: #000000"/>
     <use xlink:href="#m36d1aba1a4" x="184.314133" y="133.389344" style="fill: #2ca02c; stroke: #000000"/>
     <use xlink:href="#m36d1aba1a4" x="196.815222" y="162.218703" style="fill: #2ca02c; stroke: #000000"/>
     <use xlink:href="#m36d1aba1a4" x="185.410005" y="131.682789" style="fill: #2ca02c; stroke: #000000"/>
     <use xlink:href="#m36d1aba1a4" x="191.927994" y="123.115521" style="fill: #2ca02c; stroke: #000000"/>
     <use xlink:href="#m36d1aba1a4" x="212.334624" y="140.157348" style="fill: #2ca02c; stroke: #000000"/>
     <use xlink:href="#m36d1aba1a4" x="226.82501" y="135.143986" style="fill: #2ca02c; stroke: #000000"/>
     <use xlink:href="#m36d1aba1a4" x="236.08266" y="142.013188" style="fill: #2ca02c; stroke: #000000"/>
     <use xlink:href="#m36d1aba1a4" x="192.055031" y="153.454935" style="fill: #2ca02c; stroke: #000000"/>
     <use xlink:href="#m36d1aba1a4" x="227.459782" y="132.708885" style="fill: #2ca02c; stroke: #000000"/>
     <use xlink:href="#m36d1aba1a4" x="205.951823" y="160.093075" style="fill: #2ca02c; stroke: #000000"/>
     <use xlink:href="#m36d1aba1a4" x="199.386423" y="146.570892" style="fill: #2ca02c; stroke: #000000"/>
     <use xlink:href="#m36d1aba1a4" x="182.746113" y="140.205697" style="fill: #2ca02c; stroke: #000000"/>
     <use xlink:href="#m36d1aba1a4" x="201.232383" y="146.82375" style="fill: #2ca02c; stroke: #000000"/>
     <use xlink:href="#m36d1aba1a4" x="233.765257" y="136.779059" style="fill: #2ca02c; stroke: #000000"/>
     <use xlink:href="#m36d1aba1a4" x="176.065137" y="125.968569" style="fill: #2ca02c; stroke: #000000"/>
     <use xlink:href="#m36d1aba1a4" x="211.552092" y="154.265296" style="fill: #2ca02c; stroke: #000000"/>
     <use xlink:href="#m36d1aba1a4" x="208.368965" y="152.475728" style="fill: #2ca02c; stroke: #000000"/>
     <use xlink:href="#m36d1aba1a4" x="187.910747" y="149.445545" style="fill: #2ca02c; stroke: #000000"/>
     <use xlink:href="#m36d1aba1a4" x="185.478635" y="144.047345" style="fill: #2ca02c; stroke: #000000"/>
     <use xlink:href="#m36d1aba1a4" x="181.243148" y="128.65508" style="fill: #2ca02c; stroke: #000000"/>
     <use xlink:href="#m36d1aba1a4" x="194.243799" y="126.855228" style="fill: #2ca02c; stroke: #000000"/>
     <use xlink:href="#m36d1aba1a4" x="181.105013" y="130.505852" style="fill: #2ca02c; stroke: #000000"/>
     <use xlink:href="#m36d1aba1a4" x="193.629787" y="158.201259" style="fill: #2ca02c; stroke: #000000"/>
     <use xlink:href="#m36d1aba1a4" x="175.359763" y="153.062292" style="fill: #2ca02c; stroke: #000000"/>
     <use xlink:href="#m36d1aba1a4" x="210.961579" y="170.064797" style="fill: #2ca02c; stroke: #000000"/>
     <use xlink:href="#m36d1aba1a4" x="209.608447" y="127.534396" style="fill: #2ca02c; stroke: #000000"/>
     <use xlink:href="#m36d1aba1a4" x="220.234454" y="139.874455" style="fill: #2ca02c; stroke: #000000"/>
     <use xlink:href="#m36d1aba1a4" x="183.536312" y="139.04488" style="fill: #2ca02c; stroke: #000000"/>
     <use xlink:href="#m36d1aba1a4" x="202.59054" y="120.223711" style="fill: #2ca02c; stroke: #000000"/>
     <use xlink:href="#m36d1aba1a4" x="226.122355" y="128.27144" style="fill: #2ca02c; stroke: #000000"/>
     <use xlink:href="#m36d1aba1a4" x="218.238812" y="121.561479" style="fill: #2ca02c; stroke: #000000"/>
     <use xlink:href="#m36d1aba1a4" x="193.662411" y="116.133862" style="fill: #2ca02c; stroke: #000000"/>
     <use xlink:href="#m36d1aba1a4" x="226.266174" y="145.505345" style="fill: #2ca02c; stroke: #000000"/>
     <use xlink:href="#m36d1aba1a4" x="183.964025" y="140.501919" style="fill: #2ca02c; stroke: #000000"/>
     <use xlink:href="#m36d1aba1a4" x="227.486527" y="128.977759" style="fill: #2ca02c; stroke: #000000"/>
     <use xlink:href="#m36d1aba1a4" x="224.128744" y="144.107494" style="fill: #2ca02c; stroke: #000000"/>
     <use xlink:href="#m36d1aba1a4" x="230.737774" y="152.542696" style="fill: #2ca02c; stroke: #000000"/>
     <use xlink:href="#m36d1aba1a4" x="214.967244" y="139.771248" style="fill: #2ca02c; stroke: #000000"/>
     <use xlink:href="#m36d1aba1a4" x="184.09174" y="158.834224" style="fill: #2ca02c; stroke: #000000"/>
     <use xlink:href="#m36d1aba1a4" x="205.972037" y="114.426891" style="fill: #2ca02c; stroke: #000000"/>
     <use xlink:href="#m36d1aba1a4" x="220.191875" y="118.750615" style="fill: #2ca02c; stroke: #000000"/>
     <use xlink:href="#m36d1aba1a4" x="213.755167" y="163.754696" style="fill: #2ca02c; stroke: #000000"/>
     <use xlink:href="#m36d1aba1a4" x="185.073866" y="127.237146" style="fill: #2ca02c; stroke: #000000"/>
     <use xlink:href="#m36d1aba1a4" x="213.073101" y="104.203749" style="fill: #2ca02c; stroke: #000000"/>
     <use xlink:href="#m36d1aba1a4" x="208.79046" y="126.223282" style="fill: #2ca02c; stroke: #000000"/>
     <use xlink:href="#m36d1aba1a4" x="194.480179" y="149.818785" style="fill: #2ca02c; stroke: #000000"/>
     <use xlink:href="#m36d1aba1a4" x="181.902678" y="142.412379" style="fill: #2ca02c; stroke: #000000"/>
     <use xlink:href="#m36d1aba1a4" x="200.369119" y="152.500581" style="fill: #2ca02c; stroke: #000000"/>
     <use xlink:href="#m36d1aba1a4" x="218.47096" y="116.123855" style="fill: #2ca02c; stroke: #000000"/>
     <use xlink:href="#m36d1aba1a4" x="208.938811" y="125.15992" style="fill: #2ca02c; stroke: #000000"/>
     <use xlink:href="#m36d1aba1a4" x="229.12675" y="140.466224" style="fill: #2ca02c; stroke: #000000"/>
     <use xlink:href="#m36d1aba1a4" x="219.813341" y="140.092696" style="fill: #2ca02c; stroke: #000000"/>
     <use xlink:href="#m36d1aba1a4" x="220.228178" y="127.214498" style="fill: #2ca02c; stroke: #000000"/>
     <use xlink:href="#m36d1aba1a4" x="238.726432" y="123.252889" style="fill: #2ca02c; stroke: #000000"/>
     <use xlink:href="#m36d1aba1a4" x="219.539748" y="142.522011" style="fill: #2ca02c; stroke: #000000"/>
     <use xlink:href="#m36d1aba1a4" x="209.559734" y="104.502618" style="fill: #2ca02c; stroke: #000000"/>
     <use xlink:href="#m36d1aba1a4" x="180.39346" y="135.195272" style="fill: #2ca02c; stroke: #000000"/>
     <use xlink:href="#m36d1aba1a4" x="192.27061" y="126.376105" style="fill: #2ca02c; stroke: #000000"/>
     <use xlink:href="#m36d1aba1a4" x="215.542316" y="150.259171" style="fill: #2ca02c; stroke: #000000"/>
     <use xlink:href="#m36d1aba1a4" x="197.328427" y="108.340172" style="fill: #2ca02c; stroke: #000000"/>
     <use xlink:href="#m36d1aba1a4" x="206.107906" y="126.917492" style="fill: #2ca02c; stroke: #000000"/>
     <use xlink:href="#m36d1aba1a4" x="234.850083" y="131.058681" style="fill: #2ca02c; stroke: #000000"/>
     <use xlink:href="#m36d1aba1a4" x="200.417286" y="117.841141" style="fill: #2ca02c; stroke: #000000"/>
     <use xlink:href="#m36d1aba1a4" x="222.503347" y="136.1254" style="fill: #2ca02c; stroke: #000000"/>
     <use xlink:href="#m36d1aba1a4" x="187.529393" y="129.265821" style="fill: #2ca02c; stroke: #000000"/>
     <use xlink:href="#m36d1aba1a4" x="200.117425" y="124.576841" style="fill: #2ca02c; stroke: #000000"/>
    </g>
   </g>
   <g id="matplotlib.axis_1">
    <g id="xtick_1">
     <g id="line2d_1">
      <defs>
       <path id="mdced6f1456" d="M 0 0 
L 0 3.5 
" style="stroke: #000000; stroke-width: 0.8"/>
      </defs>
      <g>
       <use xlink:href="#mdced6f1456" x="72.753001" y="273.312" style="stroke: #000000; stroke-width: 0.8"/>
      </g>
     </g>
     <g id="text_1">
      <!-- −6 -->
      <g transform="translate(65.381907 287.910437) scale(0.1 -0.1)">
       <defs>
        <path id="DejaVuSans-2212" d="M 678 2272 
L 4684 2272 
L 4684 1741 
L 678 1741 
L 678 2272 
z
" transform="scale(0.015625)"/>
        <path id="DejaVuSans-36" d="M 2113 2584 
Q 1688 2584 1439 2293 
Q 1191 2003 1191 1497 
Q 1191 994 1439 701 
Q 1688 409 2113 409 
Q 2538 409 2786 701 
Q 3034 994 3034 1497 
Q 3034 2003 2786 2293 
Q 2538 2584 2113 2584 
z
M 3366 4563 
L 3366 3988 
Q 3128 4100 2886 4159 
Q 2644 4219 2406 4219 
Q 1781 4219 1451 3797 
Q 1122 3375 1075 2522 
Q 1259 2794 1537 2939 
Q 1816 3084 2150 3084 
Q 2853 3084 3261 2657 
Q 3669 2231 3669 1497 
Q 3669 778 3244 343 
Q 2819 -91 2113 -91 
Q 1303 -91 875 529 
Q 447 1150 447 2328 
Q 447 3434 972 4092 
Q 1497 4750 2381 4750 
Q 2619 4750 2861 4703 
Q 3103 4656 3366 4563 
z
" transform="scale(0.015625)"/>
       </defs>
       <use xlink:href="#DejaVuSans-2212"/>
       <use xlink:href="#DejaVuSans-36" transform="translate(83.789062 0)"/>
      </g>
     </g>
    </g>
    <g id="xtick_2">
     <g id="line2d_2">
      <g>
       <use xlink:href="#mdced6f1456" x="117.010762" y="273.312" style="stroke: #000000; stroke-width: 0.8"/>
      </g>
     </g>
     <g id="text_2">
      <!-- −4 -->
      <g transform="translate(109.639669 287.910437) scale(0.1 -0.1)">
       <defs>
        <path id="DejaVuSans-34" d="M 2419 4116 
L 825 1625 
L 2419 1625 
L 2419 4116 
z
M 2253 4666 
L 3047 4666 
L 3047 1625 
L 3713 1625 
L 3713 1100 
L 3047 1100 
L 3047 0 
L 2419 0 
L 2419 1100 
L 313 1100 
L 313 1709 
L 2253 4666 
z
" transform="scale(0.015625)"/>
       </defs>
       <use xlink:href="#DejaVuSans-2212"/>
       <use xlink:href="#DejaVuSans-34" transform="translate(83.789062 0)"/>
      </g>
     </g>
    </g>
    <g id="xtick_3">
     <g id="line2d_3">
      <g>
       <use xlink:href="#mdced6f1456" x="161.268524" y="273.312" style="stroke: #000000; stroke-width: 0.8"/>
      </g>
     </g>
     <g id="text_3">
      <!-- −2 -->
      <g transform="translate(153.89743 287.910437) scale(0.1 -0.1)">
       <defs>
        <path id="DejaVuSans-32" d="M 1228 531 
L 3431 531 
L 3431 0 
L 469 0 
L 469 531 
Q 828 903 1448 1529 
Q 2069 2156 2228 2338 
Q 2531 2678 2651 2914 
Q 2772 3150 2772 3378 
Q 2772 3750 2511 3984 
Q 2250 4219 1831 4219 
Q 1534 4219 1204 4116 
Q 875 4013 500 3803 
L 500 4441 
Q 881 4594 1212 4672 
Q 1544 4750 1819 4750 
Q 2544 4750 2975 4387 
Q 3406 4025 3406 3419 
Q 3406 3131 3298 2873 
Q 3191 2616 2906 2266 
Q 2828 2175 2409 1742 
Q 1991 1309 1228 531 
z
" transform="scale(0.015625)"/>
       </defs>
       <use xlink:href="#DejaVuSans-2212"/>
       <use xlink:href="#DejaVuSans-32" transform="translate(83.789062 0)"/>
      </g>
     </g>
    </g>
    <g id="xtick_4">
     <g id="line2d_4">
      <g>
       <use xlink:href="#mdced6f1456" x="205.526285" y="273.312" style="stroke: #000000; stroke-width: 0.8"/>
      </g>
     </g>
     <g id="text_4">
      <!-- 0 -->
      <g transform="translate(202.345035 287.910437) scale(0.1 -0.1)">
       <defs>
        <path id="DejaVuSans-30" d="M 2034 4250 
Q 1547 4250 1301 3770 
Q 1056 3291 1056 2328 
Q 1056 1369 1301 889 
Q 1547 409 2034 409 
Q 2525 409 2770 889 
Q 3016 1369 3016 2328 
Q 3016 3291 2770 3770 
Q 2525 4250 2034 4250 
z
M 2034 4750 
Q 2819 4750 3233 4129 
Q 3647 3509 3647 2328 
Q 3647 1150 3233 529 
Q 2819 -91 2034 -91 
Q 1250 -91 836 529 
Q 422 1150 422 2328 
Q 422 3509 836 4129 
Q 1250 4750 2034 4750 
z
" transform="scale(0.015625)"/>
       </defs>
       <use xlink:href="#DejaVuSans-30"/>
      </g>
     </g>
    </g>
    <g id="xtick_5">
     <g id="line2d_5">
      <g>
       <use xlink:href="#mdced6f1456" x="249.784046" y="273.312" style="stroke: #000000; stroke-width: 0.8"/>
      </g>
     </g>
     <g id="text_5">
      <!-- 2 -->
      <g transform="translate(246.602796 287.910437) scale(0.1 -0.1)">
       <use xlink:href="#DejaVuSans-32"/>
      </g>
     </g>
    </g>
    <g id="xtick_6">
     <g id="line2d_6">
      <g>
       <use xlink:href="#mdced6f1456" x="294.041807" y="273.312" style="stroke: #000000; stroke-width: 0.8"/>
      </g>
     </g>
     <g id="text_6">
      <!-- 4 -->
      <g transform="translate(290.860557 287.910437) scale(0.1 -0.1)">
       <use xlink:href="#DejaVuSans-34"/>
      </g>
     </g>
    </g>
    <g id="xtick_7">
     <g id="line2d_7">
      <g>
       <use xlink:href="#mdced6f1456" x="338.299569" y="273.312" style="stroke: #000000; stroke-width: 0.8"/>
      </g>
     </g>
     <g id="text_7">
      <!-- 6 -->
      <g transform="translate(335.118319 287.910437) scale(0.1 -0.1)">
       <use xlink:href="#DejaVuSans-36"/>
      </g>
     </g>
    </g>
    <g id="xtick_8">
     <g id="line2d_8">
      <g>
       <use xlink:href="#mdced6f1456" x="382.55733" y="273.312" style="stroke: #000000; stroke-width: 0.8"/>
      </g>
     </g>
     <g id="text_8">
      <!-- 8 -->
      <g transform="translate(379.37608 287.910437) scale(0.1 -0.1)">
       <defs>
        <path id="DejaVuSans-38" d="M 2034 2216 
Q 1584 2216 1326 1975 
Q 1069 1734 1069 1313 
Q 1069 891 1326 650 
Q 1584 409 2034 409 
Q 2484 409 2743 651 
Q 3003 894 3003 1313 
Q 3003 1734 2745 1975 
Q 2488 2216 2034 2216 
z
M 1403 2484 
Q 997 2584 770 2862 
Q 544 3141 544 3541 
Q 544 4100 942 4425 
Q 1341 4750 2034 4750 
Q 2731 4750 3128 4425 
Q 3525 4100 3525 3541 
Q 3525 3141 3298 2862 
Q 3072 2584 2669 2484 
Q 3125 2378 3379 2068 
Q 3634 1759 3634 1313 
Q 3634 634 3220 271 
Q 2806 -91 2034 -91 
Q 1263 -91 848 271 
Q 434 634 434 1313 
Q 434 1759 690 2068 
Q 947 2378 1403 2484 
z
M 1172 3481 
Q 1172 3119 1398 2916 
Q 1625 2713 2034 2713 
Q 2441 2713 2670 2916 
Q 2900 3119 2900 3481 
Q 2900 3844 2670 4047 
Q 2441 4250 2034 4250 
Q 1625 4250 1398 4047 
Q 1172 3844 1172 3481 
z
" transform="scale(0.015625)"/>
       </defs>
       <use xlink:href="#DejaVuSans-38"/>
      </g>
     </g>
    </g>
   </g>
   <g id="matplotlib.axis_2">
    <g id="ytick_1">
     <g id="line2d_9">
      <defs>
       <path id="m49e308f484" d="M 0 0 
L -3.5 0 
" style="stroke: #000000; stroke-width: 0.8"/>
      </defs>
      <g>
       <use xlink:href="#m49e308f484" x="28.942188" y="270.347055" style="stroke: #000000; stroke-width: 0.8"/>
      </g>
     </g>
     <g id="text_9">
      <!-- −6 -->
      <g transform="translate(7.2 274.146274) scale(0.1 -0.1)">
       <use xlink:href="#DejaVuSans-2212"/>
       <use xlink:href="#DejaVuSans-36" transform="translate(83.789062 0)"/>
      </g>
     </g>
    </g>
    <g id="ytick_2">
     <g id="line2d_10">
      <g>
       <use xlink:href="#m49e308f484" x="28.942188" y="226.089294" style="stroke: #000000; stroke-width: 0.8"/>
      </g>
     </g>
     <g id="text_10">
      <!-- −4 -->
      <g transform="translate(7.2 229.888513) scale(0.1 -0.1)">
       <use xlink:href="#DejaVuSans-2212"/>
       <use xlink:href="#DejaVuSans-34" transform="translate(83.789062 0)"/>
      </g>
     </g>
    </g>
    <g id="ytick_3">
     <g id="line2d_11">
      <g>
       <use xlink:href="#m49e308f484" x="28.942188" y="181.831533" style="stroke: #000000; stroke-width: 0.8"/>
      </g>
     </g>
     <g id="text_11">
      <!-- −2 -->
      <g transform="translate(7.2 185.630751) scale(0.1 -0.1)">
       <use xlink:href="#DejaVuSans-2212"/>
       <use xlink:href="#DejaVuSans-32" transform="translate(83.789062 0)"/>
      </g>
     </g>
    </g>
    <g id="ytick_4">
     <g id="line2d_12">
      <g>
       <use xlink:href="#m49e308f484" x="28.942188" y="137.573771" style="stroke: #000000; stroke-width: 0.8"/>
      </g>
     </g>
     <g id="text_12">
      <!-- 0 -->
      <g transform="translate(15.579688 141.37299) scale(0.1 -0.1)">
       <use xlink:href="#DejaVuSans-30"/>
      </g>
     </g>
    </g>
    <g id="ytick_5">
     <g id="line2d_13">
      <g>
       <use xlink:href="#m49e308f484" x="28.942188" y="93.31601" style="stroke: #000000; stroke-width: 0.8"/>
      </g>
     </g>
     <g id="text_13">
      <!-- 2 -->
      <g transform="translate(15.579688 97.115229) scale(0.1 -0.1)">
       <use xlink:href="#DejaVuSans-32"/>
      </g>
     </g>
    </g>
    <g id="ytick_6">
     <g id="line2d_14">
      <g>
       <use xlink:href="#m49e308f484" x="28.942188" y="49.058249" style="stroke: #000000; stroke-width: 0.8"/>
      </g>
     </g>
     <g id="text_14">
      <!-- 4 -->
      <g transform="translate(15.579688 52.857468) scale(0.1 -0.1)">
       <use xlink:href="#DejaVuSans-34"/>
      </g>
     </g>
    </g>
   </g>
   <g id="patch_3">
    <path d="M 28.942188 273.312 
L 28.942188 7.2 
" style="fill: none; stroke: #000000; stroke-width: 0.8; stroke-linejoin: miter; stroke-linecap: square"/>
   </g>
   <g id="patch_4">
    <path d="M 386.062188 273.312 
L 386.062188 7.2 
" style="fill: none; stroke: #000000; stroke-width: 0.8; stroke-linejoin: miter; stroke-linecap: square"/>
   </g>
   <g id="patch_5">
    <path d="M 28.942187 273.312 
L 386.062188 273.312 
" style="fill: none; stroke: #000000; stroke-width: 0.8; stroke-linejoin: miter; stroke-linecap: square"/>
   </g>
   <g id="patch_6">
    <path d="M 28.942187 7.2 
L 386.062188 7.2 
" style="fill: none; stroke: #000000; stroke-width: 0.8; stroke-linejoin: miter; stroke-linecap: square"/>
   </g>
  </g>
 </g>
 <defs>
  <clipPath id="pb5377f351d">
   <rect x="28.942188" y="7.2" width="357.12" height="266.112"/>
  </clipPath>
 </defs>
</svg>
