<?xml version="1.0" encoding="utf-8" standalone="no"?>
<!DOCTYPE svg PUBLIC "-//W3C//DTD SVG 1.1//EN"
  "http://www.w3.org/Graphics/SVG/1.1/DTD/svg11.dtd">
<svg xmlns:xlink="http://www.w3.org/1999/xlink" width="537.146875pt" height="266.51625pt" viewBox="0 0 537.146875 266.51625" xmlns="http://www.w3.org/2000/svg" version="1.1">
 <metadata>
  <rdf:RDF xmlns:dc="http://purl.org/dc/elements/1.1/" xmlns:cc="http://creativecommons.org/ns#" xmlns:rdf="http://www.w3.org/1999/02/22-rdf-syntax-ns#">
   <cc:Work>
    <dc:type rdf:resource="http://purl.org/dc/dcmitype/StillImage"/>
    <dc:date>2025-08-17T12:28:07.373984</dc:date>
    <dc:format>image/svg+xml</dc:format>
    <dc:creator>
     <cc:Agent>
      <dc:title>Matplotlib v3.10.3, https://matplotlib.org/</dc:title>
     </cc:Agent>
    </dc:creator>
   </cc:Work>
  </rdf:RDF>
 </metadata>
 <defs>
  <style type="text/css">*{stroke-linejoin: round; stroke-linecap: butt}</style>
 </defs>
 <g id="figure_1">
  <g id="patch_1">
   <path d="M 0 266.51625 
L 537.146875 266.51625 
L 537.146875 0 
L 0 0 
z
" style="fill: #ffffff"/>
  </g>
  <g id="axes_1">
   <g id="patch_2">
    <path d="M 43.78125 228.96 
L 490.18125 228.96 
L 490.18125 7.2 
L 43.78125 7.2 
z
" style="fill: #ffffff"/>
   </g>
   <g id="matplotlib.axis_1">
    <g id="xtick_1">
     <g id="line2d_1">
      <path d="M 64.072159 228.96 
L 64.072159 7.2 
" clip-path="url(#p8546c36cfb)" style="fill: none; stroke-dasharray: 0.8,1.32; stroke-dashoffset: 0; stroke: #b0b0b0; stroke-opacity: 0.8; stroke-width: 0.8"/>
     </g>
     <g id="line2d_2">
      <defs>
       <path id="m415c05f42c" d="M 0 0 
L 0 3.5 
" style="stroke: #000000; stroke-width: 0.8"/>
      </defs>
      <g>
       <use xlink:href="#m415c05f42c" x="64.072159" y="228.96" style="stroke: #000000; stroke-width: 0.8"/>
      </g>
     </g>
     <g id="text_1">
      <!-- 0 -->
      <g transform="translate(60.890909 243.558437) scale(0.1 -0.1)">
       <defs>
        <path id="DejaVuSans-30" d="M 2034 4250 
Q 1547 4250 1301 3770 
Q 1056 3291 1056 2328 
Q 1056 1369 1301 889 
Q 1547 409 2034 409 
Q 2525 409 2770 889 
Q 3016 1369 3016 2328 
Q 3016 3291 2770 3770 
Q 2525 4250 2034 4250 
z
M 2034 4750 
Q 2819 4750 3233 4129 
Q 3647 3509 3647 2328 
Q 3647 1150 3233 529 
Q 2819 -91 2034 -91 
Q 1250 -91 836 529 
Q 422 1150 422 2328 
Q 422 3509 836 4129 
Q 1250 4750 2034 4750 
z
" transform="scale(0.015625)"/>
       </defs>
       <use xlink:href="#DejaVuSans-30"/>
      </g>
     </g>
    </g>
    <g id="xtick_2">
     <g id="line2d_3">
      <path d="M 118.184858 228.96 
L 118.184858 7.2 
" clip-path="url(#p8546c36cfb)" style="fill: none; stroke-dasharray: 0.8,1.32; stroke-dashoffset: 0; stroke: #b0b0b0; stroke-opacity: 0.8; stroke-width: 0.8"/>
     </g>
     <g id="line2d_4">
      <g>
       <use xlink:href="#m415c05f42c" x="118.184858" y="228.96" style="stroke: #000000; stroke-width: 0.8"/>
      </g>
     </g>
     <g id="text_2">
      <!-- 2 -->
      <g transform="translate(115.003608 243.558437) scale(0.1 -0.1)">
       <defs>
        <path id="DejaVuSans-32" d="M 1228 531 
L 3431 531 
L 3431 0 
L 469 0 
L 469 531 
Q 828 903 1448 1529 
Q 2069 2156 2228 2338 
Q 2531 2678 2651 2914 
Q 2772 3150 2772 3378 
Q 2772 3750 2511 3984 
Q 2250 4219 1831 4219 
Q 1534 4219 1204 4116 
Q 875 4013 500 3803 
L 500 4441 
Q 881 4594 1212 4672 
Q 1544 4750 1819 4750 
Q 2544 4750 2975 4387 
Q 3406 4025 3406 3419 
Q 3406 3131 3298 2873 
Q 3191 2616 2906 2266 
Q 2828 2175 2409 1742 
Q 1991 1309 1228 531 
z
" transform="scale(0.015625)"/>
       </defs>
       <use xlink:href="#DejaVuSans-32"/>
      </g>
     </g>
    </g>
    <g id="xtick_3">
     <g id="line2d_5">
      <path d="M 172.297556 228.96 
L 172.297556 7.2 
" clip-path="url(#p8546c36cfb)" style="fill: none; stroke-dasharray: 0.8,1.32; stroke-dashoffset: 0; stroke: #b0b0b0; stroke-opacity: 0.8; stroke-width: 0.8"/>
     </g>
     <g id="line2d_6">
      <g>
       <use xlink:href="#m415c05f42c" x="172.297556" y="228.96" style="stroke: #000000; stroke-width: 0.8"/>
      </g>
     </g>
     <g id="text_3">
      <!-- 4 -->
      <g transform="translate(169.116306 243.558437) scale(0.1 -0.1)">
       <defs>
        <path id="DejaVuSans-34" d="M 2419 4116 
L 825 1625 
L 2419 1625 
L 2419 4116 
z
M 2253 4666 
L 3047 4666 
L 3047 1625 
L 3713 1625 
L 3713 1100 
L 3047 1100 
L 3047 0 
L 2419 0 
L 2419 1100 
L 313 1100 
L 313 1709 
L 2253 4666 
z
" transform="scale(0.015625)"/>
       </defs>
       <use xlink:href="#DejaVuSans-34"/>
      </g>
     </g>
    </g>
    <g id="xtick_4">
     <g id="line2d_7">
      <path d="M 226.410254 228.96 
L 226.410254 7.2 
" clip-path="url(#p8546c36cfb)" style="fill: none; stroke-dasharray: 0.8,1.32; stroke-dashoffset: 0; stroke: #b0b0b0; stroke-opacity: 0.8; stroke-width: 0.8"/>
     </g>
     <g id="line2d_8">
      <g>
       <use xlink:href="#m415c05f42c" x="226.410254" y="228.96" style="stroke: #000000; stroke-width: 0.8"/>
      </g>
     </g>
     <g id="text_4">
      <!-- 6 -->
      <g transform="translate(223.229004 243.558437) scale(0.1 -0.1)">
       <defs>
        <path id="DejaVuSans-36" d="M 2113 2584 
Q 1688 2584 1439 2293 
Q 1191 2003 1191 1497 
Q 1191 994 1439 701 
Q 1688 409 2113 409 
Q 2538 409 2786 701 
Q 3034 994 3034 1497 
Q 3034 2003 2786 2293 
Q 2538 2584 2113 2584 
z
M 3366 4563 
L 3366 3988 
Q 3128 4100 2886 4159 
Q 2644 4219 2406 4219 
Q 1781 4219 1451 3797 
Q 1122 3375 1075 2522 
Q 1259 2794 1537 2939 
Q 1816 3084 2150 3084 
Q 2853 3084 3261 2657 
Q 3669 2231 3669 1497 
Q 3669 778 3244 343 
Q 2819 -91 2113 -91 
Q 1303 -91 875 529 
Q 447 1150 447 2328 
Q 447 3434 972 4092 
Q 1497 4750 2381 4750 
Q 2619 4750 2861 4703 
Q 3103 4656 3366 4563 
z
" transform="scale(0.015625)"/>
       </defs>
       <use xlink:href="#DejaVuSans-36"/>
      </g>
     </g>
    </g>
    <g id="xtick_5">
     <g id="line2d_9">
      <path d="M 280.522953 228.96 
L 280.522953 7.2 
" clip-path="url(#p8546c36cfb)" style="fill: none; stroke-dasharray: 0.8,1.32; stroke-dashoffset: 0; stroke: #b0b0b0; stroke-opacity: 0.8; stroke-width: 0.8"/>
     </g>
     <g id="line2d_10">
      <g>
       <use xlink:href="#m415c05f42c" x="280.522953" y="228.96" style="stroke: #000000; stroke-width: 0.8"/>
      </g>
     </g>
     <g id="text_5">
      <!-- 8 -->
      <g transform="translate(277.341703 243.558437) scale(0.1 -0.1)">
       <defs>
        <path id="DejaVuSans-38" d="M 2034 2216 
Q 1584 2216 1326 1975 
Q 1069 1734 1069 1313 
Q 1069 891 1326 650 
Q 1584 409 2034 409 
Q 2484 409 2743 651 
Q 3003 894 3003 1313 
Q 3003 1734 2745 1975 
Q 2488 2216 2034 2216 
z
M 1403 2484 
Q 997 2584 770 2862 
Q 544 3141 544 3541 
Q 544 4100 942 4425 
Q 1341 4750 2034 4750 
Q 2731 4750 3128 4425 
Q 3525 4100 3525 3541 
Q 3525 3141 3298 2862 
Q 3072 2584 2669 2484 
Q 3125 2378 3379 2068 
Q 3634 1759 3634 1313 
Q 3634 634 3220 271 
Q 2806 -91 2034 -91 
Q 1263 -91 848 271 
Q 434 634 434 1313 
Q 434 1759 690 2068 
Q 947 2378 1403 2484 
z
M 1172 3481 
Q 1172 3119 1398 2916 
Q 1625 2713 2034 2713 
Q 2441 2713 2670 2916 
Q 2900 3119 2900 3481 
Q 2900 3844 2670 4047 
Q 2441 4250 2034 4250 
Q 1625 4250 1398 4047 
Q 1172 3844 1172 3481 
z
" transform="scale(0.015625)"/>
       </defs>
       <use xlink:href="#DejaVuSans-38"/>
      </g>
     </g>
    </g>
    <g id="xtick_6">
     <g id="line2d_11">
      <path d="M 334.635651 228.96 
L 334.635651 7.2 
" clip-path="url(#p8546c36cfb)" style="fill: none; stroke-dasharray: 0.8,1.32; stroke-dashoffset: 0; stroke: #b0b0b0; stroke-opacity: 0.8; stroke-width: 0.8"/>
     </g>
     <g id="line2d_12">
      <g>
       <use xlink:href="#m415c05f42c" x="334.635651" y="228.96" style="stroke: #000000; stroke-width: 0.8"/>
      </g>
     </g>
     <g id="text_6">
      <!-- 10 -->
      <g transform="translate(328.273151 243.558437) scale(0.1 -0.1)">
       <defs>
        <path id="DejaVuSans-31" d="M 794 531 
L 1825 531 
L 1825 4091 
L 703 3866 
L 703 4441 
L 1819 4666 
L 2450 4666 
L 2450 531 
L 3481 531 
L 3481 0 
L 794 0 
L 794 531 
z
" transform="scale(0.015625)"/>
       </defs>
       <use xlink:href="#DejaVuSans-31"/>
       <use xlink:href="#DejaVuSans-30" transform="translate(63.623047 0)"/>
      </g>
     </g>
    </g>
    <g id="xtick_7">
     <g id="line2d_13">
      <path d="M 388.74835 228.96 
L 388.74835 7.2 
" clip-path="url(#p8546c36cfb)" style="fill: none; stroke-dasharray: 0.8,1.32; stroke-dashoffset: 0; stroke: #b0b0b0; stroke-opacity: 0.8; stroke-width: 0.8"/>
     </g>
     <g id="line2d_14">
      <g>
       <use xlink:href="#m415c05f42c" x="388.74835" y="228.96" style="stroke: #000000; stroke-width: 0.8"/>
      </g>
     </g>
     <g id="text_7">
      <!-- 12 -->
      <g transform="translate(382.38585 243.558437) scale(0.1 -0.1)">
       <use xlink:href="#DejaVuSans-31"/>
       <use xlink:href="#DejaVuSans-32" transform="translate(63.623047 0)"/>
      </g>
     </g>
    </g>
    <g id="xtick_8">
     <g id="line2d_15">
      <path d="M 442.861048 228.96 
L 442.861048 7.2 
" clip-path="url(#p8546c36cfb)" style="fill: none; stroke-dasharray: 0.8,1.32; stroke-dashoffset: 0; stroke: #b0b0b0; stroke-opacity: 0.8; stroke-width: 0.8"/>
     </g>
     <g id="line2d_16">
      <g>
       <use xlink:href="#m415c05f42c" x="442.861048" y="228.96" style="stroke: #000000; stroke-width: 0.8"/>
      </g>
     </g>
     <g id="text_8">
      <!-- 14 -->
      <g transform="translate(436.498548 243.558437) scale(0.1 -0.1)">
       <use xlink:href="#DejaVuSans-31"/>
       <use xlink:href="#DejaVuSans-34" transform="translate(63.623047 0)"/>
      </g>
     </g>
    </g>
    <g id="text_9">
     <!-- step -->
     <g transform="translate(256.165625 257.236562) scale(0.1 -0.1)">
      <defs>
       <path id="DejaVuSans-73" d="M 2834 3397 
L 2834 2853 
Q 2591 2978 2328 3040 
Q 2066 3103 1784 3103 
Q 1356 3103 1142 2972 
Q 928 2841 928 2578 
Q 928 2378 1081 2264 
Q 1234 2150 1697 2047 
L 1894 2003 
Q 2506 1872 2764 1633 
Q 3022 1394 3022 966 
Q 3022 478 2636 193 
Q 2250 -91 1575 -91 
Q 1294 -91 989 -36 
Q 684 19 347 128 
L 347 722 
Q 666 556 975 473 
Q 1284 391 1588 391 
Q 1994 391 2212 530 
Q 2431 669 2431 922 
Q 2431 1156 2273 1281 
Q 2116 1406 1581 1522 
L 1381 1569 
Q 847 1681 609 1914 
Q 372 2147 372 2553 
Q 372 3047 722 3315 
Q 1072 3584 1716 3584 
Q 2034 3584 2315 3537 
Q 2597 3491 2834 3397 
z
" transform="scale(0.015625)"/>
       <path id="DejaVuSans-74" d="M 1172 4494 
L 1172 3500 
L 2356 3500 
L 2356 3053 
L 1172 3053 
L 1172 1153 
Q 1172 725 1289 603 
Q 1406 481 1766 481 
L 2356 481 
L 2356 0 
L 1766 0 
Q 1100 0 847 248 
Q 594 497 594 1153 
L 594 3053 
L 172 3053 
L 172 3500 
L 594 3500 
L 594 4494 
L 1172 4494 
z
" transform="scale(0.015625)"/>
       <path id="DejaVuSans-65" d="M 3597 1894 
L 3597 1613 
L 953 1613 
Q 991 1019 1311 708 
Q 1631 397 2203 397 
Q 2534 397 2845 478 
Q 3156 559 3463 722 
L 3463 178 
Q 3153 47 2828 -22 
Q 2503 -91 2169 -91 
Q 1331 -91 842 396 
Q 353 884 353 1716 
Q 353 2575 817 3079 
Q 1281 3584 2069 3584 
Q 2775 3584 3186 3129 
Q 3597 2675 3597 1894 
z
M 3022 2063 
Q 3016 2534 2758 2815 
Q 2500 3097 2075 3097 
Q 1594 3097 1305 2825 
Q 1016 2553 972 2059 
L 3022 2063 
z
" transform="scale(0.015625)"/>
       <path id="DejaVuSans-70" d="M 1159 525 
L 1159 -1331 
L 581 -1331 
L 581 3500 
L 1159 3500 
L 1159 2969 
Q 1341 3281 1617 3432 
Q 1894 3584 2278 3584 
Q 2916 3584 3314 3078 
Q 3713 2572 3713 1747 
Q 3713 922 3314 415 
Q 2916 -91 2278 -91 
Q 1894 -91 1617 61 
Q 1341 213 1159 525 
z
M 3116 1747 
Q 3116 2381 2855 2742 
Q 2594 3103 2138 3103 
Q 1681 3103 1420 2742 
Q 1159 2381 1159 1747 
Q 1159 1113 1420 752 
Q 1681 391 2138 391 
Q 2594 391 2855 752 
Q 3116 1113 3116 1747 
z
" transform="scale(0.015625)"/>
      </defs>
      <use xlink:href="#DejaVuSans-73"/>
      <use xlink:href="#DejaVuSans-74" transform="translate(52.099609 0)"/>
      <use xlink:href="#DejaVuSans-65" transform="translate(91.308594 0)"/>
      <use xlink:href="#DejaVuSans-70" transform="translate(152.832031 0)"/>
     </g>
    </g>
    <g id="text_10">
     <!-- 1e3 -->
     <g transform="translate(471.303125 256.236562) scale(0.1 -0.1)">
      <defs>
       <path id="DejaVuSans-33" d="M 2597 2516 
Q 3050 2419 3304 2112 
Q 3559 1806 3559 1356 
Q 3559 666 3084 287 
Q 2609 -91 1734 -91 
Q 1441 -91 1130 -33 
Q 819 25 488 141 
L 488 750 
Q 750 597 1062 519 
Q 1375 441 1716 441 
Q 2309 441 2620 675 
Q 2931 909 2931 1356 
Q 2931 1769 2642 2001 
Q 2353 2234 1838 2234 
L 1294 2234 
L 1294 2753 
L 1863 2753 
Q 2328 2753 2575 2939 
Q 2822 3125 2822 3475 
Q 2822 3834 2567 4026 
Q 2313 4219 1838 4219 
Q 1578 4219 1281 4162 
Q 984 4106 628 3988 
L 628 4550 
Q 988 4650 1302 4700 
Q 1616 4750 1894 4750 
Q 2613 4750 3031 4423 
Q 3450 4097 3450 3541 
Q 3450 3153 3228 2886 
Q 3006 2619 2597 2516 
z
" transform="scale(0.015625)"/>
      </defs>
      <use xlink:href="#DejaVuSans-31"/>
      <use xlink:href="#DejaVuSans-65" transform="translate(63.623047 0)"/>
      <use xlink:href="#DejaVuSans-33" transform="translate(125.146484 0)"/>
     </g>
    </g>
   </g>
   <g id="matplotlib.axis_2">
    <g id="ytick_1">
     <g id="line2d_17">
      <path d="M 43.78125 227.468864 
L 490.18125 227.468864 
" clip-path="url(#p8546c36cfb)" style="fill: none; stroke-dasharray: 0.8,1.32; stroke-dashoffset: 0; stroke: #b0b0b0; stroke-opacity: 0.8; stroke-width: 0.8"/>
     </g>
     <g id="line2d_18">
      <defs>
       <path id="m2ad7935618" d="M 0 0 
L -3.5 0 
" style="stroke: #000000; stroke-width: 0.8"/>
      </defs>
      <g>
       <use xlink:href="#m2ad7935618" x="43.78125" y="227.468864" style="stroke: #000000; stroke-width: 0.8"/>
      </g>
     </g>
     <g id="text_11">
      <!-- 0.0 -->
      <g transform="translate(20.878125 231.268082) scale(0.1 -0.1)">
       <defs>
        <path id="DejaVuSans-2e" d="M 684 794 
L 1344 794 
L 1344 0 
L 684 0 
L 684 794 
z
" transform="scale(0.015625)"/>
       </defs>
       <use xlink:href="#DejaVuSans-30"/>
       <use xlink:href="#DejaVuSans-2e" transform="translate(63.623047 0)"/>
       <use xlink:href="#DejaVuSans-30" transform="translate(95.410156 0)"/>
      </g>
     </g>
    </g>
    <g id="ytick_2">
     <g id="line2d_19">
      <path d="M 43.78125 196.768474 
L 490.18125 196.768474 
" clip-path="url(#p8546c36cfb)" style="fill: none; stroke-dasharray: 0.8,1.32; stroke-dashoffset: 0; stroke: #b0b0b0; stroke-opacity: 0.8; stroke-width: 0.8"/>
     </g>
     <g id="line2d_20">
      <g>
       <use xlink:href="#m2ad7935618" x="43.78125" y="196.768474" style="stroke: #000000; stroke-width: 0.8"/>
      </g>
     </g>
     <g id="text_12">
      <!-- 0.1 -->
      <g transform="translate(20.878125 200.567693) scale(0.1 -0.1)">
       <use xlink:href="#DejaVuSans-30"/>
       <use xlink:href="#DejaVuSans-2e" transform="translate(63.623047 0)"/>
       <use xlink:href="#DejaVuSans-31" transform="translate(95.410156 0)"/>
      </g>
     </g>
    </g>
    <g id="ytick_3">
     <g id="line2d_21">
      <path d="M 43.78125 166.068085 
L 490.18125 166.068085 
" clip-path="url(#p8546c36cfb)" style="fill: none; stroke-dasharray: 0.8,1.32; stroke-dashoffset: 0; stroke: #b0b0b0; stroke-opacity: 0.8; stroke-width: 0.8"/>
     </g>
     <g id="line2d_22">
      <g>
       <use xlink:href="#m2ad7935618" x="43.78125" y="166.068085" style="stroke: #000000; stroke-width: 0.8"/>
      </g>
     </g>
     <g id="text_13">
      <!-- 0.2 -->
      <g transform="translate(20.878125 169.867303) scale(0.1 -0.1)">
       <use xlink:href="#DejaVuSans-30"/>
       <use xlink:href="#DejaVuSans-2e" transform="translate(63.623047 0)"/>
       <use xlink:href="#DejaVuSans-32" transform="translate(95.410156 0)"/>
      </g>
     </g>
    </g>
    <g id="ytick_4">
     <g id="line2d_23">
      <path d="M 43.78125 135.367695 
L 490.18125 135.367695 
" clip-path="url(#p8546c36cfb)" style="fill: none; stroke-dasharray: 0.8,1.32; stroke-dashoffset: 0; stroke: #b0b0b0; stroke-opacity: 0.8; stroke-width: 0.8"/>
     </g>
     <g id="line2d_24">
      <g>
       <use xlink:href="#m2ad7935618" x="43.78125" y="135.367695" style="stroke: #000000; stroke-width: 0.8"/>
      </g>
     </g>
     <g id="text_14">
      <!-- 0.3 -->
      <g transform="translate(20.878125 139.166914) scale(0.1 -0.1)">
       <use xlink:href="#DejaVuSans-30"/>
       <use xlink:href="#DejaVuSans-2e" transform="translate(63.623047 0)"/>
       <use xlink:href="#DejaVuSans-33" transform="translate(95.410156 0)"/>
      </g>
     </g>
    </g>
    <g id="ytick_5">
     <g id="line2d_25">
      <path d="M 43.78125 104.667306 
L 490.18125 104.667306 
" clip-path="url(#p8546c36cfb)" style="fill: none; stroke-dasharray: 0.8,1.32; stroke-dashoffset: 0; stroke: #b0b0b0; stroke-opacity: 0.8; stroke-width: 0.8"/>
     </g>
     <g id="line2d_26">
      <g>
       <use xlink:href="#m2ad7935618" x="43.78125" y="104.667306" style="stroke: #000000; stroke-width: 0.8"/>
      </g>
     </g>
     <g id="text_15">
      <!-- 0.4 -->
      <g transform="translate(20.878125 108.466524) scale(0.1 -0.1)">
       <use xlink:href="#DejaVuSans-30"/>
       <use xlink:href="#DejaVuSans-2e" transform="translate(63.623047 0)"/>
       <use xlink:href="#DejaVuSans-34" transform="translate(95.410156 0)"/>
      </g>
     </g>
    </g>
    <g id="ytick_6">
     <g id="line2d_27">
      <path d="M 43.78125 73.966916 
L 490.18125 73.966916 
" clip-path="url(#p8546c36cfb)" style="fill: none; stroke-dasharray: 0.8,1.32; stroke-dashoffset: 0; stroke: #b0b0b0; stroke-opacity: 0.8; stroke-width: 0.8"/>
     </g>
     <g id="line2d_28">
      <g>
       <use xlink:href="#m2ad7935618" x="43.78125" y="73.966916" style="stroke: #000000; stroke-width: 0.8"/>
      </g>
     </g>
     <g id="text_16">
      <!-- 0.5 -->
      <g transform="translate(20.878125 77.766135) scale(0.1 -0.1)">
       <defs>
        <path id="DejaVuSans-35" d="M 691 4666 
L 3169 4666 
L 3169 4134 
L 1269 4134 
L 1269 2991 
Q 1406 3038 1543 3061 
Q 1681 3084 1819 3084 
Q 2600 3084 3056 2656 
Q 3513 2228 3513 1497 
Q 3513 744 3044 326 
Q 2575 -91 1722 -91 
Q 1428 -91 1123 -41 
Q 819 9 494 109 
L 494 744 
Q 775 591 1075 516 
Q 1375 441 1709 441 
Q 2250 441 2565 725 
Q 2881 1009 2881 1497 
Q 2881 1984 2565 2268 
Q 2250 2553 1709 2553 
Q 1456 2553 1204 2497 
Q 953 2441 691 2322 
L 691 4666 
z
" transform="scale(0.015625)"/>
       </defs>
       <use xlink:href="#DejaVuSans-30"/>
       <use xlink:href="#DejaVuSans-2e" transform="translate(63.623047 0)"/>
       <use xlink:href="#DejaVuSans-35" transform="translate(95.410156 0)"/>
      </g>
     </g>
    </g>
    <g id="ytick_7">
     <g id="line2d_29">
      <path d="M 43.78125 43.266527 
L 490.18125 43.266527 
" clip-path="url(#p8546c36cfb)" style="fill: none; stroke-dasharray: 0.8,1.32; stroke-dashoffset: 0; stroke: #b0b0b0; stroke-opacity: 0.8; stroke-width: 0.8"/>
     </g>
     <g id="line2d_30">
      <g>
       <use xlink:href="#m2ad7935618" x="43.78125" y="43.266527" style="stroke: #000000; stroke-width: 0.8"/>
      </g>
     </g>
     <g id="text_17">
      <!-- 0.6 -->
      <g transform="translate(20.878125 47.065746) scale(0.1 -0.1)">
       <use xlink:href="#DejaVuSans-30"/>
       <use xlink:href="#DejaVuSans-2e" transform="translate(63.623047 0)"/>
       <use xlink:href="#DejaVuSans-36" transform="translate(95.410156 0)"/>
      </g>
     </g>
    </g>
    <g id="ytick_8">
     <g id="line2d_31">
      <path d="M 43.78125 12.566137 
L 490.18125 12.566137 
" clip-path="url(#p8546c36cfb)" style="fill: none; stroke-dasharray: 0.8,1.32; stroke-dashoffset: 0; stroke: #b0b0b0; stroke-opacity: 0.8; stroke-width: 0.8"/>
     </g>
     <g id="line2d_32">
      <g>
       <use xlink:href="#m2ad7935618" x="43.78125" y="12.566137" style="stroke: #000000; stroke-width: 0.8"/>
      </g>
     </g>
     <g id="text_18">
      <!-- 0.7 -->
      <g transform="translate(20.878125 16.365356) scale(0.1 -0.1)">
       <defs>
        <path id="DejaVuSans-37" d="M 525 4666 
L 3525 4666 
L 3525 4397 
L 1831 0 
L 1172 0 
L 2766 4134 
L 525 4134 
L 525 4666 
z
" transform="scale(0.015625)"/>
       </defs>
       <use xlink:href="#DejaVuSans-30"/>
       <use xlink:href="#DejaVuSans-2e" transform="translate(63.623047 0)"/>
       <use xlink:href="#DejaVuSans-37" transform="translate(95.410156 0)"/>
      </g>
     </g>
    </g>
    <g id="text_19">
     <!-- Batch train loss -->
     <g style="fill: #0000ff" transform="translate(14.798438 156.926094) rotate(-90) scale(0.1 -0.1)">
      <defs>
       <path id="DejaVuSans-42" d="M 1259 2228 
L 1259 519 
L 2272 519 
Q 2781 519 3026 730 
Q 3272 941 3272 1375 
Q 3272 1813 3026 2020 
Q 2781 2228 2272 2228 
L 1259 2228 
z
M 1259 4147 
L 1259 2741 
L 2194 2741 
Q 2656 2741 2882 2914 
Q 3109 3088 3109 3444 
Q 3109 3797 2882 3972 
Q 2656 4147 2194 4147 
L 1259 4147 
z
M 628 4666 
L 2241 4666 
Q 2963 4666 3353 4366 
Q 3744 4066 3744 3513 
Q 3744 3084 3544 2831 
Q 3344 2578 2956 2516 
Q 3422 2416 3680 2098 
Q 3938 1781 3938 1306 
Q 3938 681 3513 340 
Q 3088 0 2303 0 
L 628 0 
L 628 4666 
z
" transform="scale(0.015625)"/>
       <path id="DejaVuSans-61" d="M 2194 1759 
Q 1497 1759 1228 1600 
Q 959 1441 959 1056 
Q 959 750 1161 570 
Q 1363 391 1709 391 
Q 2188 391 2477 730 
Q 2766 1069 2766 1631 
L 2766 1759 
L 2194 1759 
z
M 3341 1997 
L 3341 0 
L 2766 0 
L 2766 531 
Q 2569 213 2275 61 
Q 1981 -91 1556 -91 
Q 1019 -91 701 211 
Q 384 513 384 1019 
Q 384 1609 779 1909 
Q 1175 2209 1959 2209 
L 2766 2209 
L 2766 2266 
Q 2766 2663 2505 2880 
Q 2244 3097 1772 3097 
Q 1472 3097 1187 3025 
Q 903 2953 641 2809 
L 641 3341 
Q 956 3463 1253 3523 
Q 1550 3584 1831 3584 
Q 2591 3584 2966 3190 
Q 3341 2797 3341 1997 
z
" transform="scale(0.015625)"/>
       <path id="DejaVuSans-63" d="M 3122 3366 
L 3122 2828 
Q 2878 2963 2633 3030 
Q 2388 3097 2138 3097 
Q 1578 3097 1268 2742 
Q 959 2388 959 1747 
Q 959 1106 1268 751 
Q 1578 397 2138 397 
Q 2388 397 2633 464 
Q 2878 531 3122 666 
L 3122 134 
Q 2881 22 2623 -34 
Q 2366 -91 2075 -91 
Q 1284 -91 818 406 
Q 353 903 353 1747 
Q 353 2603 823 3093 
Q 1294 3584 2113 3584 
Q 2378 3584 2631 3529 
Q 2884 3475 3122 3366 
z
" transform="scale(0.015625)"/>
       <path id="DejaVuSans-68" d="M 3513 2113 
L 3513 0 
L 2938 0 
L 2938 2094 
Q 2938 2591 2744 2837 
Q 2550 3084 2163 3084 
Q 1697 3084 1428 2787 
Q 1159 2491 1159 1978 
L 1159 0 
L 581 0 
L 581 4863 
L 1159 4863 
L 1159 2956 
Q 1366 3272 1645 3428 
Q 1925 3584 2291 3584 
Q 2894 3584 3203 3211 
Q 3513 2838 3513 2113 
z
" transform="scale(0.015625)"/>
       <path id="DejaVuSans-20" transform="scale(0.015625)"/>
       <path id="DejaVuSans-72" d="M 2631 2963 
Q 2534 3019 2420 3045 
Q 2306 3072 2169 3072 
Q 1681 3072 1420 2755 
Q 1159 2438 1159 1844 
L 1159 0 
L 581 0 
L 581 3500 
L 1159 3500 
L 1159 2956 
Q 1341 3275 1631 3429 
Q 1922 3584 2338 3584 
Q 2397 3584 2469 3576 
Q 2541 3569 2628 3553 
L 2631 2963 
z
" transform="scale(0.015625)"/>
       <path id="DejaVuSans-69" d="M 603 3500 
L 1178 3500 
L 1178 0 
L 603 0 
L 603 3500 
z
M 603 4863 
L 1178 4863 
L 1178 4134 
L 603 4134 
L 603 4863 
z
" transform="scale(0.015625)"/>
       <path id="DejaVuSans-6e" d="M 3513 2113 
L 3513 0 
L 2938 0 
L 2938 2094 
Q 2938 2591 2744 2837 
Q 2550 3084 2163 3084 
Q 1697 3084 1428 2787 
Q 1159 2491 1159 1978 
L 1159 0 
L 581 0 
L 581 3500 
L 1159 3500 
L 1159 2956 
Q 1366 3272 1645 3428 
Q 1925 3584 2291 3584 
Q 2894 3584 3203 3211 
Q 3513 2838 3513 2113 
z
" transform="scale(0.015625)"/>
       <path id="DejaVuSans-6c" d="M 603 4863 
L 1178 4863 
L 1178 0 
L 603 0 
L 603 4863 
z
" transform="scale(0.015625)"/>
       <path id="DejaVuSans-6f" d="M 1959 3097 
Q 1497 3097 1228 2736 
Q 959 2375 959 1747 
Q 959 1119 1226 758 
Q 1494 397 1959 397 
Q 2419 397 2687 759 
Q 2956 1122 2956 1747 
Q 2956 2369 2687 2733 
Q 2419 3097 1959 3097 
z
M 1959 3584 
Q 2709 3584 3137 3096 
Q 3566 2609 3566 1747 
Q 3566 888 3137 398 
Q 2709 -91 1959 -91 
Q 1206 -91 779 398 
Q 353 888 353 1747 
Q 353 2609 779 3096 
Q 1206 3584 1959 3584 
z
" transform="scale(0.015625)"/>
      </defs>
      <use xlink:href="#DejaVuSans-42"/>
      <use xlink:href="#DejaVuSans-61" transform="translate(68.603516 0)"/>
      <use xlink:href="#DejaVuSans-74" transform="translate(129.882812 0)"/>
      <use xlink:href="#DejaVuSans-63" transform="translate(169.091797 0)"/>
      <use xlink:href="#DejaVuSans-68" transform="translate(224.072266 0)"/>
      <use xlink:href="#DejaVuSans-20" transform="translate(287.451172 0)"/>
      <use xlink:href="#DejaVuSans-74" transform="translate(319.238281 0)"/>
      <use xlink:href="#DejaVuSans-72" transform="translate(358.447266 0)"/>
      <use xlink:href="#DejaVuSans-61" transform="translate(399.560547 0)"/>
      <use xlink:href="#DejaVuSans-69" transform="translate(460.839844 0)"/>
      <use xlink:href="#DejaVuSans-6e" transform="translate(488.623047 0)"/>
      <use xlink:href="#DejaVuSans-20" transform="translate(552.001953 0)"/>
      <use xlink:href="#DejaVuSans-6c" transform="translate(583.789062 0)"/>
      <use xlink:href="#DejaVuSans-6f" transform="translate(611.572266 0)"/>
      <use xlink:href="#DejaVuSans-73" transform="translate(672.753906 0)"/>
      <use xlink:href="#DejaVuSans-73" transform="translate(724.853516 0)"/>
     </g>
    </g>
   </g>
   <g id="line2d_33">
    <path d="M 64.072159 17.28 
L 64.992075 20.080768 
L 65.966104 22.352077 
L 67.048358 24.31635 
L 68.347062 26.199925 
L 70.186894 28.435734 
L 74.948811 34.072533 
L 76.978038 36.907721 
L 78.871982 39.938872 
L 80.711814 43.303538 
L 82.605758 47.245844 
L 84.553815 51.829068 
L 86.664211 57.379203 
L 89.126338 64.51594 
L 92.481326 74.997636 
L 99.272469 96.330445 
L 102.329837 105.105525 
L 105.170754 112.59006 
L 107.930501 119.237449 
L 110.663192 125.249393 
L 113.449996 130.846849 
L 116.290913 136.054658 
L 119.212999 140.943774 
L 122.189197 145.491397 
L 125.246565 149.761555 
L 128.439214 153.837109 
L 131.713032 157.65732 
L 135.122132 161.294676 
L 138.639458 164.726055 
L 142.319121 168.00742 
L 146.188179 171.157641 
L 150.219575 174.151458 
L 154.440365 177.007768 
L 158.877607 179.740373 
L 163.531299 182.344598 
L 168.509667 184.87027 
L 173.704486 187.254753 
L 179.223981 189.543176 
L 185.122265 191.745943 
L 191.426395 193.860257 
L 198.217538 195.898939 
L 205.522753 197.854909 
L 213.423207 199.734792 
L 221.945957 201.530573 
L 231.199228 203.250753 
L 241.318303 204.903341 
L 252.38435 206.483827 
L 264.694988 208.013088 
L 278.331388 209.477499 
L 293.51 210.878389 
L 310.420219 212.211711 
L 329.549058 213.491297 
L 351.167081 214.708719 
L 375.842471 215.86908 
L 404.062243 216.967589 
L 436.827482 218.013011 
L 469.890341 218.88 
L 469.890341 218.88 
" clip-path="url(#p8546c36cfb)" style="fill: none; stroke: #0000ff; stroke-width: 2; stroke-linecap: square"/>
   </g>
   <g id="patch_3">
    <path d="M 43.78125 228.96 
L 43.78125 7.2 
" style="fill: none; stroke: #000000; stroke-width: 0.8; stroke-linejoin: miter; stroke-linecap: square"/>
   </g>
   <g id="patch_4">
    <path d="M 490.18125 228.96 
L 490.18125 7.2 
" style="fill: none; stroke: #000000; stroke-width: 0.8; stroke-linejoin: miter; stroke-linecap: square"/>
   </g>
   <g id="patch_5">
    <path d="M 43.78125 228.96 
L 490.18125 228.96 
" style="fill: none; stroke: #000000; stroke-width: 0.8; stroke-linejoin: miter; stroke-linecap: square"/>
   </g>
   <g id="patch_6">
    <path d="M 43.78125 7.2 
L 490.18125 7.2 
" style="fill: none; stroke: #000000; stroke-width: 0.8; stroke-linejoin: miter; stroke-linecap: square"/>
   </g>
  </g>
  <g id="axes_2">
   <g id="matplotlib.axis_3">
    <g id="ytick_9">
     <g id="line2d_34">
      <defs>
       <path id="m7ac9c0d038" d="M 0 0 
L 3.5 0 
" style="stroke: #000000; stroke-width: 0.8"/>
      </defs>
      <g>
       <use xlink:href="#m7ac9c0d038" x="490.18125" y="226.312251" style="stroke: #000000; stroke-width: 0.8"/>
      </g>
     </g>
     <g id="text_20">
      <!-- 70 -->
      <g transform="translate(497.18125 230.111469) scale(0.1 -0.1)">
       <use xlink:href="#DejaVuSans-37"/>
       <use xlink:href="#DejaVuSans-30" transform="translate(63.623047 0)"/>
      </g>
     </g>
    </g>
    <g id="ytick_10">
     <g id="line2d_35">
      <g>
       <use xlink:href="#m7ac9c0d038" x="490.18125" y="191.473542" style="stroke: #000000; stroke-width: 0.8"/>
      </g>
     </g>
     <g id="text_21">
      <!-- 75 -->
      <g transform="translate(497.18125 195.272761) scale(0.1 -0.1)">
       <use xlink:href="#DejaVuSans-37"/>
       <use xlink:href="#DejaVuSans-35" transform="translate(63.623047 0)"/>
      </g>
     </g>
    </g>
    <g id="ytick_11">
     <g id="line2d_36">
      <g>
       <use xlink:href="#m7ac9c0d038" x="490.18125" y="156.634834" style="stroke: #000000; stroke-width: 0.8"/>
      </g>
     </g>
     <g id="text_22">
      <!-- 80 -->
      <g transform="translate(497.18125 160.434053) scale(0.1 -0.1)">
       <use xlink:href="#DejaVuSans-38"/>
       <use xlink:href="#DejaVuSans-30" transform="translate(63.623047 0)"/>
      </g>
     </g>
    </g>
    <g id="ytick_12">
     <g id="line2d_37">
      <g>
       <use xlink:href="#m7ac9c0d038" x="490.18125" y="121.796125" style="stroke: #000000; stroke-width: 0.8"/>
      </g>
     </g>
     <g id="text_23">
      <!-- 85 -->
      <g transform="translate(497.18125 125.595344) scale(0.1 -0.1)">
       <use xlink:href="#DejaVuSans-38"/>
       <use xlink:href="#DejaVuSans-35" transform="translate(63.623047 0)"/>
      </g>
     </g>
    </g>
    <g id="ytick_13">
     <g id="line2d_38">
      <g>
       <use xlink:href="#m7ac9c0d038" x="490.18125" y="86.957417" style="stroke: #000000; stroke-width: 0.8"/>
      </g>
     </g>
     <g id="text_24">
      <!-- 90 -->
      <g transform="translate(497.18125 90.756636) scale(0.1 -0.1)">
       <defs>
        <path id="DejaVuSans-39" d="M 703 97 
L 703 672 
Q 941 559 1184 500 
Q 1428 441 1663 441 
Q 2288 441 2617 861 
Q 2947 1281 2994 2138 
Q 2813 1869 2534 1725 
Q 2256 1581 1919 1581 
Q 1219 1581 811 2004 
Q 403 2428 403 3163 
Q 403 3881 828 4315 
Q 1253 4750 1959 4750 
Q 2769 4750 3195 4129 
Q 3622 3509 3622 2328 
Q 3622 1225 3098 567 
Q 2575 -91 1691 -91 
Q 1453 -91 1209 -44 
Q 966 3 703 97 
z
M 1959 2075 
Q 2384 2075 2632 2365 
Q 2881 2656 2881 3163 
Q 2881 3666 2632 3958 
Q 2384 4250 1959 4250 
Q 1534 4250 1286 3958 
Q 1038 3666 1038 3163 
Q 1038 2656 1286 2365 
Q 1534 2075 1959 2075 
z
" transform="scale(0.015625)"/>
       </defs>
       <use xlink:href="#DejaVuSans-39"/>
       <use xlink:href="#DejaVuSans-30" transform="translate(63.623047 0)"/>
      </g>
     </g>
    </g>
    <g id="ytick_14">
     <g id="line2d_39">
      <g>
       <use xlink:href="#m7ac9c0d038" x="490.18125" y="52.118708" style="stroke: #000000; stroke-width: 0.8"/>
      </g>
     </g>
     <g id="text_25">
      <!-- 95 -->
      <g transform="translate(497.18125 55.917927) scale(0.1 -0.1)">
       <use xlink:href="#DejaVuSans-39"/>
       <use xlink:href="#DejaVuSans-35" transform="translate(63.623047 0)"/>
      </g>
     </g>
    </g>
    <g id="ytick_15">
     <g id="line2d_40">
      <g>
       <use xlink:href="#m7ac9c0d038" x="490.18125" y="17.28" style="stroke: #000000; stroke-width: 0.8"/>
      </g>
     </g>
     <g id="text_26">
      <!-- 100 -->
      <g transform="translate(497.18125 21.079219) scale(0.1 -0.1)">
       <use xlink:href="#DejaVuSans-31"/>
       <use xlink:href="#DejaVuSans-30" transform="translate(63.623047 0)"/>
       <use xlink:href="#DejaVuSans-30" transform="translate(127.246094 0)"/>
      </g>
     </g>
    </g>
    <g id="text_27">
     <!-- Batch train acc (%) -->
     <g style="fill: #ff0000" transform="translate(527.867188 166.072187) rotate(-90) scale(0.1 -0.1)">
      <defs>
       <path id="DejaVuSans-28" d="M 1984 4856 
Q 1566 4138 1362 3434 
Q 1159 2731 1159 2009 
Q 1159 1288 1364 580 
Q 1569 -128 1984 -844 
L 1484 -844 
Q 1016 -109 783 600 
Q 550 1309 550 2009 
Q 550 2706 781 3412 
Q 1013 4119 1484 4856 
L 1984 4856 
z
" transform="scale(0.015625)"/>
       <path id="DejaVuSans-25" d="M 4653 2053 
Q 4381 2053 4226 1822 
Q 4072 1591 4072 1178 
Q 4072 772 4226 539 
Q 4381 306 4653 306 
Q 4919 306 5073 539 
Q 5228 772 5228 1178 
Q 5228 1588 5073 1820 
Q 4919 2053 4653 2053 
z
M 4653 2450 
Q 5147 2450 5437 2106 
Q 5728 1763 5728 1178 
Q 5728 594 5436 251 
Q 5144 -91 4653 -91 
Q 4153 -91 3862 251 
Q 3572 594 3572 1178 
Q 3572 1766 3864 2108 
Q 4156 2450 4653 2450 
z
M 1428 4353 
Q 1159 4353 1004 4120 
Q 850 3888 850 3481 
Q 850 3069 1003 2837 
Q 1156 2606 1428 2606 
Q 1700 2606 1854 2837 
Q 2009 3069 2009 3481 
Q 2009 3884 1853 4118 
Q 1697 4353 1428 4353 
z
M 4250 4750 
L 4750 4750 
L 1831 -91 
L 1331 -91 
L 4250 4750 
z
M 1428 4750 
Q 1922 4750 2215 4408 
Q 2509 4066 2509 3481 
Q 2509 2891 2217 2550 
Q 1925 2209 1428 2209 
Q 931 2209 642 2551 
Q 353 2894 353 3481 
Q 353 4063 643 4406 
Q 934 4750 1428 4750 
z
" transform="scale(0.015625)"/>
       <path id="DejaVuSans-29" d="M 513 4856 
L 1013 4856 
Q 1481 4119 1714 3412 
Q 1947 2706 1947 2009 
Q 1947 1309 1714 600 
Q 1481 -109 1013 -844 
L 513 -844 
Q 928 -128 1133 580 
Q 1338 1288 1338 2009 
Q 1338 2731 1133 3434 
Q 928 4138 513 4856 
z
" transform="scale(0.015625)"/>
      </defs>
      <use xlink:href="#DejaVuSans-42"/>
      <use xlink:href="#DejaVuSans-61" transform="translate(68.603516 0)"/>
      <use xlink:href="#DejaVuSans-74" transform="translate(129.882812 0)"/>
      <use xlink:href="#DejaVuSans-63" transform="translate(169.091797 0)"/>
      <use xlink:href="#DejaVuSans-68" transform="translate(224.072266 0)"/>
      <use xlink:href="#DejaVuSans-20" transform="translate(287.451172 0)"/>
      <use xlink:href="#DejaVuSans-74" transform="translate(319.238281 0)"/>
      <use xlink:href="#DejaVuSans-72" transform="translate(358.447266 0)"/>
      <use xlink:href="#DejaVuSans-61" transform="translate(399.560547 0)"/>
      <use xlink:href="#DejaVuSans-69" transform="translate(460.839844 0)"/>
      <use xlink:href="#DejaVuSans-6e" transform="translate(488.623047 0)"/>
      <use xlink:href="#DejaVuSans-20" transform="translate(552.001953 0)"/>
      <use xlink:href="#DejaVuSans-61" transform="translate(583.789062 0)"/>
      <use xlink:href="#DejaVuSans-63" transform="translate(645.068359 0)"/>
      <use xlink:href="#DejaVuSans-63" transform="translate(700.048828 0)"/>
      <use xlink:href="#DejaVuSans-20" transform="translate(755.029297 0)"/>
      <use xlink:href="#DejaVuSans-28" transform="translate(786.816406 0)"/>
      <use xlink:href="#DejaVuSans-25" transform="translate(825.830078 0)"/>
      <use xlink:href="#DejaVuSans-29" transform="translate(920.849609 0)"/>
     </g>
    </g>
   </g>
   <g id="line2d_41">
    <path d="M 64.072159 218.415491 
L 64.099215 218.415491 
L 64.180384 218.183236 
L 64.207441 218.415491 
L 64.234497 218.647692 
L 64.315666 218.415491 
L 64.342723 218.415491 
L 64.396835 218.88 
L 64.450948 218.647692 
L 64.613286 218.183236 
L 64.640342 218.183236 
L 64.937962 216.557402 
L 64.992075 216.557402 
L 65.046188 216.325147 
L 65.1003 216.557402 
L 65.154413 216.557402 
L 65.289695 216.789656 
L 65.316751 216.789656 
L 65.370864 217.021964 
L 65.424977 216.789656 
L 65.533202 216.092893 
L 65.587315 216.325147 
L 65.722596 216.325147 
L 65.966104 215.163875 
L 66.047273 215.628384 
L 66.101385 215.396129 
L 66.155498 215.396129 
L 66.317836 215.860638 
L 66.534287 214.93162 
L 66.615456 214.93162 
L 66.642512 215.163875 
L 66.696625 214.699366 
L 66.80485 214.002549 
L 66.831907 214.234857 
L 66.967188 214.234857 
L 67.10247 214.699366 
L 67.183639 214.234857 
L 67.210696 214.467111 
L 67.373034 214.467111 
L 67.616541 213.305785 
L 67.643597 213.305785 
L 67.670654 212.841276 
L 67.751823 213.305785 
L 67.914161 212.841276 
L 67.941217 212.841276 
L 68.076499 212.609022 
L 68.29295 212.609022 
L 68.320006 212.841276 
L 68.401175 212.609022 
L 68.455288 212.609022 
L 68.536457 212.841276 
L 68.563513 212.609022 
L 68.590569 212.376767 
L 68.671738 212.609022 
L 68.698795 212.609022 
L 68.725851 212.376767 
L 68.80702 212.609022 
L 68.888189 212.609022 
L 69.023471 211.912258 
L 69.077584 211.912258 
L 69.266978 211.215442 
L 69.483429 211.215442 
L 69.69988 210.286477 
L 69.781049 210.286477 
L 69.916331 209.821915 
L 69.970443 210.054169 
L 70.024556 209.821915 
L 70.051612 209.821915 
L 70.186894 209.589713 
L 70.241007 209.589713 
L 70.403345 209.125151 
L 70.51157 209.125151 
L 70.646852 208.892896 
L 70.673908 208.892896 
L 70.700965 208.660642 
L 70.782134 208.892896 
L 70.80919 208.892896 
L 70.971528 208.428387 
L 71.160923 208.428387 
L 71.296204 208.196133 
L 71.323261 208.196133 
L 71.539711 207.267115 
L 71.647937 207.267115 
L 71.810275 206.802606 
L 71.837331 206.802606 
L 72.026726 206.105842 
L 72.21612 206.105842 
L 72.486684 204.712262 
L 72.567853 204.712262 
L 72.757247 204.015499 
L 72.784304 204.015499 
L 72.946642 203.550936 
L 73.081923 203.550936 
L 73.541881 200.531628 
L 73.568938 200.531628 
L 73.731276 199.602557 
L 73.893614 199.138047 
L 73.947727 199.138047 
L 74.353572 196.583248 
L 74.488854 196.583248 
L 74.624135 196.350993 
L 74.786473 196.350993 
L 75.057037 194.957413 
L 75.192319 194.957413 
L 75.3276 194.26065 
L 75.354657 194.26065 
L 75.652277 192.634815 
L 75.679333 192.634815 
L 75.814615 192.402613 
L 75.92284 192.402613 
L 76.112234 191.705797 
L 76.22046 191.705797 
L 76.626305 189.150944 
L 76.653361 189.150944 
L 76.923925 187.757417 
L 76.978038 187.757417 
L 77.194488 186.828399 
L 77.275658 186.828399 
L 77.465052 186.131635 
L 77.573277 186.131635 
L 77.735615 185.667073 
L 77.762672 185.667073 
L 77.979123 184.738055 
L 78.033235 184.738055 
L 78.168517 184.041292 
L 78.276742 184.041292 
L 78.439081 183.576783 
L 78.601419 183.576783 
L 78.7367 183.344528 
L 78.817869 183.344528 
L 79.03432 182.415457 
L 79.115489 182.415457 
L 79.277827 181.950948 
L 79.358996 181.950948 
L 79.548391 180.325166 
L 79.656616 180.325166 
L 79.873067 179.396148 
L 79.900123 179.396148 
L 80.089518 178.699385 
L 80.143631 178.699385 
L 80.278912 178.467077 
L 80.305969 178.467077 
L 80.44125 178.234822 
L 80.468307 178.234822 
L 80.603588 178.002568 
L 80.657701 178.002568 
L 80.955321 176.376786 
L 81.009434 176.376786 
L 81.144715 175.215514 
L 81.198828 175.215514 
L 81.361166 174.750952 
L 81.442335 174.750952 
L 81.712899 173.357371 
L 81.902293 173.357371 
L 82.091688 172.660608 
L 82.172857 172.660608 
L 82.308138 172.428406 
L 82.335195 172.428406 
L 82.551646 171.499335 
L 82.632815 171.499335 
L 82.795153 170.570317 
L 82.849265 170.570317 
L 83.092773 169.408991 
L 83.146885 169.408991 
L 83.606843 166.389683 
L 83.6339 166.389683 
L 83.823294 165.692919 
L 83.85035 165.692919 
L 83.985632 165.460665 
L 84.039745 165.460665 
L 84.229139 164.763848 
L 84.310308 164.763848 
L 84.44559 164.531594 
L 84.607928 164.531594 
L 84.824379 163.602576 
L 85.013773 163.602576 
L 85.203168 162.905812 
L 85.365506 162.905812 
L 85.527844 161.744486 
L 85.5549 161.744486 
L 85.798408 160.583214 
L 85.825464 160.583214 
L 86.096027 159.189687 
L 86.231309 159.189687 
L 86.393647 158.725178 
L 86.555985 158.725178 
L 86.691267 157.563852 
L 86.718323 157.563852 
L 86.853605 157.331597 
L 86.880661 157.331597 
L 87.070056 156.634834 
L 87.232394 156.634834 
L 87.421788 155.008999 
L 87.55707 155.008999 
L 88.044084 151.757436 
L 88.15231 151.757436 
L 88.341704 151.060619 
L 88.476986 151.060619 
L 88.639324 150.596163 
L 88.666381 150.596163 
L 88.828719 149.434838 
L 89.018113 149.434838 
L 89.26162 148.273565 
L 89.315733 148.273565 
L 89.451015 148.041257 
L 89.505127 148.041257 
L 89.775691 146.64773 
L 89.802747 146.64773 
L 90.019198 145.718712 
L 90.100367 145.718712 
L 90.533269 142.931605 
L 90.587381 142.931605 
L 90.749719 141.770332 
L 90.776776 141.770332 
L 90.912058 141.538078 
L 91.020283 141.538078 
L 91.26379 140.376752 
L 91.534354 140.376752 
L 91.669635 140.144498 
L 91.750804 140.144498 
L 91.994311 138.983225 
L 92.048424 138.983225 
L 92.237819 138.286462 
L 92.264875 138.286462 
L 92.427213 137.357443 
L 92.454269 137.357443 
L 92.616608 136.892934 
L 92.697777 136.892934 
L 92.860115 135.731609 
L 92.887171 135.731609 
L 93.049509 134.802591 
L 93.238904 134.105827 
L 93.26596 134.105827 
L 93.509467 131.783229 
L 93.56358 131.783229 
L 93.752974 131.086465 
L 93.780031 131.086465 
L 94.07765 129.460631 
L 94.131763 129.460631 
L 94.267045 128.531613 
L 94.321158 128.531613 
L 94.456439 128.299358 
L 94.483496 128.299358 
L 94.645834 127.834849 
L 94.67289 127.834849 
L 94.835228 127.37034 
L 94.889341 127.37034 
L 95.295186 124.815487 
L 95.322242 124.815487 
L 95.484581 124.350978 
L 95.538693 124.350978 
L 95.728088 123.654215 
L 95.7822 123.654215 
L 96.052764 122.260634 
L 96.106877 122.260634 
L 96.431553 120.170344 
L 96.458609 120.402598 
L 96.512722 119.938036 
L 96.539778 119.938036 
L 96.756229 119.009071 
L 96.783285 119.009071 
L 96.810342 118.776764 
L 96.864454 119.009071 
L 97.405581 123.189706 
L 97.432638 122.957398 
L 97.459694 122.957398 
L 97.513807 123.654215 
L 97.567919 122.957398 
L 97.622032 122.725143 
L 97.649088 123.189706 
L 97.676145 123.189706 
L 97.946708 124.583233 
L 97.973765 124.583233 
L 98.000821 124.815487 
L 98.054934 124.350978 
L 98.163159 124.350978 
L 98.217272 124.815487 
L 98.271384 124.350978 
L 98.406666 124.11867 
L 98.433723 124.350978 
L 98.460779 123.886469 
L 98.514892 123.421907 
L 98.596061 123.654215 
L 98.623117 123.654215 
L 98.731342 124.350978 
L 98.866624 123.654215 
L 99.218357 121.563871 
L 99.245413 121.563871 
L 99.353638 121.099362 
L 99.380695 121.331616 
L 99.407751 121.331616 
L 99.48892 121.563871 
L 99.515977 121.331616 
L 99.813596 119.473527 
L 99.867709 119.705835 
L 99.894765 119.241273 
L 100.057104 117.150929 
L 100.246498 114.828384 
L 100.273554 114.828384 
L 100.625287 111.112258 
L 100.814681 109.021915 
L 101.112301 106.234807 
L 101.355808 100.428391 
L 101.599315 96.94452 
L 101.842823 94.621922 
L 102.032217 92.067122 
L 102.38395 87.65418 
L 102.411006 87.65418 
L 102.762738 83.241292 
L 102.789795 83.241292 
L 102.925077 82.776783 
L 103.439147 77.434822 
L 103.872049 71.860608 
L 103.899105 71.860608 
L 104.386119 66.750955 
L 104.575514 64.660665 
L 104.60257 64.660665 
L 104.683739 64.196156 
L 104.737852 64.428357 
L 104.764908 64.428357 
L 105.387204 60.015521 
L 105.49543 60.015521 
L 105.738937 58.854196 
L 105.79305 59.318705 
L 105.820106 58.621941 
L 106.036557 57.692923 
L 106.144782 57.692923 
L 106.361233 56.763852 
L 106.388289 56.763852 
L 106.631796 55.602579 
L 106.658853 55.602579 
L 106.848247 54.905816 
L 106.90236 54.905816 
L 107.037642 54.441307 
L 107.064698 54.441307 
L 107.19998 53.512236 
L 107.254092 53.744543 
L 107.281149 53.744543 
L 107.308205 53.976745 
L 107.362318 53.512236 
L 107.443487 53.512236 
L 107.578769 53.047727 
L 107.659938 53.512236 
L 107.71405 53.279981 
L 107.741107 53.279981 
L 107.930501 52.118708 
L 107.957558 52.350963 
L 108.092839 52.583217 
L 108.119896 52.583217 
L 108.255177 52.350963 
L 108.30929 52.350963 
L 108.471628 52.815472 
L 108.579854 52.815472 
L 108.796304 51.886454 
L 108.823361 51.886454 
L 109.012755 51.18969 
L 109.472713 51.18969 
L 109.607995 50.957436 
L 109.878558 50.957436 
L 110.095009 50.028365 
L 110.122065 50.260672 
L 110.176178 50.028365 
L 110.31146 49.796163 
L 110.419685 49.796163 
L 110.527911 50.028365 
L 110.717305 49.331601 
L 110.879643 49.331601 
L 111.014925 49.099347 
L 111.069038 49.099347 
L 111.12315 49.331601 
L 111.177263 49.099347 
L 111.312545 49.099347 
L 111.474883 48.634838 
L 111.826615 48.634838 
L 111.961897 48.402583 
L 112.232461 48.402583 
L 112.367742 48.170329 
L 112.665362 48.170329 
L 112.8277 47.70582 
L 113.341771 47.70582 
L 113.477053 47.473565 
L 113.693504 47.473565 
L 113.855842 47.009056 
L 114.424025 47.009056 
L 114.559307 46.776748 
L 115.073377 46.776748 
L 115.208659 46.544494 
L 115.587448 46.544494 
L 115.72273 46.312292 
L 115.993293 46.312292 
L 116.128575 46.079985 
L 116.182688 46.079985 
L 116.317969 45.84773 
L 116.886153 45.84773 
L 117.021434 45.615476 
L 117.075547 45.615476 
L 117.210829 45.383221 
L 118.076632 45.383221 
L 118.23897 44.918712 
L 118.347196 44.918712 
L 118.482477 44.686458 
L 118.861266 44.686458 
L 118.996548 44.45415 
L 119.348281 44.45415 
L 119.483562 44.221949 
L 120.592873 44.221949 
L 120.728154 43.989694 
L 120.944605 43.989694 
L 121.079887 43.757387 
L 121.837465 43.757387 
L 121.972746 43.525185 
L 122.053915 43.525185 
L 122.189197 43.292878 
L 122.595042 43.292878 
L 122.730324 43.060623 
L 122.946775 43.060623 
L 123.109113 42.596114 
L 123.190282 42.596114 
L 123.325564 42.363859 
L 123.785522 42.363859 
L 123.94786 41.89935 
L 124.164311 41.89935 
L 124.299592 41.434841 
L 124.488987 41.434841 
L 124.624269 41.202587 
L 125.679466 41.202587 
L 125.814748 40.970332 
L 126.24765 40.970332 
L 126.382931 40.738078 
L 126.437044 40.738078 
L 126.572326 40.505823 
L 126.951115 40.505823 
L 127.086396 40.273569 
L 127.248734 40.273569 
L 127.411073 39.809007 
L 127.762805 39.809007 
L 127.898087 39.344551 
L 128.114538 39.344551 
L 128.249819 39.112243 
L 128.520383 39.112243 
L 128.655665 38.879989 
L 129.494411 38.879989 
L 129.629693 38.647734 
L 129.65675 38.647734 
L 129.792031 38.41548 
L 129.900257 38.41548 
L 130.062595 37.950971 
L 130.116708 37.950971 
L 130.279046 37.486462 
L 130.306102 37.486462 
L 130.441384 37.254207 
L 130.576665 37.254207 
L 130.739004 36.789698 
L 130.76606 36.789698 
L 130.901342 36.557443 
L 131.06368 36.557443 
L 131.198961 36.325136 
L 131.334243 36.325136 
L 131.469525 36.092934 
L 131.550694 36.092934 
L 131.740088 35.396171 
L 132.17299 35.396171 
L 132.308272 34.931609 
L 132.443554 34.699354 
L 132.47061 34.699354 
L 132.632948 34.234845 
L 132.660004 34.234845 
L 132.849399 33.538029 
L 132.903511 33.538029 
L 133.06585 33.073573 
L 133.119962 33.073573 
L 133.2823 32.609064 
L 133.363469 32.609064 
L 133.498751 32.376756 
L 133.606977 32.376756 
L 133.769315 31.215483 
L 133.850484 31.215483 
L 134.066935 30.286465 
L 134.310442 30.286465 
L 134.499836 29.589649 
L 134.689231 29.589649 
L 134.824512 29.357394 
L 134.932738 29.357394 
L 135.203301 27.963867 
L 135.338583 27.963867 
L 135.500921 27.034849 
L 135.744428 27.034849 
L 136.880795 18.209071 
L 137.151358 18.209071 
L 137.313696 17.744509 
L 137.367809 17.744509 
L 137.503091 17.512255 
L 138.206556 17.512255 
L 138.341838 17.28 
L 469.890341 17.28 
L 469.890341 17.28 
" clip-path="url(#p8546c36cfb)" style="fill: none; stroke: #ff0000; stroke-width: 2; stroke-linecap: square"/>
   </g>
   <g id="patch_7">
    <path d="M 43.78125 228.96 
L 43.78125 7.2 
" style="fill: none; stroke: #000000; stroke-width: 0.8; stroke-linejoin: miter; stroke-linecap: square"/>
   </g>
   <g id="patch_8">
    <path d="M 490.18125 228.96 
L 490.18125 7.2 
" style="fill: none; stroke: #000000; stroke-width: 0.8; stroke-linejoin: miter; stroke-linecap: square"/>
   </g>
   <g id="patch_9">
    <path d="M 43.78125 228.96 
L 490.18125 228.96 
" style="fill: none; stroke: #000000; stroke-width: 0.8; stroke-linejoin: miter; stroke-linecap: square"/>
   </g>
   <g id="patch_10">
    <path d="M 43.78125 7.2 
L 490.18125 7.2 
" style="fill: none; stroke: #000000; stroke-width: 0.8; stroke-linejoin: miter; stroke-linecap: square"/>
   </g>
  </g>
 </g>
 <defs>
  <clipPath id="p8546c36cfb">
   <rect x="43.78125" y="7.2" width="446.4" height="221.76"/>
  </clipPath>
 </defs>
</svg>
