<?xml version="1.0" encoding="UTF-8" standalone="no"?>
<!DOCTYPE svg PUBLIC "-//W3C//DTD SVG 1.1//EN"
 "http://www.w3.org/Graphics/SVG/1.1/DTD/svg11.dtd">
<!-- Generated by graphviz version 13.0.1 (20250615.1724)
 -->
<!-- Pages: 1 -->
<svg width="351pt" height="152pt"
 viewBox="0.00 0.00 351.00 152.00" xmlns="http://www.w3.org/2000/svg" xmlns:xlink="http://www.w3.org/1999/xlink">
<g id="graph0" class="graph" transform="scale(1 1) rotate(0) translate(4 148)">
<polygon fill="white" stroke="none" points="-4,4 -4,-148 347.25,-148 347.25,4 -4,4"/>
<!-- X -->
<g id="node1" class="node">
<title>X</title>
<path fill="lightgray" stroke="black" d="M42,-144C42,-144 12,-144 12,-144 6,-144 0,-138 0,-132 0,-132 0,-120 0,-120 0,-114 6,-108 12,-108 12,-108 42,-108 42,-108 48,-108 54,-114 54,-120 54,-120 54,-132 54,-132 54,-138 48,-144 42,-144"/>
<text xml:space="preserve" text-anchor="middle" x="27" y="-122.12" font-family="Helvetica,sans-Serif" font-size="10.00">X</text>
</g>
<!-- Z1 -->
<g id="node3" class="node">
<title>Z1</title>
<path fill="lightgreen" stroke="black" d="M146.5,-117C146.5,-117 102,-117 102,-117 96,-117 90,-111 90,-105 90,-105 90,-93 90,-93 90,-87 96,-81 102,-81 102,-81 146.5,-81 146.5,-81 152.5,-81 158.5,-87 158.5,-93 158.5,-93 158.5,-105 158.5,-105 158.5,-111 152.5,-117 146.5,-117"/>
<text xml:space="preserve" text-anchor="middle" x="124.25" y="-95.12" font-family="Helvetica,sans-Serif" font-size="10.00">Z₁ = σ(XW₁)</text>
</g>
<!-- X&#45;&gt;Z1 -->
<g id="edge1" class="edge">
<title>X&#45;&gt;Z1</title>
<path fill="none" stroke="black" d="M54.28,-118.55C61.86,-116.4 70.35,-113.99 78.71,-111.62"/>
<polygon fill="black" stroke="black" points="79.43,-115.06 88.09,-108.97 77.52,-108.33 79.43,-115.06"/>
</g>
<!-- W1 -->
<g id="node2" class="node">
<title>W1</title>
<path fill="lightyellow" stroke="black" d="M42,-90C42,-90 12,-90 12,-90 6,-90 0,-84 0,-78 0,-78 0,-66 0,-66 0,-60 6,-54 12,-54 12,-54 42,-54 42,-54 48,-54 54,-60 54,-66 54,-66 54,-78 54,-78 54,-84 48,-90 42,-90"/>
<text xml:space="preserve" text-anchor="middle" x="27" y="-68.12" font-family="Helvetica,sans-Serif" font-size="10.00">W₁</text>
</g>
<!-- W1&#45;&gt;Z1 -->
<g id="edge2" class="edge">
<title>W1&#45;&gt;Z1</title>
<path fill="none" stroke="black" d="M54.28,-79.45C61.86,-81.6 70.35,-84.01 78.71,-86.38"/>
<polygon fill="black" stroke="black" points="77.52,-89.67 88.09,-89.03 79.43,-82.94 77.52,-89.67"/>
</g>
<!-- Z2 -->
<g id="node5" class="node">
<title>Z2</title>
<path fill="lightgreen" stroke="black" d="M241.25,-90C241.25,-90 206.5,-90 206.5,-90 200.5,-90 194.5,-84 194.5,-78 194.5,-78 194.5,-66 194.5,-66 194.5,-60 200.5,-54 206.5,-54 206.5,-54 241.25,-54 241.25,-54 247.25,-54 253.25,-60 253.25,-66 253.25,-66 253.25,-78 253.25,-78 253.25,-84 247.25,-90 241.25,-90"/>
<text xml:space="preserve" text-anchor="middle" x="223.88" y="-68.12" font-family="Helvetica,sans-Serif" font-size="10.00">Z₂ = Z₁W₂</text>
</g>
<!-- Z1&#45;&gt;Z2 -->
<g id="edge3" class="edge">
<title>Z1&#45;&gt;Z2</title>
<path fill="none" stroke="black" d="M158.85,-89.71C166.64,-87.55 175.02,-85.24 183.05,-83.01"/>
<polygon fill="black" stroke="black" points="183.93,-86.4 192.64,-80.36 182.07,-79.66 183.93,-86.4"/>
</g>
<!-- W2 -->
<g id="node4" class="node">
<title>W2</title>
<path fill="lightyellow" stroke="black" d="M139.25,-63C139.25,-63 109.25,-63 109.25,-63 103.25,-63 97.25,-57 97.25,-51 97.25,-51 97.25,-39 97.25,-39 97.25,-33 103.25,-27 109.25,-27 109.25,-27 139.25,-27 139.25,-27 145.25,-27 151.25,-33 151.25,-39 151.25,-39 151.25,-51 151.25,-51 151.25,-57 145.25,-63 139.25,-63"/>
<text xml:space="preserve" text-anchor="middle" x="124.25" y="-41.12" font-family="Helvetica,sans-Serif" font-size="10.00">W₂</text>
</g>
<!-- W2&#45;&gt;Z2 -->
<g id="edge4" class="edge">
<title>W2&#45;&gt;Z2</title>
<path fill="none" stroke="black" d="M151.67,-52.31C161.39,-55 172.63,-58.1 183.26,-61.04"/>
<polygon fill="black" stroke="black" points="182,-64.33 192.58,-63.62 183.87,-57.58 182,-64.33"/>
</g>
<!-- loss -->
<g id="node6" class="node">
<title>loss</title>
<path fill="lightblue" stroke="black" d="M331.25,-63C331.25,-63 301.25,-63 301.25,-63 295.25,-63 289.25,-57 289.25,-51 289.25,-51 289.25,-39 289.25,-39 289.25,-33 295.25,-27 301.25,-27 301.25,-27 331.25,-27 331.25,-27 337.25,-27 343.25,-33 343.25,-39 343.25,-39 343.25,-51 343.25,-51 343.25,-57 337.25,-63 331.25,-63"/>
<text xml:space="preserve" text-anchor="middle" x="316.25" y="-41.12" font-family="Helvetica,sans-Serif" font-size="10.00">CE loss</text>
</g>
<!-- Z2&#45;&gt;loss -->
<g id="edge5" class="edge">
<title>Z2&#45;&gt;loss</title>
<path fill="none" stroke="black" d="M253.47,-63.46C261.29,-61.12 269.88,-58.55 278.11,-56.1"/>
<polygon fill="black" stroke="black" points="278.96,-59.5 287.54,-53.28 276.95,-52.79 278.96,-59.5"/>
</g>
<!-- Y -->
<g id="node7" class="node">
<title>Y</title>
<path fill="lightgrey" stroke="black" d="M238.88,-36C238.88,-36 208.88,-36 208.88,-36 202.88,-36 196.88,-30 196.88,-24 196.88,-24 196.88,-12 196.88,-12 196.88,-6 202.88,0 208.88,0 208.88,0 238.88,0 238.88,0 244.88,0 250.88,-6 250.88,-12 250.88,-12 250.88,-24 250.88,-24 250.88,-30 244.88,-36 238.88,-36"/>
<text xml:space="preserve" text-anchor="middle" x="223.88" y="-14.12" font-family="Helvetica,sans-Serif" font-size="10.00">Y</text>
</g>
<!-- Y&#45;&gt;loss -->
<g id="edge6" class="edge">
<title>Y&#45;&gt;loss</title>
<path fill="none" stroke="black" d="M251.02,-25.81C259.47,-28.33 269,-31.18 278.09,-33.9"/>
<polygon fill="black" stroke="black" points="276.82,-37.17 287.41,-36.68 278.83,-30.47 276.82,-37.17"/>
</g>
</g>
</svg>
