<?xml version="1.0" encoding="utf-8" standalone="no"?>
<!DOCTYPE svg PUBLIC "-//W3C//DTD SVG 1.1//EN"
  "http://www.w3.org/Graphics/SVG/1.1/DTD/svg11.dtd">
<svg xmlns:xlink="http://www.w3.org/1999/xlink" width="414.46375pt" height="310.86825pt" viewBox="0 0 414.46375 310.86825" xmlns="http://www.w3.org/2000/svg" version="1.1">
 <metadata>
  <rdf:RDF xmlns:dc="http://purl.org/dc/elements/1.1/" xmlns:cc="http://creativecommons.org/ns#" xmlns:rdf="http://www.w3.org/1999/02/22-rdf-syntax-ns#">
   <cc:Work>
    <dc:type rdf:resource="http://purl.org/dc/dcmitype/StillImage"/>
    <dc:date>2025-07-24T05:55:16.661741</dc:date>
    <dc:format>image/svg+xml</dc:format>
    <dc:creator>
     <cc:Agent>
      <dc:title>Matplotlib v3.10.3, https://matplotlib.org/</dc:title>
     </cc:Agent>
    </dc:creator>
   </cc:Work>
  </rdf:RDF>
 </metadata>
 <defs>
  <style type="text/css">*{stroke-linejoin: round; stroke-linecap: butt}</style>
 </defs>
 <g id="figure_1">
  <g id="patch_1">
   <path d="M 0 310.86825 
L 414.46375 310.86825 
L 414.46375 0 
L 0 0 
z
" style="fill: #ffffff"/>
  </g>
  <g id="axes_1">
   <g id="patch_2">
    <path d="M 50.14375 273.312 
L 407.26375 273.312 
L 407.26375 7.2 
L 50.14375 7.2 
z
" style="fill: #ffffff"/>
   </g>
   <g id="matplotlib.axis_1">
    <g id="xtick_1">
     <g id="line2d_1">
      <path d="M 66.376477 273.312 
L 66.376477 7.2 
" clip-path="url(#pfbf6234120)" style="fill: none; stroke-dasharray: 2.96,1.28; stroke-dashoffset: 0; stroke: #b0b0b0; stroke-opacity: 0.3; stroke-width: 0.8"/>
     </g>
     <g id="line2d_2">
      <defs>
       <path id="m236dd4422b" d="M 0 0 
L 0 3.5 
" style="stroke: #000000; stroke-width: 0.8"/>
      </defs>
      <g>
       <use xlink:href="#m236dd4422b" x="66.376477" y="273.312" style="stroke: #000000; stroke-width: 0.8"/>
      </g>
     </g>
     <g id="text_1">
      <!-- 0 -->
      <g transform="translate(63.195227 287.910437) scale(0.1 -0.1)">
       <defs>
        <path id="DejaVuSans-30" d="M 2034 4250 
Q 1547 4250 1301 3770 
Q 1056 3291 1056 2328 
Q 1056 1369 1301 889 
Q 1547 409 2034 409 
Q 2525 409 2770 889 
Q 3016 1369 3016 2328 
Q 3016 3291 2770 3770 
Q 2525 4250 2034 4250 
z
M 2034 4750 
Q 2819 4750 3233 4129 
Q 3647 3509 3647 2328 
Q 3647 1150 3233 529 
Q 2819 -91 2034 -91 
Q 1250 -91 836 529 
Q 422 1150 422 2328 
Q 422 3509 836 4129 
Q 1250 4750 2034 4750 
z
" transform="scale(0.015625)"/>
       </defs>
       <use xlink:href="#DejaVuSans-30"/>
      </g>
     </g>
    </g>
    <g id="xtick_2">
     <g id="line2d_3">
      <path d="M 109.686849 273.312 
L 109.686849 7.2 
" clip-path="url(#pfbf6234120)" style="fill: none; stroke-dasharray: 2.96,1.28; stroke-dashoffset: 0; stroke: #b0b0b0; stroke-opacity: 0.3; stroke-width: 0.8"/>
     </g>
     <g id="line2d_4">
      <g>
       <use xlink:href="#m236dd4422b" x="109.686849" y="273.312" style="stroke: #000000; stroke-width: 0.8"/>
      </g>
     </g>
     <g id="text_2">
      <!-- 250 -->
      <g transform="translate(100.143099 287.910437) scale(0.1 -0.1)">
       <defs>
        <path id="DejaVuSans-32" d="M 1228 531 
L 3431 531 
L 3431 0 
L 469 0 
L 469 531 
Q 828 903 1448 1529 
Q 2069 2156 2228 2338 
Q 2531 2678 2651 2914 
Q 2772 3150 2772 3378 
Q 2772 3750 2511 3984 
Q 2250 4219 1831 4219 
Q 1534 4219 1204 4116 
Q 875 4013 500 3803 
L 500 4441 
Q 881 4594 1212 4672 
Q 1544 4750 1819 4750 
Q 2544 4750 2975 4387 
Q 3406 4025 3406 3419 
Q 3406 3131 3298 2873 
Q 3191 2616 2906 2266 
Q 2828 2175 2409 1742 
Q 1991 1309 1228 531 
z
" transform="scale(0.015625)"/>
        <path id="DejaVuSans-35" d="M 691 4666 
L 3169 4666 
L 3169 4134 
L 1269 4134 
L 1269 2991 
Q 1406 3038 1543 3061 
Q 1681 3084 1819 3084 
Q 2600 3084 3056 2656 
Q 3513 2228 3513 1497 
Q 3513 744 3044 326 
Q 2575 -91 1722 -91 
Q 1428 -91 1123 -41 
Q 819 9 494 109 
L 494 744 
Q 775 591 1075 516 
Q 1375 441 1709 441 
Q 2250 441 2565 725 
Q 2881 1009 2881 1497 
Q 2881 1984 2565 2268 
Q 2250 2553 1709 2553 
Q 1456 2553 1204 2497 
Q 953 2441 691 2322 
L 691 4666 
z
" transform="scale(0.015625)"/>
       </defs>
       <use xlink:href="#DejaVuSans-32"/>
       <use xlink:href="#DejaVuSans-35" transform="translate(63.623047 0)"/>
       <use xlink:href="#DejaVuSans-30" transform="translate(127.246094 0)"/>
      </g>
     </g>
    </g>
    <g id="xtick_3">
     <g id="line2d_5">
      <path d="M 152.99722 273.312 
L 152.99722 7.2 
" clip-path="url(#pfbf6234120)" style="fill: none; stroke-dasharray: 2.96,1.28; stroke-dashoffset: 0; stroke: #b0b0b0; stroke-opacity: 0.3; stroke-width: 0.8"/>
     </g>
     <g id="line2d_6">
      <g>
       <use xlink:href="#m236dd4422b" x="152.99722" y="273.312" style="stroke: #000000; stroke-width: 0.8"/>
      </g>
     </g>
     <g id="text_3">
      <!-- 500 -->
      <g transform="translate(143.45347 287.910437) scale(0.1 -0.1)">
       <use xlink:href="#DejaVuSans-35"/>
       <use xlink:href="#DejaVuSans-30" transform="translate(63.623047 0)"/>
       <use xlink:href="#DejaVuSans-30" transform="translate(127.246094 0)"/>
      </g>
     </g>
    </g>
    <g id="xtick_4">
     <g id="line2d_7">
      <path d="M 196.307592 273.312 
L 196.307592 7.2 
" clip-path="url(#pfbf6234120)" style="fill: none; stroke-dasharray: 2.96,1.28; stroke-dashoffset: 0; stroke: #b0b0b0; stroke-opacity: 0.3; stroke-width: 0.8"/>
     </g>
     <g id="line2d_8">
      <g>
       <use xlink:href="#m236dd4422b" x="196.307592" y="273.312" style="stroke: #000000; stroke-width: 0.8"/>
      </g>
     </g>
     <g id="text_4">
      <!-- 750 -->
      <g transform="translate(186.763842 287.910437) scale(0.1 -0.1)">
       <defs>
        <path id="DejaVuSans-37" d="M 525 4666 
L 3525 4666 
L 3525 4397 
L 1831 0 
L 1172 0 
L 2766 4134 
L 525 4134 
L 525 4666 
z
" transform="scale(0.015625)"/>
       </defs>
       <use xlink:href="#DejaVuSans-37"/>
       <use xlink:href="#DejaVuSans-35" transform="translate(63.623047 0)"/>
       <use xlink:href="#DejaVuSans-30" transform="translate(127.246094 0)"/>
      </g>
     </g>
    </g>
    <g id="xtick_5">
     <g id="line2d_9">
      <path d="M 239.617964 273.312 
L 239.617964 7.2 
" clip-path="url(#pfbf6234120)" style="fill: none; stroke-dasharray: 2.96,1.28; stroke-dashoffset: 0; stroke: #b0b0b0; stroke-opacity: 0.3; stroke-width: 0.8"/>
     </g>
     <g id="line2d_10">
      <g>
       <use xlink:href="#m236dd4422b" x="239.617964" y="273.312" style="stroke: #000000; stroke-width: 0.8"/>
      </g>
     </g>
     <g id="text_5">
      <!-- 1000 -->
      <g transform="translate(226.892964 287.910437) scale(0.1 -0.1)">
       <defs>
        <path id="DejaVuSans-31" d="M 794 531 
L 1825 531 
L 1825 4091 
L 703 3866 
L 703 4441 
L 1819 4666 
L 2450 4666 
L 2450 531 
L 3481 531 
L 3481 0 
L 794 0 
L 794 531 
z
" transform="scale(0.015625)"/>
       </defs>
       <use xlink:href="#DejaVuSans-31"/>
       <use xlink:href="#DejaVuSans-30" transform="translate(63.623047 0)"/>
       <use xlink:href="#DejaVuSans-30" transform="translate(127.246094 0)"/>
       <use xlink:href="#DejaVuSans-30" transform="translate(190.869141 0)"/>
      </g>
     </g>
    </g>
    <g id="xtick_6">
     <g id="line2d_11">
      <path d="M 282.928335 273.312 
L 282.928335 7.2 
" clip-path="url(#pfbf6234120)" style="fill: none; stroke-dasharray: 2.96,1.28; stroke-dashoffset: 0; stroke: #b0b0b0; stroke-opacity: 0.3; stroke-width: 0.8"/>
     </g>
     <g id="line2d_12">
      <g>
       <use xlink:href="#m236dd4422b" x="282.928335" y="273.312" style="stroke: #000000; stroke-width: 0.8"/>
      </g>
     </g>
     <g id="text_6">
      <!-- 1250 -->
      <g transform="translate(270.203335 287.910437) scale(0.1 -0.1)">
       <use xlink:href="#DejaVuSans-31"/>
       <use xlink:href="#DejaVuSans-32" transform="translate(63.623047 0)"/>
       <use xlink:href="#DejaVuSans-35" transform="translate(127.246094 0)"/>
       <use xlink:href="#DejaVuSans-30" transform="translate(190.869141 0)"/>
      </g>
     </g>
    </g>
    <g id="xtick_7">
     <g id="line2d_13">
      <path d="M 326.238707 273.312 
L 326.238707 7.2 
" clip-path="url(#pfbf6234120)" style="fill: none; stroke-dasharray: 2.96,1.28; stroke-dashoffset: 0; stroke: #b0b0b0; stroke-opacity: 0.3; stroke-width: 0.8"/>
     </g>
     <g id="line2d_14">
      <g>
       <use xlink:href="#m236dd4422b" x="326.238707" y="273.312" style="stroke: #000000; stroke-width: 0.8"/>
      </g>
     </g>
     <g id="text_7">
      <!-- 1500 -->
      <g transform="translate(313.513707 287.910437) scale(0.1 -0.1)">
       <use xlink:href="#DejaVuSans-31"/>
       <use xlink:href="#DejaVuSans-35" transform="translate(63.623047 0)"/>
       <use xlink:href="#DejaVuSans-30" transform="translate(127.246094 0)"/>
       <use xlink:href="#DejaVuSans-30" transform="translate(190.869141 0)"/>
      </g>
     </g>
    </g>
    <g id="xtick_8">
     <g id="line2d_15">
      <path d="M 369.549078 273.312 
L 369.549078 7.2 
" clip-path="url(#pfbf6234120)" style="fill: none; stroke-dasharray: 2.96,1.28; stroke-dashoffset: 0; stroke: #b0b0b0; stroke-opacity: 0.3; stroke-width: 0.8"/>
     </g>
     <g id="line2d_16">
      <g>
       <use xlink:href="#m236dd4422b" x="369.549078" y="273.312" style="stroke: #000000; stroke-width: 0.8"/>
      </g>
     </g>
     <g id="text_8">
      <!-- 1750 -->
      <g transform="translate(356.824078 287.910437) scale(0.1 -0.1)">
       <use xlink:href="#DejaVuSans-31"/>
       <use xlink:href="#DejaVuSans-37" transform="translate(63.623047 0)"/>
       <use xlink:href="#DejaVuSans-35" transform="translate(127.246094 0)"/>
       <use xlink:href="#DejaVuSans-30" transform="translate(190.869141 0)"/>
      </g>
     </g>
    </g>
    <g id="text_9">
     <!-- step -->
     <g transform="translate(217.888125 301.588562) scale(0.1 -0.1)">
      <defs>
       <path id="DejaVuSans-73" d="M 2834 3397 
L 2834 2853 
Q 2591 2978 2328 3040 
Q 2066 3103 1784 3103 
Q 1356 3103 1142 2972 
Q 928 2841 928 2578 
Q 928 2378 1081 2264 
Q 1234 2150 1697 2047 
L 1894 2003 
Q 2506 1872 2764 1633 
Q 3022 1394 3022 966 
Q 3022 478 2636 193 
Q 2250 -91 1575 -91 
Q 1294 -91 989 -36 
Q 684 19 347 128 
L 347 722 
Q 666 556 975 473 
Q 1284 391 1588 391 
Q 1994 391 2212 530 
Q 2431 669 2431 922 
Q 2431 1156 2273 1281 
Q 2116 1406 1581 1522 
L 1381 1569 
Q 847 1681 609 1914 
Q 372 2147 372 2553 
Q 372 3047 722 3315 
Q 1072 3584 1716 3584 
Q 2034 3584 2315 3537 
Q 2597 3491 2834 3397 
z
" transform="scale(0.015625)"/>
       <path id="DejaVuSans-74" d="M 1172 4494 
L 1172 3500 
L 2356 3500 
L 2356 3053 
L 1172 3053 
L 1172 1153 
Q 1172 725 1289 603 
Q 1406 481 1766 481 
L 2356 481 
L 2356 0 
L 1766 0 
Q 1100 0 847 248 
Q 594 497 594 1153 
L 594 3053 
L 172 3053 
L 172 3500 
L 594 3500 
L 594 4494 
L 1172 4494 
z
" transform="scale(0.015625)"/>
       <path id="DejaVuSans-65" d="M 3597 1894 
L 3597 1613 
L 953 1613 
Q 991 1019 1311 708 
Q 1631 397 2203 397 
Q 2534 397 2845 478 
Q 3156 559 3463 722 
L 3463 178 
Q 3153 47 2828 -22 
Q 2503 -91 2169 -91 
Q 1331 -91 842 396 
Q 353 884 353 1716 
Q 353 2575 817 3079 
Q 1281 3584 2069 3584 
Q 2775 3584 3186 3129 
Q 3597 2675 3597 1894 
z
M 3022 2063 
Q 3016 2534 2758 2815 
Q 2500 3097 2075 3097 
Q 1594 3097 1305 2825 
Q 1016 2553 972 2059 
L 3022 2063 
z
" transform="scale(0.015625)"/>
       <path id="DejaVuSans-70" d="M 1159 525 
L 1159 -1331 
L 581 -1331 
L 581 3500 
L 1159 3500 
L 1159 2969 
Q 1341 3281 1617 3432 
Q 1894 3584 2278 3584 
Q 2916 3584 3314 3078 
Q 3713 2572 3713 1747 
Q 3713 922 3314 415 
Q 2916 -91 2278 -91 
Q 1894 -91 1617 61 
Q 1341 213 1159 525 
z
M 3116 1747 
Q 3116 2381 2855 2742 
Q 2594 3103 2138 3103 
Q 1681 3103 1420 2742 
Q 1159 2381 1159 1747 
Q 1159 1113 1420 752 
Q 1681 391 2138 391 
Q 2594 391 2855 752 
Q 3116 1113 3116 1747 
z
" transform="scale(0.015625)"/>
      </defs>
      <use xlink:href="#DejaVuSans-73"/>
      <use xlink:href="#DejaVuSans-74" transform="translate(52.099609 0)"/>
      <use xlink:href="#DejaVuSans-65" transform="translate(91.308594 0)"/>
      <use xlink:href="#DejaVuSans-70" transform="translate(152.832031 0)"/>
     </g>
    </g>
   </g>
   <g id="matplotlib.axis_2">
    <g id="ytick_1">
     <g id="line2d_17">
      <path d="M 50.14375 272.972192 
L 407.26375 272.972192 
" clip-path="url(#pfbf6234120)" style="fill: none; stroke-dasharray: 2.96,1.28; stroke-dashoffset: 0; stroke: #b0b0b0; stroke-opacity: 0.3; stroke-width: 0.8"/>
     </g>
     <g id="line2d_18">
      <defs>
       <path id="m66ce908c9c" d="M 0 0 
L -3.5 0 
" style="stroke: #000000; stroke-width: 0.8"/>
      </defs>
      <g>
       <use xlink:href="#m66ce908c9c" x="50.14375" y="272.972192" style="stroke: #000000; stroke-width: 0.8"/>
      </g>
     </g>
     <g id="text_10">
      <!-- 0.00 -->
      <g transform="translate(20.878125 276.77141) scale(0.1 -0.1)">
       <defs>
        <path id="DejaVuSans-2e" d="M 684 794 
L 1344 794 
L 1344 0 
L 684 0 
L 684 794 
z
" transform="scale(0.015625)"/>
       </defs>
       <use xlink:href="#DejaVuSans-30"/>
       <use xlink:href="#DejaVuSans-2e" transform="translate(63.623047 0)"/>
       <use xlink:href="#DejaVuSans-30" transform="translate(95.410156 0)"/>
       <use xlink:href="#DejaVuSans-30" transform="translate(159.033203 0)"/>
      </g>
     </g>
    </g>
    <g id="ytick_2">
     <g id="line2d_19">
      <path d="M 50.14375 240.535919 
L 407.26375 240.535919 
" clip-path="url(#pfbf6234120)" style="fill: none; stroke-dasharray: 2.96,1.28; stroke-dashoffset: 0; stroke: #b0b0b0; stroke-opacity: 0.3; stroke-width: 0.8"/>
     </g>
     <g id="line2d_20">
      <g>
       <use xlink:href="#m66ce908c9c" x="50.14375" y="240.535919" style="stroke: #000000; stroke-width: 0.8"/>
      </g>
     </g>
     <g id="text_11">
      <!-- 0.25 -->
      <g transform="translate(20.878125 244.335138) scale(0.1 -0.1)">
       <use xlink:href="#DejaVuSans-30"/>
       <use xlink:href="#DejaVuSans-2e" transform="translate(63.623047 0)"/>
       <use xlink:href="#DejaVuSans-32" transform="translate(95.410156 0)"/>
       <use xlink:href="#DejaVuSans-35" transform="translate(159.033203 0)"/>
      </g>
     </g>
    </g>
    <g id="ytick_3">
     <g id="line2d_21">
      <path d="M 50.14375 208.099646 
L 407.26375 208.099646 
" clip-path="url(#pfbf6234120)" style="fill: none; stroke-dasharray: 2.96,1.28; stroke-dashoffset: 0; stroke: #b0b0b0; stroke-opacity: 0.3; stroke-width: 0.8"/>
     </g>
     <g id="line2d_22">
      <g>
       <use xlink:href="#m66ce908c9c" x="50.14375" y="208.099646" style="stroke: #000000; stroke-width: 0.8"/>
      </g>
     </g>
     <g id="text_12">
      <!-- 0.50 -->
      <g transform="translate(20.878125 211.898865) scale(0.1 -0.1)">
       <use xlink:href="#DejaVuSans-30"/>
       <use xlink:href="#DejaVuSans-2e" transform="translate(63.623047 0)"/>
       <use xlink:href="#DejaVuSans-35" transform="translate(95.410156 0)"/>
       <use xlink:href="#DejaVuSans-30" transform="translate(159.033203 0)"/>
      </g>
     </g>
    </g>
    <g id="ytick_4">
     <g id="line2d_23">
      <path d="M 50.14375 175.663373 
L 407.26375 175.663373 
" clip-path="url(#pfbf6234120)" style="fill: none; stroke-dasharray: 2.96,1.28; stroke-dashoffset: 0; stroke: #b0b0b0; stroke-opacity: 0.3; stroke-width: 0.8"/>
     </g>
     <g id="line2d_24">
      <g>
       <use xlink:href="#m66ce908c9c" x="50.14375" y="175.663373" style="stroke: #000000; stroke-width: 0.8"/>
      </g>
     </g>
     <g id="text_13">
      <!-- 0.75 -->
      <g transform="translate(20.878125 179.462592) scale(0.1 -0.1)">
       <use xlink:href="#DejaVuSans-30"/>
       <use xlink:href="#DejaVuSans-2e" transform="translate(63.623047 0)"/>
       <use xlink:href="#DejaVuSans-37" transform="translate(95.410156 0)"/>
       <use xlink:href="#DejaVuSans-35" transform="translate(159.033203 0)"/>
      </g>
     </g>
    </g>
    <g id="ytick_5">
     <g id="line2d_25">
      <path d="M 50.14375 143.227101 
L 407.26375 143.227101 
" clip-path="url(#pfbf6234120)" style="fill: none; stroke-dasharray: 2.96,1.28; stroke-dashoffset: 0; stroke: #b0b0b0; stroke-opacity: 0.3; stroke-width: 0.8"/>
     </g>
     <g id="line2d_26">
      <g>
       <use xlink:href="#m66ce908c9c" x="50.14375" y="143.227101" style="stroke: #000000; stroke-width: 0.8"/>
      </g>
     </g>
     <g id="text_14">
      <!-- 1.00 -->
      <g transform="translate(20.878125 147.02632) scale(0.1 -0.1)">
       <use xlink:href="#DejaVuSans-31"/>
       <use xlink:href="#DejaVuSans-2e" transform="translate(63.623047 0)"/>
       <use xlink:href="#DejaVuSans-30" transform="translate(95.410156 0)"/>
       <use xlink:href="#DejaVuSans-30" transform="translate(159.033203 0)"/>
      </g>
     </g>
    </g>
    <g id="ytick_6">
     <g id="line2d_27">
      <path d="M 50.14375 110.790828 
L 407.26375 110.790828 
" clip-path="url(#pfbf6234120)" style="fill: none; stroke-dasharray: 2.96,1.28; stroke-dashoffset: 0; stroke: #b0b0b0; stroke-opacity: 0.3; stroke-width: 0.8"/>
     </g>
     <g id="line2d_28">
      <g>
       <use xlink:href="#m66ce908c9c" x="50.14375" y="110.790828" style="stroke: #000000; stroke-width: 0.8"/>
      </g>
     </g>
     <g id="text_15">
      <!-- 1.25 -->
      <g transform="translate(20.878125 114.590047) scale(0.1 -0.1)">
       <use xlink:href="#DejaVuSans-31"/>
       <use xlink:href="#DejaVuSans-2e" transform="translate(63.623047 0)"/>
       <use xlink:href="#DejaVuSans-32" transform="translate(95.410156 0)"/>
       <use xlink:href="#DejaVuSans-35" transform="translate(159.033203 0)"/>
      </g>
     </g>
    </g>
    <g id="ytick_7">
     <g id="line2d_29">
      <path d="M 50.14375 78.354555 
L 407.26375 78.354555 
" clip-path="url(#pfbf6234120)" style="fill: none; stroke-dasharray: 2.96,1.28; stroke-dashoffset: 0; stroke: #b0b0b0; stroke-opacity: 0.3; stroke-width: 0.8"/>
     </g>
     <g id="line2d_30">
      <g>
       <use xlink:href="#m66ce908c9c" x="50.14375" y="78.354555" style="stroke: #000000; stroke-width: 0.8"/>
      </g>
     </g>
     <g id="text_16">
      <!-- 1.50 -->
      <g transform="translate(20.878125 82.153774) scale(0.1 -0.1)">
       <use xlink:href="#DejaVuSans-31"/>
       <use xlink:href="#DejaVuSans-2e" transform="translate(63.623047 0)"/>
       <use xlink:href="#DejaVuSans-35" transform="translate(95.410156 0)"/>
       <use xlink:href="#DejaVuSans-30" transform="translate(159.033203 0)"/>
      </g>
     </g>
    </g>
    <g id="ytick_8">
     <g id="line2d_31">
      <path d="M 50.14375 45.918283 
L 407.26375 45.918283 
" clip-path="url(#pfbf6234120)" style="fill: none; stroke-dasharray: 2.96,1.28; stroke-dashoffset: 0; stroke: #b0b0b0; stroke-opacity: 0.3; stroke-width: 0.8"/>
     </g>
     <g id="line2d_32">
      <g>
       <use xlink:href="#m66ce908c9c" x="50.14375" y="45.918283" style="stroke: #000000; stroke-width: 0.8"/>
      </g>
     </g>
     <g id="text_17">
      <!-- 1.75 -->
      <g transform="translate(20.878125 49.717501) scale(0.1 -0.1)">
       <use xlink:href="#DejaVuSans-31"/>
       <use xlink:href="#DejaVuSans-2e" transform="translate(63.623047 0)"/>
       <use xlink:href="#DejaVuSans-37" transform="translate(95.410156 0)"/>
       <use xlink:href="#DejaVuSans-35" transform="translate(159.033203 0)"/>
      </g>
     </g>
    </g>
    <g id="ytick_9">
     <g id="line2d_33">
      <path d="M 50.14375 13.48201 
L 407.26375 13.48201 
" clip-path="url(#pfbf6234120)" style="fill: none; stroke-dasharray: 2.96,1.28; stroke-dashoffset: 0; stroke: #b0b0b0; stroke-opacity: 0.3; stroke-width: 0.8"/>
     </g>
     <g id="line2d_34">
      <g>
       <use xlink:href="#m66ce908c9c" x="50.14375" y="13.48201" style="stroke: #000000; stroke-width: 0.8"/>
      </g>
     </g>
     <g id="text_18">
      <!-- 2.00 -->
      <g transform="translate(20.878125 17.281229) scale(0.1 -0.1)">
       <use xlink:href="#DejaVuSans-32"/>
       <use xlink:href="#DejaVuSans-2e" transform="translate(63.623047 0)"/>
       <use xlink:href="#DejaVuSans-30" transform="translate(95.410156 0)"/>
       <use xlink:href="#DejaVuSans-30" transform="translate(159.033203 0)"/>
      </g>
     </g>
    </g>
    <g id="text_19">
     <!-- loss -->
     <g transform="translate(14.798438 149.913812) rotate(-90) scale(0.1 -0.1)">
      <defs>
       <path id="DejaVuSans-6c" d="M 603 4863 
L 1178 4863 
L 1178 0 
L 603 0 
L 603 4863 
z
" transform="scale(0.015625)"/>
       <path id="DejaVuSans-6f" d="M 1959 3097 
Q 1497 3097 1228 2736 
Q 959 2375 959 1747 
Q 959 1119 1226 758 
Q 1494 397 1959 397 
Q 2419 397 2687 759 
Q 2956 1122 2956 1747 
Q 2956 2369 2687 2733 
Q 2419 3097 1959 3097 
z
M 1959 3584 
Q 2709 3584 3137 3096 
Q 3566 2609 3566 1747 
Q 3566 888 3137 398 
Q 2709 -91 1959 -91 
Q 1206 -91 779 398 
Q 353 888 353 1747 
Q 353 2609 779 3096 
Q 1206 3584 1959 3584 
z
" transform="scale(0.015625)"/>
      </defs>
      <use xlink:href="#DejaVuSans-6c"/>
      <use xlink:href="#DejaVuSans-6f" transform="translate(27.783203 0)"/>
      <use xlink:href="#DejaVuSans-73" transform="translate(88.964844 0)"/>
      <use xlink:href="#DejaVuSans-73" transform="translate(141.064453 0)"/>
     </g>
    </g>
   </g>
   <g id="line2d_35">
    <path d="M 66.376477 19.296 
L 66.72296 116.497898 
L 67.069443 152.596 
L 67.415926 179.614339 
L 67.589168 183.5857 
L 67.762409 195.740545 
L 67.935651 184.710694 
L 68.282134 201.62371 
L 68.628617 190.443313 
L 68.801858 195.291872 
L 68.9751 208.269131 
L 69.148341 196.801945 
L 69.321583 197.648077 
L 69.494824 213.822725 
L 69.668066 212.389233 
L 69.841307 197.899886 
L 70.18779 224.130506 
L 70.361031 213.561822 
L 70.534273 187.696392 
L 70.880756 226.785008 
L 71.053997 205.000269 
L 71.227239 211.71853 
L 71.40048 207.698479 
L 71.573722 209.906182 
L 71.920205 221.314997 
L 72.266688 214.798518 
L 72.439929 220.890944 
L 72.613171 217.747517 
L 72.786412 209.573818 
L 72.959654 213.375622 
L 73.132895 222.573819 
L 73.306137 204.858555 
L 73.65262 212.269257 
L 73.825861 227.570637 
L 73.999103 214.002517 
L 74.345586 224.108989 
L 74.518827 217.404164 
L 74.692069 233.536406 
L 74.86531 234.18406 
L 75.038552 216.470711 
L 75.385035 233.43885 
L 75.731518 210.019089 
L 75.904759 222.926594 
L 76.078001 226.974955 
L 76.251242 225.874928 
L 76.424483 232.911474 
L 76.597725 218.364681 
L 76.770966 213.752751 
L 76.944208 216.359289 
L 77.117449 229.252294 
L 77.463932 223.566238 
L 77.637174 227.141514 
L 77.810415 221.532831 
L 77.983657 229.422654 
L 78.33014 219.018094 
L 78.503381 216.964031 
L 78.676623 231.823561 
L 78.849864 208.899945 
L 79.023106 226.285005 
L 79.196347 224.716856 
L 79.369589 232.66977 
L 79.54283 219.944027 
L 79.716072 219.306129 
L 79.889313 229.904292 
L 80.062555 214.557827 
L 80.235796 218.736145 
L 80.409038 233.407357 
L 80.582279 231.361943 
L 80.755521 226.232478 
L 80.928762 215.924107 
L 81.102004 219.999109 
L 81.275245 235.708018 
L 81.448487 202.156964 
L 81.79497 230.8643 
L 81.968211 218.9487 
L 82.141453 235.427419 
L 82.314694 217.940316 
L 82.487936 226.78091 
L 82.661177 204.56263 
L 83.00766 223.407417 
L 83.180901 231.193629 
L 83.354143 215.850132 
L 83.700626 229.277756 
L 84.047109 223.806484 
L 84.22035 227.463611 
L 84.393592 228.765376 
L 84.566833 239.587782 
L 84.740075 200.225702 
L 84.913316 231.395664 
L 85.086558 225.430481 
L 85.433041 231.126833 
L 85.606282 231.722152 
L 85.779524 225.461379 
L 85.952765 225.308764 
L 86.126007 240.882161 
L 86.299248 203.403844 
L 86.645731 231.325249 
L 86.818973 225.764824 
L 86.992214 228.290483 
L 87.165456 232.588 
L 87.338697 232.276376 
L 87.511939 214.263547 
L 88.031663 239.955021 
L 88.204905 241.482267 
L 88.378146 221.230875 
L 88.551388 238.972232 
L 88.724629 223.859297 
L 88.897871 231.244215 
L 89.071112 208.62594 
L 89.764078 230.717484 
L 89.937319 238.488389 
L 90.110561 226.455666 
L 90.283802 236.258602 
L 90.457044 220.730651 
L 90.630285 219.987206 
L 90.803527 239.814216 
L 90.976768 235.0281 
L 91.15001 214.776966 
L 91.323251 234.110299 
L 91.669734 206.472875 
L 91.842976 239.429103 
L 92.189459 236.523767 
L 92.3627 239.799014 
L 92.535942 240.716421 
L 92.709183 230.454079 
L 92.882425 232.644037 
L 93.228908 216.021874 
L 93.402149 238.856039 
L 93.575391 233.921546 
L 93.748632 220.750095 
L 94.095115 236.334926 
L 94.268357 228.300168 
L 94.441598 229.277845 
L 94.61484 243.359587 
L 94.961323 225.807301 
L 95.134564 224.033018 
L 95.307805 235.654457 
L 95.481047 228.388902 
L 95.654288 208.515546 
L 95.82753 241.14984 
L 96.174013 208.125837 
L 96.347254 241.030897 
L 96.520496 214.042357 
L 96.866979 234.332021 
L 97.04022 237.28048 
L 97.386703 221.186421 
L 97.559945 225.481115 
L 97.733186 215.75581 
L 97.906428 228.049819 
L 98.079669 221.897899 
L 98.252911 224.118921 
L 98.426152 210.533532 
L 98.599394 225.376687 
L 98.772635 197.602924 
L 98.945877 227.031967 
L 99.119118 223.787544 
L 99.638843 241.654399 
L 99.812084 239.809153 
L 99.985326 233.618778 
L 100.158567 236.002487 
L 100.678292 217.849526 
L 100.851533 228.3442 
L 101.024775 229.165741 
L 101.198016 233.222085 
L 101.371258 217.110586 
L 101.544499 236.732149 
L 101.71774 222.930123 
L 101.890982 228.039666 
L 102.064223 211.70244 
L 102.237465 236.753591 
L 102.410706 232.430899 
L 102.583948 232.845774 
L 102.757189 234.366671 
L 102.930431 234.182097 
L 103.103672 222.39739 
L 103.276914 241.303963 
L 103.450155 237.25977 
L 103.623397 224.048767 
L 103.96988 232.478692 
L 104.143121 230.990123 
L 104.316363 237.806203 
L 104.489604 228.700708 
L 104.662846 229.015589 
L 104.836087 225.597151 
L 105.009329 227.562412 
L 105.18257 251.941416 
L 105.529053 234.045278 
L 105.702295 230.616752 
L 105.875536 243.81966 
L 106.048778 242.69419 
L 106.222019 224.550924 
L 106.395261 228.070155 
L 106.568502 243.024076 
L 106.741744 217.054844 
L 107.088227 249.800406 
L 107.261468 219.735844 
L 107.43471 223.485811 
L 107.607951 241.146388 
L 107.781193 227.636066 
L 107.954434 239.834249 
L 108.127675 212.474747 
L 108.300917 216.097608 
L 108.474158 236.670672 
L 108.6474 230.3512 
L 108.820641 232.442622 
L 108.993883 217.910107 
L 109.340366 237.036809 
L 109.513607 229.078322 
L 109.686849 234.80157 
L 109.86009 232.238306 
L 110.033332 241.583749 
L 110.206573 218.782496 
L 110.379815 214.810051 
L 110.553056 242.589931 
L 110.726298 205.725109 
L 111.072781 234.010306 
L 111.246022 226.57929 
L 111.419264 228.676381 
L 111.592505 228.157339 
L 111.765747 227.99956 
L 112.11223 241.741833 
L 112.458713 234.153104 
L 112.631954 222.081029 
L 112.978437 235.759491 
L 113.151679 227.469038 
L 113.32492 238.009768 
L 113.498162 228.930837 
L 113.671403 229.228745 
L 113.844645 231.279712 
L 114.017886 216.235482 
L 114.191128 221.795279 
L 114.364369 240.115896 
L 114.710852 232.845664 
L 114.884093 237.547322 
L 115.230576 214.05079 
L 115.403818 239.576507 
L 115.577059 248.012168 
L 115.923542 238.989424 
L 116.096784 230.410759 
L 116.270025 231.321257 
L 116.616508 224.139087 
L 116.78975 240.872906 
L 116.962991 243.583654 
L 117.136233 222.433887 
L 117.482716 238.430977 
L 117.655957 238.694881 
L 117.829199 227.206553 
L 118.175682 240.094911 
L 118.348923 239.112868 
L 118.522165 239.075328 
L 118.695406 236.779415 
L 118.868648 206.979397 
L 119.041889 238.975224 
L 119.215131 241.587735 
L 119.388372 236.080845 
L 119.561614 237.450515 
L 119.908097 220.181467 
L 120.081338 240.091995 
L 120.774304 221.889197 
L 120.947545 227.691324 
L 121.120787 252.145399 
L 121.294028 228.292248 
L 121.46727 240.227949 
L 121.640511 227.295521 
L 121.986994 234.767063 
L 122.160236 229.710103 
L 122.333477 233.261717 
L 122.506719 239.750696 
L 122.67996 224.221493 
L 122.853202 229.206251 
L 123.026443 237.519103 
L 123.199685 236.202176 
L 123.372926 218.888847 
L 123.546168 236.556043 
L 123.719409 216.749385 
L 123.892651 224.738637 
L 124.065892 242.554164 
L 124.239134 229.640485 
L 124.585617 245.437954 
L 124.758858 223.555717 
L 124.9321 252.730933 
L 125.105341 235.966026 
L 125.278583 231.928442 
L 125.451824 233.476886 
L 125.625066 229.247234 
L 125.798307 252.336671 
L 125.971549 225.866345 
L 126.491273 253.164782 
L 126.664515 222.707106 
L 126.837756 236.453756 
L 127.010998 229.823748 
L 127.184239 237.115776 
L 127.35748 225.80828 
L 127.530722 227.732334 
L 127.703963 226.471803 
L 127.877205 216.231457 
L 128.050446 236.51559 
L 128.223688 238.849251 
L 128.396929 237.847682 
L 128.570171 225.507916 
L 128.743412 234.102089 
L 128.916654 236.645684 
L 129.263137 230.310017 
L 129.436378 247.595158 
L 129.60962 235.476001 
L 129.782861 234.45315 
L 129.956103 244.118773 
L 130.129344 236.605372 
L 130.302586 237.220767 
L 130.475827 224.345762 
L 130.649069 234.1821 
L 130.995552 224.622851 
L 131.342035 239.962599 
L 131.515276 230.480593 
L 131.688518 227.899763 
L 131.861759 221.085707 
L 132.035001 239.335523 
L 132.208242 244.148855 
L 132.381484 237.934594 
L 132.554725 246.553042 
L 132.901208 238.569756 
L 133.07445 228.175639 
L 133.420932 238.887186 
L 133.594174 237.595933 
L 133.767415 214.386893 
L 133.940657 236.558238 
L 134.113898 224.750242 
L 134.28714 243.551002 
L 134.460381 212.872846 
L 134.633623 239.075744 
L 134.806864 224.440311 
L 134.980106 223.130784 
L 135.153347 228.390699 
L 135.326589 245.655175 
L 135.49983 224.577326 
L 135.846313 247.14259 
L 136.019555 222.791413 
L 136.192796 217.370225 
L 136.366038 233.782152 
L 136.539279 232.981951 
L 136.712521 237.097321 
L 136.885762 231.087655 
L 137.232245 243.951551 
L 137.405487 218.938751 
L 137.75197 242.470244 
L 138.098453 237.784397 
L 138.271694 237.919479 
L 138.444936 237.444558 
L 138.618177 224.384209 
L 138.791419 241.252751 
L 138.96466 242.508983 
L 139.137902 225.681732 
L 139.484385 236.853899 
L 139.657626 227.252197 
L 139.830867 235.322671 
L 140.004109 236.279618 
L 140.17735 236.287208 
L 140.350592 225.300284 
L 140.697075 240.181571 
L 140.870316 239.210496 
L 141.216799 229.104192 
L 141.390041 233.365298 
L 141.563282 244.40926 
L 141.736524 231.33237 
L 141.909765 235.95822 
L 142.083007 227.159034 
L 142.256248 239.699414 
L 142.42949 230.381506 
L 142.602731 234.834186 
L 142.775973 224.765107 
L 142.949214 226.515018 
L 143.295697 237.956489 
L 143.468939 241.960102 
L 143.815422 230.539403 
L 144.161905 235.86908 
L 144.335146 220.670223 
L 144.681629 247.933775 
L 144.854871 237.990935 
L 145.028112 244.11862 
L 145.201354 230.985541 
L 145.374595 240.085629 
L 145.547837 232.61276 
L 145.721078 211.223018 
L 145.89432 212.215848 
L 146.067561 231.089999 
L 146.240802 236.019329 
L 146.414044 231.180851 
L 146.587285 235.819556 
L 146.760527 217.228924 
L 146.933768 238.524806 
L 147.280251 227.342106 
L 147.453493 206.500628 
L 147.626734 249.734337 
L 147.799976 246.564052 
L 147.973217 237.836835 
L 148.146459 241.575547 
L 148.3197 233.733283 
L 148.492942 231.772346 
L 148.666183 216.465624 
L 148.839425 237.724606 
L 149.012666 235.356024 
L 149.185908 228.545977 
L 149.359149 231.301685 
L 149.532391 229.168417 
L 149.705632 233.095203 
L 149.878874 242.756138 
L 150.052115 233.32256 
L 150.225357 232.815331 
L 150.398598 249.783197 
L 150.57184 233.99426 
L 150.745081 234.456775 
L 150.918323 213.942107 
L 151.091564 233.989964 
L 151.264806 227.19982 
L 151.438047 229.810756 
L 151.611289 245.226464 
L 151.78453 221.680887 
L 152.131013 243.445596 
L 152.304255 236.577416 
L 152.477496 242.384607 
L 152.650737 237.136215 
L 152.823979 244.121347 
L 152.99722 226.131936 
L 153.170462 244.733752 
L 153.690186 227.23151 
L 153.863428 230.771661 
L 154.036669 229.062134 
L 154.209911 240.416328 
L 154.383152 235.696311 
L 154.556394 236.664047 
L 154.729635 235.300714 
L 154.902877 241.091398 
L 155.076118 223.965534 
L 155.422601 237.020726 
L 155.769084 224.223786 
L 155.942326 223.963838 
L 156.115567 246.695937 
L 156.288809 237.586368 
L 156.46205 246.947144 
L 156.635292 247.215511 
L 156.808533 234.607409 
L 156.981775 244.956603 
L 157.155016 237.772815 
L 157.328258 242.043239 
L 157.501499 222.058323 
L 157.674741 239.680909 
L 157.847982 242.218298 
L 158.021224 224.740621 
L 158.194465 242.871659 
L 158.367707 244.049479 
L 158.540948 252.542827 
L 158.71419 229.724551 
L 158.887431 222.11439 
L 159.233914 238.758017 
L 159.407155 234.462222 
L 159.580397 222.780252 
L 159.753638 232.694519 
L 160.100121 220.679015 
L 160.273363 236.04782 
L 160.446604 233.265469 
L 160.619846 236.879652 
L 160.966329 227.203267 
L 161.13957 249.435563 
L 161.486053 215.955784 
L 161.659295 217.007243 
L 162.005778 234.898777 
L 162.352261 225.316085 
L 162.871985 242.693276 
L 163.045227 234.754645 
L 163.218468 235.368019 
L 163.39171 225.671593 
L 163.564951 233.006696 
L 163.738193 245.862221 
L 163.911434 234.035291 
L 164.257917 227.57933 
L 164.431159 228.47667 
L 164.6044 250.177802 
L 164.777642 246.160974 
L 164.950883 222.390094 
L 165.124125 245.994307 
L 165.297366 235.992793 
L 165.470607 232.471099 
L 165.643849 237.54095 
L 165.81709 233.467508 
L 165.990332 241.757999 
L 166.163573 244.08551 
L 166.336815 220.885496 
L 166.510056 233.081187 
L 166.683298 221.67984 
L 166.856539 237.568016 
L 167.029781 240.672334 
L 167.203022 234.151462 
L 167.376264 237.470233 
L 167.549505 222.613819 
L 167.722747 245.677854 
L 167.895988 231.883759 
L 168.06923 237.89459 
L 168.242471 231.030406 
L 168.415713 240.402135 
L 168.588954 238.576011 
L 168.762196 217.07917 
L 168.935437 241.801333 
L 169.108679 235.405486 
L 169.28192 243.10342 
L 169.455162 233.666383 
L 169.628403 236.51412 
L 169.974886 228.365739 
L 170.321369 248.553641 
L 170.494611 245.38502 
L 170.667852 229.46116 
L 171.014335 240.682628 
L 171.187577 219.12047 
L 171.360818 226.088495 
L 171.534059 244.124802 
L 171.707301 249.554755 
L 171.880542 237.984395 
L 172.053784 234.434484 
L 172.227025 238.871722 
L 172.400267 226.413039 
L 172.74675 241.181859 
L 172.919991 238.607564 
L 173.093233 237.707878 
L 173.266474 241.889956 
L 173.439716 234.036793 
L 173.612957 231.548082 
L 173.786199 233.577882 
L 173.95944 232.545237 
L 174.132682 225.008866 
L 174.305923 232.977586 
L 174.479165 227.679478 
L 174.825648 244.021432 
L 174.998889 241.924925 
L 175.172131 242.082702 
L 175.345372 238.150043 
L 175.518614 244.144043 
L 175.691855 225.859751 
L 175.865097 241.729772 
L 176.038338 235.56076 
L 176.21158 221.027082 
L 176.384821 226.401008 
L 176.558063 219.092648 
L 176.731304 237.309701 
L 177.077787 231.317614 
L 177.251029 207.75039 
L 177.42427 238.709247 
L 177.597512 236.654848 
L 177.770753 220.790516 
L 177.943994 244.166742 
L 178.117236 235.779718 
L 178.290477 246.055292 
L 178.463719 224.97694 
L 178.810202 243.445281 
L 178.983443 221.211229 
L 179.156685 246.801692 
L 179.329926 240.937115 
L 179.503168 200.180332 
L 179.676409 215.264858 
L 179.849651 246.630411 
L 180.022892 234.341711 
L 180.196134 213.126385 
L 180.369375 242.519256 
L 180.542617 239.801868 
L 180.715858 223.380468 
L 180.8891 243.221008 
L 181.062341 240.045418 
L 181.235583 220.599939 
L 181.408824 240.475132 
L 181.582066 243.54947 
L 181.755307 230.274615 
L 181.928549 251.888683 
L 182.10179 245.99211 
L 182.275032 215.943736 
L 182.448273 242.010261 
L 182.621515 229.937812 
L 182.794756 241.004634 
L 182.967998 241.068584 
L 183.141239 223.325188 
L 183.314481 239.112534 
L 183.487722 220.419387 
L 183.660964 238.999015 
L 183.834205 234.534422 
L 184.007447 224.70509 
L 184.180688 225.965669 
L 184.353929 232.939878 
L 184.527171 235.349821 
L 184.700412 228.201024 
L 184.873654 236.930173 
L 185.046895 235.696093 
L 185.220137 211.679208 
L 185.393378 236.883025 
L 185.56662 237.148035 
L 185.739861 242.922861 
L 185.913103 240.879455 
L 186.432827 216.915447 
L 186.77931 241.425156 
L 186.952552 234.075297 
L 187.299035 252.951487 
L 187.472276 233.113789 
L 187.818759 238.188479 
L 187.992001 239.751093 
L 188.165242 237.282688 
L 188.338484 226.12098 
L 188.511725 229.428844 
L 188.684967 223.940795 
L 188.858208 239.919263 
L 189.03145 244.505914 
L 189.204691 224.542168 
L 189.377933 243.199339 
L 189.551174 236.912198 
L 189.724416 225.672856 
L 190.070899 247.538438 
L 190.24414 236.083092 
L 190.417382 235.497585 
L 190.590623 234.448224 
L 190.763864 236.114055 
L 190.937106 225.775881 
L 191.110347 247.55295 
L 191.283589 234.923699 
L 191.45683 232.204212 
L 191.630072 224.597374 
L 192.149796 243.630258 
L 192.323038 231.815053 
L 192.496279 234.769873 
L 192.669521 243.389006 
L 192.842762 242.28247 
L 193.189245 236.374241 
L 193.362487 228.52602 
L 193.535728 230.804201 
L 193.70897 236.347162 
L 194.055453 232.151753 
L 194.228694 230.762587 
L 194.401936 238.032701 
L 194.575177 230.445008 
L 194.748419 244.190042 
L 194.92166 207.79633 
L 195.094902 219.085354 
L 195.268143 245.993895 
L 195.441385 234.586571 
L 195.614626 242.887705 
L 195.787868 241.83602 
L 195.961109 228.978272 
L 196.134351 237.111653 
L 196.307592 224.490463 
L 196.480834 251.381672 
L 196.654075 238.151815 
L 196.827317 239.570557 
L 197.000558 255.294844 
L 197.173799 224.652458 
L 197.347041 241.620263 
L 197.520282 240.041853 
L 197.866765 219.252785 
L 198.040007 248.672874 
L 198.38649 232.084436 
L 198.559731 234.879064 
L 198.732973 212.139536 
L 199.079456 249.918695 
L 199.252697 245.238285 
L 199.425939 247.010843 
L 199.59918 224.983071 
L 199.772422 223.211572 
L 199.945663 226.755081 
L 200.118905 234.259367 
L 200.292146 219.442038 
L 200.465388 239.106131 
L 200.638629 221.343123 
L 200.811871 241.001376 
L 200.985112 247.806479 
L 201.158354 240.197876 
L 201.331595 222.746108 
L 201.504837 234.24788 
L 201.678078 231.037128 
L 201.85132 235.555072 
L 202.024561 232.576371 
L 202.197803 248.19224 
L 202.371044 229.61534 
L 202.544286 230.890705 
L 202.717527 247.491643 
L 202.890769 222.637394 
L 203.06401 242.585022 
L 203.237252 224.233844 
L 203.410493 219.854143 
L 203.756976 246.754131 
L 203.930217 225.293179 
L 204.103459 240.776697 
L 204.2767 238.286235 
L 204.449942 241.995684 
L 204.796425 225.514911 
L 204.969666 231.88759 
L 205.142908 229.929467 
L 205.316149 243.593281 
L 205.489391 242.103362 
L 205.662632 255.317638 
L 205.835874 234.766637 
L 206.009115 245.304364 
L 206.182357 222.127494 
L 206.52884 246.847794 
L 206.875323 228.372705 
L 207.048564 223.109988 
L 207.221806 243.87464 
L 207.568289 225.204958 
L 207.74153 227.404155 
L 207.914772 249.871509 
L 208.088013 253.655781 
L 208.434496 216.660013 
L 208.607738 245.853337 
L 208.954221 229.897185 
L 209.127462 234.116539 
L 209.300704 250.636788 
L 209.473945 213.283861 
L 209.647186 242.759951 
L 209.820428 234.602041 
L 209.993669 243.092099 
L 210.166911 227.668098 
L 210.340152 227.29345 
L 210.513394 224.332603 
L 210.686635 239.332285 
L 211.033118 226.329876 
L 211.20636 198.687214 
L 211.379601 239.821781 
L 211.552843 235.223329 
L 211.726084 234.296833 
L 211.899326 247.139449 
L 212.245809 241.246168 
L 212.41905 240.108169 
L 212.592292 231.518616 
L 212.765533 239.041833 
L 212.938775 229.795558 
L 213.285258 248.965384 
L 213.458499 234.65865 
L 213.631741 229.593567 
L 213.804982 248.72486 
L 213.978224 229.869407 
L 214.151465 241.100268 
L 214.497948 233.666713 
L 214.67119 252.061792 
L 214.844431 237.533259 
L 215.017673 235.241448 
L 215.190914 245.58482 
L 215.364156 226.568191 
L 215.537397 243.297229 
L 215.710639 240.904409 
L 215.88388 234.447714 
L 216.057121 223.326371 
L 216.230363 239.819192 
L 216.403604 232.673414 
L 216.576846 234.276 
L 216.750087 222.278128 
L 216.923329 243.05698 
L 217.09657 241.184421 
L 217.269812 219.211034 
L 217.443053 245.145794 
L 217.616295 219.036548 
L 217.789536 249.914755 
L 218.136019 230.4926 
L 218.482502 239.270247 
L 218.655744 219.1695 
L 218.828985 250.451763 
L 219.175468 227.607204 
L 219.34871 240.77505 
L 219.521951 229.198069 
L 219.695193 227.856244 
L 219.868434 225.30875 
L 220.041676 236.505484 
L 220.214917 235.954667 
L 220.388159 245.073289 
L 220.5614 233.191187 
L 220.734642 240.144147 
L 220.907883 239.22592 
L 221.254366 244.566984 
L 221.427608 225.951915 
L 221.774091 238.840291 
L 221.947332 251.454612 
L 222.120574 248.161504 
L 222.293815 237.73651 
L 222.467056 241.737914 
L 222.640298 240.722335 
L 222.986781 235.863304 
L 223.160022 227.867222 
L 223.333264 231.677218 
L 223.506505 230.343019 
L 223.679747 243.548391 
L 223.852988 236.037491 
L 224.02623 249.659026 
L 224.199471 229.521625 
L 224.545954 247.045818 
L 224.719196 228.571988 
L 224.892437 253.303791 
L 225.23892 233.566572 
L 225.412162 236.159878 
L 225.585403 242.351092 
L 225.758645 233.63164 
L 225.931886 216.506421 
L 226.105128 224.491429 
L 226.278369 224.776218 
L 226.451611 242.730074 
L 226.624852 244.426076 
L 226.798094 229.269097 
L 226.971335 228.159041 
L 227.144577 245.813318 
L 227.317818 213.587134 
L 227.49106 233.621771 
L 227.664301 232.9294 
L 227.837543 229.253981 
L 228.184026 247.399441 
L 228.357267 224.293205 
L 228.530509 236.651575 
L 228.70375 225.031935 
L 228.876991 238.229534 
L 229.396716 224.554721 
L 229.569957 232.429591 
L 229.743199 223.654757 
L 229.91644 244.230528 
L 230.089682 243.702059 
L 230.436165 213.354387 
L 230.609406 248.286647 
L 230.782648 234.516628 
L 230.955889 232.000178 
L 231.129131 212.371251 
L 231.302372 245.341885 
L 231.475614 248.519332 
L 231.648855 234.165064 
L 232.16858 253.980749 
L 232.341821 249.332735 
L 232.515063 231.978431 
L 232.688304 245.435947 
L 232.861546 210.136808 
L 233.034787 234.628953 
L 233.208029 238.65703 
L 233.38127 224.944975 
L 233.554512 237.142191 
L 233.727753 239.795334 
L 233.900995 234.058316 
L 234.074236 237.050766 
L 234.247478 231.084841 
L 234.420719 238.337686 
L 234.593961 234.415637 
L 234.767202 222.987494 
L 234.940444 244.030145 
L 235.113685 242.597 
L 235.286926 246.477489 
L 235.460168 244.406416 
L 235.979892 230.237293 
L 236.153134 244.457061 
L 236.326375 244.105675 
L 236.672858 224.711214 
L 237.019341 246.635203 
L 237.192583 234.609025 
L 237.365824 233.973107 
L 237.539066 235.819711 
L 237.712307 194.513338 
L 237.885549 233.209884 
L 238.05879 227.081314 
L 238.232032 245.016682 
L 238.405273 232.425577 
L 238.578515 236.984281 
L 238.751756 232.067946 
L 239.098239 246.465209 
L 239.271481 218.652106 
L 239.444722 241.001961 
L 239.617964 223.713102 
L 239.791205 239.160669 
L 239.964447 226.037589 
L 240.137688 229.668597 
L 240.31093 225.874241 
L 240.484171 245.353704 
L 240.657413 223.305643 
L 240.830654 219.128776 
L 241.003896 219.273211 
L 241.177137 232.547723 
L 241.350379 227.754822 
L 241.52362 239.484524 
L 241.696861 235.902403 
L 241.870103 241.861211 
L 242.043344 225.599335 
L 242.216586 237.408583 
L 242.389827 236.992275 
L 242.563069 242.292619 
L 242.73631 230.715462 
L 242.909552 228.515466 
L 243.082793 242.441014 
L 243.256035 243.186052 
L 243.429276 246.610876 
L 243.602518 228.044871 
L 243.775759 241.909887 
L 243.949001 229.424421 
L 244.122242 236.876019 
L 244.295484 237.558535 
L 244.468725 241.321563 
L 244.815208 229.116685 
L 245.161691 243.609476 
L 245.334933 246.564773 
L 245.508174 231.46175 
L 245.681416 233.011885 
L 245.854657 233.105688 
L 246.027899 232.234657 
L 246.374382 238.976182 
L 246.547623 233.305925 
L 246.720865 247.186536 
L 246.894106 230.095388 
L 247.067348 243.743208 
L 247.240589 227.2265 
L 247.413831 237.941595 
L 247.587072 230.512865 
L 247.760314 234.961172 
L 247.933555 235.292861 
L 248.106796 236.846573 
L 248.280038 245.706946 
L 248.453279 230.596907 
L 248.799762 236.334238 
L 248.973004 231.999185 
L 249.146245 246.046156 
L 249.319487 232.047378 
L 249.492728 240.458154 
L 249.66597 228.399765 
L 249.839211 207.568493 
L 250.012453 235.026174 
L 250.185694 228.584804 
L 250.358936 236.901429 
L 250.532177 234.781671 
L 250.87866 239.053643 
L 251.051902 249.913743 
L 251.225143 245.377244 
L 251.398385 233.247539 
L 251.571626 241.600463 
L 251.744868 228.475494 
L 251.918109 246.310124 
L 252.091351 246.222731 
L 252.264592 242.802062 
L 252.437834 241.620918 
L 252.784317 230.258113 
L 252.957558 230.470263 
L 253.1308 240.336694 
L 253.304041 237.64474 
L 253.650524 251.217531 
L 253.823766 223.280655 
L 254.170248 242.631033 
L 254.34349 234.05281 
L 254.516731 238.859433 
L 254.689973 225.635333 
L 255.036456 237.737641 
L 255.209697 220.213114 
L 255.55618 246.130613 
L 255.729422 242.600362 
L 255.902663 247.583765 
L 256.075905 231.018877 
L 256.422388 244.255376 
L 256.595629 242.25053 
L 256.768871 250.069202 
L 256.942112 234.898434 
L 257.115354 261.216 
L 257.288595 244.390876 
L 257.461837 241.888229 
L 257.635078 230.56112 
L 257.80832 247.280829 
L 257.981561 226.607836 
L 258.154803 244.511923 
L 258.328044 239.506115 
L 258.501286 218.425349 
L 258.674527 242.323262 
L 258.847769 234.072776 
L 259.02101 213.553338 
L 259.367493 236.79256 
L 259.540735 235.775754 
L 259.713976 249.865705 
L 259.887218 235.974717 
L 260.233701 247.521877 
L 260.580183 233.49626 
L 260.753425 232.965491 
L 260.926666 243.294011 
L 261.099908 246.630878 
L 261.446391 247.633479 
L 261.619632 242.099415 
L 261.792874 219.767168 
L 261.966115 237.701959 
L 262.139357 239.600873 
L 262.312598 226.200501 
L 262.48584 242.445686 
L 262.659081 246.280621 
L 262.832323 231.319017 
L 263.005564 232.456899 
L 263.178806 223.122541 
L 263.352047 229.369223 
L 263.525289 245.459799 
L 263.69853 232.375167 
L 263.871772 242.205733 
L 264.218255 216.920468 
L 264.391496 219.142881 
L 264.564738 228.683189 
L 264.737979 225.301947 
L 264.911221 230.050521 
L 265.084462 246.210536 
L 265.257704 241.833062 
L 265.430945 243.159807 
L 265.604187 200.257355 
L 265.777428 243.118272 
L 266.123911 251.262449 
L 266.297153 225.365736 
L 266.643636 245.641524 
L 266.990118 231.310284 
L 267.336601 250.871154 
L 267.509843 235.39997 
L 267.683084 255.747117 
L 267.856326 240.718305 
L 268.029567 239.499599 
L 268.202809 214.112417 
L 268.37605 238.005209 
L 268.549292 242.42962 
L 268.722533 224.301085 
L 268.895775 239.273217 
L 269.069016 239.438527 
L 269.242258 242.784674 
L 269.415499 224.314218 
L 269.761982 234.926942 
L 269.935224 226.431612 
L 270.108465 243.077992 
L 270.281707 241.013984 
L 270.454948 234.503731 
L 270.62819 244.314511 
L 270.801431 226.726146 
L 270.974673 248.95938 
L 271.147914 226.541282 
L 271.321156 232.878818 
L 271.494397 220.373714 
L 271.667639 249.015832 
L 271.84088 224.118107 
L 272.014122 247.856666 
L 272.360605 228.083816 
L 272.533846 251.476676 
L 272.707088 229.933199 
L 272.880329 242.950444 
L 273.053571 221.437546 
L 273.226812 227.696322 
L 273.400053 229.430375 
L 273.573295 229.337933 
L 273.746536 242.772046 
L 273.919778 226.275464 
L 274.093019 228.27579 
L 274.266261 245.675513 
L 274.439502 219.818338 
L 274.785985 249.542628 
L 274.959227 246.613555 
L 275.132468 248.414441 
L 275.478951 230.614671 
L 275.652193 233.519989 
L 275.825434 240.947314 
L 275.998676 217.275347 
L 276.171917 239.923725 
L 276.345159 227.12415 
L 276.864883 247.537612 
L 277.038125 226.366687 
L 277.211366 236.816399 
L 277.384608 237.324451 
L 277.557849 239.765088 
L 277.731091 238.784266 
L 277.904332 227.667135 
L 278.077574 245.764219 
L 278.250815 240.296655 
L 278.424057 228.9341 
L 278.597298 234.249891 
L 278.77054 244.588787 
L 279.117023 219.944276 
L 279.290264 236.53762 
L 279.463506 237.451715 
L 279.636747 237.751439 
L 279.98323 248.405077 
L 280.329713 235.115873 
L 280.676196 232.846154 
L 281.022679 250.034796 
L 281.369162 222.160545 
L 281.542403 237.427166 
L 281.715645 237.226401 
L 281.888886 249.285045 
L 282.062128 238.935895 
L 282.235369 245.655605 
L 282.408611 221.223188 
L 282.581852 219.090631 
L 282.755094 240.082861 
L 282.928335 240.6472 
L 283.101577 233.820129 
L 283.274818 244.760634 
L 283.44806 235.312542 
L 283.621301 232.04155 
L 283.794543 246.971041 
L 284.141026 222.97537 
L 284.314267 231.977387 
L 284.487509 233.899601 
L 284.66075 233.863188 
L 284.833992 257.011878 
L 285.007233 249.219988 
L 285.180475 248.746609 
L 285.353716 226.826 
L 285.526958 226.540359 
L 285.700199 249.5844 
L 285.873441 244.138782 
L 286.046682 230.010648 
L 286.219923 229.437195 
L 286.393165 244.744094 
L 286.566406 238.128804 
L 286.739648 239.437951 
L 286.912889 239.442118 
L 287.086131 206.057459 
L 287.259372 222.355628 
L 287.432614 226.482699 
L 287.605855 242.308316 
L 287.779097 207.122474 
L 287.952338 231.62056 
L 288.12558 239.084281 
L 288.298821 229.776598 
L 288.472063 231.498905 
L 288.645304 231.467365 
L 288.818546 232.784469 
L 288.991787 236.444742 
L 289.165029 235.62284 
L 289.33827 252.35998 
L 289.511512 244.338815 
L 289.684753 244.212361 
L 289.857995 246.343586 
L 290.031236 220.436897 
L 290.204478 224.736729 
L 290.550961 254.255394 
L 290.724202 253.949896 
L 291.070685 242.051839 
L 291.243927 234.906863 
L 291.417168 233.82983 
L 291.59041 230.407034 
L 291.763651 239.382552 
L 292.283375 228.543068 
L 292.456617 235.272853 
L 292.629858 235.910109 
L 292.8031 245.077881 
L 292.976341 221.845387 
L 293.149583 228.388338 
L 293.322824 225.386548 
L 293.496066 245.165096 
L 293.669307 246.52635 
L 293.842549 233.359011 
L 294.01579 242.484162 
L 294.189032 232.228766 
L 294.362273 232.249833 
L 294.535515 236.782651 
L 294.708756 231.700424 
L 295.228481 240.051605 
L 295.401722 239.012812 
L 295.574964 210.77957 
L 295.748205 223.149348 
L 295.921447 252.999411 
L 296.094688 232.781289 
L 296.26793 239.889167 
L 296.441171 242.260291 
L 296.787654 238.408059 
L 296.960896 228.610169 
L 297.134137 232.680952 
L 297.307379 230.95191 
L 297.48062 253.700914 
L 297.653862 239.405796 
L 297.827103 235.98447 
L 298.000345 236.236552 
L 298.173586 235.704915 
L 298.346828 236.811455 
L 298.520069 253.483245 
L 298.69331 247.937849 
L 298.866552 231.211496 
L 299.039793 242.598031 
L 299.213035 245.165087 
L 299.386276 239.929317 
L 299.559518 252.382163 
L 299.906001 236.722736 
L 300.079242 236.974424 
L 300.252484 248.456323 
L 300.425725 231.914255 
L 300.598967 232.312622 
L 300.94545 241.092574 
L 301.118691 228.183561 
L 301.291933 228.461595 
L 301.465174 227.718462 
L 301.638416 246.429759 
L 301.811657 245.055031 
L 302.15814 239.599244 
L 302.331382 237.068647 
L 302.504623 242.373977 
L 302.677865 233.443463 
L 302.851106 236.588918 
L 303.024348 243.916168 
L 303.197589 231.190205 
L 303.370831 250.135362 
L 303.890555 221.86403 
L 304.063797 235.05018 
L 304.237038 234.765858 
L 304.41028 253.495186 
L 304.583521 232.804514 
L 304.756763 237.684439 
L 304.930004 227.443741 
L 305.103245 239.969577 
L 305.276487 232.310193 
L 305.449728 237.852507 
L 305.62297 221.924769 
L 305.796211 242.133386 
L 305.969453 244.584342 
L 306.315936 225.957145 
L 306.489177 228.624044 
L 306.662419 248.991221 
L 306.83566 251.539393 
L 307.008902 237.72137 
L 307.182143 243.172808 
L 307.355385 239.210236 
L 307.528626 226.935337 
L 307.701868 245.517606 
L 307.875109 242.231701 
L 308.221592 224.016391 
L 308.394834 249.28234 
L 308.568075 238.876421 
L 308.741317 236.027661 
L 308.914558 237.788978 
L 309.0878 247.975973 
L 309.261041 234.554997 
L 309.434283 244.623986 
L 309.607524 235.083315 
L 309.780766 241.687938 
L 309.954007 241.291198 
L 310.127249 237.775037 
L 310.30049 237.757243 
L 310.473732 239.985348 
L 310.646973 254.442937 
L 310.820215 229.608109 
L 311.166698 224.387032 
L 311.339939 250.783129 
L 311.51318 249.927065 
L 311.859663 223.50613 
L 312.032905 241.622729 
L 312.206146 237.46766 
L 312.379388 240.441379 
L 312.725871 223.702474 
L 312.899112 243.034045 
L 313.072354 229.034189 
L 313.418837 249.926596 
L 313.592078 252.018135 
L 313.938561 232.734996 
L 314.111803 229.108836 
L 314.285044 229.586889 
L 314.631527 245.058756 
L 314.804769 237.2588 
L 314.97801 245.926939 
L 315.151252 236.417024 
L 315.324493 251.535394 
L 315.497735 231.487699 
L 315.670976 244.571075 
L 315.844218 222.177022 
L 316.190701 244.725649 
L 316.537184 221.965015 
L 316.710425 225.819813 
L 316.883667 241.780486 
L 317.056908 220.085271 
L 317.23015 243.739344 
L 317.403391 213.747669 
L 317.576633 251.290887 
L 317.749874 240.802997 
L 317.923115 244.701938 
L 318.269598 243.738501 
L 318.44284 246.732136 
L 318.789323 218.883207 
L 318.962564 247.726804 
L 319.309047 231.899679 
L 319.828772 245.287909 
L 320.175255 216.638327 
L 320.348496 244.454783 
L 320.521738 249.607556 
L 320.868221 229.888479 
L 321.041462 226.482677 
L 321.387945 247.843915 
L 321.561187 247.318446 
L 321.734428 235.498272 
L 321.90767 233.908969 
L 322.080911 217.173539 
L 322.254153 249.357258 
L 322.427394 217.43912 
L 322.600636 218.514819 
L 322.773877 249.666991 
L 322.947119 232.915777 
L 323.12036 241.025085 
L 323.293602 228.67277 
L 323.640085 234.31969 
L 323.813326 239.12655 
L 323.986568 237.300904 
L 324.159809 240.763398 
L 324.33305 241.641941 
L 324.506292 229.529447 
L 324.679533 235.777065 
L 324.852775 218.89222 
L 325.026016 239.328903 
L 325.199258 213.117861 
L 325.372499 250.915431 
L 325.545741 249.257386 
L 325.718982 241.075589 
L 325.892224 241.182305 
L 326.065465 250.646681 
L 326.238707 223.117901 
L 326.411948 229.035409 
L 326.758431 245.833478 
L 326.931673 235.4464 
L 327.104914 239.116701 
L 327.278156 240.276894 
L 327.451397 237.331313 
L 327.624639 242.99847 
L 327.79788 237.074374 
L 327.971122 224.067988 
L 328.144363 243.393418 
L 328.317605 242.599085 
L 328.664088 229.394868 
L 328.837329 209.50339 
L 329.010571 240.921082 
L 329.183812 243.619413 
L 329.357054 227.712617 
L 329.530295 244.979006 
L 329.703537 225.275696 
L 329.876778 245.644053 
L 330.05002 241.462275 
L 330.223261 242.363216 
L 330.396502 241.534953 
L 330.569744 221.922111 
L 330.742985 238.468175 
L 330.916227 242.912905 
L 331.089468 243.708587 
L 331.435951 236.091815 
L 331.609193 234.769699 
L 331.782434 243.332073 
L 331.955676 232.867076 
L 332.128917 230.165549 
L 332.302159 224.646491 
L 332.4754 246.065286 
L 332.648642 233.426086 
L 332.821883 238.737122 
L 332.995125 212.878137 
L 333.168366 225.417093 
L 333.341608 250.011453 
L 333.514849 233.409061 
L 333.861332 239.404348 
L 334.034574 239.395444 
L 334.207815 238.759896 
L 334.381057 234.581069 
L 334.554298 247.670572 
L 334.72754 234.064735 
L 334.900781 244.383546 
L 335.074023 236.342156 
L 335.247264 242.926061 
L 335.420506 238.388509 
L 335.593747 243.983144 
L 335.766989 235.987892 
L 335.94023 236.650999 
L 336.286713 243.44111 
L 336.459955 242.618469 
L 336.633196 234.674246 
L 336.806437 240.621883 
L 336.979679 239.683707 
L 337.15292 244.874609 
L 337.326162 228.829335 
L 337.499403 242.070228 
L 337.672645 206.096716 
L 337.845886 248.847842 
L 338.019128 234.916188 
L 338.192369 208.612523 
L 338.538852 249.800451 
L 338.885335 233.690904 
L 339.058577 233.770606 
L 339.231818 232.119102 
L 339.40506 242.838351 
L 339.578301 242.000005 
L 339.751543 249.238272 
L 339.924784 235.628323 
L 340.098026 239.007648 
L 340.271267 248.922571 
L 340.61775 235.603432 
L 340.790992 239.668696 
L 340.964233 253.136455 
L 341.137475 239.189813 
L 341.310716 249.703528 
L 341.483958 251.147865 
L 341.657199 236.212421 
L 341.830441 252.67298 
L 342.003682 236.407478 
L 342.176924 252.064577 
L 342.350165 225.360006 
L 342.523407 244.339338 
L 342.696648 240.530837 
L 342.86989 241.753551 
L 343.043131 246.198011 
L 343.216372 229.26615 
L 343.389614 230.891733 
L 343.562855 242.687541 
L 343.736097 241.581657 
L 343.909338 235.037127 
L 344.08258 246.296038 
L 344.255821 238.863004 
L 344.429063 250.633743 
L 344.602304 230.097145 
L 344.775546 236.594205 
L 344.948787 248.363962 
L 345.122029 224.332833 
L 345.29527 233.398339 
L 345.468512 249.840426 
L 345.641753 240.72736 
L 345.814995 247.085806 
L 346.334719 218.789021 
L 346.681202 250.900646 
L 346.854444 222.943636 
L 347.027685 240.476705 
L 347.200927 235.737378 
L 347.374168 245.142353 
L 347.54741 247.26321 
L 347.720651 224.338117 
L 347.893893 239.167937 
L 348.067134 217.177082 
L 348.586859 229.963923 
L 348.7601 226.82962 
L 348.933342 230.298057 
L 349.106583 226.259072 
L 349.279825 238.912603 
L 349.453066 228.201742 
L 349.626307 243.348237 
L 349.799549 243.842292 
L 350.146032 234.758776 
L 350.319273 234.785077 
L 350.665756 242.619325 
L 350.838998 235.620095 
L 351.012239 238.191411 
L 351.185481 245.260514 
L 351.358722 241.188582 
L 351.705205 244.831712 
L 351.878447 239.774117 
L 352.051688 219.421468 
L 352.22493 244.688155 
L 352.398171 246.390045 
L 352.571413 239.794543 
L 352.744654 222.719852 
L 352.917896 238.828932 
L 353.091137 239.371705 
L 353.264379 232.823436 
L 353.43762 253.165123 
L 353.784103 228.416983 
L 353.957345 228.434449 
L 354.303828 244.080477 
L 354.477069 232.059215 
L 354.650311 248.625548 
L 354.823552 230.445886 
L 354.996794 241.673613 
L 355.170035 241.387756 
L 355.516518 234.648796 
L 355.68976 227.533127 
L 355.863001 231.444326 
L 356.209484 246.619272 
L 356.382725 251.35538 
L 356.555967 233.44767 
L 356.729208 234.210047 
L 356.90245 246.467326 
L 357.075691 227.966649 
L 357.248933 251.419015 
L 357.422174 247.671622 
L 357.768657 221.253609 
L 357.941899 253.665847 
L 358.461623 224.470612 
L 358.808106 234.805304 
L 358.981348 231.389825 
L 359.154589 238.243341 
L 359.327831 218.090071 
L 359.501072 240.931594 
L 359.847555 228.613949 
L 360.020797 241.828812 
L 360.194038 227.188111 
L 360.36728 229.474803 
L 360.713763 243.986444 
L 360.887004 224.74636 
L 361.060246 245.557828 
L 361.233487 227.075691 
L 361.406729 230.122467 
L 361.753212 246.887295 
L 361.926453 222.189898 
L 362.099695 233.845351 
L 362.272936 224.047851 
L 362.446177 246.851651 
L 362.619419 249.587066 
L 363.139143 239.5499 
L 363.312385 231.16742 
L 363.485626 230.738457 
L 363.658868 236.304017 
L 363.832109 232.338923 
L 364.005351 233.036073 
L 364.178592 232.779129 
L 364.351834 241.427611 
L 364.525075 243.996241 
L 364.698317 244.300674 
L 364.871558 229.230677 
L 365.0448 247.9865 
L 365.218041 248.326346 
L 365.391283 214.842148 
L 365.737766 249.964077 
L 365.911007 232.419458 
L 366.084249 255.508092 
L 366.25749 252.15698 
L 366.430732 238.286693 
L 366.603973 253.381287 
L 366.777215 235.112469 
L 366.950456 241.046873 
L 367.123698 234.546259 
L 367.470181 245.490129 
L 367.643422 229.108661 
L 367.816664 250.574094 
L 367.989905 230.04604 
L 368.163147 248.731663 
L 368.336388 226.74959 
L 368.509629 228.877739 
L 368.856112 245.202552 
L 369.202595 223.878769 
L 369.375837 239.727357 
L 369.72232 226.321626 
L 369.895561 241.857198 
L 370.068803 230.584236 
L 370.242044 244.177322 
L 370.415286 200.965737 
L 370.588527 235.428161 
L 370.761769 236.488094 
L 370.93501 246.614156 
L 371.108252 229.816478 
L 371.281493 243.068383 
L 371.454735 223.743654 
L 371.627976 234.266359 
L 371.801218 235.293175 
L 371.974459 239.917567 
L 372.147701 232.908288 
L 372.494184 243.250128 
L 372.667425 237.70726 
L 372.840667 220.975003 
L 373.013908 239.090884 
L 373.18715 234.875441 
L 373.360391 241.736847 
L 373.533633 237.146027 
L 373.880116 248.459041 
L 374.053357 231.109115 
L 374.226599 241.667267 
L 374.39984 241.863455 
L 374.573082 241.079155 
L 374.746323 232.116917 
L 375.092806 239.945322 
L 375.266047 252.738314 
L 375.439289 239.767915 
L 375.61253 238.485005 
L 375.785772 243.897248 
L 376.132255 230.171084 
L 376.305496 242.447558 
L 376.478738 237.109642 
L 376.651979 246.00191 
L 376.825221 228.460995 
L 376.998462 225.076866 
L 377.171704 230.915828 
L 377.518187 252.676749 
L 377.691428 236.140204 
L 377.86467 231.8405 
L 378.037911 246.12132 
L 378.211153 245.243638 
L 378.384394 242.896725 
L 378.557636 230.625032 
L 378.730877 231.14785 
L 378.904119 246.688611 
L 379.07736 229.918039 
L 379.423843 245.969926 
L 379.597085 237.40872 
L 379.770326 240.612627 
L 379.943568 238.748032 
L 380.116809 231.82537 
L 380.290051 244.210371 
L 380.463292 241.154123 
L 380.636534 232.877688 
L 380.809775 245.841173 
L 380.983017 235.561411 
L 381.156258 210.126449 
L 381.329499 236.947244 
L 381.502741 222.775171 
L 381.675982 228.486478 
L 381.849224 230.081325 
L 382.022465 194.999965 
L 382.195707 243.688012 
L 382.54219 231.823665 
L 382.888673 250.296148 
L 383.061914 246.117234 
L 383.235156 225.446757 
L 383.408397 235.627843 
L 383.581639 233.490354 
L 383.75488 242.050257 
L 383.928122 226.261785 
L 384.274605 251.188742 
L 384.447846 248.219816 
L 384.621088 241.735017 
L 384.794329 240.587016 
L 384.967571 242.955739 
L 385.140812 247.9469 
L 385.314054 244.93557 
L 385.487295 254.17959 
L 385.833778 214.220421 
L 386.00702 226.225381 
L 386.180261 247.239091 
L 386.353503 225.694776 
L 386.526744 240.758107 
L 386.699986 241.161965 
L 386.873227 233.025832 
L 387.046469 230.726866 
L 387.21971 235.219167 
L 387.392952 242.869717 
L 387.739434 225.548595 
L 387.912676 226.296988 
L 388.085917 245.880562 
L 388.4324 239.68959 
L 388.605642 240.418771 
L 388.778883 239.656088 
L 388.952125 229.35924 
L 389.125366 242.510564 
L 389.471849 220.077926 
L 389.645091 226.92388 
L 389.818332 220.177402 
L 389.991574 242.780944 
L 390.164815 239.168281 
L 390.338057 233.080853 
L 390.511298 232.485456 
L 390.68454 246.464924 
L 390.857781 242.13577 
L 391.031023 250.655163 
L 391.031023 250.655163 
" clip-path="url(#pfbf6234120)" style="fill: none; stroke: #1f77b4; stroke-width: 1.5; stroke-linecap: square"/>
   </g>
   <g id="patch_3">
    <path d="M 50.14375 273.312 
L 50.14375 7.2 
" style="fill: none; stroke: #000000; stroke-width: 0.8; stroke-linejoin: miter; stroke-linecap: square"/>
   </g>
   <g id="patch_4">
    <path d="M 407.26375 273.312 
L 407.26375 7.2 
" style="fill: none; stroke: #000000; stroke-width: 0.8; stroke-linejoin: miter; stroke-linecap: square"/>
   </g>
   <g id="patch_5">
    <path d="M 50.14375 273.312 
L 407.26375 273.312 
" style="fill: none; stroke: #000000; stroke-width: 0.8; stroke-linejoin: miter; stroke-linecap: square"/>
   </g>
   <g id="patch_6">
    <path d="M 50.14375 7.2 
L 407.26375 7.2 
" style="fill: none; stroke: #000000; stroke-width: 0.8; stroke-linejoin: miter; stroke-linecap: square"/>
   </g>
   <g id="legend_1">
    <g id="patch_7">
     <path d="M 344.98875 29.878125 
L 400.26375 29.878125 
Q 402.26375 29.878125 402.26375 27.878125 
L 402.26375 14.2 
Q 402.26375 12.2 400.26375 12.2 
L 344.98875 12.2 
Q 342.98875 12.2 342.98875 14.2 
L 342.98875 27.878125 
Q 342.98875 29.878125 344.98875 29.878125 
z
" style="fill: #ffffff; opacity: 0.8; stroke: #cccccc; stroke-linejoin: miter"/>
    </g>
    <g id="line2d_36">
     <path d="M 346.98875 20.298437 
L 356.98875 20.298437 
L 366.98875 20.298437 
" style="fill: none; stroke: #1f77b4; stroke-width: 1.5; stroke-linecap: square"/>
    </g>
    <g id="text_20">
     <!-- train -->
     <g transform="translate(374.98875 23.798437) scale(0.1 -0.1)">
      <defs>
       <path id="DejaVuSans-72" d="M 2631 2963 
Q 2534 3019 2420 3045 
Q 2306 3072 2169 3072 
Q 1681 3072 1420 2755 
Q 1159 2438 1159 1844 
L 1159 0 
L 581 0 
L 581 3500 
L 1159 3500 
L 1159 2956 
Q 1341 3275 1631 3429 
Q 1922 3584 2338 3584 
Q 2397 3584 2469 3576 
Q 2541 3569 2628 3553 
L 2631 2963 
z
" transform="scale(0.015625)"/>
       <path id="DejaVuSans-61" d="M 2194 1759 
Q 1497 1759 1228 1600 
Q 959 1441 959 1056 
Q 959 750 1161 570 
Q 1363 391 1709 391 
Q 2188 391 2477 730 
Q 2766 1069 2766 1631 
L 2766 1759 
L 2194 1759 
z
M 3341 1997 
L 3341 0 
L 2766 0 
L 2766 531 
Q 2569 213 2275 61 
Q 1981 -91 1556 -91 
Q 1019 -91 701 211 
Q 384 513 384 1019 
Q 384 1609 779 1909 
Q 1175 2209 1959 2209 
L 2766 2209 
L 2766 2266 
Q 2766 2663 2505 2880 
Q 2244 3097 1772 3097 
Q 1472 3097 1187 3025 
Q 903 2953 641 2809 
L 641 3341 
Q 956 3463 1253 3523 
Q 1550 3584 1831 3584 
Q 2591 3584 2966 3190 
Q 3341 2797 3341 1997 
z
" transform="scale(0.015625)"/>
       <path id="DejaVuSans-69" d="M 603 3500 
L 1178 3500 
L 1178 0 
L 603 0 
L 603 3500 
z
M 603 4863 
L 1178 4863 
L 1178 4134 
L 603 4134 
L 603 4863 
z
" transform="scale(0.015625)"/>
       <path id="DejaVuSans-6e" d="M 3513 2113 
L 3513 0 
L 2938 0 
L 2938 2094 
Q 2938 2591 2744 2837 
Q 2550 3084 2163 3084 
Q 1697 3084 1428 2787 
Q 1159 2491 1159 1978 
L 1159 0 
L 581 0 
L 581 3500 
L 1159 3500 
L 1159 2956 
Q 1366 3272 1645 3428 
Q 1925 3584 2291 3584 
Q 2894 3584 3203 3211 
Q 3513 2838 3513 2113 
z
" transform="scale(0.015625)"/>
      </defs>
      <use xlink:href="#DejaVuSans-74"/>
      <use xlink:href="#DejaVuSans-72" transform="translate(39.208984 0)"/>
      <use xlink:href="#DejaVuSans-61" transform="translate(80.322266 0)"/>
      <use xlink:href="#DejaVuSans-69" transform="translate(141.601562 0)"/>
      <use xlink:href="#DejaVuSans-6e" transform="translate(169.384766 0)"/>
     </g>
    </g>
   </g>
  </g>
 </g>
 <defs>
  <clipPath id="pfbf6234120">
   <rect x="50.14375" y="7.2" width="357.12" height="266.112"/>
  </clipPath>
 </defs>
</svg>
