<?xml version="1.0" encoding="utf-8" standalone="no"?>
<!DOCTYPE svg PUBLIC "-//W3C//DTD SVG 1.1//EN"
  "http://www.w3.org/Graphics/SVG/1.1/DTD/svg11.dtd">
<svg xmlns:xlink="http://www.w3.org/1999/xlink" width="414.46375pt" height="310.86825pt" viewBox="0 0 414.46375 310.86825" xmlns="http://www.w3.org/2000/svg" version="1.1">
 <metadata>
  <rdf:RDF xmlns:dc="http://purl.org/dc/elements/1.1/" xmlns:cc="http://creativecommons.org/ns#" xmlns:rdf="http://www.w3.org/1999/02/22-rdf-syntax-ns#">
   <cc:Work>
    <dc:type rdf:resource="http://purl.org/dc/dcmitype/StillImage"/>
    <dc:date>2025-08-04T20:38:22.951538</dc:date>
    <dc:format>image/svg+xml</dc:format>
    <dc:creator>
     <cc:Agent>
      <dc:title>Matplotlib v3.10.3, https://matplotlib.org/</dc:title>
     </cc:Agent>
    </dc:creator>
   </cc:Work>
  </rdf:RDF>
 </metadata>
 <defs>
  <style type="text/css">*{stroke-linejoin: round; stroke-linecap: butt}</style>
 </defs>
 <g id="figure_1">
  <g id="patch_1">
   <path d="M 0 310.86825 
L 414.46375 310.86825 
L 414.46375 0 
L 0 0 
z
" style="fill: #ffffff"/>
  </g>
  <g id="axes_1">
   <g id="patch_2">
    <path d="M 50.14375 273.312 
L 407.26375 273.312 
L 407.26375 7.2 
L 50.14375 7.2 
z
" style="fill: #ffffff"/>
   </g>
   <g id="matplotlib.axis_1">
    <g id="xtick_1">
     <g id="line2d_1">
      <path d="M 66.376477 273.312 
L 66.376477 7.2 
" clip-path="url(#pd9a7c40ce1)" style="fill: none; stroke-dasharray: 2.96,1.28; stroke-dashoffset: 0; stroke: #b0b0b0; stroke-opacity: 0.3; stroke-width: 0.8"/>
     </g>
     <g id="line2d_2">
      <defs>
       <path id="mb08af76b02" d="M 0 0 
L 0 3.5 
" style="stroke: #000000; stroke-width: 0.8"/>
      </defs>
      <g>
       <use xlink:href="#mb08af76b02" x="66.376477" y="273.312" style="stroke: #000000; stroke-width: 0.8"/>
      </g>
     </g>
     <g id="text_1">
      <!-- 0 -->
      <g transform="translate(63.195227 287.910437) scale(0.1 -0.1)">
       <defs>
        <path id="DejaVuSans-30" d="M 2034 4250 
Q 1547 4250 1301 3770 
Q 1056 3291 1056 2328 
Q 1056 1369 1301 889 
Q 1547 409 2034 409 
Q 2525 409 2770 889 
Q 3016 1369 3016 2328 
Q 3016 3291 2770 3770 
Q 2525 4250 2034 4250 
z
M 2034 4750 
Q 2819 4750 3233 4129 
Q 3647 3509 3647 2328 
Q 3647 1150 3233 529 
Q 2819 -91 2034 -91 
Q 1250 -91 836 529 
Q 422 1150 422 2328 
Q 422 3509 836 4129 
Q 1250 4750 2034 4750 
z
" transform="scale(0.015625)"/>
       </defs>
       <use xlink:href="#DejaVuSans-30"/>
      </g>
     </g>
    </g>
    <g id="xtick_2">
     <g id="line2d_3">
      <path d="M 109.686849 273.312 
L 109.686849 7.2 
" clip-path="url(#pd9a7c40ce1)" style="fill: none; stroke-dasharray: 2.96,1.28; stroke-dashoffset: 0; stroke: #b0b0b0; stroke-opacity: 0.3; stroke-width: 0.8"/>
     </g>
     <g id="line2d_4">
      <g>
       <use xlink:href="#mb08af76b02" x="109.686849" y="273.312" style="stroke: #000000; stroke-width: 0.8"/>
      </g>
     </g>
     <g id="text_2">
      <!-- 250 -->
      <g transform="translate(100.143099 287.910437) scale(0.1 -0.1)">
       <defs>
        <path id="DejaVuSans-32" d="M 1228 531 
L 3431 531 
L 3431 0 
L 469 0 
L 469 531 
Q 828 903 1448 1529 
Q 2069 2156 2228 2338 
Q 2531 2678 2651 2914 
Q 2772 3150 2772 3378 
Q 2772 3750 2511 3984 
Q 2250 4219 1831 4219 
Q 1534 4219 1204 4116 
Q 875 4013 500 3803 
L 500 4441 
Q 881 4594 1212 4672 
Q 1544 4750 1819 4750 
Q 2544 4750 2975 4387 
Q 3406 4025 3406 3419 
Q 3406 3131 3298 2873 
Q 3191 2616 2906 2266 
Q 2828 2175 2409 1742 
Q 1991 1309 1228 531 
z
" transform="scale(0.015625)"/>
        <path id="DejaVuSans-35" d="M 691 4666 
L 3169 4666 
L 3169 4134 
L 1269 4134 
L 1269 2991 
Q 1406 3038 1543 3061 
Q 1681 3084 1819 3084 
Q 2600 3084 3056 2656 
Q 3513 2228 3513 1497 
Q 3513 744 3044 326 
Q 2575 -91 1722 -91 
Q 1428 -91 1123 -41 
Q 819 9 494 109 
L 494 744 
Q 775 591 1075 516 
Q 1375 441 1709 441 
Q 2250 441 2565 725 
Q 2881 1009 2881 1497 
Q 2881 1984 2565 2268 
Q 2250 2553 1709 2553 
Q 1456 2553 1204 2497 
Q 953 2441 691 2322 
L 691 4666 
z
" transform="scale(0.015625)"/>
       </defs>
       <use xlink:href="#DejaVuSans-32"/>
       <use xlink:href="#DejaVuSans-35" transform="translate(63.623047 0)"/>
       <use xlink:href="#DejaVuSans-30" transform="translate(127.246094 0)"/>
      </g>
     </g>
    </g>
    <g id="xtick_3">
     <g id="line2d_5">
      <path d="M 152.99722 273.312 
L 152.99722 7.2 
" clip-path="url(#pd9a7c40ce1)" style="fill: none; stroke-dasharray: 2.96,1.28; stroke-dashoffset: 0; stroke: #b0b0b0; stroke-opacity: 0.3; stroke-width: 0.8"/>
     </g>
     <g id="line2d_6">
      <g>
       <use xlink:href="#mb08af76b02" x="152.99722" y="273.312" style="stroke: #000000; stroke-width: 0.8"/>
      </g>
     </g>
     <g id="text_3">
      <!-- 500 -->
      <g transform="translate(143.45347 287.910437) scale(0.1 -0.1)">
       <use xlink:href="#DejaVuSans-35"/>
       <use xlink:href="#DejaVuSans-30" transform="translate(63.623047 0)"/>
       <use xlink:href="#DejaVuSans-30" transform="translate(127.246094 0)"/>
      </g>
     </g>
    </g>
    <g id="xtick_4">
     <g id="line2d_7">
      <path d="M 196.307592 273.312 
L 196.307592 7.2 
" clip-path="url(#pd9a7c40ce1)" style="fill: none; stroke-dasharray: 2.96,1.28; stroke-dashoffset: 0; stroke: #b0b0b0; stroke-opacity: 0.3; stroke-width: 0.8"/>
     </g>
     <g id="line2d_8">
      <g>
       <use xlink:href="#mb08af76b02" x="196.307592" y="273.312" style="stroke: #000000; stroke-width: 0.8"/>
      </g>
     </g>
     <g id="text_4">
      <!-- 750 -->
      <g transform="translate(186.763842 287.910437) scale(0.1 -0.1)">
       <defs>
        <path id="DejaVuSans-37" d="M 525 4666 
L 3525 4666 
L 3525 4397 
L 1831 0 
L 1172 0 
L 2766 4134 
L 525 4134 
L 525 4666 
z
" transform="scale(0.015625)"/>
       </defs>
       <use xlink:href="#DejaVuSans-37"/>
       <use xlink:href="#DejaVuSans-35" transform="translate(63.623047 0)"/>
       <use xlink:href="#DejaVuSans-30" transform="translate(127.246094 0)"/>
      </g>
     </g>
    </g>
    <g id="xtick_5">
     <g id="line2d_9">
      <path d="M 239.617964 273.312 
L 239.617964 7.2 
" clip-path="url(#pd9a7c40ce1)" style="fill: none; stroke-dasharray: 2.96,1.28; stroke-dashoffset: 0; stroke: #b0b0b0; stroke-opacity: 0.3; stroke-width: 0.8"/>
     </g>
     <g id="line2d_10">
      <g>
       <use xlink:href="#mb08af76b02" x="239.617964" y="273.312" style="stroke: #000000; stroke-width: 0.8"/>
      </g>
     </g>
     <g id="text_5">
      <!-- 1000 -->
      <g transform="translate(226.892964 287.910437) scale(0.1 -0.1)">
       <defs>
        <path id="DejaVuSans-31" d="M 794 531 
L 1825 531 
L 1825 4091 
L 703 3866 
L 703 4441 
L 1819 4666 
L 2450 4666 
L 2450 531 
L 3481 531 
L 3481 0 
L 794 0 
L 794 531 
z
" transform="scale(0.015625)"/>
       </defs>
       <use xlink:href="#DejaVuSans-31"/>
       <use xlink:href="#DejaVuSans-30" transform="translate(63.623047 0)"/>
       <use xlink:href="#DejaVuSans-30" transform="translate(127.246094 0)"/>
       <use xlink:href="#DejaVuSans-30" transform="translate(190.869141 0)"/>
      </g>
     </g>
    </g>
    <g id="xtick_6">
     <g id="line2d_11">
      <path d="M 282.928335 273.312 
L 282.928335 7.2 
" clip-path="url(#pd9a7c40ce1)" style="fill: none; stroke-dasharray: 2.96,1.28; stroke-dashoffset: 0; stroke: #b0b0b0; stroke-opacity: 0.3; stroke-width: 0.8"/>
     </g>
     <g id="line2d_12">
      <g>
       <use xlink:href="#mb08af76b02" x="282.928335" y="273.312" style="stroke: #000000; stroke-width: 0.8"/>
      </g>
     </g>
     <g id="text_6">
      <!-- 1250 -->
      <g transform="translate(270.203335 287.910437) scale(0.1 -0.1)">
       <use xlink:href="#DejaVuSans-31"/>
       <use xlink:href="#DejaVuSans-32" transform="translate(63.623047 0)"/>
       <use xlink:href="#DejaVuSans-35" transform="translate(127.246094 0)"/>
       <use xlink:href="#DejaVuSans-30" transform="translate(190.869141 0)"/>
      </g>
     </g>
    </g>
    <g id="xtick_7">
     <g id="line2d_13">
      <path d="M 326.238707 273.312 
L 326.238707 7.2 
" clip-path="url(#pd9a7c40ce1)" style="fill: none; stroke-dasharray: 2.96,1.28; stroke-dashoffset: 0; stroke: #b0b0b0; stroke-opacity: 0.3; stroke-width: 0.8"/>
     </g>
     <g id="line2d_14">
      <g>
       <use xlink:href="#mb08af76b02" x="326.238707" y="273.312" style="stroke: #000000; stroke-width: 0.8"/>
      </g>
     </g>
     <g id="text_7">
      <!-- 1500 -->
      <g transform="translate(313.513707 287.910437) scale(0.1 -0.1)">
       <use xlink:href="#DejaVuSans-31"/>
       <use xlink:href="#DejaVuSans-35" transform="translate(63.623047 0)"/>
       <use xlink:href="#DejaVuSans-30" transform="translate(127.246094 0)"/>
       <use xlink:href="#DejaVuSans-30" transform="translate(190.869141 0)"/>
      </g>
     </g>
    </g>
    <g id="xtick_8">
     <g id="line2d_15">
      <path d="M 369.549078 273.312 
L 369.549078 7.2 
" clip-path="url(#pd9a7c40ce1)" style="fill: none; stroke-dasharray: 2.96,1.28; stroke-dashoffset: 0; stroke: #b0b0b0; stroke-opacity: 0.3; stroke-width: 0.8"/>
     </g>
     <g id="line2d_16">
      <g>
       <use xlink:href="#mb08af76b02" x="369.549078" y="273.312" style="stroke: #000000; stroke-width: 0.8"/>
      </g>
     </g>
     <g id="text_8">
      <!-- 1750 -->
      <g transform="translate(356.824078 287.910437) scale(0.1 -0.1)">
       <use xlink:href="#DejaVuSans-31"/>
       <use xlink:href="#DejaVuSans-37" transform="translate(63.623047 0)"/>
       <use xlink:href="#DejaVuSans-35" transform="translate(127.246094 0)"/>
       <use xlink:href="#DejaVuSans-30" transform="translate(190.869141 0)"/>
      </g>
     </g>
    </g>
    <g id="text_9">
     <!-- step -->
     <g transform="translate(217.888125 301.588562) scale(0.1 -0.1)">
      <defs>
       <path id="DejaVuSans-73" d="M 2834 3397 
L 2834 2853 
Q 2591 2978 2328 3040 
Q 2066 3103 1784 3103 
Q 1356 3103 1142 2972 
Q 928 2841 928 2578 
Q 928 2378 1081 2264 
Q 1234 2150 1697 2047 
L 1894 2003 
Q 2506 1872 2764 1633 
Q 3022 1394 3022 966 
Q 3022 478 2636 193 
Q 2250 -91 1575 -91 
Q 1294 -91 989 -36 
Q 684 19 347 128 
L 347 722 
Q 666 556 975 473 
Q 1284 391 1588 391 
Q 1994 391 2212 530 
Q 2431 669 2431 922 
Q 2431 1156 2273 1281 
Q 2116 1406 1581 1522 
L 1381 1569 
Q 847 1681 609 1914 
Q 372 2147 372 2553 
Q 372 3047 722 3315 
Q 1072 3584 1716 3584 
Q 2034 3584 2315 3537 
Q 2597 3491 2834 3397 
z
" transform="scale(0.015625)"/>
       <path id="DejaVuSans-74" d="M 1172 4494 
L 1172 3500 
L 2356 3500 
L 2356 3053 
L 1172 3053 
L 1172 1153 
Q 1172 725 1289 603 
Q 1406 481 1766 481 
L 2356 481 
L 2356 0 
L 1766 0 
Q 1100 0 847 248 
Q 594 497 594 1153 
L 594 3053 
L 172 3053 
L 172 3500 
L 594 3500 
L 594 4494 
L 1172 4494 
z
" transform="scale(0.015625)"/>
       <path id="DejaVuSans-65" d="M 3597 1894 
L 3597 1613 
L 953 1613 
Q 991 1019 1311 708 
Q 1631 397 2203 397 
Q 2534 397 2845 478 
Q 3156 559 3463 722 
L 3463 178 
Q 3153 47 2828 -22 
Q 2503 -91 2169 -91 
Q 1331 -91 842 396 
Q 353 884 353 1716 
Q 353 2575 817 3079 
Q 1281 3584 2069 3584 
Q 2775 3584 3186 3129 
Q 3597 2675 3597 1894 
z
M 3022 2063 
Q 3016 2534 2758 2815 
Q 2500 3097 2075 3097 
Q 1594 3097 1305 2825 
Q 1016 2553 972 2059 
L 3022 2063 
z
" transform="scale(0.015625)"/>
       <path id="DejaVuSans-70" d="M 1159 525 
L 1159 -1331 
L 581 -1331 
L 581 3500 
L 1159 3500 
L 1159 2969 
Q 1341 3281 1617 3432 
Q 1894 3584 2278 3584 
Q 2916 3584 3314 3078 
Q 3713 2572 3713 1747 
Q 3713 922 3314 415 
Q 2916 -91 2278 -91 
Q 1894 -91 1617 61 
Q 1341 213 1159 525 
z
M 3116 1747 
Q 3116 2381 2855 2742 
Q 2594 3103 2138 3103 
Q 1681 3103 1420 2742 
Q 1159 2381 1159 1747 
Q 1159 1113 1420 752 
Q 1681 391 2138 391 
Q 2594 391 2855 752 
Q 3116 1113 3116 1747 
z
" transform="scale(0.015625)"/>
      </defs>
      <use xlink:href="#DejaVuSans-73"/>
      <use xlink:href="#DejaVuSans-74" transform="translate(52.099609 0)"/>
      <use xlink:href="#DejaVuSans-65" transform="translate(91.308594 0)"/>
      <use xlink:href="#DejaVuSans-70" transform="translate(152.832031 0)"/>
     </g>
    </g>
   </g>
   <g id="matplotlib.axis_2">
    <g id="ytick_1">
     <g id="line2d_17">
      <path d="M 50.14375 243.949761 
L 407.26375 243.949761 
" clip-path="url(#pd9a7c40ce1)" style="fill: none; stroke-dasharray: 2.96,1.28; stroke-dashoffset: 0; stroke: #b0b0b0; stroke-opacity: 0.3; stroke-width: 0.8"/>
     </g>
     <g id="line2d_18">
      <defs>
       <path id="m738e9b393e" d="M 0 0 
L -3.5 0 
" style="stroke: #000000; stroke-width: 0.8"/>
      </defs>
      <g>
       <use xlink:href="#m738e9b393e" x="50.14375" y="243.949761" style="stroke: #000000; stroke-width: 0.8"/>
      </g>
     </g>
     <g id="text_10">
      <!-- 0.25 -->
      <g transform="translate(20.878125 247.74898) scale(0.1 -0.1)">
       <defs>
        <path id="DejaVuSans-2e" d="M 684 794 
L 1344 794 
L 1344 0 
L 684 0 
L 684 794 
z
" transform="scale(0.015625)"/>
       </defs>
       <use xlink:href="#DejaVuSans-30"/>
       <use xlink:href="#DejaVuSans-2e" transform="translate(63.623047 0)"/>
       <use xlink:href="#DejaVuSans-32" transform="translate(95.410156 0)"/>
       <use xlink:href="#DejaVuSans-35" transform="translate(159.033203 0)"/>
      </g>
     </g>
    </g>
    <g id="ytick_2">
     <g id="line2d_19">
      <path d="M 50.14375 212.540773 
L 407.26375 212.540773 
" clip-path="url(#pd9a7c40ce1)" style="fill: none; stroke-dasharray: 2.96,1.28; stroke-dashoffset: 0; stroke: #b0b0b0; stroke-opacity: 0.3; stroke-width: 0.8"/>
     </g>
     <g id="line2d_20">
      <g>
       <use xlink:href="#m738e9b393e" x="50.14375" y="212.540773" style="stroke: #000000; stroke-width: 0.8"/>
      </g>
     </g>
     <g id="text_11">
      <!-- 0.50 -->
      <g transform="translate(20.878125 216.339992) scale(0.1 -0.1)">
       <use xlink:href="#DejaVuSans-30"/>
       <use xlink:href="#DejaVuSans-2e" transform="translate(63.623047 0)"/>
       <use xlink:href="#DejaVuSans-35" transform="translate(95.410156 0)"/>
       <use xlink:href="#DejaVuSans-30" transform="translate(159.033203 0)"/>
      </g>
     </g>
    </g>
    <g id="ytick_3">
     <g id="line2d_21">
      <path d="M 50.14375 181.131785 
L 407.26375 181.131785 
" clip-path="url(#pd9a7c40ce1)" style="fill: none; stroke-dasharray: 2.96,1.28; stroke-dashoffset: 0; stroke: #b0b0b0; stroke-opacity: 0.3; stroke-width: 0.8"/>
     </g>
     <g id="line2d_22">
      <g>
       <use xlink:href="#m738e9b393e" x="50.14375" y="181.131785" style="stroke: #000000; stroke-width: 0.8"/>
      </g>
     </g>
     <g id="text_12">
      <!-- 0.75 -->
      <g transform="translate(20.878125 184.931004) scale(0.1 -0.1)">
       <use xlink:href="#DejaVuSans-30"/>
       <use xlink:href="#DejaVuSans-2e" transform="translate(63.623047 0)"/>
       <use xlink:href="#DejaVuSans-37" transform="translate(95.410156 0)"/>
       <use xlink:href="#DejaVuSans-35" transform="translate(159.033203 0)"/>
      </g>
     </g>
    </g>
    <g id="ytick_4">
     <g id="line2d_23">
      <path d="M 50.14375 149.722797 
L 407.26375 149.722797 
" clip-path="url(#pd9a7c40ce1)" style="fill: none; stroke-dasharray: 2.96,1.28; stroke-dashoffset: 0; stroke: #b0b0b0; stroke-opacity: 0.3; stroke-width: 0.8"/>
     </g>
     <g id="line2d_24">
      <g>
       <use xlink:href="#m738e9b393e" x="50.14375" y="149.722797" style="stroke: #000000; stroke-width: 0.8"/>
      </g>
     </g>
     <g id="text_13">
      <!-- 1.00 -->
      <g transform="translate(20.878125 153.522016) scale(0.1 -0.1)">
       <use xlink:href="#DejaVuSans-31"/>
       <use xlink:href="#DejaVuSans-2e" transform="translate(63.623047 0)"/>
       <use xlink:href="#DejaVuSans-30" transform="translate(95.410156 0)"/>
       <use xlink:href="#DejaVuSans-30" transform="translate(159.033203 0)"/>
      </g>
     </g>
    </g>
    <g id="ytick_5">
     <g id="line2d_25">
      <path d="M 50.14375 118.313809 
L 407.26375 118.313809 
" clip-path="url(#pd9a7c40ce1)" style="fill: none; stroke-dasharray: 2.96,1.28; stroke-dashoffset: 0; stroke: #b0b0b0; stroke-opacity: 0.3; stroke-width: 0.8"/>
     </g>
     <g id="line2d_26">
      <g>
       <use xlink:href="#m738e9b393e" x="50.14375" y="118.313809" style="stroke: #000000; stroke-width: 0.8"/>
      </g>
     </g>
     <g id="text_14">
      <!-- 1.25 -->
      <g transform="translate(20.878125 122.113027) scale(0.1 -0.1)">
       <use xlink:href="#DejaVuSans-31"/>
       <use xlink:href="#DejaVuSans-2e" transform="translate(63.623047 0)"/>
       <use xlink:href="#DejaVuSans-32" transform="translate(95.410156 0)"/>
       <use xlink:href="#DejaVuSans-35" transform="translate(159.033203 0)"/>
      </g>
     </g>
    </g>
    <g id="ytick_6">
     <g id="line2d_27">
      <path d="M 50.14375 86.904821 
L 407.26375 86.904821 
" clip-path="url(#pd9a7c40ce1)" style="fill: none; stroke-dasharray: 2.96,1.28; stroke-dashoffset: 0; stroke: #b0b0b0; stroke-opacity: 0.3; stroke-width: 0.8"/>
     </g>
     <g id="line2d_28">
      <g>
       <use xlink:href="#m738e9b393e" x="50.14375" y="86.904821" style="stroke: #000000; stroke-width: 0.8"/>
      </g>
     </g>
     <g id="text_15">
      <!-- 1.50 -->
      <g transform="translate(20.878125 90.704039) scale(0.1 -0.1)">
       <use xlink:href="#DejaVuSans-31"/>
       <use xlink:href="#DejaVuSans-2e" transform="translate(63.623047 0)"/>
       <use xlink:href="#DejaVuSans-35" transform="translate(95.410156 0)"/>
       <use xlink:href="#DejaVuSans-30" transform="translate(159.033203 0)"/>
      </g>
     </g>
    </g>
    <g id="ytick_7">
     <g id="line2d_29">
      <path d="M 50.14375 55.495833 
L 407.26375 55.495833 
" clip-path="url(#pd9a7c40ce1)" style="fill: none; stroke-dasharray: 2.96,1.28; stroke-dashoffset: 0; stroke: #b0b0b0; stroke-opacity: 0.3; stroke-width: 0.8"/>
     </g>
     <g id="line2d_30">
      <g>
       <use xlink:href="#m738e9b393e" x="50.14375" y="55.495833" style="stroke: #000000; stroke-width: 0.8"/>
      </g>
     </g>
     <g id="text_16">
      <!-- 1.75 -->
      <g transform="translate(20.878125 59.295051) scale(0.1 -0.1)">
       <use xlink:href="#DejaVuSans-31"/>
       <use xlink:href="#DejaVuSans-2e" transform="translate(63.623047 0)"/>
       <use xlink:href="#DejaVuSans-37" transform="translate(95.410156 0)"/>
       <use xlink:href="#DejaVuSans-35" transform="translate(159.033203 0)"/>
      </g>
     </g>
    </g>
    <g id="ytick_8">
     <g id="line2d_31">
      <path d="M 50.14375 24.086844 
L 407.26375 24.086844 
" clip-path="url(#pd9a7c40ce1)" style="fill: none; stroke-dasharray: 2.96,1.28; stroke-dashoffset: 0; stroke: #b0b0b0; stroke-opacity: 0.3; stroke-width: 0.8"/>
     </g>
     <g id="line2d_32">
      <g>
       <use xlink:href="#m738e9b393e" x="50.14375" y="24.086844" style="stroke: #000000; stroke-width: 0.8"/>
      </g>
     </g>
     <g id="text_17">
      <!-- 2.00 -->
      <g transform="translate(20.878125 27.886063) scale(0.1 -0.1)">
       <use xlink:href="#DejaVuSans-32"/>
       <use xlink:href="#DejaVuSans-2e" transform="translate(63.623047 0)"/>
       <use xlink:href="#DejaVuSans-30" transform="translate(95.410156 0)"/>
       <use xlink:href="#DejaVuSans-30" transform="translate(159.033203 0)"/>
      </g>
     </g>
    </g>
    <g id="text_18">
     <!-- loss -->
     <g transform="translate(14.798438 149.913812) rotate(-90) scale(0.1 -0.1)">
      <defs>
       <path id="DejaVuSans-6c" d="M 603 4863 
L 1178 4863 
L 1178 0 
L 603 0 
L 603 4863 
z
" transform="scale(0.015625)"/>
       <path id="DejaVuSans-6f" d="M 1959 3097 
Q 1497 3097 1228 2736 
Q 959 2375 959 1747 
Q 959 1119 1226 758 
Q 1494 397 1959 397 
Q 2419 397 2687 759 
Q 2956 1122 2956 1747 
Q 2956 2369 2687 2733 
Q 2419 3097 1959 3097 
z
M 1959 3584 
Q 2709 3584 3137 3096 
Q 3566 2609 3566 1747 
Q 3566 888 3137 398 
Q 2709 -91 1959 -91 
Q 1206 -91 779 398 
Q 353 888 353 1747 
Q 353 2609 779 3096 
Q 1206 3584 1959 3584 
z
" transform="scale(0.015625)"/>
      </defs>
      <use xlink:href="#DejaVuSans-6c"/>
      <use xlink:href="#DejaVuSans-6f" transform="translate(27.783203 0)"/>
      <use xlink:href="#DejaVuSans-73" transform="translate(88.964844 0)"/>
      <use xlink:href="#DejaVuSans-73" transform="translate(141.064453 0)"/>
     </g>
    </g>
   </g>
   <g id="line2d_33">
    <path d="M 66.376477 19.296 
L 66.72296 120.741303 
L 67.069443 176.902032 
L 67.242685 178.752831 
L 67.415926 177.602783 
L 67.762409 197.902369 
L 67.935651 191.435223 
L 68.108892 216.819381 
L 68.282134 197.540615 
L 68.628617 211.388639 
L 68.801858 200.270524 
L 68.9751 209.672994 
L 69.148341 205.683932 
L 69.321583 214.778096 
L 69.494824 208.285194 
L 69.668066 224.242541 
L 69.841307 209.299315 
L 70.014548 218.026904 
L 70.18779 211.346391 
L 70.361031 220.221664 
L 70.534273 219.761276 
L 70.707514 231.244873 
L 70.880756 220.115399 
L 71.053997 223.140532 
L 71.227239 219.019322 
L 71.40048 231.066718 
L 71.573722 216.125988 
L 71.746963 223.095293 
L 71.920205 193.690619 
L 72.093446 214.949537 
L 72.266688 217.642325 
L 72.439929 222.357921 
L 72.613171 234.0079 
L 72.786412 229.317827 
L 72.959654 214.782427 
L 73.132895 224.196676 
L 73.306137 220.775119 
L 73.479378 220.469435 
L 73.65262 214.298292 
L 73.825861 239.199887 
L 73.999103 215.800308 
L 74.172344 228.885461 
L 74.345586 214.209522 
L 74.518827 232.42619 
L 74.692069 220.205078 
L 74.86531 221.235795 
L 75.038552 221.294138 
L 75.211793 214.846164 
L 75.385035 227.641087 
L 75.558276 215.083641 
L 75.731518 226.704386 
L 75.904759 219.60566 
L 76.251242 232.318348 
L 76.424483 230.703643 
L 76.597725 231.925132 
L 76.770966 217.452097 
L 76.944208 218.351505 
L 77.117449 235.643235 
L 77.290691 237.900237 
L 77.463932 223.484265 
L 77.810415 233.815247 
L 77.983657 220.022378 
L 78.156898 218.214414 
L 78.33014 230.974696 
L 78.503381 228.010826 
L 78.676623 231.159656 
L 78.849864 231.192508 
L 79.023106 214.208449 
L 79.196347 220.444898 
L 79.369589 220.97043 
L 79.54283 233.678136 
L 79.716072 219.988411 
L 79.889313 233.266088 
L 80.235796 228.306973 
L 80.409038 228.949114 
L 80.582279 222.028047 
L 80.755521 221.741392 
L 80.928762 228.391724 
L 81.102004 245.006529 
L 81.275245 229.627384 
L 81.448487 230.692486 
L 81.968211 240.640085 
L 82.141453 229.405018 
L 82.314694 225.948806 
L 82.487936 218.874371 
L 82.661177 238.746389 
L 83.00766 232.8271 
L 83.180901 239.257964 
L 83.527384 234.329143 
L 83.700626 226.264956 
L 84.047109 232.819718 
L 84.22035 227.409295 
L 84.393592 226.46761 
L 84.566833 211.64105 
L 84.913316 239.739707 
L 85.086558 243.576581 
L 85.259799 244.135954 
L 85.433041 226.933545 
L 85.606282 243.373503 
L 85.779524 221.404853 
L 85.952765 218.39897 
L 86.126007 212.197257 
L 86.299248 249.593754 
L 86.47249 231.668137 
L 86.645731 232.885656 
L 86.818973 233.009029 
L 86.992214 230.394385 
L 87.165456 248.961932 
L 87.511939 211.837706 
L 87.68518 239.818953 
L 87.858422 224.729813 
L 88.031663 230.100076 
L 88.204905 230.734101 
L 88.378146 227.642787 
L 88.724629 245.92965 
L 88.897871 217.447775 
L 89.071112 239.7957 
L 89.244353 226.564507 
L 89.417595 234.406341 
L 89.590836 224.08128 
L 89.764078 234.618748 
L 89.937319 229.928277 
L 90.110561 241.109866 
L 90.283802 238.924997 
L 90.457044 222.287896 
L 90.803527 234.75991 
L 90.976768 239.905104 
L 91.15001 212.765496 
L 91.323251 231.399624 
L 91.496493 236.217843 
L 91.669734 233.757114 
L 91.842976 241.496051 
L 92.016217 236.115333 
L 92.189459 225.221098 
L 92.3627 229.084676 
L 92.535942 237.706704 
L 92.709183 237.848036 
L 92.882425 214.474977 
L 93.055666 232.168577 
L 93.228908 237.534957 
L 93.402149 224.622994 
L 93.575391 250.509363 
L 93.921874 231.941599 
L 94.095115 232.443097 
L 94.268357 237.147146 
L 94.441598 232.583856 
L 94.61484 245.049358 
L 94.788081 242.034769 
L 95.134564 226.921541 
L 95.307805 239.978533 
L 95.654288 215.290918 
L 95.82753 223.086596 
L 96.000771 236.002274 
L 96.347254 224.483631 
L 96.520496 202.496469 
L 96.693737 241.24616 
L 96.866979 232.221641 
L 97.04022 238.720772 
L 97.213462 213.542057 
L 97.386703 231.001294 
L 97.559945 234.5932 
L 97.733186 250.188455 
L 98.079669 219.638554 
L 98.252911 235.678782 
L 98.426152 227.21558 
L 98.599394 228.153892 
L 98.772635 221.33258 
L 98.945877 238.228248 
L 99.119118 226.378065 
L 99.465601 247.593963 
L 99.638843 246.772075 
L 99.812084 232.3822 
L 99.985326 234.349585 
L 100.158567 249.285059 
L 100.331809 248.447126 
L 100.50505 236.917319 
L 100.851533 232.176752 
L 101.024775 245.844957 
L 101.371258 233.91766 
L 101.544499 220.567528 
L 101.71774 217.961657 
L 102.064223 250.474254 
L 102.237465 224.54576 
L 102.410706 243.535263 
L 102.583948 242.275662 
L 102.757189 227.361177 
L 103.103672 245.946781 
L 103.276914 235.244647 
L 103.450155 232.211143 
L 103.623397 236.549657 
L 103.796638 219.05344 
L 103.96988 240.06707 
L 104.316363 237.725398 
L 104.662846 226.095242 
L 104.836087 245.87183 
L 105.18257 239.502609 
L 105.355812 240.311148 
L 105.529053 247.992721 
L 105.875536 224.270491 
L 106.222019 244.394096 
L 106.395261 241.371159 
L 106.568502 235.060375 
L 106.741744 224.215867 
L 107.088227 231.575271 
L 107.261468 232.033543 
L 107.43471 241.549359 
L 107.607951 218.864423 
L 107.781193 234.381255 
L 107.954434 228.189472 
L 108.300917 257.10702 
L 108.474158 244.549953 
L 108.6474 219.369352 
L 108.820641 236.162611 
L 108.993883 223.658746 
L 109.167124 243.535757 
L 109.340366 236.743725 
L 109.513607 219.091256 
L 109.686849 239.439063 
L 109.86009 231.384363 
L 110.033332 238.579134 
L 110.206573 218.538037 
L 110.379815 239.515518 
L 110.553056 241.807044 
L 110.726298 232.469382 
L 110.899539 235.945643 
L 111.072781 222.566722 
L 111.246022 248.497242 
L 111.419264 225.805146 
L 111.765747 219.440186 
L 111.938988 214.416754 
L 112.11223 213.885073 
L 112.285471 214.343791 
L 112.458713 226.672681 
L 112.631954 248.770772 
L 112.805196 215.442233 
L 113.151679 240.08291 
L 113.32492 233.779795 
L 113.498162 235.652493 
L 113.671403 219.473966 
L 113.844645 249.929135 
L 114.191128 231.509856 
L 114.364369 229.383064 
L 114.53761 232.443714 
L 114.710852 246.60681 
L 115.057335 234.625844 
L 115.230576 250.057905 
L 115.403818 226.593733 
L 115.750301 222.966677 
L 115.923542 243.082501 
L 116.096784 244.604443 
L 116.270025 233.314643 
L 116.616508 228.297632 
L 116.78975 226.803825 
L 116.962991 235.672499 
L 117.136233 236.802175 
L 117.309474 249.179109 
L 117.482716 244.23329 
L 117.655957 230.22821 
L 117.829199 247.751634 
L 118.00244 227.271691 
L 118.175682 246.780447 
L 118.348923 231.642086 
L 118.522165 242.161646 
L 118.695406 237.219534 
L 118.868648 235.929649 
L 119.041889 232.680232 
L 119.215131 246.401537 
L 119.388372 244.55686 
L 119.561614 231.64877 
L 119.734855 250.09798 
L 120.081338 225.444489 
L 120.25458 235.221299 
L 120.427821 219.695314 
L 120.774304 244.776331 
L 120.947545 238.340135 
L 121.120787 244.010925 
L 121.294028 231.911249 
L 121.46727 237.733598 
L 121.640511 234.429242 
L 121.813753 237.496962 
L 121.986994 210.592823 
L 122.160236 247.385611 
L 122.333477 230.381665 
L 122.506719 229.237494 
L 122.67996 236.72408 
L 123.026443 222.281757 
L 123.199685 248.574518 
L 123.372926 241.277298 
L 123.546168 245.9635 
L 123.719409 239.694774 
L 123.892651 239.530241 
L 124.065892 240.106504 
L 124.239134 245.121412 
L 124.412375 223.947226 
L 124.585617 231.667208 
L 124.758858 253.300457 
L 124.9321 221.813047 
L 125.105341 233.812621 
L 125.278583 226.351303 
L 125.451824 236.90085 
L 125.625066 238.647177 
L 125.798307 234.095224 
L 125.971549 240.014056 
L 126.318032 235.414257 
L 126.491273 244.232841 
L 126.664515 244.578578 
L 126.837756 219.412112 
L 127.010998 222.421882 
L 127.184239 243.495156 
L 127.35748 225.435497 
L 127.530722 222.632623 
L 127.703963 237.595164 
L 127.877205 212.950606 
L 128.050446 239.62118 
L 128.223688 233.489906 
L 128.396929 236.499632 
L 128.570171 244.61018 
L 128.743412 242.663418 
L 128.916654 251.686964 
L 129.263137 232.602008 
L 129.436378 240.154706 
L 129.60962 229.916816 
L 129.782861 228.477457 
L 129.956103 222.350403 
L 130.129344 231.787169 
L 130.302586 225.468833 
L 130.475827 244.206988 
L 130.649069 223.918646 
L 130.82231 227.155947 
L 130.995552 242.13625 
L 131.168793 204.267256 
L 131.342035 248.547279 
L 131.515276 234.544122 
L 131.688518 238.298558 
L 131.861759 229.563051 
L 132.035001 226.561655 
L 132.208242 226.603307 
L 132.381484 235.591745 
L 132.554725 235.135428 
L 133.07445 251.087128 
L 133.420932 215.366033 
L 133.594174 223.070702 
L 133.767415 249.74336 
L 133.940657 249.108858 
L 134.113898 237.573075 
L 134.28714 235.126639 
L 134.460381 243.975688 
L 134.633623 245.298386 
L 134.806864 241.940136 
L 134.980106 243.237458 
L 135.153347 240.505757 
L 135.326589 225.968676 
L 135.49983 247.008521 
L 135.673072 245.572611 
L 135.846313 236.705223 
L 136.019555 237.894682 
L 136.192796 225.907257 
L 136.539279 247.111112 
L 136.712521 235.18397 
L 136.885762 251.626041 
L 137.059004 229.807919 
L 137.232245 226.115392 
L 137.405487 231.038144 
L 137.578728 248.507348 
L 137.925211 245.543373 
L 138.271694 230.96294 
L 138.444936 247.81247 
L 138.96466 227.596518 
L 139.137902 243.479044 
L 139.311143 222.35406 
L 139.484385 230.514436 
L 139.657626 226.158731 
L 139.830867 240.957708 
L 140.004109 242.289444 
L 140.17735 249.187646 
L 140.523833 235.812464 
L 140.870316 247.653165 
L 141.043558 229.947408 
L 141.216799 252.001413 
L 141.390041 233.786352 
L 141.563282 248.162669 
L 141.909765 240.116002 
L 142.083007 240.926911 
L 142.256248 239.825707 
L 142.42949 248.074648 
L 142.602731 245.098472 
L 142.775973 246.244415 
L 142.949214 232.471173 
L 143.122456 239.023443 
L 143.295697 232.876951 
L 143.64218 246.59251 
L 143.815422 245.496319 
L 143.988663 246.658805 
L 144.161905 229.203884 
L 144.335146 230.936512 
L 144.508388 239.403974 
L 144.681629 216.791384 
L 145.028112 235.348011 
L 145.201354 237.023741 
L 145.374595 241.226142 
L 145.547837 240.250703 
L 145.721078 237.94427 
L 145.89432 245.59909 
L 146.067561 209.398846 
L 146.240802 244.222035 
L 146.414044 250.247953 
L 146.587285 234.764298 
L 146.760527 240.009707 
L 146.933768 229.618409 
L 147.10701 249.205153 
L 147.280251 246.808546 
L 147.453493 236.677594 
L 147.626734 233.916485 
L 147.799976 232.952761 
L 148.146459 252.847596 
L 148.3197 238.256643 
L 148.492942 238.339051 
L 148.666183 230.935975 
L 149.012666 251.03183 
L 149.359149 242.358554 
L 149.532391 250.026248 
L 149.705632 248.638297 
L 149.878874 233.890369 
L 150.052115 244.252669 
L 150.225357 240.129926 
L 150.398598 216.231218 
L 150.57184 242.512188 
L 150.745081 232.645747 
L 150.918323 204.71937 
L 151.091564 235.69607 
L 151.264806 230.916074 
L 151.611289 250.755926 
L 151.78453 241.401443 
L 151.957772 246.541603 
L 152.304255 230.276527 
L 152.477496 251.250213 
L 152.650737 232.303682 
L 152.823979 244.220119 
L 152.99722 217.64096 
L 153.170462 243.655512 
L 153.343703 227.37284 
L 153.516945 246.716309 
L 153.690186 250.301794 
L 153.863428 228.562117 
L 154.036669 241.334384 
L 154.209911 227.090194 
L 154.383152 240.371042 
L 154.556394 244.921358 
L 154.729635 235.897034 
L 154.902877 236.064472 
L 155.076118 232.592011 
L 155.24936 243.348611 
L 155.422601 240.692796 
L 155.595843 246.003816 
L 155.769084 230.132855 
L 155.942326 249.033709 
L 156.115567 255.052038 
L 156.288809 238.094603 
L 156.46205 235.912035 
L 156.808533 243.420016 
L 156.981775 221.72892 
L 157.155016 217.427011 
L 157.328258 245.437603 
L 157.501499 234.451257 
L 157.674741 247.330714 
L 157.847982 234.359697 
L 158.021224 240.802517 
L 158.194465 252.570078 
L 158.367707 246.583241 
L 158.71419 215.701532 
L 158.887431 237.501023 
L 159.060672 237.602192 
L 159.233914 230.312372 
L 159.407155 235.484141 
L 159.580397 230.405168 
L 159.753638 239.54965 
L 159.92688 240.604632 
L 160.273363 246.478426 
L 160.446604 238.1074 
L 160.619846 246.589355 
L 161.13957 227.053091 
L 161.312812 242.895363 
L 161.659295 236.927174 
L 162.005778 217.255614 
L 162.179019 240.846317 
L 162.352261 241.17762 
L 162.525502 244.052076 
L 162.698744 241.432612 
L 163.045227 226.616249 
L 163.218468 230.155465 
L 163.39171 240.267975 
L 163.564951 243.776337 
L 163.911434 217.801574 
L 164.084676 224.730551 
L 164.257917 238.149017 
L 164.431159 234.872976 
L 164.6044 242.651492 
L 164.777642 234.157458 
L 164.950883 241.672875 
L 165.124125 235.853238 
L 165.297366 240.714558 
L 165.470607 234.814685 
L 165.643849 249.268763 
L 165.81709 236.023011 
L 165.990332 253.100896 
L 166.510056 225.650649 
L 166.683298 222.37083 
L 167.203022 238.078066 
L 167.376264 236.995884 
L 167.549505 245.720849 
L 167.722747 215.369531 
L 167.895988 223.801383 
L 168.242471 244.704943 
L 168.415713 238.49215 
L 168.588954 244.212611 
L 168.762196 244.55906 
L 168.935437 224.995628 
L 169.108679 251.205514 
L 169.28192 233.3528 
L 169.455162 238.672937 
L 169.628403 217.280584 
L 169.801645 247.347745 
L 169.974886 238.150971 
L 170.148128 244.32711 
L 170.321369 223.660373 
L 170.494611 237.664901 
L 170.667852 238.650649 
L 170.841094 248.087912 
L 171.014335 233.540935 
L 171.187577 250.45072 
L 171.534059 239.180788 
L 171.707301 239.803298 
L 171.880542 233.323601 
L 172.053784 248.103829 
L 172.227025 232.670251 
L 172.573508 241.330855 
L 172.74675 235.153747 
L 172.919991 219.36838 
L 173.093233 242.697331 
L 173.439716 248.021864 
L 173.612957 236.665275 
L 173.786199 253.591398 
L 173.95944 250.180212 
L 174.132682 249.998108 
L 174.305923 228.376332 
L 174.479165 228.114292 
L 174.652406 252.873761 
L 174.825648 248.908136 
L 174.998889 232.247375 
L 175.172131 250.579371 
L 175.345372 230.430913 
L 175.691855 239.066733 
L 175.865097 234.947601 
L 176.038338 237.708256 
L 176.21158 245.594536 
L 176.384821 244.201097 
L 176.731304 231.993439 
L 177.251029 242.179451 
L 177.42427 240.011343 
L 177.597512 243.97955 
L 177.770753 230.595247 
L 178.117236 248.94165 
L 178.290477 224.932693 
L 178.463719 241.332623 
L 178.63696 242.020074 
L 178.810202 241.379144 
L 178.983443 221.556886 
L 179.156685 244.743376 
L 179.329926 245.541936 
L 179.503168 231.341958 
L 179.676409 239.951257 
L 179.849651 231.152841 
L 180.022892 242.753532 
L 180.196134 234.748001 
L 180.369375 246.833513 
L 180.542617 229.512713 
L 180.715858 226.73778 
L 180.8891 238.366449 
L 181.062341 238.114359 
L 181.235583 229.398188 
L 181.408824 244.109357 
L 181.755307 237.473648 
L 181.928549 242.531743 
L 182.275032 228.874828 
L 182.621515 235.657237 
L 182.794756 236.869465 
L 182.967998 250.17387 
L 183.141239 239.455012 
L 183.314481 241.99285 
L 183.487722 253.356417 
L 183.834205 227.807025 
L 184.007447 245.794239 
L 184.180688 223.211356 
L 184.353929 235.099182 
L 184.527171 230.361896 
L 184.873654 245.049099 
L 185.046895 226.522144 
L 185.220137 246.78879 
L 185.393378 242.351483 
L 185.56662 230.192877 
L 185.739861 229.246709 
L 185.913103 224.339183 
L 186.086344 235.394473 
L 186.259586 231.420919 
L 186.432827 219.500201 
L 186.606069 236.444787 
L 186.77931 230.587174 
L 186.952552 235.91504 
L 187.125793 236.003403 
L 187.299035 233.108836 
L 187.472276 235.978909 
L 187.645518 233.371801 
L 187.818759 233.527449 
L 187.992001 235.394022 
L 188.165242 252.949194 
L 188.338484 240.130266 
L 188.511725 239.234136 
L 188.858208 245.807618 
L 189.03145 228.172917 
L 189.377933 249.420107 
L 189.551174 232.609105 
L 189.897657 247.381902 
L 190.24414 229.287231 
L 190.417382 237.631093 
L 190.590623 216.410866 
L 190.763864 235.074086 
L 190.937106 231.762295 
L 191.110347 245.037856 
L 191.283589 236.124272 
L 191.45683 249.983686 
L 191.630072 226.410383 
L 191.803313 228.924899 
L 191.976555 249.393726 
L 192.149796 248.74442 
L 192.323038 225.20267 
L 192.669521 249.520671 
L 192.842762 226.887106 
L 193.016004 239.992209 
L 193.189245 232.460611 
L 193.362487 241.539944 
L 193.535728 235.030404 
L 193.70897 223.648295 
L 193.882211 239.197419 
L 194.055453 230.910444 
L 194.228694 242.808462 
L 194.401936 243.59577 
L 194.575177 239.090014 
L 194.748419 227.379581 
L 194.92166 195.645994 
L 195.094902 239.400241 
L 195.268143 255.069388 
L 195.441385 236.325442 
L 195.614626 246.624947 
L 195.787868 227.578793 
L 195.961109 238.625521 
L 196.307592 241.69398 
L 196.480834 249.077932 
L 196.827317 230.133422 
L 197.000558 232.163653 
L 197.173799 250.602077 
L 197.347041 237.758312 
L 197.520282 240.032096 
L 198.040007 222.358359 
L 198.38649 245.424085 
L 198.559731 240.052221 
L 198.732973 240.381515 
L 198.906214 214.421186 
L 199.079456 232.587614 
L 199.252697 228.81825 
L 199.425939 230.117754 
L 199.59918 247.242563 
L 199.945663 238.956915 
L 200.118905 239.590113 
L 200.292146 241.090006 
L 200.465388 236.434167 
L 200.638629 247.20181 
L 200.811871 230.75525 
L 200.985112 241.23194 
L 201.158354 243.706392 
L 201.504837 237.752859 
L 201.678078 237.439162 
L 201.85132 249.073803 
L 202.024561 250.457434 
L 202.544286 231.905063 
L 202.717527 234.197931 
L 202.890769 241.504518 
L 203.06401 240.854941 
L 203.237252 230.726656 
L 203.410493 244.017776 
L 203.583734 233.264807 
L 203.756976 243.03956 
L 203.930217 237.85479 
L 204.103459 248.5097 
L 204.2767 230.889615 
L 204.449942 234.541199 
L 204.623183 243.571191 
L 204.796425 240.064532 
L 204.969666 241.214271 
L 205.142908 244.681557 
L 205.489391 227.594322 
L 205.662632 250.140323 
L 205.835874 256.024675 
L 206.009115 252.410876 
L 206.182357 246.049143 
L 206.355598 247.476591 
L 206.52884 242.316372 
L 206.702081 248.251833 
L 207.048564 225.598038 
L 207.221806 247.443297 
L 207.395047 232.073098 
L 207.568289 232.024278 
L 207.74153 241.757859 
L 207.914772 240.470193 
L 208.088013 245.200676 
L 208.261255 260.801531 
L 208.780979 222.944871 
L 208.954221 232.819905 
L 209.127462 231.194494 
L 209.300704 231.302864 
L 209.473945 246.938077 
L 209.820428 224.029893 
L 209.993669 223.318196 
L 210.166911 229.610805 
L 210.340152 245.175585 
L 210.513394 245.838762 
L 210.686635 231.964747 
L 210.859877 249.236033 
L 211.033118 241.294704 
L 211.20636 241.89872 
L 211.379601 246.142848 
L 211.552843 260.00949 
L 211.726084 226.57489 
L 211.899326 250.904398 
L 212.072567 244.866797 
L 212.245809 231.980242 
L 212.41905 243.51282 
L 212.765533 239.631974 
L 212.938775 245.91147 
L 213.112016 233.546774 
L 213.285258 246.774048 
L 213.458499 238.924391 
L 213.631741 241.719556 
L 213.804982 248.168812 
L 213.978224 240.723314 
L 214.151465 222.318086 
L 214.497948 250.412 
L 214.67119 234.997057 
L 214.844431 236.121514 
L 215.017673 227.386345 
L 215.190914 246.227234 
L 215.364156 234.161745 
L 215.537397 248.62341 
L 215.710639 209.555163 
L 215.88388 241.780504 
L 216.057121 240.41495 
L 216.230363 243.343842 
L 216.403604 243.885758 
L 216.576846 245.221497 
L 216.750087 225.817893 
L 216.923329 227.369978 
L 217.09657 239.37301 
L 217.269812 238.349488 
L 217.443053 243.066573 
L 217.616295 244.664451 
L 217.962778 224.142039 
L 218.309261 244.807297 
L 218.482502 242.263148 
L 218.655744 245.247219 
L 218.828985 227.376779 
L 219.002227 254.907459 
L 219.175468 250.782482 
L 219.34871 238.655646 
L 219.521951 252.45975 
L 219.695193 246.909588 
L 219.868434 232.729885 
L 220.041676 248.991972 
L 220.214917 253.583151 
L 220.5614 209.465676 
L 220.734642 242.561203 
L 220.907883 240.345868 
L 221.081125 231.836005 
L 221.254366 244.730663 
L 221.427608 241.757502 
L 221.600849 243.038965 
L 221.774091 250.698316 
L 221.947332 245.86831 
L 222.120574 249.834176 
L 222.293815 241.655607 
L 222.467056 225.919757 
L 222.640298 245.310905 
L 222.813539 244.259778 
L 222.986781 239.23391 
L 223.160022 228.975832 
L 223.333264 253.489287 
L 223.506505 245.195176 
L 223.679747 248.576328 
L 224.02623 237.104715 
L 224.199471 241.406119 
L 224.372713 241.557889 
L 224.545954 245.86627 
L 224.719196 239.109818 
L 224.892437 242.989269 
L 225.065679 241.336417 
L 225.23892 248.255757 
L 225.412162 237.735491 
L 225.585403 240.617158 
L 225.758645 226.516379 
L 225.931886 243.607814 
L 226.105128 238.670705 
L 226.278369 246.880754 
L 226.624852 234.41646 
L 226.971335 250.417727 
L 227.144577 239.715383 
L 227.317818 250.721392 
L 227.49106 228.98737 
L 227.664301 244.537629 
L 227.837543 235.013257 
L 228.010784 206.599947 
L 228.184026 244.205184 
L 228.357267 244.425831 
L 228.530509 243.519062 
L 228.70375 245.202489 
L 228.876991 239.931 
L 229.050233 249.652906 
L 229.223474 218.22979 
L 229.569957 257.382403 
L 229.743199 246.620703 
L 229.91644 244.720488 
L 230.262923 223.639454 
L 230.436165 245.763516 
L 230.609406 235.545133 
L 230.782648 235.675781 
L 230.955889 236.821341 
L 231.129131 226.834147 
L 231.475614 248.886729 
L 231.648855 233.052996 
L 231.822097 251.663197 
L 231.995338 229.015619 
L 232.16858 240.898389 
L 232.341821 233.754679 
L 232.688304 253.538201 
L 233.034787 203.646437 
L 233.38127 249.104442 
L 233.554512 250.818812 
L 233.727753 230.974395 
L 233.900995 227.47329 
L 234.074236 244.937725 
L 234.247478 235.659596 
L 234.420719 242.202523 
L 234.767202 226.963215 
L 235.113685 249.836106 
L 235.286926 249.393442 
L 235.460168 246.8972 
L 235.633409 246.569675 
L 235.806651 243.915094 
L 235.979892 220.447027 
L 236.153134 243.522057 
L 236.326375 235.349993 
L 236.499617 243.529654 
L 236.672858 226.587794 
L 236.8461 223.348411 
L 237.019341 231.484843 
L 237.192583 213.337891 
L 237.365824 234.204569 
L 237.539066 224.458849 
L 237.712307 239.554333 
L 237.885549 229.170838 
L 238.05879 240.516909 
L 238.232032 239.485294 
L 238.405273 241.43957 
L 238.578515 241.662716 
L 238.751756 238.65668 
L 238.924998 224.862362 
L 239.098239 246.722702 
L 239.271481 244.911135 
L 239.617964 238.308967 
L 239.791205 228.181263 
L 239.964447 242.193258 
L 240.137688 226.606369 
L 240.31093 231.016289 
L 240.484171 246.867331 
L 240.657413 243.879389 
L 240.830654 245.911846 
L 241.003896 254.679198 
L 241.350379 227.440931 
L 241.52362 252.233674 
L 241.696861 232.8606 
L 242.043344 241.195472 
L 242.216586 242.915696 
L 242.389827 221.093983 
L 242.73631 255.820483 
L 242.909552 227.309587 
L 243.256035 243.76154 
L 243.429276 236.952409 
L 243.602518 237.182064 
L 243.775759 232.201319 
L 243.949001 249.503547 
L 244.122242 249.969628 
L 244.295484 238.760646 
L 244.468725 237.374122 
L 244.641967 227.940156 
L 244.815208 242.466902 
L 244.98845 232.377446 
L 245.161691 231.891617 
L 245.334933 244.449322 
L 245.508174 244.090463 
L 245.681416 245.804722 
L 245.854657 243.602654 
L 246.027899 229.682899 
L 246.20114 239.979022 
L 246.374382 241.341488 
L 246.720865 218.848515 
L 246.894106 243.075344 
L 247.067348 242.61589 
L 247.240589 236.746745 
L 247.413831 234.908 
L 247.587072 231.409258 
L 247.760314 237.245194 
L 247.933555 234.265243 
L 248.106796 234.526053 
L 248.280038 245.194633 
L 248.453279 239.790032 
L 248.626521 244.040694 
L 248.799762 245.248889 
L 248.973004 242.315644 
L 249.146245 247.427169 
L 249.319487 247.771537 
L 249.492728 242.03575 
L 249.66597 222.522214 
L 249.839211 223.703737 
L 250.012453 242.263892 
L 250.185694 239.090355 
L 250.532177 248.236927 
L 250.705419 251.845613 
L 250.87866 247.299352 
L 251.051902 238.653701 
L 251.398385 251.111706 
L 251.571626 245.801106 
L 251.744868 248.47137 
L 251.918109 245.075675 
L 252.091351 237.747127 
L 252.264592 218.458203 
L 252.437834 213.235855 
L 252.611075 252.671473 
L 252.784317 222.692254 
L 252.957558 229.503903 
L 253.1308 240.895769 
L 253.304041 243.106081 
L 253.477283 226.445643 
L 253.650524 246.556459 
L 253.823766 232.588207 
L 253.997007 231.03786 
L 254.34349 249.529803 
L 254.516731 239.284771 
L 254.689973 243.144284 
L 254.863214 258.719372 
L 255.036456 239.698215 
L 255.209697 247.26974 
L 255.382939 242.245848 
L 255.55618 233.254897 
L 255.729422 243.032939 
L 255.902663 228.724804 
L 256.075905 233.468608 
L 256.249146 225.620253 
L 256.422388 232.746269 
L 256.595629 247.415395 
L 256.768871 236.559299 
L 256.942112 240.395141 
L 257.115354 248.755952 
L 257.288595 249.208196 
L 257.461837 251.570447 
L 257.80832 241.547407 
L 257.981561 228.531779 
L 258.154803 242.425158 
L 258.328044 237.81614 
L 258.674527 218.252356 
L 259.194252 247.085855 
L 259.367493 223.193439 
L 259.713976 253.196961 
L 259.887218 250.454601 
L 260.060459 240.58752 
L 260.406942 255.515966 
L 260.580183 241.491881 
L 260.926666 235.630105 
L 261.099908 254.770583 
L 261.273149 242.810278 
L 261.446391 240.605565 
L 261.619632 255.790386 
L 261.966115 251.522056 
L 262.139357 240.866239 
L 262.312598 237.60182 
L 262.48584 247.17941 
L 262.659081 233.183738 
L 262.832323 241.424247 
L 263.005564 236.910626 
L 263.178806 240.187536 
L 263.352047 235.10441 
L 263.525289 244.455046 
L 263.69853 224.603895 
L 263.871772 242.745884 
L 264.045013 241.345963 
L 264.218255 241.39353 
L 264.391496 249.977892 
L 264.737979 236.795857 
L 264.911221 249.97343 
L 265.257704 236.521075 
L 265.430945 249.830646 
L 265.604187 235.820888 
L 265.95067 250.208892 
L 266.123911 243.372447 
L 266.297153 250.903784 
L 266.643636 230.342048 
L 266.816877 220.042954 
L 266.990118 251.594094 
L 267.509843 230.853588 
L 267.683084 236.714363 
L 267.856326 257.646401 
L 268.029567 245.341275 
L 268.202809 253.758046 
L 268.37605 245.584715 
L 268.549292 248.637992 
L 268.722533 246.523453 
L 268.895775 242.773681 
L 269.069016 227.324778 
L 269.242258 230.233725 
L 269.415499 256.012355 
L 269.588741 242.71227 
L 269.761982 245.811396 
L 269.935224 219.671714 
L 270.108465 250.016967 
L 270.281707 244.54864 
L 270.454948 228.139952 
L 270.62819 243.007711 
L 270.801431 245.323941 
L 270.974673 254.853219 
L 271.321156 225.772677 
L 271.494397 239.813313 
L 271.84088 244.867534 
L 272.014122 227.018282 
L 272.187363 247.211793 
L 272.360605 235.975781 
L 272.707088 249.487635 
L 272.880329 237.439988 
L 273.053571 238.800182 
L 273.226812 233.671381 
L 273.400053 242.47379 
L 273.573295 243.888899 
L 273.746536 249.888542 
L 273.919778 230.505832 
L 274.093019 233.888797 
L 274.266261 208.589237 
L 274.439502 233.952213 
L 274.785985 244.011217 
L 274.959227 247.20745 
L 275.132468 245.076017 
L 275.30571 239.068738 
L 275.478951 244.89286 
L 275.652193 237.412448 
L 275.825434 256.768909 
L 275.998676 235.455499 
L 276.171917 250.015611 
L 276.345159 246.033883 
L 276.5184 236.012862 
L 276.691642 237.985777 
L 276.864883 250.313162 
L 277.038125 233.500477 
L 277.211366 248.617638 
L 277.384608 253.85198 
L 277.557849 242.154543 
L 277.731091 243.173668 
L 278.077574 252.679413 
L 278.250815 228.95718 
L 278.424057 243.367384 
L 278.597298 237.121173 
L 278.77054 249.282764 
L 278.943781 226.238128 
L 279.117023 234.366913 
L 279.290264 230.872035 
L 279.463506 246.296021 
L 279.636747 242.505432 
L 279.809988 222.688723 
L 279.98323 248.04676 
L 280.156471 234.743858 
L 280.502954 255.176776 
L 280.676196 236.668478 
L 280.849437 245.374664 
L 281.022679 237.164175 
L 281.19592 213.225224 
L 281.369162 241.202071 
L 281.715645 251.138453 
L 281.888886 234.51226 
L 282.235369 252.293592 
L 282.408611 235.240875 
L 282.581852 236.111489 
L 282.755094 232.668525 
L 282.928335 237.557565 
L 283.101577 232.603213 
L 283.274818 247.904755 
L 283.44806 234.116195 
L 283.621301 235.967098 
L 283.967784 249.269014 
L 284.141026 230.080727 
L 284.314267 247.233375 
L 284.487509 250.731157 
L 284.833992 222.43702 
L 285.007233 243.499204 
L 285.180475 237.099007 
L 285.353716 205.576201 
L 285.526958 243.299194 
L 285.700199 243.003218 
L 286.046682 248.002232 
L 286.219923 236.841901 
L 286.393165 248.450847 
L 286.566406 248.235412 
L 286.739648 244.277338 
L 287.086131 226.974517 
L 287.259372 235.373163 
L 287.432614 229.194297 
L 287.605855 230.687327 
L 287.779097 223.728131 
L 287.952338 253.136242 
L 288.12558 239.133606 
L 288.298821 241.348936 
L 288.472063 236.276834 
L 288.645304 238.462711 
L 288.818546 252.62323 
L 289.165029 232.849171 
L 289.511512 248.514902 
L 289.684753 234.417273 
L 289.857995 231.703082 
L 290.031236 234.234877 
L 290.204478 240.260627 
L 290.377719 232.748747 
L 290.550961 246.218254 
L 290.724202 227.795532 
L 290.897444 249.403299 
L 291.070685 246.050978 
L 291.243927 233.086882 
L 291.417168 243.748356 
L 291.59041 242.900056 
L 291.763651 231.108881 
L 291.936893 237.702455 
L 292.110134 231.790406 
L 292.283375 249.367086 
L 292.456617 249.415072 
L 292.629858 244.097355 
L 292.8031 232.472613 
L 292.976341 243.223402 
L 293.322824 227.848158 
L 293.496066 230.239819 
L 293.669307 250.189974 
L 293.842549 236.702265 
L 294.189032 253.025691 
L 294.362273 249.170177 
L 294.708756 228.832522 
L 294.881998 236.863992 
L 295.228481 256.037262 
L 295.401722 246.214094 
L 295.574964 242.869278 
L 295.748205 225.27096 
L 295.921447 254.673742 
L 296.094688 238.142721 
L 296.26793 250.475792 
L 296.441171 242.898626 
L 296.614413 242.992554 
L 296.787654 242.720861 
L 296.960896 234.673433 
L 297.134137 249.647506 
L 297.307379 237.147536 
L 297.48062 235.00926 
L 297.653862 230.573815 
L 298.000345 253.768131 
L 298.173586 236.820781 
L 298.346828 251.988132 
L 298.69331 228.226062 
L 298.866552 249.643206 
L 299.039793 241.947084 
L 299.386276 248.495249 
L 299.559518 246.801849 
L 299.732759 229.582181 
L 299.906001 224.258726 
L 300.079242 232.661951 
L 300.252484 250.098937 
L 300.598967 254.216859 
L 300.772208 233.351602 
L 301.118691 244.800184 
L 301.291933 221.816801 
L 301.465174 242.297583 
L 301.638416 240.721624 
L 301.811657 227.88843 
L 302.15814 257.553151 
L 302.331382 252.851948 
L 302.504623 223.267782 
L 302.677865 225.546395 
L 302.851106 239.886548 
L 303.024348 225.932694 
L 303.370831 246.914843 
L 303.544072 239.716758 
L 303.890555 243.527573 
L 304.063797 231.010318 
L 304.237038 240.731464 
L 304.41028 237.04663 
L 304.583521 241.43043 
L 304.756763 241.492908 
L 304.930004 254.57335 
L 305.103245 231.327571 
L 305.276487 233.454184 
L 305.62297 216.505388 
L 305.796211 233.324201 
L 305.969453 237.386792 
L 306.142694 236.195466 
L 306.315936 233.684377 
L 306.489177 243.695462 
L 306.662419 239.029424 
L 306.83566 223.533845 
L 307.008902 251.749333 
L 307.182143 243.963146 
L 307.355385 230.560776 
L 307.528626 250.367705 
L 307.701868 234.47747 
L 307.875109 237.017741 
L 308.221592 251.962295 
L 308.394834 252.43624 
L 308.568075 244.040735 
L 308.741317 225.744301 
L 309.0878 245.539267 
L 309.261041 245.521839 
L 309.607524 236.621263 
L 309.780766 245.69137 
L 309.954007 240.371655 
L 310.127249 243.834036 
L 310.30049 242.794533 
L 310.473732 256.415674 
L 310.646973 228.586878 
L 310.820215 236.801019 
L 310.993456 234.43853 
L 311.166698 249.524467 
L 311.339939 248.346986 
L 311.51318 246.260652 
L 311.686422 255.47182 
L 312.032905 238.011309 
L 312.206146 255.030511 
L 312.379388 248.624382 
L 312.552629 250.602287 
L 313.072354 231.138172 
L 313.245595 239.899081 
L 313.418837 226.979589 
L 313.592078 234.800543 
L 313.76532 234.291109 
L 313.938561 250.332864 
L 314.111803 236.705285 
L 314.285044 236.094964 
L 314.458286 228.142972 
L 314.631527 246.852105 
L 314.804769 238.924779 
L 314.97801 244.90004 
L 315.151252 240.326639 
L 315.324493 242.872803 
L 315.497735 224.084352 
L 315.670976 251.73076 
L 315.844218 219.408593 
L 316.017459 240.22219 
L 316.363942 229.58628 
L 316.537184 234.785456 
L 316.710425 232.625822 
L 316.883667 242.769501 
L 317.056908 241.904879 
L 317.23015 244.190673 
L 317.576633 227.723802 
L 317.749874 237.694119 
L 317.923115 236.366689 
L 318.096357 245.237861 
L 318.269598 246.720115 
L 318.616081 239.399494 
L 318.789323 241.846752 
L 318.962564 242.240597 
L 319.135806 243.50886 
L 319.309047 246.548332 
L 319.482289 236.42561 
L 319.65553 243.631554 
L 319.828772 216.868188 
L 320.002013 248.636328 
L 320.348496 226.540891 
L 320.694979 243.171334 
L 320.868221 236.380733 
L 321.041462 243.873892 
L 321.214704 232.938137 
L 321.387945 213.041723 
L 321.561187 245.900284 
L 321.734428 249.550011 
L 321.90767 238.12641 
L 322.080911 235.973517 
L 322.254153 242.053219 
L 322.427394 242.804362 
L 322.600636 244.139394 
L 322.773877 241.694429 
L 322.947119 253.512087 
L 323.293602 224.287023 
L 323.466843 245.834739 
L 323.640085 249.260823 
L 323.813326 232.569266 
L 323.986568 255.20708 
L 324.33305 229.056354 
L 324.506292 225.134854 
L 324.679533 256.999895 
L 324.852775 233.701047 
L 325.026016 227.812283 
L 325.199258 244.233998 
L 325.372499 239.284103 
L 325.545741 240.273386 
L 325.718982 230.346181 
L 325.892224 240.948225 
L 326.238707 246.031465 
L 326.411948 244.766174 
L 326.58519 256.404313 
L 326.758431 230.757028 
L 326.931673 232.632734 
L 327.104914 237.053014 
L 327.278156 246.764016 
L 327.451397 232.955365 
L 327.624639 232.310265 
L 327.79788 232.125245 
L 327.971122 245.021548 
L 328.144363 242.003399 
L 328.317605 230.770185 
L 328.490846 230.636202 
L 328.664088 236.972564 
L 328.837329 234.775877 
L 329.010571 245.163603 
L 329.183812 236.209084 
L 329.357054 248.297505 
L 329.530295 252.239433 
L 329.703537 252.927193 
L 329.876778 251.140575 
L 330.05002 239.773196 
L 330.223261 251.003333 
L 330.396502 236.834003 
L 330.569744 235.417637 
L 330.916227 246.688787 
L 331.089468 235.066559 
L 331.26271 236.621823 
L 331.435951 237.048611 
L 331.609193 249.610441 
L 331.782434 236.083808 
L 331.955676 234.670416 
L 332.128917 240.465367 
L 332.302159 239.291072 
L 332.4754 254.182619 
L 332.648642 248.139173 
L 332.821883 249.720157 
L 332.995125 235.737582 
L 333.168366 251.221807 
L 333.341608 250.762598 
L 333.514849 258.369547 
L 333.688091 227.886618 
L 334.207815 244.077718 
L 334.381057 241.372226 
L 334.554298 242.855043 
L 334.72754 253.793897 
L 334.900781 244.776996 
L 335.074023 248.296814 
L 335.247264 234.204912 
L 335.420506 231.780609 
L 335.593747 248.161288 
L 335.766989 250.083495 
L 335.94023 235.213923 
L 336.113472 242.445723 
L 336.286713 242.225617 
L 336.459955 247.182363 
L 336.806437 227.887845 
L 336.979679 250.527664 
L 337.15292 240.168822 
L 337.326162 240.019015 
L 337.499403 254.042849 
L 337.672645 237.073898 
L 337.845886 248.351483 
L 338.019128 241.138557 
L 338.192369 245.608661 
L 338.365611 246.671195 
L 338.712094 228.823978 
L 339.058577 245.707265 
L 339.231818 241.430776 
L 339.578301 244.679844 
L 339.751543 250.034311 
L 340.098026 232.020796 
L 340.271267 239.096735 
L 340.444509 255.733594 
L 340.61775 246.008553 
L 340.790992 249.039582 
L 340.964233 240.37803 
L 341.137475 242.10646 
L 341.310716 230.569612 
L 341.483958 248.924359 
L 341.657199 241.389956 
L 341.830441 248.128349 
L 342.003682 233.72874 
L 342.176924 242.190123 
L 342.350165 238.756464 
L 342.523407 218.439865 
L 342.696648 245.72721 
L 342.86989 234.914192 
L 343.043131 240.651896 
L 343.216372 225.084733 
L 343.389614 244.98115 
L 343.562855 224.994394 
L 343.736097 236.739903 
L 343.909338 218.303433 
L 344.08258 227.955812 
L 344.255821 249.455313 
L 344.429063 239.61604 
L 344.602304 251.627211 
L 344.775546 233.773023 
L 344.948787 259.0197 
L 345.122029 247.516414 
L 345.29527 248.906142 
L 345.468512 237.293463 
L 345.641753 237.366018 
L 345.814995 243.403898 
L 345.988236 240.07737 
L 346.161478 229.678775 
L 346.334719 252.653476 
L 346.507961 243.575838 
L 346.681202 246.493486 
L 346.854444 222.047191 
L 347.200927 239.581585 
L 347.374168 244.709679 
L 347.54741 228.808471 
L 347.893893 240.419864 
L 348.067134 233.142377 
L 348.240376 252.481628 
L 348.586859 224.225072 
L 348.7601 244.28906 
L 348.933342 230.340495 
L 349.106583 251.476927 
L 349.453066 227.803011 
L 349.626307 231.374519 
L 349.799549 245.292334 
L 349.97279 232.620877 
L 350.146032 250.577147 
L 350.665756 240.665299 
L 350.838998 250.852273 
L 351.012239 245.641884 
L 351.185481 243.837833 
L 351.358722 216.299578 
L 351.531964 246.67126 
L 351.705205 242.129968 
L 351.878447 240.540693 
L 352.051688 223.506758 
L 352.22493 256.734974 
L 352.398171 229.174871 
L 352.744654 247.439066 
L 352.917896 229.432163 
L 353.091137 223.554009 
L 353.264379 259.070255 
L 353.43762 251.223857 
L 353.610862 253.057412 
L 353.957345 228.101069 
L 354.303828 243.206647 
L 354.477069 250.277232 
L 354.650311 245.571021 
L 354.823552 246.637328 
L 354.996794 229.271046 
L 355.343277 245.060926 
L 355.516518 228.868935 
L 355.68976 232.715155 
L 355.863001 246.298787 
L 356.036242 244.837672 
L 356.209484 231.73575 
L 356.382725 249.15104 
L 356.555967 249.605101 
L 356.729208 233.342349 
L 356.90245 240.225229 
L 357.075691 252.23805 
L 357.248933 246.987521 
L 357.422174 235.372285 
L 357.595416 250.837846 
L 358.11514 235.666862 
L 358.288382 261.216 
L 358.461623 241.079749 
L 358.634865 243.702221 
L 358.808106 238.094887 
L 358.981348 241.342915 
L 359.154589 230.006357 
L 359.327831 246.284023 
L 359.501072 237.025265 
L 359.674314 242.543084 
L 360.020797 238.24063 
L 360.194038 230.65329 
L 360.36728 229.616874 
L 360.540521 220.845012 
L 360.713763 240.797888 
L 360.887004 243.966785 
L 361.060246 250.951048 
L 361.233487 233.551875 
L 361.406729 246.670626 
L 361.753212 248.212301 
L 361.926453 245.464966 
L 362.099695 233.737574 
L 362.272936 239.770126 
L 362.446177 227.668802 
L 362.619419 244.520616 
L 362.79266 233.460335 
L 362.965902 244.96095 
L 363.139143 235.795051 
L 363.312385 255.796206 
L 363.485626 247.155876 
L 363.658868 249.655131 
L 363.832109 240.023586 
L 364.351834 257.970035 
L 364.525075 236.743573 
L 364.698317 247.541849 
L 364.871558 241.901099 
L 365.0448 225.621785 
L 365.218041 240.367481 
L 365.391283 241.542609 
L 365.564524 226.606747 
L 365.737766 251.844962 
L 365.911007 252.069701 
L 366.084249 252.984896 
L 366.25749 232.298434 
L 366.430732 240.111261 
L 366.603973 231.296113 
L 366.777215 242.709436 
L 366.950456 246.155545 
L 367.123698 230.304965 
L 367.296939 246.890759 
L 367.470181 244.677211 
L 367.643422 244.419368 
L 367.816664 237.280031 
L 367.989905 237.763496 
L 368.163147 239.938951 
L 368.336388 243.726073 
L 368.509629 235.479625 
L 368.682871 239.333435 
L 368.856112 248.502367 
L 369.029354 238.008839 
L 369.202595 246.527568 
L 369.375837 249.543218 
L 369.549078 243.616197 
L 369.72232 231.892058 
L 369.895561 243.409011 
L 370.068803 247.531952 
L 370.242044 237.437929 
L 370.415286 241.239257 
L 370.588527 240.517926 
L 370.761769 222.843694 
L 370.93501 242.116368 
L 371.108252 242.806639 
L 371.281493 251.052159 
L 371.454735 223.126887 
L 371.801218 240.228499 
L 371.974459 239.027126 
L 372.147701 229.069879 
L 372.320942 226.610311 
L 372.494184 246.870053 
L 372.667425 251.495441 
L 372.840667 233.748611 
L 373.013908 246.787743 
L 373.18715 222.654773 
L 373.360391 247.879188 
L 373.533633 241.827751 
L 373.706874 244.303029 
L 373.880116 238.697368 
L 374.053357 250.369855 
L 374.226599 250.318061 
L 374.39984 220.841572 
L 374.573082 247.090884 
L 374.746323 236.352085 
L 374.919564 242.237943 
L 375.092806 242.786196 
L 375.439289 222.632274 
L 375.61253 249.096995 
L 375.785772 233.276428 
L 375.959013 246.356122 
L 376.132255 235.545504 
L 376.305496 233.863134 
L 376.478738 238.369097 
L 376.651979 221.71992 
L 376.998462 240.721163 
L 377.171704 248.060269 
L 377.344945 238.75641 
L 377.518187 240.572305 
L 377.691428 256.325961 
L 378.037911 237.122623 
L 378.384394 249.456054 
L 378.557636 241.983977 
L 378.730877 241.044221 
L 378.904119 243.342835 
L 379.07736 239.692334 
L 379.250602 233.108655 
L 379.423843 247.167148 
L 379.597085 250.466592 
L 379.770326 232.922191 
L 379.943568 244.987367 
L 380.116809 247.298327 
L 380.290051 229.663861 
L 380.463292 251.358964 
L 380.636534 237.449702 
L 380.809775 251.939765 
L 380.983017 228.457964 
L 381.156258 248.41828 
L 381.329499 249.101066 
L 381.502741 243.977564 
L 381.675982 250.183867 
L 381.849224 239.541947 
L 382.022465 242.376365 
L 382.195707 222.225645 
L 382.368948 218.234181 
L 382.715431 243.008404 
L 382.888673 244.059818 
L 383.061914 248.327955 
L 383.235156 246.242372 
L 383.408397 224.676632 
L 383.581639 247.105981 
L 383.75488 240.241445 
L 383.928122 251.896683 
L 384.101363 241.927563 
L 384.274605 243.257739 
L 384.447846 233.113822 
L 384.794329 243.142785 
L 384.967571 237.464771 
L 385.140812 236.937561 
L 385.314054 224.247973 
L 385.487295 244.425703 
L 385.660537 233.122977 
L 385.833778 232.502685 
L 386.00702 240.048261 
L 386.180261 235.587883 
L 386.353503 234.250173 
L 386.526744 237.82705 
L 386.699986 237.467176 
L 386.873227 247.223641 
L 387.046469 227.721128 
L 387.392952 251.903261 
L 387.739434 226.935187 
L 387.912676 251.26476 
L 388.085917 216.826119 
L 388.259159 254.634228 
L 388.4324 255.688743 
L 388.605642 248.617688 
L 388.952125 246.427737 
L 389.125366 251.550836 
L 389.298608 233.858317 
L 389.471849 238.861646 
L 389.645091 236.949517 
L 389.818332 222.774648 
L 389.991574 249.416285 
L 390.164815 240.33269 
L 390.338057 239.076922 
L 390.511298 249.401936 
L 390.68454 244.045596 
L 390.857781 242.889944 
L 391.031023 242.652848 
L 391.031023 242.652848 
" clip-path="url(#pd9a7c40ce1)" style="fill: none; stroke: #1f77b4; stroke-width: 1.5; stroke-linecap: square"/>
   </g>
   <g id="patch_3">
    <path d="M 50.14375 273.312 
L 50.14375 7.2 
" style="fill: none; stroke: #000000; stroke-width: 0.8; stroke-linejoin: miter; stroke-linecap: square"/>
   </g>
   <g id="patch_4">
    <path d="M 407.26375 273.312 
L 407.26375 7.2 
" style="fill: none; stroke: #000000; stroke-width: 0.8; stroke-linejoin: miter; stroke-linecap: square"/>
   </g>
   <g id="patch_5">
    <path d="M 50.14375 273.312 
L 407.26375 273.312 
" style="fill: none; stroke: #000000; stroke-width: 0.8; stroke-linejoin: miter; stroke-linecap: square"/>
   </g>
   <g id="patch_6">
    <path d="M 50.14375 7.2 
L 407.26375 7.2 
" style="fill: none; stroke: #000000; stroke-width: 0.8; stroke-linejoin: miter; stroke-linecap: square"/>
   </g>
   <g id="legend_1">
    <g id="patch_7">
     <path d="M 344.98875 29.878125 
L 400.26375 29.878125 
Q 402.26375 29.878125 402.26375 27.878125 
L 402.26375 14.2 
Q 402.26375 12.2 400.26375 12.2 
L 344.98875 12.2 
Q 342.98875 12.2 342.98875 14.2 
L 342.98875 27.878125 
Q 342.98875 29.878125 344.98875 29.878125 
z
" style="fill: #ffffff; opacity: 0.8; stroke: #cccccc; stroke-linejoin: miter"/>
    </g>
    <g id="line2d_34">
     <path d="M 346.98875 20.298437 
L 356.98875 20.298437 
L 366.98875 20.298437 
" style="fill: none; stroke: #1f77b4; stroke-width: 1.5; stroke-linecap: square"/>
    </g>
    <g id="text_19">
     <!-- train -->
     <g transform="translate(374.98875 23.798437) scale(0.1 -0.1)">
      <defs>
       <path id="DejaVuSans-72" d="M 2631 2963 
Q 2534 3019 2420 3045 
Q 2306 3072 2169 3072 
Q 1681 3072 1420 2755 
Q 1159 2438 1159 1844 
L 1159 0 
L 581 0 
L 581 3500 
L 1159 3500 
L 1159 2956 
Q 1341 3275 1631 3429 
Q 1922 3584 2338 3584 
Q 2397 3584 2469 3576 
Q 2541 3569 2628 3553 
L 2631 2963 
z
" transform="scale(0.015625)"/>
       <path id="DejaVuSans-61" d="M 2194 1759 
Q 1497 1759 1228 1600 
Q 959 1441 959 1056 
Q 959 750 1161 570 
Q 1363 391 1709 391 
Q 2188 391 2477 730 
Q 2766 1069 2766 1631 
L 2766 1759 
L 2194 1759 
z
M 3341 1997 
L 3341 0 
L 2766 0 
L 2766 531 
Q 2569 213 2275 61 
Q 1981 -91 1556 -91 
Q 1019 -91 701 211 
Q 384 513 384 1019 
Q 384 1609 779 1909 
Q 1175 2209 1959 2209 
L 2766 2209 
L 2766 2266 
Q 2766 2663 2505 2880 
Q 2244 3097 1772 3097 
Q 1472 3097 1187 3025 
Q 903 2953 641 2809 
L 641 3341 
Q 956 3463 1253 3523 
Q 1550 3584 1831 3584 
Q 2591 3584 2966 3190 
Q 3341 2797 3341 1997 
z
" transform="scale(0.015625)"/>
       <path id="DejaVuSans-69" d="M 603 3500 
L 1178 3500 
L 1178 0 
L 603 0 
L 603 3500 
z
M 603 4863 
L 1178 4863 
L 1178 4134 
L 603 4134 
L 603 4863 
z
" transform="scale(0.015625)"/>
       <path id="DejaVuSans-6e" d="M 3513 2113 
L 3513 0 
L 2938 0 
L 2938 2094 
Q 2938 2591 2744 2837 
Q 2550 3084 2163 3084 
Q 1697 3084 1428 2787 
Q 1159 2491 1159 1978 
L 1159 0 
L 581 0 
L 581 3500 
L 1159 3500 
L 1159 2956 
Q 1366 3272 1645 3428 
Q 1925 3584 2291 3584 
Q 2894 3584 3203 3211 
Q 3513 2838 3513 2113 
z
" transform="scale(0.015625)"/>
      </defs>
      <use xlink:href="#DejaVuSans-74"/>
      <use xlink:href="#DejaVuSans-72" transform="translate(39.208984 0)"/>
      <use xlink:href="#DejaVuSans-61" transform="translate(80.322266 0)"/>
      <use xlink:href="#DejaVuSans-69" transform="translate(141.601562 0)"/>
      <use xlink:href="#DejaVuSans-6e" transform="translate(169.384766 0)"/>
     </g>
    </g>
   </g>
  </g>
 </g>
 <defs>
  <clipPath id="pd9a7c40ce1">
   <rect x="50.14375" y="7.2" width="357.12" height="266.112"/>
  </clipPath>
 </defs>
</svg>
