<?xml version="1.0" encoding="utf-8" standalone="no"?>
<!DOCTYPE svg PUBLIC "-//W3C//DTD SVG 1.1//EN"
  "http://www.w3.org/Graphics/SVG/1.1/DTD/svg11.dtd">
<svg xmlns:xlink="http://www.w3.org/1999/xlink" width="414.46375pt" height="310.86825pt" viewBox="0 0 414.46375 310.86825" xmlns="http://www.w3.org/2000/svg" version="1.1">
 <metadata>
  <rdf:RDF xmlns:dc="http://purl.org/dc/elements/1.1/" xmlns:cc="http://creativecommons.org/ns#" xmlns:rdf="http://www.w3.org/1999/02/22-rdf-syntax-ns#">
   <cc:Work>
    <dc:type rdf:resource="http://purl.org/dc/dcmitype/StillImage"/>
    <dc:date>2025-07-17T09:59:07.819208</dc:date>
    <dc:format>image/svg+xml</dc:format>
    <dc:creator>
     <cc:Agent>
      <dc:title>Matplotlib v3.10.3, https://matplotlib.org/</dc:title>
     </cc:Agent>
    </dc:creator>
   </cc:Work>
  </rdf:RDF>
 </metadata>
 <defs>
  <style type="text/css">*{stroke-linejoin: round; stroke-linecap: butt}</style>
 </defs>
 <g id="figure_1">
  <g id="patch_1">
   <path d="M 0 310.86825 
L 414.46375 310.86825 
L 414.46375 0 
L 0 0 
z
" style="fill: #ffffff"/>
  </g>
  <g id="axes_1">
   <g id="patch_2">
    <path d="M 50.14375 273.312 
L 407.26375 273.312 
L 407.26375 7.2 
L 50.14375 7.2 
z
" style="fill: #ffffff"/>
   </g>
   <g id="matplotlib.axis_1">
    <g id="xtick_1">
     <g id="line2d_1">
      <path d="M 66.376477 273.312 
L 66.376477 7.2 
" clip-path="url(#p87681c4145)" style="fill: none; stroke-dasharray: 2.96,1.28; stroke-dashoffset: 0; stroke: #b0b0b0; stroke-opacity: 0.3; stroke-width: 0.8"/>
     </g>
     <g id="line2d_2">
      <defs>
       <path id="m122bcd038f" d="M 0 0 
L 0 3.5 
" style="stroke: #000000; stroke-width: 0.8"/>
      </defs>
      <g>
       <use xlink:href="#m122bcd038f" x="66.376477" y="273.312" style="stroke: #000000; stroke-width: 0.8"/>
      </g>
     </g>
     <g id="text_1">
      <!-- 0 -->
      <g transform="translate(63.195227 287.910437) scale(0.1 -0.1)">
       <defs>
        <path id="DejaVuSans-30" d="M 2034 4250 
Q 1547 4250 1301 3770 
Q 1056 3291 1056 2328 
Q 1056 1369 1301 889 
Q 1547 409 2034 409 
Q 2525 409 2770 889 
Q 3016 1369 3016 2328 
Q 3016 3291 2770 3770 
Q 2525 4250 2034 4250 
z
M 2034 4750 
Q 2819 4750 3233 4129 
Q 3647 3509 3647 2328 
Q 3647 1150 3233 529 
Q 2819 -91 2034 -91 
Q 1250 -91 836 529 
Q 422 1150 422 2328 
Q 422 3509 836 4129 
Q 1250 4750 2034 4750 
z
" transform="scale(0.015625)"/>
       </defs>
       <use xlink:href="#DejaVuSans-30"/>
      </g>
     </g>
    </g>
    <g id="xtick_2">
     <g id="line2d_3">
      <path d="M 109.686849 273.312 
L 109.686849 7.2 
" clip-path="url(#p87681c4145)" style="fill: none; stroke-dasharray: 2.96,1.28; stroke-dashoffset: 0; stroke: #b0b0b0; stroke-opacity: 0.3; stroke-width: 0.8"/>
     </g>
     <g id="line2d_4">
      <g>
       <use xlink:href="#m122bcd038f" x="109.686849" y="273.312" style="stroke: #000000; stroke-width: 0.8"/>
      </g>
     </g>
     <g id="text_2">
      <!-- 250 -->
      <g transform="translate(100.143099 287.910437) scale(0.1 -0.1)">
       <defs>
        <path id="DejaVuSans-32" d="M 1228 531 
L 3431 531 
L 3431 0 
L 469 0 
L 469 531 
Q 828 903 1448 1529 
Q 2069 2156 2228 2338 
Q 2531 2678 2651 2914 
Q 2772 3150 2772 3378 
Q 2772 3750 2511 3984 
Q 2250 4219 1831 4219 
Q 1534 4219 1204 4116 
Q 875 4013 500 3803 
L 500 4441 
Q 881 4594 1212 4672 
Q 1544 4750 1819 4750 
Q 2544 4750 2975 4387 
Q 3406 4025 3406 3419 
Q 3406 3131 3298 2873 
Q 3191 2616 2906 2266 
Q 2828 2175 2409 1742 
Q 1991 1309 1228 531 
z
" transform="scale(0.015625)"/>
        <path id="DejaVuSans-35" d="M 691 4666 
L 3169 4666 
L 3169 4134 
L 1269 4134 
L 1269 2991 
Q 1406 3038 1543 3061 
Q 1681 3084 1819 3084 
Q 2600 3084 3056 2656 
Q 3513 2228 3513 1497 
Q 3513 744 3044 326 
Q 2575 -91 1722 -91 
Q 1428 -91 1123 -41 
Q 819 9 494 109 
L 494 744 
Q 775 591 1075 516 
Q 1375 441 1709 441 
Q 2250 441 2565 725 
Q 2881 1009 2881 1497 
Q 2881 1984 2565 2268 
Q 2250 2553 1709 2553 
Q 1456 2553 1204 2497 
Q 953 2441 691 2322 
L 691 4666 
z
" transform="scale(0.015625)"/>
       </defs>
       <use xlink:href="#DejaVuSans-32"/>
       <use xlink:href="#DejaVuSans-35" transform="translate(63.623047 0)"/>
       <use xlink:href="#DejaVuSans-30" transform="translate(127.246094 0)"/>
      </g>
     </g>
    </g>
    <g id="xtick_3">
     <g id="line2d_5">
      <path d="M 152.99722 273.312 
L 152.99722 7.2 
" clip-path="url(#p87681c4145)" style="fill: none; stroke-dasharray: 2.96,1.28; stroke-dashoffset: 0; stroke: #b0b0b0; stroke-opacity: 0.3; stroke-width: 0.8"/>
     </g>
     <g id="line2d_6">
      <g>
       <use xlink:href="#m122bcd038f" x="152.99722" y="273.312" style="stroke: #000000; stroke-width: 0.8"/>
      </g>
     </g>
     <g id="text_3">
      <!-- 500 -->
      <g transform="translate(143.45347 287.910437) scale(0.1 -0.1)">
       <use xlink:href="#DejaVuSans-35"/>
       <use xlink:href="#DejaVuSans-30" transform="translate(63.623047 0)"/>
       <use xlink:href="#DejaVuSans-30" transform="translate(127.246094 0)"/>
      </g>
     </g>
    </g>
    <g id="xtick_4">
     <g id="line2d_7">
      <path d="M 196.307592 273.312 
L 196.307592 7.2 
" clip-path="url(#p87681c4145)" style="fill: none; stroke-dasharray: 2.96,1.28; stroke-dashoffset: 0; stroke: #b0b0b0; stroke-opacity: 0.3; stroke-width: 0.8"/>
     </g>
     <g id="line2d_8">
      <g>
       <use xlink:href="#m122bcd038f" x="196.307592" y="273.312" style="stroke: #000000; stroke-width: 0.8"/>
      </g>
     </g>
     <g id="text_4">
      <!-- 750 -->
      <g transform="translate(186.763842 287.910437) scale(0.1 -0.1)">
       <defs>
        <path id="DejaVuSans-37" d="M 525 4666 
L 3525 4666 
L 3525 4397 
L 1831 0 
L 1172 0 
L 2766 4134 
L 525 4134 
L 525 4666 
z
" transform="scale(0.015625)"/>
       </defs>
       <use xlink:href="#DejaVuSans-37"/>
       <use xlink:href="#DejaVuSans-35" transform="translate(63.623047 0)"/>
       <use xlink:href="#DejaVuSans-30" transform="translate(127.246094 0)"/>
      </g>
     </g>
    </g>
    <g id="xtick_5">
     <g id="line2d_9">
      <path d="M 239.617964 273.312 
L 239.617964 7.2 
" clip-path="url(#p87681c4145)" style="fill: none; stroke-dasharray: 2.96,1.28; stroke-dashoffset: 0; stroke: #b0b0b0; stroke-opacity: 0.3; stroke-width: 0.8"/>
     </g>
     <g id="line2d_10">
      <g>
       <use xlink:href="#m122bcd038f" x="239.617964" y="273.312" style="stroke: #000000; stroke-width: 0.8"/>
      </g>
     </g>
     <g id="text_5">
      <!-- 1000 -->
      <g transform="translate(226.892964 287.910437) scale(0.1 -0.1)">
       <defs>
        <path id="DejaVuSans-31" d="M 794 531 
L 1825 531 
L 1825 4091 
L 703 3866 
L 703 4441 
L 1819 4666 
L 2450 4666 
L 2450 531 
L 3481 531 
L 3481 0 
L 794 0 
L 794 531 
z
" transform="scale(0.015625)"/>
       </defs>
       <use xlink:href="#DejaVuSans-31"/>
       <use xlink:href="#DejaVuSans-30" transform="translate(63.623047 0)"/>
       <use xlink:href="#DejaVuSans-30" transform="translate(127.246094 0)"/>
       <use xlink:href="#DejaVuSans-30" transform="translate(190.869141 0)"/>
      </g>
     </g>
    </g>
    <g id="xtick_6">
     <g id="line2d_11">
      <path d="M 282.928335 273.312 
L 282.928335 7.2 
" clip-path="url(#p87681c4145)" style="fill: none; stroke-dasharray: 2.96,1.28; stroke-dashoffset: 0; stroke: #b0b0b0; stroke-opacity: 0.3; stroke-width: 0.8"/>
     </g>
     <g id="line2d_12">
      <g>
       <use xlink:href="#m122bcd038f" x="282.928335" y="273.312" style="stroke: #000000; stroke-width: 0.8"/>
      </g>
     </g>
     <g id="text_6">
      <!-- 1250 -->
      <g transform="translate(270.203335 287.910437) scale(0.1 -0.1)">
       <use xlink:href="#DejaVuSans-31"/>
       <use xlink:href="#DejaVuSans-32" transform="translate(63.623047 0)"/>
       <use xlink:href="#DejaVuSans-35" transform="translate(127.246094 0)"/>
       <use xlink:href="#DejaVuSans-30" transform="translate(190.869141 0)"/>
      </g>
     </g>
    </g>
    <g id="xtick_7">
     <g id="line2d_13">
      <path d="M 326.238707 273.312 
L 326.238707 7.2 
" clip-path="url(#p87681c4145)" style="fill: none; stroke-dasharray: 2.96,1.28; stroke-dashoffset: 0; stroke: #b0b0b0; stroke-opacity: 0.3; stroke-width: 0.8"/>
     </g>
     <g id="line2d_14">
      <g>
       <use xlink:href="#m122bcd038f" x="326.238707" y="273.312" style="stroke: #000000; stroke-width: 0.8"/>
      </g>
     </g>
     <g id="text_7">
      <!-- 1500 -->
      <g transform="translate(313.513707 287.910437) scale(0.1 -0.1)">
       <use xlink:href="#DejaVuSans-31"/>
       <use xlink:href="#DejaVuSans-35" transform="translate(63.623047 0)"/>
       <use xlink:href="#DejaVuSans-30" transform="translate(127.246094 0)"/>
       <use xlink:href="#DejaVuSans-30" transform="translate(190.869141 0)"/>
      </g>
     </g>
    </g>
    <g id="xtick_8">
     <g id="line2d_15">
      <path d="M 369.549078 273.312 
L 369.549078 7.2 
" clip-path="url(#p87681c4145)" style="fill: none; stroke-dasharray: 2.96,1.28; stroke-dashoffset: 0; stroke: #b0b0b0; stroke-opacity: 0.3; stroke-width: 0.8"/>
     </g>
     <g id="line2d_16">
      <g>
       <use xlink:href="#m122bcd038f" x="369.549078" y="273.312" style="stroke: #000000; stroke-width: 0.8"/>
      </g>
     </g>
     <g id="text_8">
      <!-- 1750 -->
      <g transform="translate(356.824078 287.910437) scale(0.1 -0.1)">
       <use xlink:href="#DejaVuSans-31"/>
       <use xlink:href="#DejaVuSans-37" transform="translate(63.623047 0)"/>
       <use xlink:href="#DejaVuSans-35" transform="translate(127.246094 0)"/>
       <use xlink:href="#DejaVuSans-30" transform="translate(190.869141 0)"/>
      </g>
     </g>
    </g>
    <g id="text_9">
     <!-- step -->
     <g transform="translate(217.888125 301.588562) scale(0.1 -0.1)">
      <defs>
       <path id="DejaVuSans-73" d="M 2834 3397 
L 2834 2853 
Q 2591 2978 2328 3040 
Q 2066 3103 1784 3103 
Q 1356 3103 1142 2972 
Q 928 2841 928 2578 
Q 928 2378 1081 2264 
Q 1234 2150 1697 2047 
L 1894 2003 
Q 2506 1872 2764 1633 
Q 3022 1394 3022 966 
Q 3022 478 2636 193 
Q 2250 -91 1575 -91 
Q 1294 -91 989 -36 
Q 684 19 347 128 
L 347 722 
Q 666 556 975 473 
Q 1284 391 1588 391 
Q 1994 391 2212 530 
Q 2431 669 2431 922 
Q 2431 1156 2273 1281 
Q 2116 1406 1581 1522 
L 1381 1569 
Q 847 1681 609 1914 
Q 372 2147 372 2553 
Q 372 3047 722 3315 
Q 1072 3584 1716 3584 
Q 2034 3584 2315 3537 
Q 2597 3491 2834 3397 
z
" transform="scale(0.015625)"/>
       <path id="DejaVuSans-74" d="M 1172 4494 
L 1172 3500 
L 2356 3500 
L 2356 3053 
L 1172 3053 
L 1172 1153 
Q 1172 725 1289 603 
Q 1406 481 1766 481 
L 2356 481 
L 2356 0 
L 1766 0 
Q 1100 0 847 248 
Q 594 497 594 1153 
L 594 3053 
L 172 3053 
L 172 3500 
L 594 3500 
L 594 4494 
L 1172 4494 
z
" transform="scale(0.015625)"/>
       <path id="DejaVuSans-65" d="M 3597 1894 
L 3597 1613 
L 953 1613 
Q 991 1019 1311 708 
Q 1631 397 2203 397 
Q 2534 397 2845 478 
Q 3156 559 3463 722 
L 3463 178 
Q 3153 47 2828 -22 
Q 2503 -91 2169 -91 
Q 1331 -91 842 396 
Q 353 884 353 1716 
Q 353 2575 817 3079 
Q 1281 3584 2069 3584 
Q 2775 3584 3186 3129 
Q 3597 2675 3597 1894 
z
M 3022 2063 
Q 3016 2534 2758 2815 
Q 2500 3097 2075 3097 
Q 1594 3097 1305 2825 
Q 1016 2553 972 2059 
L 3022 2063 
z
" transform="scale(0.015625)"/>
       <path id="DejaVuSans-70" d="M 1159 525 
L 1159 -1331 
L 581 -1331 
L 581 3500 
L 1159 3500 
L 1159 2969 
Q 1341 3281 1617 3432 
Q 1894 3584 2278 3584 
Q 2916 3584 3314 3078 
Q 3713 2572 3713 1747 
Q 3713 922 3314 415 
Q 2916 -91 2278 -91 
Q 1894 -91 1617 61 
Q 1341 213 1159 525 
z
M 3116 1747 
Q 3116 2381 2855 2742 
Q 2594 3103 2138 3103 
Q 1681 3103 1420 2742 
Q 1159 2381 1159 1747 
Q 1159 1113 1420 752 
Q 1681 391 2138 391 
Q 2594 391 2855 752 
Q 3116 1113 3116 1747 
z
" transform="scale(0.015625)"/>
      </defs>
      <use xlink:href="#DejaVuSans-73"/>
      <use xlink:href="#DejaVuSans-74" transform="translate(52.099609 0)"/>
      <use xlink:href="#DejaVuSans-65" transform="translate(91.308594 0)"/>
      <use xlink:href="#DejaVuSans-70" transform="translate(152.832031 0)"/>
     </g>
    </g>
   </g>
   <g id="matplotlib.axis_2">
    <g id="ytick_1">
     <g id="line2d_17">
      <path d="M 50.14375 273.172671 
L 407.26375 273.172671 
" clip-path="url(#p87681c4145)" style="fill: none; stroke-dasharray: 2.96,1.28; stroke-dashoffset: 0; stroke: #b0b0b0; stroke-opacity: 0.3; stroke-width: 0.8"/>
     </g>
     <g id="line2d_18">
      <defs>
       <path id="mc680e0e6e1" d="M 0 0 
L -3.5 0 
" style="stroke: #000000; stroke-width: 0.8"/>
      </defs>
      <g>
       <use xlink:href="#mc680e0e6e1" x="50.14375" y="273.172671" style="stroke: #000000; stroke-width: 0.8"/>
      </g>
     </g>
     <g id="text_10">
      <!-- 0.00 -->
      <g transform="translate(20.878125 276.97189) scale(0.1 -0.1)">
       <defs>
        <path id="DejaVuSans-2e" d="M 684 794 
L 1344 794 
L 1344 0 
L 684 0 
L 684 794 
z
" transform="scale(0.015625)"/>
       </defs>
       <use xlink:href="#DejaVuSans-30"/>
       <use xlink:href="#DejaVuSans-2e" transform="translate(63.623047 0)"/>
       <use xlink:href="#DejaVuSans-30" transform="translate(95.410156 0)"/>
       <use xlink:href="#DejaVuSans-30" transform="translate(159.033203 0)"/>
      </g>
     </g>
    </g>
    <g id="ytick_2">
     <g id="line2d_19">
      <path d="M 50.14375 241.625921 
L 407.26375 241.625921 
" clip-path="url(#p87681c4145)" style="fill: none; stroke-dasharray: 2.96,1.28; stroke-dashoffset: 0; stroke: #b0b0b0; stroke-opacity: 0.3; stroke-width: 0.8"/>
     </g>
     <g id="line2d_20">
      <g>
       <use xlink:href="#mc680e0e6e1" x="50.14375" y="241.625921" style="stroke: #000000; stroke-width: 0.8"/>
      </g>
     </g>
     <g id="text_11">
      <!-- 0.25 -->
      <g transform="translate(20.878125 245.425139) scale(0.1 -0.1)">
       <use xlink:href="#DejaVuSans-30"/>
       <use xlink:href="#DejaVuSans-2e" transform="translate(63.623047 0)"/>
       <use xlink:href="#DejaVuSans-32" transform="translate(95.410156 0)"/>
       <use xlink:href="#DejaVuSans-35" transform="translate(159.033203 0)"/>
      </g>
     </g>
    </g>
    <g id="ytick_3">
     <g id="line2d_21">
      <path d="M 50.14375 210.07917 
L 407.26375 210.07917 
" clip-path="url(#p87681c4145)" style="fill: none; stroke-dasharray: 2.96,1.28; stroke-dashoffset: 0; stroke: #b0b0b0; stroke-opacity: 0.3; stroke-width: 0.8"/>
     </g>
     <g id="line2d_22">
      <g>
       <use xlink:href="#mc680e0e6e1" x="50.14375" y="210.07917" style="stroke: #000000; stroke-width: 0.8"/>
      </g>
     </g>
     <g id="text_12">
      <!-- 0.50 -->
      <g transform="translate(20.878125 213.878389) scale(0.1 -0.1)">
       <use xlink:href="#DejaVuSans-30"/>
       <use xlink:href="#DejaVuSans-2e" transform="translate(63.623047 0)"/>
       <use xlink:href="#DejaVuSans-35" transform="translate(95.410156 0)"/>
       <use xlink:href="#DejaVuSans-30" transform="translate(159.033203 0)"/>
      </g>
     </g>
    </g>
    <g id="ytick_4">
     <g id="line2d_23">
      <path d="M 50.14375 178.532419 
L 407.26375 178.532419 
" clip-path="url(#p87681c4145)" style="fill: none; stroke-dasharray: 2.96,1.28; stroke-dashoffset: 0; stroke: #b0b0b0; stroke-opacity: 0.3; stroke-width: 0.8"/>
     </g>
     <g id="line2d_24">
      <g>
       <use xlink:href="#mc680e0e6e1" x="50.14375" y="178.532419" style="stroke: #000000; stroke-width: 0.8"/>
      </g>
     </g>
     <g id="text_13">
      <!-- 0.75 -->
      <g transform="translate(20.878125 182.331638) scale(0.1 -0.1)">
       <use xlink:href="#DejaVuSans-30"/>
       <use xlink:href="#DejaVuSans-2e" transform="translate(63.623047 0)"/>
       <use xlink:href="#DejaVuSans-37" transform="translate(95.410156 0)"/>
       <use xlink:href="#DejaVuSans-35" transform="translate(159.033203 0)"/>
      </g>
     </g>
    </g>
    <g id="ytick_5">
     <g id="line2d_25">
      <path d="M 50.14375 146.985669 
L 407.26375 146.985669 
" clip-path="url(#p87681c4145)" style="fill: none; stroke-dasharray: 2.96,1.28; stroke-dashoffset: 0; stroke: #b0b0b0; stroke-opacity: 0.3; stroke-width: 0.8"/>
     </g>
     <g id="line2d_26">
      <g>
       <use xlink:href="#mc680e0e6e1" x="50.14375" y="146.985669" style="stroke: #000000; stroke-width: 0.8"/>
      </g>
     </g>
     <g id="text_14">
      <!-- 1.00 -->
      <g transform="translate(20.878125 150.784887) scale(0.1 -0.1)">
       <use xlink:href="#DejaVuSans-31"/>
       <use xlink:href="#DejaVuSans-2e" transform="translate(63.623047 0)"/>
       <use xlink:href="#DejaVuSans-30" transform="translate(95.410156 0)"/>
       <use xlink:href="#DejaVuSans-30" transform="translate(159.033203 0)"/>
      </g>
     </g>
    </g>
    <g id="ytick_6">
     <g id="line2d_27">
      <path d="M 50.14375 115.438918 
L 407.26375 115.438918 
" clip-path="url(#p87681c4145)" style="fill: none; stroke-dasharray: 2.96,1.28; stroke-dashoffset: 0; stroke: #b0b0b0; stroke-opacity: 0.3; stroke-width: 0.8"/>
     </g>
     <g id="line2d_28">
      <g>
       <use xlink:href="#mc680e0e6e1" x="50.14375" y="115.438918" style="stroke: #000000; stroke-width: 0.8"/>
      </g>
     </g>
     <g id="text_15">
      <!-- 1.25 -->
      <g transform="translate(20.878125 119.238137) scale(0.1 -0.1)">
       <use xlink:href="#DejaVuSans-31"/>
       <use xlink:href="#DejaVuSans-2e" transform="translate(63.623047 0)"/>
       <use xlink:href="#DejaVuSans-32" transform="translate(95.410156 0)"/>
       <use xlink:href="#DejaVuSans-35" transform="translate(159.033203 0)"/>
      </g>
     </g>
    </g>
    <g id="ytick_7">
     <g id="line2d_29">
      <path d="M 50.14375 83.892167 
L 407.26375 83.892167 
" clip-path="url(#p87681c4145)" style="fill: none; stroke-dasharray: 2.96,1.28; stroke-dashoffset: 0; stroke: #b0b0b0; stroke-opacity: 0.3; stroke-width: 0.8"/>
     </g>
     <g id="line2d_30">
      <g>
       <use xlink:href="#mc680e0e6e1" x="50.14375" y="83.892167" style="stroke: #000000; stroke-width: 0.8"/>
      </g>
     </g>
     <g id="text_16">
      <!-- 1.50 -->
      <g transform="translate(20.878125 87.691386) scale(0.1 -0.1)">
       <use xlink:href="#DejaVuSans-31"/>
       <use xlink:href="#DejaVuSans-2e" transform="translate(63.623047 0)"/>
       <use xlink:href="#DejaVuSans-35" transform="translate(95.410156 0)"/>
       <use xlink:href="#DejaVuSans-30" transform="translate(159.033203 0)"/>
      </g>
     </g>
    </g>
    <g id="ytick_8">
     <g id="line2d_31">
      <path d="M 50.14375 52.345416 
L 407.26375 52.345416 
" clip-path="url(#p87681c4145)" style="fill: none; stroke-dasharray: 2.96,1.28; stroke-dashoffset: 0; stroke: #b0b0b0; stroke-opacity: 0.3; stroke-width: 0.8"/>
     </g>
     <g id="line2d_32">
      <g>
       <use xlink:href="#mc680e0e6e1" x="50.14375" y="52.345416" style="stroke: #000000; stroke-width: 0.8"/>
      </g>
     </g>
     <g id="text_17">
      <!-- 1.75 -->
      <g transform="translate(20.878125 56.144635) scale(0.1 -0.1)">
       <use xlink:href="#DejaVuSans-31"/>
       <use xlink:href="#DejaVuSans-2e" transform="translate(63.623047 0)"/>
       <use xlink:href="#DejaVuSans-37" transform="translate(95.410156 0)"/>
       <use xlink:href="#DejaVuSans-35" transform="translate(159.033203 0)"/>
      </g>
     </g>
    </g>
    <g id="ytick_9">
     <g id="line2d_33">
      <path d="M 50.14375 20.798666 
L 407.26375 20.798666 
" clip-path="url(#p87681c4145)" style="fill: none; stroke-dasharray: 2.96,1.28; stroke-dashoffset: 0; stroke: #b0b0b0; stroke-opacity: 0.3; stroke-width: 0.8"/>
     </g>
     <g id="line2d_34">
      <g>
       <use xlink:href="#mc680e0e6e1" x="50.14375" y="20.798666" style="stroke: #000000; stroke-width: 0.8"/>
      </g>
     </g>
     <g id="text_18">
      <!-- 2.00 -->
      <g transform="translate(20.878125 24.597885) scale(0.1 -0.1)">
       <use xlink:href="#DejaVuSans-32"/>
       <use xlink:href="#DejaVuSans-2e" transform="translate(63.623047 0)"/>
       <use xlink:href="#DejaVuSans-30" transform="translate(95.410156 0)"/>
       <use xlink:href="#DejaVuSans-30" transform="translate(159.033203 0)"/>
      </g>
     </g>
    </g>
    <g id="text_19">
     <!-- loss -->
     <g transform="translate(14.798438 149.913812) rotate(-90) scale(0.1 -0.1)">
      <defs>
       <path id="DejaVuSans-6c" d="M 603 4863 
L 1178 4863 
L 1178 0 
L 603 0 
L 603 4863 
z
" transform="scale(0.015625)"/>
       <path id="DejaVuSans-6f" d="M 1959 3097 
Q 1497 3097 1228 2736 
Q 959 2375 959 1747 
Q 959 1119 1226 758 
Q 1494 397 1959 397 
Q 2419 397 2687 759 
Q 2956 1122 2956 1747 
Q 2956 2369 2687 2733 
Q 2419 3097 1959 3097 
z
M 1959 3584 
Q 2709 3584 3137 3096 
Q 3566 2609 3566 1747 
Q 3566 888 3137 398 
Q 2709 -91 1959 -91 
Q 1206 -91 779 398 
Q 353 888 353 1747 
Q 353 2609 779 3096 
Q 1206 3584 1959 3584 
z
" transform="scale(0.015625)"/>
      </defs>
      <use xlink:href="#DejaVuSans-6c"/>
      <use xlink:href="#DejaVuSans-6f" transform="translate(27.783203 0)"/>
      <use xlink:href="#DejaVuSans-73" transform="translate(88.964844 0)"/>
      <use xlink:href="#DejaVuSans-73" transform="translate(141.064453 0)"/>
     </g>
    </g>
   </g>
   <g id="line2d_35">
    <path d="M 66.376477 19.296 
L 66.72296 131.331224 
L 66.896202 156.376598 
L 67.069443 155.876172 
L 67.415926 174.670093 
L 67.589168 176.047641 
L 67.762409 193.903586 
L 67.935651 186.362155 
L 68.108892 211.616377 
L 68.282134 191.790951 
L 68.455375 202.206133 
L 68.628617 220.085902 
L 68.801858 200.299988 
L 68.9751 216.968366 
L 69.148341 214.417716 
L 69.321583 209.319365 
L 69.494824 209.61634 
L 69.668066 203.222616 
L 69.841307 209.310923 
L 70.014548 220.787809 
L 70.18779 209.807691 
L 70.361031 229.188308 
L 70.534273 207.861044 
L 70.707514 212.945474 
L 70.880756 201.768566 
L 71.053997 212.412147 
L 71.227239 202.449705 
L 71.40048 216.079804 
L 71.573722 211.998765 
L 71.746963 224.720982 
L 71.920205 225.501326 
L 72.093446 220.687703 
L 72.266688 224.02229 
L 72.613171 214.621989 
L 72.786412 227.970819 
L 72.959654 222.789554 
L 73.132895 227.649443 
L 73.306137 227.086424 
L 73.479378 219.030834 
L 73.65262 197.593277 
L 73.999103 225.267612 
L 74.172344 215.174212 
L 74.518827 228.858635 
L 74.692069 221.556245 
L 74.86531 243.823821 
L 75.038552 215.358784 
L 75.211793 231.243094 
L 75.385035 221.599315 
L 75.558276 221.425756 
L 75.731518 216.782852 
L 75.904759 230.392267 
L 76.078001 227.749251 
L 76.251242 221.886642 
L 76.424483 224.287112 
L 76.597725 228.808095 
L 76.944208 225.400269 
L 77.117449 233.406876 
L 77.463932 217.728545 
L 77.637174 222.157743 
L 77.810415 234.951693 
L 77.983657 229.814701 
L 78.156898 231.713238 
L 78.503381 229.445233 
L 78.676623 228.670508 
L 78.849864 229.592226 
L 79.023106 234.864435 
L 79.196347 225.032082 
L 79.369589 228.596369 
L 79.54283 220.655758 
L 79.716072 218.942549 
L 79.889313 237.309344 
L 80.062555 213.158919 
L 80.235796 232.364734 
L 80.409038 235.723946 
L 80.582279 223.190297 
L 80.755521 227.211587 
L 80.928762 211.925483 
L 81.102004 214.081836 
L 81.448487 226.616869 
L 81.621728 234.121267 
L 81.79497 228.765365 
L 81.968211 230.821372 
L 82.141453 220.816586 
L 82.314694 223.618679 
L 82.487936 238.734533 
L 82.661177 221.704101 
L 82.834418 239.496059 
L 83.180901 217.521347 
L 83.354143 231.302319 
L 83.527384 229.28689 
L 83.700626 206.597701 
L 83.873867 247.932354 
L 84.22035 218.591811 
L 84.393592 216.211738 
L 84.566833 233.448268 
L 85.086558 219.774646 
L 85.259799 226.786104 
L 85.433041 217.019963 
L 85.606282 228.896131 
L 85.779524 228.318879 
L 85.952765 232.232386 
L 86.126007 239.436613 
L 86.299248 241.742425 
L 86.645731 225.018556 
L 86.818973 230.377415 
L 87.165456 221.899555 
L 87.338697 211.616145 
L 87.68518 235.280107 
L 87.858422 218.238845 
L 88.031663 222.183853 
L 88.204905 239.585445 
L 88.378146 239.148572 
L 88.551388 211.337502 
L 88.724629 245.224169 
L 88.897871 229.537098 
L 89.244353 234.017561 
L 89.417595 220.696997 
L 89.590836 225.305262 
L 89.764078 224.278317 
L 90.283802 242.975241 
L 90.457044 240.936659 
L 90.630285 211.635857 
L 90.803527 225.74764 
L 90.976768 218.953563 
L 91.15001 238.201024 
L 91.323251 221.508146 
L 91.496493 193.81167 
L 91.669734 236.062308 
L 91.842976 230.677694 
L 92.016217 219.359592 
L 92.189459 227.160562 
L 92.3627 243.407021 
L 92.535942 230.374742 
L 92.709183 233.788074 
L 92.882425 232.487993 
L 93.055666 218.18317 
L 93.228908 232.597373 
L 93.402149 217.832368 
L 93.575391 223.892602 
L 93.748632 221.10868 
L 94.095115 240.737759 
L 94.268357 220.59227 
L 94.441598 244.075761 
L 94.61484 215.243193 
L 94.788081 228.416095 
L 94.961323 229.242278 
L 95.134564 232.68346 
L 95.307805 231.821001 
L 95.481047 234.310977 
L 95.654288 214.993365 
L 95.82753 236.780678 
L 96.000771 226.114395 
L 96.174013 244.552501 
L 96.347254 247.347906 
L 96.520496 223.890478 
L 96.693737 239.326876 
L 96.866979 216.983179 
L 97.04022 235.081533 
L 97.213462 234.330824 
L 97.386703 235.921107 
L 97.559945 221.042248 
L 97.733186 224.561212 
L 97.906428 242.429576 
L 98.079669 238.378294 
L 98.252911 238.077148 
L 98.426152 220.487574 
L 98.599394 220.406744 
L 98.772635 242.465949 
L 98.945877 241.789691 
L 99.119118 242.169948 
L 99.29236 212.544433 
L 99.465601 238.37129 
L 99.638843 219.082126 
L 99.812084 233.99588 
L 99.985326 229.06082 
L 100.158567 244.534038 
L 100.331809 232.087129 
L 100.50505 236.392143 
L 100.678292 223.012518 
L 100.851533 234.409526 
L 101.198016 236.574864 
L 101.371258 222.301701 
L 101.71774 233.038979 
L 101.890982 224.420982 
L 102.237465 241.11628 
L 102.410706 225.257411 
L 102.583948 233.563745 
L 102.757189 224.554323 
L 102.930431 221.658264 
L 103.103672 238.037447 
L 103.276914 243.537005 
L 103.450155 236.177784 
L 103.796638 243.929057 
L 103.96988 209.777381 
L 104.316363 228.335502 
L 104.489604 232.16659 
L 104.662846 228.597193 
L 104.836087 240.630181 
L 105.009329 227.903035 
L 105.18257 248.092809 
L 105.355812 226.383223 
L 105.529053 238.368678 
L 105.702295 229.527937 
L 105.875536 233.583798 
L 106.048778 220.209512 
L 106.222019 226.79288 
L 106.395261 225.947905 
L 106.568502 229.18697 
L 106.741744 236.467798 
L 106.914985 223.686557 
L 107.088227 234.129373 
L 107.261468 229.88586 
L 107.607951 243.824197 
L 107.781193 228.288943 
L 107.954434 229.89033 
L 108.127675 229.267647 
L 108.300917 237.743922 
L 108.474158 238.089277 
L 108.820641 225.938925 
L 109.167124 237.431871 
L 109.340366 233.893037 
L 109.513607 239.101294 
L 109.686849 232.631405 
L 109.86009 236.513428 
L 110.033332 235.045745 
L 110.206573 235.13118 
L 110.379815 239.306592 
L 110.726298 213.408653 
L 110.899539 223.551847 
L 111.072781 242.827301 
L 111.419264 210.319389 
L 111.592505 238.525001 
L 111.765747 239.988561 
L 111.938988 228.86303 
L 112.11223 240.79207 
L 112.285471 243.218043 
L 112.458713 248.183802 
L 112.805196 232.946798 
L 112.978437 237.271382 
L 113.151679 231.902056 
L 113.32492 218.971125 
L 113.498162 231.045817 
L 113.671403 212.398947 
L 113.844645 226.223887 
L 114.017886 218.402156 
L 114.191128 238.843455 
L 114.364369 237.399601 
L 114.53761 242.448483 
L 114.710852 221.909197 
L 114.884093 224.937791 
L 115.230576 236.601891 
L 115.403818 218.214665 
L 115.577059 237.056032 
L 115.750301 240.052781 
L 115.923542 240.685234 
L 116.096784 235.142102 
L 116.270025 239.500917 
L 116.443267 229.11117 
L 116.616508 236.747384 
L 116.78975 236.572741 
L 116.962991 236.18463 
L 117.136233 218.159921 
L 117.309474 221.572235 
L 117.482716 227.2684 
L 117.655957 242.301095 
L 117.829199 239.800882 
L 118.00244 219.428065 
L 118.175682 226.969718 
L 118.348923 240.760545 
L 118.522165 223.208245 
L 119.041889 242.203142 
L 119.215131 226.129942 
L 119.388372 241.262588 
L 119.561614 235.95859 
L 119.734855 245.058575 
L 119.908097 224.389206 
L 120.081338 224.703965 
L 120.427821 241.677986 
L 120.601063 227.195984 
L 120.774304 239.257256 
L 120.947545 238.464574 
L 121.120787 231.48953 
L 121.294028 232.973022 
L 121.46727 241.21995 
L 121.640511 233.855803 
L 121.813753 235.768374 
L 121.986994 228.000788 
L 122.333477 241.108616 
L 122.506719 235.322042 
L 122.67996 243.949331 
L 122.853202 237.651241 
L 123.026443 240.47978 
L 123.372926 222.227631 
L 123.546168 240.711485 
L 123.719409 228.658979 
L 123.892651 242.064437 
L 124.065892 228.000814 
L 124.239134 239.766343 
L 124.412375 230.160798 
L 124.585617 227.441402 
L 124.758858 228.161435 
L 125.105341 236.933659 
L 125.278583 228.654198 
L 125.451824 235.652491 
L 125.625066 212.581585 
L 125.798307 229.080786 
L 125.971549 216.027011 
L 126.14479 217.174111 
L 126.318032 235.019325 
L 126.491273 230.231981 
L 126.664515 247.60252 
L 126.837756 223.06771 
L 127.010998 233.813272 
L 127.184239 218.385789 
L 127.35748 237.708565 
L 127.703963 235.408502 
L 127.877205 238.132086 
L 128.050446 221.561605 
L 128.223688 235.373826 
L 128.396929 235.213326 
L 128.570171 232.184117 
L 128.743412 233.825795 
L 128.916654 234.083196 
L 129.089895 228.504357 
L 129.263137 240.684284 
L 129.436378 226.092241 
L 129.60962 245.476373 
L 129.782861 240.010272 
L 129.956103 241.426729 
L 130.129344 228.582111 
L 130.302586 230.858094 
L 130.475827 246.163008 
L 130.649069 229.877028 
L 131.168793 245.800221 
L 131.342035 230.219005 
L 131.515276 235.616144 
L 131.688518 251.608121 
L 131.861759 232.583358 
L 132.035001 249.439349 
L 132.208242 244.402639 
L 132.381484 226.759692 
L 132.554725 231.511034 
L 132.727967 243.455824 
L 132.901208 238.268088 
L 133.07445 237.195273 
L 133.247691 241.12834 
L 133.420932 249.027865 
L 133.594174 246.860241 
L 133.767415 229.567081 
L 133.940657 248.716448 
L 134.113898 216.787088 
L 134.460381 243.279402 
L 134.633623 228.864487 
L 134.806864 234.00123 
L 134.980106 248.875329 
L 135.153347 247.518119 
L 135.326589 223.731163 
L 135.49983 234.609011 
L 135.846313 224.72823 
L 136.019555 244.912245 
L 136.192796 222.647105 
L 136.539279 240.748244 
L 136.712521 227.840967 
L 137.059004 221.34405 
L 137.232245 247.846423 
L 137.405487 237.558968 
L 137.578728 245.805754 
L 137.75197 237.431239 
L 137.925211 223.352972 
L 138.098453 250.954877 
L 138.444936 227.002141 
L 138.618177 237.372321 
L 138.791419 225.900654 
L 139.137902 244.017941 
L 139.311143 240.244278 
L 139.484385 244.983364 
L 139.657626 240.216663 
L 139.830867 229.120927 
L 140.004109 239.46015 
L 140.17735 236.925399 
L 140.350592 241.405498 
L 140.523833 240.339376 
L 140.697075 209.645055 
L 140.870316 239.083184 
L 141.043558 242.869994 
L 141.216799 240.367513 
L 141.390041 250.374881 
L 141.563282 228.95731 
L 141.736524 227.772109 
L 141.909765 235.751939 
L 142.083007 232.154593 
L 142.256248 238.54751 
L 142.42949 215.301956 
L 142.602731 235.142945 
L 142.775973 218.693734 
L 142.949214 240.212642 
L 143.122456 245.235217 
L 143.295697 233.179664 
L 143.468939 233.133596 
L 143.64218 234.300438 
L 143.815422 236.940672 
L 143.988663 234.774863 
L 144.161905 228.292941 
L 144.335146 228.471555 
L 144.508388 247.332003 
L 144.681629 233.552082 
L 144.854871 244.734558 
L 145.028112 237.272417 
L 145.201354 224.46687 
L 145.374595 233.759401 
L 145.547837 231.390027 
L 145.721078 243.201485 
L 145.89432 238.537173 
L 146.067561 244.700312 
L 146.414044 233.267087 
L 146.587285 243.681758 
L 146.760527 223.316633 
L 146.933768 236.665482 
L 147.10701 226.070407 
L 147.280251 243.221048 
L 147.626734 225.908892 
L 147.973217 245.920004 
L 148.146459 231.942902 
L 148.3197 239.757646 
L 148.492942 231.760407 
L 148.666183 233.834579 
L 149.012666 229.657505 
L 149.185908 247.334502 
L 149.359149 234.558019 
L 149.532391 232.29412 
L 149.878874 220.780566 
L 150.052115 233.501534 
L 150.225357 225.693606 
L 150.398598 240.322427 
L 150.57184 239.435468 
L 150.745081 228.642851 
L 150.918323 233.167965 
L 151.264806 250.020121 
L 151.438047 234.523304 
L 151.78453 239.044729 
L 151.957772 243.544455 
L 152.131013 226.08413 
L 152.477496 245.50944 
L 152.650737 225.706198 
L 152.823979 246.780656 
L 152.99722 226.782299 
L 153.170462 236.095531 
L 153.343703 238.193554 
L 153.516945 227.569778 
L 153.690186 230.641788 
L 153.863428 236.375202 
L 154.036669 230.203689 
L 154.383152 245.818136 
L 154.556394 234.421808 
L 154.729635 232.457214 
L 154.902877 233.524077 
L 155.076118 240.442336 
L 155.24936 224.737044 
L 155.422601 244.438305 
L 155.595843 217.020449 
L 155.769084 221.570801 
L 156.115567 237.862797 
L 156.46205 226.619531 
L 156.635292 233.016074 
L 156.808533 223.189285 
L 156.981775 244.746843 
L 157.155016 219.796342 
L 157.328258 235.09231 
L 157.501499 235.755235 
L 157.674741 237.165922 
L 157.847982 239.902091 
L 158.021224 244.545984 
L 158.367707 232.70137 
L 158.540948 238.906509 
L 158.71419 197.727108 
L 158.887431 204.399169 
L 159.060672 241.537874 
L 159.233914 213.683519 
L 159.407155 234.687823 
L 159.580397 226.996758 
L 159.753638 237.337233 
L 159.92688 232.38764 
L 160.100121 247.242673 
L 160.273363 229.518084 
L 160.446604 241.038672 
L 160.619846 228.951964 
L 160.793087 240.432841 
L 160.966329 236.566726 
L 161.13957 226.327647 
L 161.312812 243.514582 
L 161.486053 248.986658 
L 161.659295 220.601226 
L 161.832536 220.845853 
L 162.005778 242.924519 
L 162.179019 238.692067 
L 162.352261 217.908351 
L 162.525502 225.667868 
L 162.698744 242.541993 
L 162.871985 212.097685 
L 163.218468 240.848101 
L 163.39171 223.799623 
L 163.564951 224.750671 
L 163.738193 240.602382 
L 163.911434 245.464264 
L 164.084676 244.16792 
L 164.257917 245.835179 
L 164.431159 200.15054 
L 164.6044 229.992209 
L 164.777642 232.610586 
L 164.950883 220.101544 
L 165.124125 243.870518 
L 165.297366 242.110675 
L 165.470607 232.330928 
L 165.81709 245.197089 
L 165.990332 222.952667 
L 166.163573 218.254065 
L 166.510056 240.036384 
L 166.683298 238.763621 
L 166.856539 236.367202 
L 167.203022 247.246838 
L 167.376264 238.239068 
L 167.549505 222.107732 
L 167.722747 240.952009 
L 167.895988 231.331101 
L 168.06923 244.672396 
L 168.242471 233.207087 
L 168.588954 244.177844 
L 168.762196 233.386016 
L 168.935437 237.901244 
L 169.108679 239.235982 
L 169.455162 207.425693 
L 169.801645 232.549317 
L 170.148128 239.708522 
L 170.321369 234.367117 
L 170.494611 245.119134 
L 170.841094 225.917503 
L 171.014335 225.294287 
L 171.187577 227.232996 
L 171.360818 235.833888 
L 171.534059 232.036232 
L 171.707301 240.41155 
L 171.880542 237.30062 
L 172.053784 237.432416 
L 172.227025 238.351629 
L 172.400267 242.21485 
L 172.573508 221.416726 
L 172.74675 245.2291 
L 172.919991 246.245704 
L 173.093233 240.147772 
L 173.266474 226.536202 
L 173.439716 252.118731 
L 173.612957 247.096897 
L 173.95944 215.524699 
L 174.132682 224.582249 
L 174.305923 222.292429 
L 174.479165 244.265021 
L 174.652406 242.477467 
L 174.825648 234.94652 
L 174.998889 244.21419 
L 175.172131 243.702236 
L 175.345372 255.624411 
L 175.518614 241.656164 
L 175.691855 239.046014 
L 175.865097 238.976547 
L 176.038338 240.855998 
L 176.384821 221.647207 
L 176.731304 245.446892 
L 176.904546 231.762525 
L 177.077787 255.023575 
L 177.251029 235.363682 
L 177.597512 240.604614 
L 177.770753 240.058897 
L 178.117236 225.838839 
L 178.290477 223.586364 
L 178.463719 246.466825 
L 178.810202 226.325277 
L 178.983443 241.568894 
L 179.156685 224.120009 
L 179.329926 230.537036 
L 179.503168 224.095399 
L 179.676409 239.4403 
L 179.849651 242.412488 
L 180.022892 249.100632 
L 180.196134 234.946387 
L 180.369375 235.388105 
L 180.542617 236.528675 
L 180.715858 203.803658 
L 180.8891 236.21798 
L 181.062341 242.759575 
L 181.235583 242.004338 
L 181.408824 246.09151 
L 181.582066 235.015251 
L 181.755307 236.593767 
L 181.928549 233.75377 
L 182.10179 249.471967 
L 182.275032 233.409964 
L 182.448273 249.749437 
L 182.794756 233.812108 
L 182.967998 241.682987 
L 183.141239 233.720822 
L 183.314481 243.228063 
L 183.487722 236.309539 
L 183.660964 236.123586 
L 183.834205 223.894182 
L 184.007447 237.482029 
L 184.180688 227.312329 
L 184.527171 255.565222 
L 184.873654 226.728585 
L 185.046895 228.245829 
L 185.220137 241.316053 
L 185.56662 236.643053 
L 185.739861 215.814874 
L 186.086344 243.401324 
L 186.259586 235.051737 
L 186.432827 237.101089 
L 186.606069 240.483801 
L 186.77931 226.322331 
L 186.952552 247.98871 
L 187.125793 234.019684 
L 187.299035 235.886185 
L 187.472276 214.524167 
L 187.645518 244.411824 
L 187.818759 240.472878 
L 187.992001 231.765439 
L 188.165242 233.678366 
L 188.338484 237.339002 
L 188.511725 243.358728 
L 188.684967 242.344613 
L 188.858208 228.024106 
L 189.03145 226.155674 
L 189.204691 253.684359 
L 189.377933 251.505424 
L 189.551174 226.451204 
L 189.724416 230.226653 
L 190.070899 245.403861 
L 190.24414 240.559642 
L 190.417382 241.000491 
L 190.590623 235.974301 
L 190.763864 239.533815 
L 191.110347 228.044415 
L 191.283589 230.74298 
L 191.45683 244.654087 
L 191.630072 223.285249 
L 191.803313 246.03911 
L 191.976555 236.710316 
L 192.149796 243.367787 
L 192.323038 241.218421 
L 192.496279 250.578333 
L 193.016004 238.131788 
L 193.189245 227.121275 
L 193.362487 246.911495 
L 193.70897 234.091699 
L 193.882211 248.944806 
L 194.055453 244.339111 
L 194.228694 227.955818 
L 194.401936 232.932827 
L 194.575177 221.502453 
L 194.748419 238.395696 
L 194.92166 243.332483 
L 195.094902 238.368899 
L 195.268143 246.975279 
L 195.441385 246.55515 
L 195.614626 217.388079 
L 195.787868 244.067995 
L 196.134351 225.172103 
L 196.307592 247.23968 
L 196.480834 239.229853 
L 196.654075 245.007426 
L 196.827317 254.670624 
L 197.000558 230.724011 
L 197.347041 243.834703 
L 197.693524 252.53935 
L 197.866765 230.140434 
L 198.213248 237.054694 
L 198.38649 227.72221 
L 198.559731 243.96139 
L 198.732973 233.952305 
L 198.906214 244.450424 
L 199.252697 227.5868 
L 199.425939 241.829371 
L 199.59918 234.978569 
L 199.772422 239.540683 
L 199.945663 229.336633 
L 200.118905 237.59039 
L 200.292146 224.20803 
L 200.465388 241.385368 
L 200.638629 244.88885 
L 200.811871 225.444533 
L 200.985112 236.565391 
L 201.158354 223.719783 
L 201.331595 235.055447 
L 201.504837 253.826489 
L 201.678078 234.497144 
L 201.85132 235.919046 
L 202.024561 246.492291 
L 202.197803 240.654304 
L 202.544286 219.614987 
L 202.717527 248.168987 
L 202.890769 235.906459 
L 203.06401 245.859635 
L 203.237252 236.027897 
L 203.410493 242.25151 
L 203.756976 236.109106 
L 203.930217 232.038815 
L 204.103459 234.651384 
L 204.2767 221.798557 
L 204.449942 239.706465 
L 204.623183 244.705678 
L 204.796425 232.405208 
L 204.969666 228.370039 
L 205.142908 228.174391 
L 205.316149 237.487552 
L 205.489391 233.952 
L 205.662632 235.948493 
L 206.009115 226.394543 
L 206.182357 238.909828 
L 206.52884 246.043777 
L 206.875323 226.652959 
L 207.048564 226.995245 
L 207.395047 252.684855 
L 207.74153 211.610383 
L 207.914772 240.881324 
L 208.261255 223.40334 
L 208.434496 240.31968 
L 208.607738 223.94192 
L 208.780979 237.128317 
L 208.954221 227.10057 
L 209.127462 223.963545 
L 209.300704 243.67583 
L 209.647186 233.341514 
L 209.993669 255.154036 
L 210.166911 224.722544 
L 210.340152 240.366996 
L 210.513394 245.155406 
L 210.686635 234.267674 
L 210.859877 240.696946 
L 211.033118 229.112016 
L 211.20636 238.368951 
L 211.379601 236.607285 
L 211.552843 245.286057 
L 211.899326 225.610508 
L 212.245809 244.5853 
L 212.41905 233.051852 
L 212.592292 235.0437 
L 212.765533 208.83935 
L 213.112016 236.418599 
L 213.285258 214.555501 
L 213.458499 236.429911 
L 213.631741 227.581351 
L 213.804982 248.705276 
L 213.978224 232.189333 
L 214.151465 250.117347 
L 214.324707 238.069674 
L 214.67119 233.863287 
L 214.844431 243.702007 
L 215.017673 236.186918 
L 215.190914 234.893095 
L 215.364156 235.625295 
L 215.710639 248.314265 
L 215.88388 222.333914 
L 216.057121 233.451678 
L 216.230363 228.945136 
L 216.403604 217.361217 
L 216.750087 244.21382 
L 217.09657 236.05371 
L 217.269812 245.897996 
L 217.443053 232.474099 
L 217.616295 235.769448 
L 217.789536 225.738552 
L 218.136019 242.727678 
L 218.309261 228.665209 
L 218.482502 230.68854 
L 218.655744 252.504788 
L 218.828985 244.855531 
L 219.002227 245.68952 
L 219.175468 245.056544 
L 219.34871 239.159706 
L 219.521951 201.851369 
L 219.695193 243.842095 
L 219.868434 240.616077 
L 220.041676 231.282352 
L 220.214917 249.646163 
L 220.5614 242.019438 
L 220.734642 240.502066 
L 220.907883 244.325138 
L 221.081125 221.502139 
L 221.254366 237.492529 
L 221.427608 233.053878 
L 221.600849 222.637848 
L 221.947332 243.854917 
L 222.120574 228.376724 
L 222.467056 250.409034 
L 222.813539 223.739479 
L 222.986781 246.684546 
L 223.160022 217.257596 
L 223.333264 252.28563 
L 223.506505 241.091609 
L 223.679747 242.386312 
L 223.852988 224.506208 
L 224.02623 244.14475 
L 224.199471 227.745594 
L 224.545954 243.822093 
L 224.719196 247.705274 
L 224.892437 244.081728 
L 225.065679 243.153784 
L 225.23892 250.177566 
L 225.585403 242.842074 
L 225.758645 243.752202 
L 225.931886 251.036085 
L 226.105128 234.83525 
L 226.278369 236.860339 
L 226.451611 228.983717 
L 226.624852 237.185455 
L 226.798094 238.472816 
L 226.971335 237.28449 
L 227.144577 234.908717 
L 227.317818 237.690417 
L 227.49106 232.53613 
L 227.664301 253.097204 
L 227.837543 251.359112 
L 228.010784 243.811244 
L 228.184026 230.227268 
L 228.357267 234.228716 
L 228.530509 233.249811 
L 228.876991 245.624297 
L 229.050233 227.495426 
L 229.223474 239.904423 
L 229.396716 210.575309 
L 229.569957 257.857839 
L 229.743199 236.240769 
L 229.91644 231.849172 
L 230.089682 250.105132 
L 230.262923 233.242391 
L 230.436165 233.735611 
L 230.609406 229.930823 
L 230.782648 230.709511 
L 230.955889 244.207329 
L 231.129131 247.44923 
L 231.302372 233.519795 
L 231.475614 240.275548 
L 231.648855 227.794159 
L 231.822097 242.514324 
L 231.995338 244.624247 
L 232.16858 251.29501 
L 232.341821 238.906891 
L 232.515063 238.997754 
L 232.861546 226.635284 
L 233.208029 231.788881 
L 233.38127 246.480026 
L 233.554512 243.118253 
L 233.727753 243.348759 
L 233.900995 238.64201 
L 234.074236 253.454516 
L 234.247478 231.532474 
L 234.420719 252.863201 
L 234.593961 230.357291 
L 234.767202 227.776647 
L 234.940444 228.709865 
L 235.113685 224.446103 
L 235.286926 234.362962 
L 235.460168 236.482656 
L 235.633409 244.843545 
L 235.806651 243.676938 
L 235.979892 239.431103 
L 236.153134 215.533548 
L 236.326375 255.312953 
L 236.672858 230.992881 
L 236.8461 235.488977 
L 237.019341 231.433201 
L 237.192583 244.318961 
L 237.365824 231.821285 
L 237.539066 231.131952 
L 238.05879 227.444328 
L 238.232032 244.176703 
L 238.405273 219.632998 
L 238.578515 242.502151 
L 238.751756 222.632147 
L 238.924998 226.333167 
L 239.098239 245.651131 
L 239.271481 244.290703 
L 239.444722 224.494884 
L 239.964447 233.264129 
L 240.137688 223.596999 
L 240.31093 240.080901 
L 240.484171 237.816116 
L 240.657413 244.365422 
L 240.830654 243.098704 
L 241.003896 249.690486 
L 241.177137 226.520801 
L 241.52362 239.004147 
L 241.870103 245.804714 
L 242.043344 252.116449 
L 242.216586 237.457234 
L 242.389827 239.212627 
L 242.563069 242.963788 
L 242.73631 233.500229 
L 242.909552 238.176066 
L 243.256035 215.825005 
L 243.429276 221.934667 
L 243.602518 235.626792 
L 243.775759 223.74461 
L 243.949001 228.163327 
L 244.122242 239.376531 
L 244.295484 241.008016 
L 244.468725 226.908286 
L 244.815208 249.229845 
L 245.161691 226.692519 
L 245.334933 252.427349 
L 245.508174 246.297949 
L 245.681416 230.019531 
L 245.854657 225.792482 
L 246.20114 247.710019 
L 246.374382 229.513596 
L 246.547623 226.616393 
L 246.894106 242.31662 
L 247.067348 236.454128 
L 247.240589 235.113691 
L 247.413831 222.916806 
L 247.587072 244.477592 
L 247.760314 241.355901 
L 247.933555 224.64354 
L 248.106796 251.827952 
L 248.280038 235.259947 
L 248.453279 230.619999 
L 248.626521 247.433525 
L 248.799762 243.923234 
L 249.146245 224.627866 
L 249.319487 244.070921 
L 249.492728 234.992279 
L 249.66597 236.793709 
L 249.839211 250.424716 
L 250.012453 250.911345 
L 250.185694 240.621409 
L 250.358936 219.322377 
L 250.532177 239.332786 
L 250.705419 238.953882 
L 250.87866 237.478294 
L 251.051902 242.754102 
L 251.225143 241.944192 
L 251.398385 233.368392 
L 251.571626 246.324518 
L 251.744868 235.436162 
L 252.091351 248.572615 
L 252.264592 230.301495 
L 252.437834 226.813341 
L 252.611075 237.885198 
L 252.784317 226.732465 
L 252.957558 222.883659 
L 253.1308 242.738783 
L 253.304041 217.401459 
L 253.477283 245.32208 
L 253.650524 234.036516 
L 253.823766 235.335271 
L 253.997007 245.740916 
L 254.170248 246.354161 
L 254.516731 236.212148 
L 254.689973 234.460363 
L 255.036456 240.028594 
L 255.209697 246.605099 
L 255.382939 241.514668 
L 255.55618 225.664144 
L 255.729422 241.022157 
L 255.902663 240.776164 
L 256.075905 233.730855 
L 256.249146 251.604277 
L 256.422388 226.303377 
L 256.595629 250.995983 
L 256.768871 230.916186 
L 256.942112 232.647024 
L 257.115354 238.121936 
L 257.288595 249.623154 
L 257.461837 237.495386 
L 257.635078 234.879326 
L 257.80832 242.011006 
L 257.981561 226.028676 
L 258.154803 237.139516 
L 258.328044 232.507548 
L 258.501286 239.110293 
L 258.847769 228.022703 
L 259.02101 244.627637 
L 259.367493 228.55363 
L 259.540735 242.668078 
L 259.713976 247.264154 
L 259.887218 256.513822 
L 260.233701 236.197245 
L 260.406942 239.95328 
L 260.580183 252.117963 
L 260.753425 226.611504 
L 260.926666 251.023041 
L 261.099908 233.784913 
L 261.273149 241.411677 
L 261.446391 241.628999 
L 261.619632 227.651243 
L 261.792874 228.653831 
L 261.966115 249.736614 
L 262.139357 243.666719 
L 262.312598 249.170187 
L 262.48584 246.959301 
L 262.832323 236.148283 
L 263.005564 234.405594 
L 263.178806 242.169547 
L 263.352047 239.460112 
L 263.525289 244.070643 
L 263.69853 221.7874 
L 263.871772 251.622908 
L 264.045013 232.640913 
L 264.218255 249.112189 
L 264.391496 237.165168 
L 264.564738 237.502037 
L 264.911221 246.397834 
L 265.084462 235.707134 
L 265.257704 238.605751 
L 265.430945 236.27366 
L 265.604187 237.248756 
L 265.777428 236.728973 
L 265.95067 244.288187 
L 266.123911 230.973225 
L 266.297153 226.818721 
L 266.470394 243.092338 
L 266.643636 214.654839 
L 266.816877 237.785233 
L 266.990118 216.413516 
L 267.16336 247.446612 
L 267.336601 235.871518 
L 267.509843 241.572919 
L 267.683084 236.530021 
L 267.856326 240.526126 
L 268.029567 233.163468 
L 268.202809 233.526032 
L 268.37605 234.906832 
L 268.549292 247.885416 
L 268.895775 237.885499 
L 269.069016 253.63375 
L 269.242258 229.460279 
L 269.415499 235.093279 
L 269.588741 246.108092 
L 269.761982 223.992286 
L 269.935224 245.269438 
L 270.281707 233.723148 
L 270.454948 247.811722 
L 270.62819 244.931669 
L 270.801431 245.718779 
L 270.974673 244.812688 
L 271.147914 231.906554 
L 271.321156 239.560395 
L 271.494397 237.889263 
L 271.667639 226.01522 
L 271.84088 254.683078 
L 272.014122 237.268515 
L 272.187363 232.114655 
L 272.360605 212.197467 
L 272.533846 244.451785 
L 272.707088 227.212008 
L 272.880329 242.793569 
L 273.053571 237.570005 
L 273.226812 236.712886 
L 273.400053 215.229655 
L 273.573295 246.788186 
L 273.746536 248.675047 
L 273.919778 238.653951 
L 274.093019 240.427968 
L 274.439502 226.366667 
L 274.612744 244.175694 
L 274.785985 230.27123 
L 274.959227 227.136629 
L 275.30571 234.359772 
L 275.478951 248.979117 
L 275.652193 244.661698 
L 275.825434 218.1476 
L 276.171917 238.715404 
L 276.345159 237.038827 
L 276.5184 244.527345 
L 276.691642 260.430634 
L 276.864883 236.984196 
L 277.038125 244.192687 
L 277.384608 227.985183 
L 277.557849 242.661227 
L 277.731091 233.630156 
L 278.077574 242.905987 
L 278.424057 233.282537 
L 278.597298 247.920072 
L 278.77054 235.959444 
L 278.943781 246.971282 
L 279.117023 239.606252 
L 279.290264 238.789184 
L 279.463506 237.428926 
L 279.636747 252.159771 
L 279.809988 230.293874 
L 279.98323 230.090328 
L 280.156471 252.498698 
L 280.329713 236.454782 
L 280.502954 234.859183 
L 280.676196 245.624186 
L 281.19592 233.252491 
L 281.369162 242.226494 
L 281.542403 228.250988 
L 281.715645 238.061051 
L 281.888886 238.013843 
L 282.062128 222.93169 
L 282.235369 247.181747 
L 282.408611 243.606982 
L 282.581852 231.954136 
L 282.755094 247.543063 
L 282.928335 251.521964 
L 283.101577 228.081304 
L 283.274818 229.494273 
L 283.44806 239.278908 
L 283.621301 236.181628 
L 283.794543 244.175936 
L 283.967784 236.794994 
L 284.141026 241.880735 
L 284.314267 237.403759 
L 284.487509 244.892612 
L 284.66075 240.483043 
L 284.833992 240.061439 
L 285.007233 240.93359 
L 285.180475 243.218598 
L 285.353716 239.069484 
L 285.526958 247.582361 
L 285.700199 241.992712 
L 286.046682 256.345785 
L 286.219923 238.042079 
L 286.393165 248.327251 
L 286.566406 250.152353 
L 286.739648 234.58454 
L 286.912889 237.115932 
L 287.086131 242.036079 
L 287.259372 215.22276 
L 287.432614 238.047643 
L 287.605855 235.803181 
L 287.779097 231.024946 
L 287.952338 241.121416 
L 288.12558 233.643656 
L 288.298821 241.350841 
L 288.472063 232.980749 
L 288.645304 234.172223 
L 288.991787 248.988068 
L 289.165029 228.403678 
L 289.33827 234.597348 
L 289.511512 228.827652 
L 289.684753 246.777138 
L 289.857995 231.347426 
L 290.031236 227.036303 
L 290.204478 252.350387 
L 290.377719 233.455508 
L 290.550961 239.164767 
L 290.724202 257.748319 
L 290.897444 248.647698 
L 291.070685 221.934206 
L 291.243927 252.652388 
L 291.417168 239.455421 
L 291.59041 244.297347 
L 291.763651 238.023926 
L 291.936893 246.699118 
L 292.110134 245.654904 
L 292.283375 239.15951 
L 292.456617 237.385813 
L 292.629858 230.915468 
L 292.8031 242.589182 
L 292.976341 245.449591 
L 293.149583 244.500597 
L 293.322824 240.054358 
L 293.669307 227.858762 
L 293.842549 256.461961 
L 294.01579 230.442515 
L 294.189032 248.797046 
L 294.362273 242.792872 
L 294.535515 230.502271 
L 294.881998 250.813899 
L 295.055239 243.249655 
L 295.228481 229.309735 
L 295.401722 250.179632 
L 295.574964 249.731011 
L 295.748205 230.318069 
L 295.921447 240.304192 
L 296.094688 218.63039 
L 296.441171 232.350949 
L 296.614413 246.898529 
L 296.787654 244.697569 
L 296.960896 237.257621 
L 297.134137 236.020858 
L 297.307379 219.118422 
L 297.48062 226.868657 
L 297.653862 239.758151 
L 297.827103 226.763349 
L 298.000345 244.861545 
L 298.173586 244.838572 
L 298.346828 244.018303 
L 298.520069 250.542079 
L 298.69331 246.888575 
L 298.866552 236.076414 
L 299.386276 247.606147 
L 299.906001 233.097349 
L 300.079242 249.807904 
L 300.252484 235.195747 
L 300.598967 250.811349 
L 300.772208 234.337094 
L 300.94545 233.803143 
L 301.291933 219.901901 
L 301.465174 248.97422 
L 301.638416 227.432382 
L 301.811657 232.152275 
L 302.15814 234.099348 
L 302.331382 238.701998 
L 302.504623 237.843689 
L 302.677865 240.243754 
L 303.197589 219.702102 
L 303.544072 234.60066 
L 304.063797 251.337271 
L 304.237038 228.251718 
L 304.41028 229.317294 
L 304.583521 249.823068 
L 304.756763 249.198611 
L 304.930004 229.391005 
L 305.103245 244.806146 
L 305.276487 240.644504 
L 305.449728 229.758271 
L 305.62297 230.84639 
L 305.796211 241.084938 
L 305.969453 218.364169 
L 306.142694 236.814463 
L 306.315936 203.367832 
L 306.662419 247.229521 
L 306.83566 238.650001 
L 307.008902 257.348767 
L 307.182143 253.519439 
L 307.355385 238.260107 
L 307.528626 243.894152 
L 307.701868 238.788012 
L 307.875109 221.51946 
L 308.048351 240.29088 
L 308.221592 232.482263 
L 308.394834 245.242605 
L 308.568075 234.713009 
L 308.741317 248.187006 
L 309.0878 228.755411 
L 309.261041 235.248201 
L 309.434283 208.610101 
L 309.607524 233.23793 
L 309.954007 243.142532 
L 310.127249 223.118308 
L 310.473732 242.276849 
L 310.646973 200.504614 
L 310.820215 239.291694 
L 311.339939 241.359602 
L 311.51318 232.885421 
L 311.686422 247.706971 
L 311.859663 238.478557 
L 312.032905 238.008095 
L 312.206146 229.14893 
L 312.379388 237.231649 
L 312.552629 230.665047 
L 312.725871 235.829302 
L 312.899112 230.311287 
L 313.245595 241.307097 
L 313.418837 239.383897 
L 313.592078 235.052318 
L 313.938561 240.422232 
L 314.111803 236.004444 
L 314.285044 247.878348 
L 314.458286 230.72416 
L 314.631527 240.619459 
L 314.804769 241.208167 
L 314.97801 245.644339 
L 315.324493 223.421706 
L 315.497735 251.068565 
L 315.670976 231.762622 
L 315.844218 233.771502 
L 316.017459 237.254567 
L 316.190701 238.368357 
L 316.537184 249.423307 
L 316.710425 239.769968 
L 316.883667 240.11341 
L 317.056908 245.971175 
L 317.23015 233.878539 
L 317.403391 239.719825 
L 317.576633 221.928103 
L 317.923115 237.743422 
L 318.096357 231.809377 
L 318.616081 243.102998 
L 318.789323 238.731512 
L 318.962564 226.844437 
L 319.135806 242.312002 
L 319.309047 245.18966 
L 319.482289 218.60059 
L 319.65553 232.324822 
L 319.828772 233.089846 
L 320.002013 223.838869 
L 320.348496 239.468177 
L 320.521738 231.878548 
L 320.694979 233.745861 
L 320.868221 218.571186 
L 321.041462 244.214385 
L 321.214704 235.671586 
L 321.387945 250.528095 
L 321.734428 232.016366 
L 321.90767 236.572937 
L 322.080911 252.234313 
L 322.254153 241.326193 
L 322.427394 243.418855 
L 322.600636 235.608047 
L 322.773877 234.271933 
L 322.947119 241.437764 
L 323.12036 215.66955 
L 323.293602 247.423021 
L 323.466843 249.537093 
L 323.640085 238.338063 
L 323.813326 234.680463 
L 323.986568 250.113605 
L 324.506292 223.949077 
L 324.852775 235.32485 
L 325.199258 244.13656 
L 325.372499 241.723993 
L 325.545741 243.949434 
L 325.718982 221.840318 
L 325.892224 235.771202 
L 326.065465 225.974654 
L 326.238707 249.31313 
L 326.411948 245.818697 
L 326.58519 253.379673 
L 326.931673 244.122314 
L 327.104914 230.647307 
L 327.278156 245.73413 
L 327.451397 223.018409 
L 327.624639 240.631728 
L 327.971122 250.81193 
L 328.144363 240.322295 
L 328.317605 217.226379 
L 328.490846 218.229081 
L 328.664088 245.864283 
L 328.837329 238.894554 
L 329.010571 242.577703 
L 329.183812 232.972544 
L 329.357054 240.679742 
L 329.530295 220.80834 
L 329.703537 225.047279 
L 329.876778 216.696782 
L 330.05002 224.22648 
L 330.223261 250.813135 
L 330.396502 237.081757 
L 330.569744 235.502098 
L 330.742985 253.362858 
L 330.916227 245.357458 
L 331.089468 231.11273 
L 331.26271 244.17259 
L 331.435951 247.807721 
L 331.609193 233.27229 
L 331.955676 246.804939 
L 332.128917 250.982993 
L 332.4754 226.78962 
L 332.648642 251.297554 
L 332.821883 232.233184 
L 332.995125 226.600452 
L 333.168366 225.148435 
L 333.341608 242.899751 
L 333.514849 238.215981 
L 333.688091 246.570984 
L 333.861332 229.597707 
L 334.207815 246.566938 
L 334.381057 245.870351 
L 334.554298 261.216 
L 334.72754 246.01929 
L 334.900781 248.102997 
L 335.074023 233.89659 
L 335.420506 246.379592 
L 335.593747 249.128057 
L 335.94023 230.235199 
L 336.286713 232.431514 
L 336.459955 227.005575 
L 336.806437 248.929626 
L 336.979679 245.219689 
L 337.15292 227.127896 
L 337.326162 222.64513 
L 337.845886 243.684622 
L 338.019128 244.995628 
L 338.538852 228.769597 
L 338.885335 248.452453 
L 339.058577 230.639751 
L 339.40506 250.877631 
L 339.578301 234.392011 
L 339.751543 246.666188 
L 339.924784 245.316927 
L 340.098026 258.562617 
L 340.271267 244.326438 
L 340.444509 213.012758 
L 340.61775 256.477918 
L 341.137475 229.727534 
L 341.310716 247.199166 
L 341.483958 247.032504 
L 341.657199 242.627441 
L 341.830441 241.530415 
L 342.003682 221.635632 
L 342.176924 232.84793 
L 342.350165 235.265326 
L 342.523407 249.687654 
L 342.696648 250.309224 
L 342.86989 238.240911 
L 343.043131 238.306392 
L 343.216372 239.919803 
L 343.389614 232.593652 
L 343.562855 234.259108 
L 343.736097 232.524029 
L 343.909338 219.300274 
L 344.08258 244.942515 
L 344.255821 232.031162 
L 344.602304 243.811852 
L 344.775546 248.545932 
L 344.948787 246.033009 
L 345.122029 248.517594 
L 345.29527 246.770008 
L 345.468512 236.719771 
L 345.641753 236.194837 
L 345.814995 222.697763 
L 345.988236 245.091013 
L 346.161478 233.973483 
L 346.334719 238.905689 
L 346.507961 249.294643 
L 346.681202 225.92727 
L 346.854444 235.687261 
L 347.027685 237.890047 
L 347.200927 237.504379 
L 347.374168 252.937224 
L 347.54741 249.131083 
L 347.720651 211.793816 
L 347.893893 248.611908 
L 348.067134 247.074882 
L 348.240376 246.866402 
L 348.413617 252.594183 
L 348.586859 239.982381 
L 348.7601 238.304496 
L 348.933342 240.704891 
L 349.106583 236.439377 
L 349.279825 222.303996 
L 349.453066 236.800809 
L 349.626307 218.962277 
L 349.799549 221.187014 
L 349.97279 253.595474 
L 350.146032 246.270147 
L 350.319273 253.318665 
L 350.492515 228.377866 
L 350.665756 230.608633 
L 350.838998 218.246694 
L 351.012239 216.801363 
L 351.185481 242.752755 
L 351.358722 233.428495 
L 351.531964 231.05823 
L 351.705205 241.609151 
L 351.878447 239.812843 
L 352.051688 251.36866 
L 352.22493 233.340681 
L 352.398171 246.827782 
L 352.571413 234.961454 
L 352.744654 245.829145 
L 353.091137 224.210648 
L 353.264379 229.614271 
L 353.610862 249.194248 
L 353.784103 238.235231 
L 353.957345 248.749667 
L 354.130586 226.84665 
L 354.303828 240.804924 
L 354.477069 232.367933 
L 354.650311 232.101258 
L 354.823552 236.05484 
L 355.170035 223.163584 
L 355.343277 235.986971 
L 355.516518 240.041865 
L 355.68976 247.218265 
L 356.036242 231.835362 
L 356.209484 227.673219 
L 356.555967 242.398834 
L 356.729208 223.065687 
L 356.90245 241.431434 
L 357.422174 249.785558 
L 357.768657 230.083802 
L 357.941899 241.776103 
L 358.288382 211.926572 
L 358.634865 249.351767 
L 358.981348 234.184677 
L 359.154589 253.838568 
L 359.327831 237.949525 
L 359.501072 241.767472 
L 359.847555 231.876777 
L 360.020797 247.026248 
L 360.194038 244.691977 
L 360.36728 236.252091 
L 360.540521 247.542657 
L 360.713763 239.046795 
L 360.887004 247.050003 
L 361.060246 238.14056 
L 361.233487 210.008816 
L 361.406729 235.298939 
L 361.57997 225.698996 
L 361.753212 242.648473 
L 361.926453 244.425949 
L 362.099695 210.837594 
L 362.272936 244.699773 
L 362.619419 241.606031 
L 362.79266 247.173021 
L 362.965902 244.590521 
L 363.139143 229.505858 
L 363.312385 249.963168 
L 363.485626 252.309776 
L 363.658868 251.07825 
L 363.832109 232.187561 
L 364.005351 242.468565 
L 364.178592 231.611811 
L 364.351834 246.455051 
L 364.525075 249.428217 
L 364.871558 226.955003 
L 365.0448 244.014611 
L 365.218041 236.95827 
L 365.391283 236.417448 
L 365.564524 247.257977 
L 365.737766 246.58063 
L 365.911007 249.436823 
L 366.084249 254.160716 
L 366.25749 236.25019 
L 366.430732 244.624432 
L 366.603973 236.478081 
L 366.777215 250.564603 
L 366.950456 239.920566 
L 367.123698 220.753772 
L 367.296939 220.579497 
L 367.470181 242.044567 
L 367.643422 221.670955 
L 367.989905 251.848081 
L 368.163147 234.669537 
L 368.336388 240.817747 
L 368.509629 241.505764 
L 368.682871 249.848459 
L 368.856112 251.198687 
L 369.202595 232.388516 
L 369.375837 246.064006 
L 369.549078 216.116801 
L 369.72232 230.241993 
L 369.895561 231.714243 
L 370.068803 240.0915 
L 370.242044 240.087256 
L 370.415286 214.162511 
L 370.588527 246.092799 
L 370.761769 232.180771 
L 370.93501 243.89367 
L 371.108252 240.184521 
L 371.281493 244.445172 
L 371.454735 240.618446 
L 371.627976 253.422425 
L 371.801218 235.48028 
L 372.147701 248.636889 
L 372.320942 246.860224 
L 372.494184 232.29958 
L 372.667425 237.954229 
L 372.840667 232.330614 
L 373.013908 244.91332 
L 373.18715 244.825476 
L 373.360391 230.845744 
L 373.533633 252.0571 
L 373.706874 251.817927 
L 373.880116 226.311329 
L 374.226599 251.607425 
L 374.39984 233.413694 
L 374.573082 236.324147 
L 374.746323 225.833092 
L 374.919564 243.517549 
L 375.092806 241.830332 
L 375.266047 241.868022 
L 375.439289 248.030846 
L 375.61253 237.532583 
L 375.785772 249.80809 
L 376.132255 224.31028 
L 376.305496 246.391158 
L 376.478738 240.84298 
L 376.651979 252.665527 
L 376.998462 227.304873 
L 377.344945 251.654961 
L 377.518187 238.883759 
L 377.691428 249.677934 
L 377.86467 250.387047 
L 378.037911 241.783358 
L 378.211153 240.935673 
L 378.384394 247.212104 
L 378.557636 243.567541 
L 378.730877 225.033072 
L 378.904119 232.543551 
L 379.250602 228.284979 
L 379.423843 229.599215 
L 379.597085 252.013655 
L 379.943568 236.643641 
L 380.116809 239.531671 
L 380.290051 228.351922 
L 380.463292 236.263217 
L 380.636534 230.047769 
L 380.809775 249.449056 
L 380.983017 232.035719 
L 381.156258 249.179762 
L 381.502741 240.746945 
L 381.675982 244.043418 
L 382.195707 223.213127 
L 382.368948 243.771374 
L 382.54219 221.850472 
L 382.715431 243.783021 
L 382.888673 234.892262 
L 383.061914 247.506285 
L 383.235156 233.185082 
L 383.408397 231.241134 
L 383.581639 219.441138 
L 383.75488 247.544707 
L 383.928122 245.465819 
L 384.101363 241.324664 
L 384.274605 229.460436 
L 384.447846 236.665683 
L 384.621088 238.333784 
L 384.794329 234.275389 
L 384.967571 235.423207 
L 385.140812 217.964338 
L 385.314054 245.433848 
L 385.833778 230.226712 
L 386.180261 249.46673 
L 386.526744 234.922168 
L 386.699986 242.053617 
L 386.873227 229.699945 
L 387.046469 245.969823 
L 387.21971 241.329465 
L 387.392952 223.662932 
L 387.566193 243.653559 
L 387.739434 239.815938 
L 387.912676 245.246188 
L 388.085917 234.080094 
L 388.259159 237.541635 
L 388.4324 229.27846 
L 388.605642 258.397179 
L 388.778883 232.346064 
L 388.952125 239.74484 
L 389.125366 240.275878 
L 389.298608 222.380351 
L 389.471849 255.140752 
L 389.645091 220.092177 
L 389.818332 248.673591 
L 389.991574 241.602055 
L 390.338057 204.296494 
L 390.68454 245.290548 
L 390.857781 243.047912 
L 391.031023 231.863868 
L 391.031023 231.863868 
" clip-path="url(#p87681c4145)" style="fill: none; stroke: #1f77b4; stroke-width: 1.5; stroke-linecap: square"/>
   </g>
   <g id="patch_3">
    <path d="M 50.14375 273.312 
L 50.14375 7.2 
" style="fill: none; stroke: #000000; stroke-width: 0.8; stroke-linejoin: miter; stroke-linecap: square"/>
   </g>
   <g id="patch_4">
    <path d="M 407.26375 273.312 
L 407.26375 7.2 
" style="fill: none; stroke: #000000; stroke-width: 0.8; stroke-linejoin: miter; stroke-linecap: square"/>
   </g>
   <g id="patch_5">
    <path d="M 50.14375 273.312 
L 407.26375 273.312 
" style="fill: none; stroke: #000000; stroke-width: 0.8; stroke-linejoin: miter; stroke-linecap: square"/>
   </g>
   <g id="patch_6">
    <path d="M 50.14375 7.2 
L 407.26375 7.2 
" style="fill: none; stroke: #000000; stroke-width: 0.8; stroke-linejoin: miter; stroke-linecap: square"/>
   </g>
   <g id="legend_1">
    <g id="patch_7">
     <path d="M 344.98875 29.878125 
L 400.26375 29.878125 
Q 402.26375 29.878125 402.26375 27.878125 
L 402.26375 14.2 
Q 402.26375 12.2 400.26375 12.2 
L 344.98875 12.2 
Q 342.98875 12.2 342.98875 14.2 
L 342.98875 27.878125 
Q 342.98875 29.878125 344.98875 29.878125 
z
" style="fill: #ffffff; opacity: 0.8; stroke: #cccccc; stroke-linejoin: miter"/>
    </g>
    <g id="line2d_36">
     <path d="M 346.98875 20.298437 
L 356.98875 20.298437 
L 366.98875 20.298437 
" style="fill: none; stroke: #1f77b4; stroke-width: 1.5; stroke-linecap: square"/>
    </g>
    <g id="text_20">
     <!-- train -->
     <g transform="translate(374.98875 23.798437) scale(0.1 -0.1)">
      <defs>
       <path id="DejaVuSans-72" d="M 2631 2963 
Q 2534 3019 2420 3045 
Q 2306 3072 2169 3072 
Q 1681 3072 1420 2755 
Q 1159 2438 1159 1844 
L 1159 0 
L 581 0 
L 581 3500 
L 1159 3500 
L 1159 2956 
Q 1341 3275 1631 3429 
Q 1922 3584 2338 3584 
Q 2397 3584 2469 3576 
Q 2541 3569 2628 3553 
L 2631 2963 
z
" transform="scale(0.015625)"/>
       <path id="DejaVuSans-61" d="M 2194 1759 
Q 1497 1759 1228 1600 
Q 959 1441 959 1056 
Q 959 750 1161 570 
Q 1363 391 1709 391 
Q 2188 391 2477 730 
Q 2766 1069 2766 1631 
L 2766 1759 
L 2194 1759 
z
M 3341 1997 
L 3341 0 
L 2766 0 
L 2766 531 
Q 2569 213 2275 61 
Q 1981 -91 1556 -91 
Q 1019 -91 701 211 
Q 384 513 384 1019 
Q 384 1609 779 1909 
Q 1175 2209 1959 2209 
L 2766 2209 
L 2766 2266 
Q 2766 2663 2505 2880 
Q 2244 3097 1772 3097 
Q 1472 3097 1187 3025 
Q 903 2953 641 2809 
L 641 3341 
Q 956 3463 1253 3523 
Q 1550 3584 1831 3584 
Q 2591 3584 2966 3190 
Q 3341 2797 3341 1997 
z
" transform="scale(0.015625)"/>
       <path id="DejaVuSans-69" d="M 603 3500 
L 1178 3500 
L 1178 0 
L 603 0 
L 603 3500 
z
M 603 4863 
L 1178 4863 
L 1178 4134 
L 603 4134 
L 603 4863 
z
" transform="scale(0.015625)"/>
       <path id="DejaVuSans-6e" d="M 3513 2113 
L 3513 0 
L 2938 0 
L 2938 2094 
Q 2938 2591 2744 2837 
Q 2550 3084 2163 3084 
Q 1697 3084 1428 2787 
Q 1159 2491 1159 1978 
L 1159 0 
L 581 0 
L 581 3500 
L 1159 3500 
L 1159 2956 
Q 1366 3272 1645 3428 
Q 1925 3584 2291 3584 
Q 2894 3584 3203 3211 
Q 3513 2838 3513 2113 
z
" transform="scale(0.015625)"/>
      </defs>
      <use xlink:href="#DejaVuSans-74"/>
      <use xlink:href="#DejaVuSans-72" transform="translate(39.208984 0)"/>
      <use xlink:href="#DejaVuSans-61" transform="translate(80.322266 0)"/>
      <use xlink:href="#DejaVuSans-69" transform="translate(141.601562 0)"/>
      <use xlink:href="#DejaVuSans-6e" transform="translate(169.384766 0)"/>
     </g>
    </g>
   </g>
  </g>
 </g>
 <defs>
  <clipPath id="p87681c4145">
   <rect x="50.14375" y="7.2" width="357.12" height="266.112"/>
  </clipPath>
 </defs>
</svg>
