<?xml version="1.0" encoding="utf-8" standalone="no"?>
<!DOCTYPE svg PUBLIC "-//W3C//DTD SVG 1.1//EN"
  "http://www.w3.org/Graphics/SVG/1.1/DTD/svg11.dtd">
<svg xmlns:xlink="http://www.w3.org/1999/xlink" width="409.798125pt" height="310.86825pt" viewBox="0 0 409.798125 310.86825" xmlns="http://www.w3.org/2000/svg" version="1.1">
 <metadata>
  <rdf:RDF xmlns:dc="http://purl.org/dc/elements/1.1/" xmlns:cc="http://creativecommons.org/ns#" xmlns:rdf="http://www.w3.org/1999/02/22-rdf-syntax-ns#">
   <cc:Work>
    <dc:type rdf:resource="http://purl.org/dc/dcmitype/StillImage"/>
    <dc:date>2025-08-12T12:29:27.420275</dc:date>
    <dc:format>image/svg+xml</dc:format>
    <dc:creator>
     <cc:Agent>
      <dc:title>Matplotlib v3.10.3, https://matplotlib.org/</dc:title>
     </cc:Agent>
    </dc:creator>
   </cc:Work>
  </rdf:RDF>
 </metadata>
 <defs>
  <style type="text/css">*{stroke-linejoin: round; stroke-linecap: butt}</style>
 </defs>
 <g id="figure_1">
  <g id="patch_1">
   <path d="M 0 310.86825 
L 409.798125 310.86825 
L 409.798125 0 
L 0 0 
z
" style="fill: #ffffff"/>
  </g>
  <g id="axes_1">
   <g id="patch_2">
    <path d="M 45.478125 273.312 
L 402.598125 273.312 
L 402.598125 7.2 
L 45.478125 7.2 
z
" style="fill: #ffffff"/>
   </g>
   <g id="matplotlib.axis_1">
    <g id="xtick_1">
     <g id="line2d_1">
      <path d="M 61.710852 273.312 
L 61.710852 7.2 
" clip-path="url(#p1a58c3e669)" style="fill: none; stroke-dasharray: 0.8,1.32; stroke-dashoffset: 0; stroke: #b0b0b0; stroke-opacity: 0.6; stroke-width: 0.8"/>
     </g>
     <g id="line2d_2">
      <defs>
       <path id="mbc949a9ffe" d="M 0 0 
L 0 3.5 
" style="stroke: #000000; stroke-width: 0.8"/>
      </defs>
      <g>
       <use xlink:href="#mbc949a9ffe" x="61.710852" y="273.312" style="stroke: #000000; stroke-width: 0.8"/>
      </g>
     </g>
     <g id="text_1">
      <!-- 0 -->
      <g transform="translate(58.529602 287.910437) scale(0.1 -0.1)">
       <defs>
        <path id="DejaVuSans-30" d="M 2034 4250 
Q 1547 4250 1301 3770 
Q 1056 3291 1056 2328 
Q 1056 1369 1301 889 
Q 1547 409 2034 409 
Q 2525 409 2770 889 
Q 3016 1369 3016 2328 
Q 3016 3291 2770 3770 
Q 2525 4250 2034 4250 
z
M 2034 4750 
Q 2819 4750 3233 4129 
Q 3647 3509 3647 2328 
Q 3647 1150 3233 529 
Q 2819 -91 2034 -91 
Q 1250 -91 836 529 
Q 422 1150 422 2328 
Q 422 3509 836 4129 
Q 1250 4750 2034 4750 
z
" transform="scale(0.015625)"/>
       </defs>
       <use xlink:href="#DejaVuSans-30"/>
      </g>
     </g>
    </g>
    <g id="xtick_2">
     <g id="line2d_3">
      <path d="M 115.837986 273.312 
L 115.837986 7.2 
" clip-path="url(#p1a58c3e669)" style="fill: none; stroke-dasharray: 0.8,1.32; stroke-dashoffset: 0; stroke: #b0b0b0; stroke-opacity: 0.6; stroke-width: 0.8"/>
     </g>
     <g id="line2d_4">
      <g>
       <use xlink:href="#mbc949a9ffe" x="115.837986" y="273.312" style="stroke: #000000; stroke-width: 0.8"/>
      </g>
     </g>
     <g id="text_2">
      <!-- 500 -->
      <g transform="translate(106.294236 287.910437) scale(0.1 -0.1)">
       <defs>
        <path id="DejaVuSans-35" d="M 691 4666 
L 3169 4666 
L 3169 4134 
L 1269 4134 
L 1269 2991 
Q 1406 3038 1543 3061 
Q 1681 3084 1819 3084 
Q 2600 3084 3056 2656 
Q 3513 2228 3513 1497 
Q 3513 744 3044 326 
Q 2575 -91 1722 -91 
Q 1428 -91 1123 -41 
Q 819 9 494 109 
L 494 744 
Q 775 591 1075 516 
Q 1375 441 1709 441 
Q 2250 441 2565 725 
Q 2881 1009 2881 1497 
Q 2881 1984 2565 2268 
Q 2250 2553 1709 2553 
Q 1456 2553 1204 2497 
Q 953 2441 691 2322 
L 691 4666 
z
" transform="scale(0.015625)"/>
       </defs>
       <use xlink:href="#DejaVuSans-35"/>
       <use xlink:href="#DejaVuSans-30" transform="translate(63.623047 0)"/>
       <use xlink:href="#DejaVuSans-30" transform="translate(127.246094 0)"/>
      </g>
     </g>
    </g>
    <g id="xtick_3">
     <g id="line2d_5">
      <path d="M 169.965119 273.312 
L 169.965119 7.2 
" clip-path="url(#p1a58c3e669)" style="fill: none; stroke-dasharray: 0.8,1.32; stroke-dashoffset: 0; stroke: #b0b0b0; stroke-opacity: 0.6; stroke-width: 0.8"/>
     </g>
     <g id="line2d_6">
      <g>
       <use xlink:href="#mbc949a9ffe" x="169.965119" y="273.312" style="stroke: #000000; stroke-width: 0.8"/>
      </g>
     </g>
     <g id="text_3">
      <!-- 1000 -->
      <g transform="translate(157.240119 287.910437) scale(0.1 -0.1)">
       <defs>
        <path id="DejaVuSans-31" d="M 794 531 
L 1825 531 
L 1825 4091 
L 703 3866 
L 703 4441 
L 1819 4666 
L 2450 4666 
L 2450 531 
L 3481 531 
L 3481 0 
L 794 0 
L 794 531 
z
" transform="scale(0.015625)"/>
       </defs>
       <use xlink:href="#DejaVuSans-31"/>
       <use xlink:href="#DejaVuSans-30" transform="translate(63.623047 0)"/>
       <use xlink:href="#DejaVuSans-30" transform="translate(127.246094 0)"/>
       <use xlink:href="#DejaVuSans-30" transform="translate(190.869141 0)"/>
      </g>
     </g>
    </g>
    <g id="xtick_4">
     <g id="line2d_7">
      <path d="M 224.092252 273.312 
L 224.092252 7.2 
" clip-path="url(#p1a58c3e669)" style="fill: none; stroke-dasharray: 0.8,1.32; stroke-dashoffset: 0; stroke: #b0b0b0; stroke-opacity: 0.6; stroke-width: 0.8"/>
     </g>
     <g id="line2d_8">
      <g>
       <use xlink:href="#mbc949a9ffe" x="224.092252" y="273.312" style="stroke: #000000; stroke-width: 0.8"/>
      </g>
     </g>
     <g id="text_4">
      <!-- 1500 -->
      <g transform="translate(211.367252 287.910437) scale(0.1 -0.1)">
       <use xlink:href="#DejaVuSans-31"/>
       <use xlink:href="#DejaVuSans-35" transform="translate(63.623047 0)"/>
       <use xlink:href="#DejaVuSans-30" transform="translate(127.246094 0)"/>
       <use xlink:href="#DejaVuSans-30" transform="translate(190.869141 0)"/>
      </g>
     </g>
    </g>
    <g id="xtick_5">
     <g id="line2d_9">
      <path d="M 278.219385 273.312 
L 278.219385 7.2 
" clip-path="url(#p1a58c3e669)" style="fill: none; stroke-dasharray: 0.8,1.32; stroke-dashoffset: 0; stroke: #b0b0b0; stroke-opacity: 0.6; stroke-width: 0.8"/>
     </g>
     <g id="line2d_10">
      <g>
       <use xlink:href="#mbc949a9ffe" x="278.219385" y="273.312" style="stroke: #000000; stroke-width: 0.8"/>
      </g>
     </g>
     <g id="text_5">
      <!-- 2000 -->
      <g transform="translate(265.494385 287.910437) scale(0.1 -0.1)">
       <defs>
        <path id="DejaVuSans-32" d="M 1228 531 
L 3431 531 
L 3431 0 
L 469 0 
L 469 531 
Q 828 903 1448 1529 
Q 2069 2156 2228 2338 
Q 2531 2678 2651 2914 
Q 2772 3150 2772 3378 
Q 2772 3750 2511 3984 
Q 2250 4219 1831 4219 
Q 1534 4219 1204 4116 
Q 875 4013 500 3803 
L 500 4441 
Q 881 4594 1212 4672 
Q 1544 4750 1819 4750 
Q 2544 4750 2975 4387 
Q 3406 4025 3406 3419 
Q 3406 3131 3298 2873 
Q 3191 2616 2906 2266 
Q 2828 2175 2409 1742 
Q 1991 1309 1228 531 
z
" transform="scale(0.015625)"/>
       </defs>
       <use xlink:href="#DejaVuSans-32"/>
       <use xlink:href="#DejaVuSans-30" transform="translate(63.623047 0)"/>
       <use xlink:href="#DejaVuSans-30" transform="translate(127.246094 0)"/>
       <use xlink:href="#DejaVuSans-30" transform="translate(190.869141 0)"/>
      </g>
     </g>
    </g>
    <g id="xtick_6">
     <g id="line2d_11">
      <path d="M 332.346519 273.312 
L 332.346519 7.2 
" clip-path="url(#p1a58c3e669)" style="fill: none; stroke-dasharray: 0.8,1.32; stroke-dashoffset: 0; stroke: #b0b0b0; stroke-opacity: 0.6; stroke-width: 0.8"/>
     </g>
     <g id="line2d_12">
      <g>
       <use xlink:href="#mbc949a9ffe" x="332.346519" y="273.312" style="stroke: #000000; stroke-width: 0.8"/>
      </g>
     </g>
     <g id="text_6">
      <!-- 2500 -->
      <g transform="translate(319.621519 287.910437) scale(0.1 -0.1)">
       <use xlink:href="#DejaVuSans-32"/>
       <use xlink:href="#DejaVuSans-35" transform="translate(63.623047 0)"/>
       <use xlink:href="#DejaVuSans-30" transform="translate(127.246094 0)"/>
       <use xlink:href="#DejaVuSans-30" transform="translate(190.869141 0)"/>
      </g>
     </g>
    </g>
    <g id="xtick_7">
     <g id="line2d_13">
      <path d="M 386.473652 273.312 
L 386.473652 7.2 
" clip-path="url(#p1a58c3e669)" style="fill: none; stroke-dasharray: 0.8,1.32; stroke-dashoffset: 0; stroke: #b0b0b0; stroke-opacity: 0.6; stroke-width: 0.8"/>
     </g>
     <g id="line2d_14">
      <g>
       <use xlink:href="#mbc949a9ffe" x="386.473652" y="273.312" style="stroke: #000000; stroke-width: 0.8"/>
      </g>
     </g>
     <g id="text_7">
      <!-- 3000 -->
      <g transform="translate(373.748652 287.910437) scale(0.1 -0.1)">
       <defs>
        <path id="DejaVuSans-33" d="M 2597 2516 
Q 3050 2419 3304 2112 
Q 3559 1806 3559 1356 
Q 3559 666 3084 287 
Q 2609 -91 1734 -91 
Q 1441 -91 1130 -33 
Q 819 25 488 141 
L 488 750 
Q 750 597 1062 519 
Q 1375 441 1716 441 
Q 2309 441 2620 675 
Q 2931 909 2931 1356 
Q 2931 1769 2642 2001 
Q 2353 2234 1838 2234 
L 1294 2234 
L 1294 2753 
L 1863 2753 
Q 2328 2753 2575 2939 
Q 2822 3125 2822 3475 
Q 2822 3834 2567 4026 
Q 2313 4219 1838 4219 
Q 1578 4219 1281 4162 
Q 984 4106 628 3988 
L 628 4550 
Q 988 4650 1302 4700 
Q 1616 4750 1894 4750 
Q 2613 4750 3031 4423 
Q 3450 4097 3450 3541 
Q 3450 3153 3228 2886 
Q 3006 2619 2597 2516 
z
" transform="scale(0.015625)"/>
       </defs>
       <use xlink:href="#DejaVuSans-33"/>
       <use xlink:href="#DejaVuSans-30" transform="translate(63.623047 0)"/>
       <use xlink:href="#DejaVuSans-30" transform="translate(127.246094 0)"/>
       <use xlink:href="#DejaVuSans-30" transform="translate(190.869141 0)"/>
      </g>
     </g>
    </g>
    <g id="text_8">
     <!-- steps -->
     <g transform="translate(210.617813 301.588562) scale(0.1 -0.1)">
      <defs>
       <path id="DejaVuSans-73" d="M 2834 3397 
L 2834 2853 
Q 2591 2978 2328 3040 
Q 2066 3103 1784 3103 
Q 1356 3103 1142 2972 
Q 928 2841 928 2578 
Q 928 2378 1081 2264 
Q 1234 2150 1697 2047 
L 1894 2003 
Q 2506 1872 2764 1633 
Q 3022 1394 3022 966 
Q 3022 478 2636 193 
Q 2250 -91 1575 -91 
Q 1294 -91 989 -36 
Q 684 19 347 128 
L 347 722 
Q 666 556 975 473 
Q 1284 391 1588 391 
Q 1994 391 2212 530 
Q 2431 669 2431 922 
Q 2431 1156 2273 1281 
Q 2116 1406 1581 1522 
L 1381 1569 
Q 847 1681 609 1914 
Q 372 2147 372 2553 
Q 372 3047 722 3315 
Q 1072 3584 1716 3584 
Q 2034 3584 2315 3537 
Q 2597 3491 2834 3397 
z
" transform="scale(0.015625)"/>
       <path id="DejaVuSans-74" d="M 1172 4494 
L 1172 3500 
L 2356 3500 
L 2356 3053 
L 1172 3053 
L 1172 1153 
Q 1172 725 1289 603 
Q 1406 481 1766 481 
L 2356 481 
L 2356 0 
L 1766 0 
Q 1100 0 847 248 
Q 594 497 594 1153 
L 594 3053 
L 172 3053 
L 172 3500 
L 594 3500 
L 594 4494 
L 1172 4494 
z
" transform="scale(0.015625)"/>
       <path id="DejaVuSans-65" d="M 3597 1894 
L 3597 1613 
L 953 1613 
Q 991 1019 1311 708 
Q 1631 397 2203 397 
Q 2534 397 2845 478 
Q 3156 559 3463 722 
L 3463 178 
Q 3153 47 2828 -22 
Q 2503 -91 2169 -91 
Q 1331 -91 842 396 
Q 353 884 353 1716 
Q 353 2575 817 3079 
Q 1281 3584 2069 3584 
Q 2775 3584 3186 3129 
Q 3597 2675 3597 1894 
z
M 3022 2063 
Q 3016 2534 2758 2815 
Q 2500 3097 2075 3097 
Q 1594 3097 1305 2825 
Q 1016 2553 972 2059 
L 3022 2063 
z
" transform="scale(0.015625)"/>
       <path id="DejaVuSans-70" d="M 1159 525 
L 1159 -1331 
L 581 -1331 
L 581 3500 
L 1159 3500 
L 1159 2969 
Q 1341 3281 1617 3432 
Q 1894 3584 2278 3584 
Q 2916 3584 3314 3078 
Q 3713 2572 3713 1747 
Q 3713 922 3314 415 
Q 2916 -91 2278 -91 
Q 1894 -91 1617 61 
Q 1341 213 1159 525 
z
M 3116 1747 
Q 3116 2381 2855 2742 
Q 2594 3103 2138 3103 
Q 1681 3103 1420 2742 
Q 1159 2381 1159 1747 
Q 1159 1113 1420 752 
Q 1681 391 2138 391 
Q 2594 391 2855 752 
Q 3116 1113 3116 1747 
z
" transform="scale(0.015625)"/>
      </defs>
      <use xlink:href="#DejaVuSans-73"/>
      <use xlink:href="#DejaVuSans-74" transform="translate(52.099609 0)"/>
      <use xlink:href="#DejaVuSans-65" transform="translate(91.308594 0)"/>
      <use xlink:href="#DejaVuSans-70" transform="translate(152.832031 0)"/>
      <use xlink:href="#DejaVuSans-73" transform="translate(216.308594 0)"/>
     </g>
    </g>
   </g>
   <g id="matplotlib.axis_2">
    <g id="ytick_1">
     <g id="line2d_15">
      <path d="M 45.478125 252.518868 
L 402.598125 252.518868 
" clip-path="url(#p1a58c3e669)" style="fill: none; stroke-dasharray: 0.8,1.32; stroke-dashoffset: 0; stroke: #b0b0b0; stroke-opacity: 0.6; stroke-width: 0.8"/>
     </g>
     <g id="line2d_16">
      <defs>
       <path id="m137d3a8f64" d="M 0 0 
L -3.5 0 
" style="stroke: #000000; stroke-width: 0.8"/>
      </defs>
      <g>
       <use xlink:href="#m137d3a8f64" x="45.478125" y="252.518868" style="stroke: #000000; stroke-width: 0.8"/>
      </g>
     </g>
     <g id="text_9">
      <!-- $\mathdefault{10^{0}}$ -->
      <g transform="translate(20.878125 256.318087) scale(0.1 -0.1)">
       <use xlink:href="#DejaVuSans-31" transform="translate(0 0.765625)"/>
       <use xlink:href="#DejaVuSans-30" transform="translate(63.623047 0.765625)"/>
       <use xlink:href="#DejaVuSans-30" transform="translate(128.203125 39.046875) scale(0.7)"/>
      </g>
     </g>
    </g>
    <g id="ytick_2">
     <g id="line2d_17">
      <path d="M 45.478125 123.367224 
L 402.598125 123.367224 
" clip-path="url(#p1a58c3e669)" style="fill: none; stroke-dasharray: 0.8,1.32; stroke-dashoffset: 0; stroke: #b0b0b0; stroke-opacity: 0.6; stroke-width: 0.8"/>
     </g>
     <g id="line2d_18">
      <g>
       <use xlink:href="#m137d3a8f64" x="45.478125" y="123.367224" style="stroke: #000000; stroke-width: 0.8"/>
      </g>
     </g>
     <g id="text_10">
      <!-- $\mathdefault{10^{1}}$ -->
      <g transform="translate(20.878125 127.166443) scale(0.1 -0.1)">
       <use xlink:href="#DejaVuSans-31" transform="translate(0 0.684375)"/>
       <use xlink:href="#DejaVuSans-30" transform="translate(63.623047 0.684375)"/>
       <use xlink:href="#DejaVuSans-31" transform="translate(128.203125 38.965625) scale(0.7)"/>
      </g>
     </g>
    </g>
    <g id="ytick_3">
     <g id="line2d_19">
      <defs>
       <path id="mfe3fef955b" d="M 0 0 
L -2 0 
" style="stroke: #000000; stroke-width: 0.6"/>
      </defs>
      <g>
       <use xlink:href="#mfe3fef955b" x="45.478125" y="272.52471" style="stroke: #000000; stroke-width: 0.6"/>
      </g>
     </g>
    </g>
    <g id="ytick_4">
     <g id="line2d_20">
      <g>
       <use xlink:href="#mfe3fef955b" x="45.478125" y="265.034955" style="stroke: #000000; stroke-width: 0.6"/>
      </g>
     </g>
    </g>
    <g id="ytick_5">
     <g id="line2d_21">
      <g>
       <use xlink:href="#mfe3fef955b" x="45.478125" y="258.428523" style="stroke: #000000; stroke-width: 0.6"/>
      </g>
     </g>
    </g>
    <g id="ytick_6">
     <g id="line2d_22">
      <g>
       <use xlink:href="#mfe3fef955b" x="45.478125" y="213.640349" style="stroke: #000000; stroke-width: 0.6"/>
      </g>
     </g>
    </g>
    <g id="ytick_7">
     <g id="line2d_23">
      <g>
       <use xlink:href="#mfe3fef955b" x="45.478125" y="190.897874" style="stroke: #000000; stroke-width: 0.6"/>
      </g>
     </g>
    </g>
    <g id="ytick_8">
     <g id="line2d_24">
      <g>
       <use xlink:href="#mfe3fef955b" x="45.478125" y="174.76183" style="stroke: #000000; stroke-width: 0.6"/>
      </g>
     </g>
    </g>
    <g id="ytick_9">
     <g id="line2d_25">
      <g>
       <use xlink:href="#mfe3fef955b" x="45.478125" y="162.245743" style="stroke: #000000; stroke-width: 0.6"/>
      </g>
     </g>
    </g>
    <g id="ytick_10">
     <g id="line2d_26">
      <g>
       <use xlink:href="#mfe3fef955b" x="45.478125" y="152.019355" style="stroke: #000000; stroke-width: 0.6"/>
      </g>
     </g>
    </g>
    <g id="ytick_11">
     <g id="line2d_27">
      <g>
       <use xlink:href="#mfe3fef955b" x="45.478125" y="143.373067" style="stroke: #000000; stroke-width: 0.6"/>
      </g>
     </g>
    </g>
    <g id="ytick_12">
     <g id="line2d_28">
      <g>
       <use xlink:href="#mfe3fef955b" x="45.478125" y="135.883312" style="stroke: #000000; stroke-width: 0.6"/>
      </g>
     </g>
    </g>
    <g id="ytick_13">
     <g id="line2d_29">
      <g>
       <use xlink:href="#mfe3fef955b" x="45.478125" y="129.276879" style="stroke: #000000; stroke-width: 0.6"/>
      </g>
     </g>
    </g>
    <g id="ytick_14">
     <g id="line2d_30">
      <g>
       <use xlink:href="#mfe3fef955b" x="45.478125" y="84.488706" style="stroke: #000000; stroke-width: 0.6"/>
      </g>
     </g>
    </g>
    <g id="ytick_15">
     <g id="line2d_31">
      <g>
       <use xlink:href="#mfe3fef955b" x="45.478125" y="61.74623" style="stroke: #000000; stroke-width: 0.6"/>
      </g>
     </g>
    </g>
    <g id="ytick_16">
     <g id="line2d_32">
      <g>
       <use xlink:href="#mfe3fef955b" x="45.478125" y="45.610187" style="stroke: #000000; stroke-width: 0.6"/>
      </g>
     </g>
    </g>
    <g id="ytick_17">
     <g id="line2d_33">
      <g>
       <use xlink:href="#mfe3fef955b" x="45.478125" y="33.094099" style="stroke: #000000; stroke-width: 0.6"/>
      </g>
     </g>
    </g>
    <g id="ytick_18">
     <g id="line2d_34">
      <g>
       <use xlink:href="#mfe3fef955b" x="45.478125" y="22.867711" style="stroke: #000000; stroke-width: 0.6"/>
      </g>
     </g>
    </g>
    <g id="ytick_19">
     <g id="line2d_35">
      <g>
       <use xlink:href="#mfe3fef955b" x="45.478125" y="14.221424" style="stroke: #000000; stroke-width: 0.6"/>
      </g>
     </g>
    </g>
    <g id="text_11">
     <!-- MSE -->
     <g transform="translate(14.798438 150.903656) rotate(-90) scale(0.1 -0.1)">
      <defs>
       <path id="DejaVuSans-4d" d="M 628 4666 
L 1569 4666 
L 2759 1491 
L 3956 4666 
L 4897 4666 
L 4897 0 
L 4281 0 
L 4281 4097 
L 3078 897 
L 2444 897 
L 1241 4097 
L 1241 0 
L 628 0 
L 628 4666 
z
" transform="scale(0.015625)"/>
       <path id="DejaVuSans-53" d="M 3425 4513 
L 3425 3897 
Q 3066 4069 2747 4153 
Q 2428 4238 2131 4238 
Q 1616 4238 1336 4038 
Q 1056 3838 1056 3469 
Q 1056 3159 1242 3001 
Q 1428 2844 1947 2747 
L 2328 2669 
Q 3034 2534 3370 2195 
Q 3706 1856 3706 1288 
Q 3706 609 3251 259 
Q 2797 -91 1919 -91 
Q 1588 -91 1214 -16 
Q 841 59 441 206 
L 441 856 
Q 825 641 1194 531 
Q 1563 422 1919 422 
Q 2459 422 2753 634 
Q 3047 847 3047 1241 
Q 3047 1584 2836 1778 
Q 2625 1972 2144 2069 
L 1759 2144 
Q 1053 2284 737 2584 
Q 422 2884 422 3419 
Q 422 4038 858 4394 
Q 1294 4750 2059 4750 
Q 2388 4750 2728 4690 
Q 3069 4631 3425 4513 
z
" transform="scale(0.015625)"/>
       <path id="DejaVuSans-45" d="M 628 4666 
L 3578 4666 
L 3578 4134 
L 1259 4134 
L 1259 2753 
L 3481 2753 
L 3481 2222 
L 1259 2222 
L 1259 531 
L 3634 531 
L 3634 0 
L 628 0 
L 628 4666 
z
" transform="scale(0.015625)"/>
      </defs>
      <use xlink:href="#DejaVuSans-4d"/>
      <use xlink:href="#DejaVuSans-53" transform="translate(86.279297 0)"/>
      <use xlink:href="#DejaVuSans-45" transform="translate(149.755859 0)"/>
     </g>
    </g>
   </g>
   <g id="line2d_36">
    <path d="M 61.710852 19.296 
L 61.819107 222.357332 
L 62.035615 182.127104 
L 62.143869 214.199472 
L 62.252124 186.853092 
L 62.360378 212.922098 
L 62.468632 183.954927 
L 62.576886 201.353476 
L 62.685141 173.014987 
L 62.901649 190.895597 
L 63.009903 191.645401 
L 63.226412 209.8848 
L 63.334666 176.051555 
L 63.551175 187.864508 
L 63.659429 185.939167 
L 63.767683 220.497251 
L 63.875938 185.611826 
L 63.984192 202.60255 
L 64.2007 192.202048 
L 64.308955 205.650954 
L 64.417209 195.717541 
L 64.525463 216.961662 
L 64.633717 186.130433 
L 64.741972 208.613308 
L 64.850226 206.324509 
L 65.066735 185.996784 
L 65.174989 193.028073 
L 65.391497 175.45497 
L 65.499752 178.106241 
L 65.608006 224.20721 
L 65.824514 174.294901 
L 65.932769 208.761731 
L 66.041023 195.513126 
L 66.149277 202.719084 
L 66.257531 180.565395 
L 66.365786 198.84447 
L 66.47404 181.084235 
L 66.582294 182.431716 
L 66.690549 210.163111 
L 66.907057 188.140351 
L 67.123566 195.665922 
L 67.23182 198.23812 
L 67.448328 167.550186 
L 67.556583 203.074363 
L 67.773091 183.922689 
L 67.9896 192.973978 
L 68.097854 186.120479 
L 68.206108 187.816622 
L 68.314363 210.114622 
L 68.422617 185.582981 
L 68.530871 217.348225 
L 68.639125 188.810869 
L 68.74738 201.443299 
L 68.855634 187.182698 
L 68.963888 190.338021 
L 69.072142 185.318353 
L 69.288651 171.019348 
L 69.396905 181.579857 
L 69.505159 211.102518 
L 69.721668 175.413291 
L 69.938177 201.033736 
L 70.046431 196.286328 
L 70.154685 213.342895 
L 70.262939 205.825311 
L 70.371194 206.885416 
L 70.587702 183.509161 
L 70.695956 184.874059 
L 70.804211 173.016176 
L 70.912465 203.183564 
L 71.020719 195.446509 
L 71.345482 223.225405 
L 71.453736 181.980955 
L 71.561991 182.374071 
L 71.670245 174.558276 
L 71.995008 190.609485 
L 72.103262 202.429018 
L 72.211516 188.349917 
L 72.31977 197.803027 
L 72.428025 176.756392 
L 72.536279 180.583893 
L 72.644533 180.451668 
L 72.752787 179.895353 
L 72.861042 184.43482 
L 72.969296 194.524143 
L 73.07755 193.422915 
L 73.185805 227.555733 
L 73.294059 196.483805 
L 73.402313 212.60059 
L 73.510567 198.00682 
L 73.727076 201.238548 
L 73.83533 173.122047 
L 73.943584 195.748992 
L 74.051839 177.019303 
L 74.160093 188.224832 
L 74.268347 185.127488 
L 74.376601 203.213584 
L 74.484856 197.656614 
L 74.59311 173.856903 
L 74.701364 178.718123 
L 74.917873 200.227279 
L 75.026127 176.697916 
L 75.134381 212.404007 
L 75.242636 185.222721 
L 75.35089 204.069973 
L 75.567398 180.773964 
L 75.675653 191.342839 
L 75.783907 176.278735 
L 76.000415 203.237148 
L 76.216924 196.125377 
L 76.325178 199.582475 
L 76.433433 212.564648 
L 76.649941 193.240206 
L 76.758195 182.308488 
L 76.86645 183.524148 
L 77.082958 229.689511 
L 77.191212 192.347612 
L 77.407721 219.139459 
L 77.624229 168.705775 
L 77.732484 198.325004 
L 77.840738 180.233654 
L 77.948992 193.662985 
L 78.057247 171.739869 
L 78.165501 194.907338 
L 78.273755 170.225863 
L 78.382009 215.565314 
L 78.490264 185.015897 
L 78.598518 214.437432 
L 78.815026 188.182163 
L 78.923281 197.534969 
L 79.031535 196.437721 
L 79.139789 183.165067 
L 79.248043 208.564431 
L 79.356298 194.268915 
L 79.572806 207.87327 
L 79.789315 186.680401 
L 79.897569 213.024154 
L 80.005823 188.722471 
L 80.114078 214.863783 
L 80.222332 197.096005 
L 80.330586 202.619972 
L 80.43884 163.427503 
L 80.547095 199.488749 
L 80.871857 192.837259 
L 81.088366 174.306071 
L 81.304875 184.047769 
L 81.413129 183.969334 
L 81.521383 184.519778 
L 81.629637 183.151608 
L 81.737892 218.425971 
L 81.846146 195.208996 
L 81.9544 217.933095 
L 82.062654 188.05685 
L 82.170909 205.884791 
L 82.279163 205.586019 
L 82.387417 192.239853 
L 82.495671 200.169796 
L 82.603926 192.215405 
L 82.71218 199.983315 
L 82.820434 180.274425 
L 82.928689 216.834817 
L 83.036943 209.692154 
L 83.145197 222.518807 
L 83.361706 186.510774 
L 83.46996 189.119116 
L 83.578214 179.770899 
L 83.794723 211.680887 
L 83.902977 193.65353 
L 84.011231 198.741545 
L 84.119485 167.079103 
L 84.22774 210.258368 
L 84.335994 192.318738 
L 84.444248 205.143566 
L 84.660757 177.144787 
L 84.877265 205.260674 
L 85.093774 180.132131 
L 85.310282 207.028196 
L 85.418537 190.477654 
L 85.526791 225.90028 
L 85.743299 203.38974 
L 85.851554 215.951017 
L 86.068062 174.658042 
L 86.284571 209.341118 
L 86.392825 173.258952 
L 86.501079 199.721789 
L 86.717588 185.965247 
L 86.825842 192.466489 
L 86.934096 211.956149 
L 87.150605 206.272421 
L 87.258859 196.647685 
L 87.367113 174.698421 
L 87.583622 201.132751 
L 87.691876 199.348309 
L 87.800131 201.480799 
L 87.908385 179.585805 
L 88.124893 203.163076 
L 88.233148 196.429886 
L 88.341402 181.480507 
L 88.449656 204.866721 
L 88.55791 174.883296 
L 88.774419 209.043715 
L 88.882673 203.250448 
L 88.990927 189.305573 
L 89.099182 220.922272 
L 89.207436 186.085016 
L 89.532199 217.566129 
L 89.640453 186.00937 
L 89.856962 200.553431 
L 89.965216 170.773724 
L 90.289979 207.526302 
L 90.398233 199.392821 
L 90.506487 200.211242 
L 90.614741 183.73173 
L 90.722996 207.615707 
L 90.83125 204.982147 
L 90.939504 188.868041 
L 91.156013 199.757824 
L 91.264267 207.582613 
L 91.372521 197.153619 
L 91.480776 219.296024 
L 91.58903 212.676082 
L 91.697284 221.05976 
L 91.805538 198.138276 
L 92.022047 214.994733 
L 92.130301 209.377094 
L 92.34681 169.601029 
L 92.455064 217.521513 
L 92.563318 191.113752 
L 92.779827 205.515957 
L 92.888081 187.240874 
L 92.996335 188.518221 
L 93.212844 212.840985 
L 93.537607 178.141877 
L 93.645861 212.165566 
L 93.862369 196.548414 
L 93.970624 227.384671 
L 94.078878 222.949206 
L 94.187132 224.986518 
L 94.295387 189.716184 
L 94.403641 219.911324 
L 94.511895 180.559292 
L 94.728404 188.57363 
L 94.836658 216.828248 
L 94.944912 178.40959 
L 95.053166 207.649266 
L 95.161421 189.997384 
L 95.486183 227.580149 
L 95.702692 207.744416 
L 95.810946 180.088239 
L 96.027455 193.50106 
L 96.135709 196.942114 
L 96.243963 180.82741 
L 96.460472 210.679898 
L 96.568726 205.598744 
L 96.67698 216.073252 
L 96.785235 208.680084 
L 96.893489 185.837153 
L 97.001743 201.973957 
L 97.218252 184.735247 
L 97.543015 201.876117 
L 97.651269 186.826152 
L 97.759523 187.917254 
L 97.867777 183.517576 
L 97.976032 198.958645 
L 98.19254 185.179458 
L 98.300794 179.090428 
L 98.517303 231.144051 
L 98.625557 179.29557 
L 98.733811 230.326298 
L 98.95032 209.094477 
L 99.058574 231.687805 
L 99.275083 194.846847 
L 99.383337 188.494798 
L 99.599846 194.06454 
L 99.7081 216.443957 
L 99.816354 191.340774 
L 99.924608 193.806376 
L 100.032863 188.762712 
L 100.141117 229.123818 
L 100.249371 181.834742 
L 100.357625 208.436257 
L 100.46588 183.220905 
L 100.682388 205.35808 
L 100.790643 195.268231 
L 100.898897 207.225567 
L 101.007151 182.290124 
L 101.331914 210.780546 
L 101.440168 204.483353 
L 101.548422 232.278881 
L 101.873185 178.047888 
L 101.981439 182.955245 
L 102.089694 170.477852 
L 102.197948 230.187164 
L 102.414457 197.752244 
L 102.522711 205.971263 
L 102.630965 203.321238 
L 102.847474 212.919364 
L 102.955728 204.399016 
L 103.172236 168.791367 
L 103.280491 196.566235 
L 103.388745 157.314963 
L 103.496999 229.049479 
L 103.821762 178.887949 
L 104.146525 228.587513 
L 104.363033 188.611142 
L 104.471288 224.945327 
L 104.579542 184.872042 
L 104.687796 196.828348 
L 104.79605 190.063458 
L 104.904305 172.441447 
L 105.120813 213.261176 
L 105.229067 194.168251 
L 105.337322 207.752288 
L 105.445576 194.111309 
L 105.662085 222.911357 
L 105.878593 176.493637 
L 106.095102 203.061714 
L 106.203356 200.852481 
L 106.31161 187.684125 
L 106.419864 233.071428 
L 106.636373 175.686262 
L 106.852881 218.465345 
L 106.961136 201.434813 
L 107.06939 202.393849 
L 107.177644 199.020251 
L 107.285899 214.82733 
L 107.394153 212.703816 
L 107.502407 213.996116 
L 107.610661 187.669668 
L 107.718916 202.712579 
L 107.82717 189.051472 
L 107.935424 226.762637 
L 108.151933 192.121884 
L 108.260187 207.163294 
L 108.368441 205.662105 
L 108.476695 200.071227 
L 108.58495 219.718489 
L 108.801458 212.564917 
L 108.909712 218.686364 
L 109.017967 191.723954 
L 109.126221 208.090587 
L 109.34273 202.79026 
L 109.450984 210.141127 
L 109.559238 178.012181 
L 109.667492 218.85746 
L 109.775747 209.544502 
L 109.884001 189.494166 
L 109.992255 238.45085 
L 110.100509 236.554518 
L 110.425272 186.013757 
L 110.533526 187.11519 
L 110.641781 202.014585 
L 110.750035 197.872682 
L 110.858289 181.574734 
L 110.966544 207.722629 
L 111.074798 187.343589 
L 111.183052 217.133255 
L 111.291306 190.17263 
L 111.399561 217.38368 
L 111.616069 180.43636 
L 111.724323 173.64594 
L 111.832578 196.289578 
L 112.049086 180.802528 
L 112.265595 204.251194 
L 112.373849 181.254496 
L 112.482103 211.73352 
L 112.590358 209.045849 
L 112.806866 200.654338 
L 112.91512 211.171979 
L 113.131629 197.903193 
L 113.239883 200.06669 
L 113.348137 194.130618 
L 113.456392 225.263843 
L 113.564646 201.061499 
L 113.781154 208.978031 
L 113.997663 170.018926 
L 114.105917 210.069216 
L 114.214172 207.315351 
L 114.322426 199.415556 
L 114.647189 217.354676 
L 114.755443 172.295317 
L 114.971951 205.13577 
L 115.080206 194.231973 
L 115.18846 208.415867 
L 115.296714 203.794621 
L 115.404968 216.059009 
L 115.621477 184.532757 
L 115.729731 188.945161 
L 115.837986 178.20755 
L 115.94624 208.388003 
L 116.054494 189.432359 
L 116.162748 191.042484 
L 116.271003 187.724289 
L 116.379257 199.762349 
L 116.487511 197.239335 
L 116.595765 210.890241 
L 116.812274 199.647477 
L 116.920528 174.334065 
L 117.028782 208.647421 
L 117.245291 183.31481 
L 117.353545 242.287753 
L 117.4618 185.804306 
L 117.570054 193.958517 
L 117.678308 192.214017 
L 117.786562 193.922472 
L 118.003071 213.447194 
L 118.111325 188.063163 
L 118.219579 217.584141 
L 118.436088 173.498153 
L 118.652596 214.366555 
L 118.869105 209.543789 
L 118.977359 184.174525 
L 119.085614 213.710551 
L 119.193868 212.473037 
L 119.302122 216.577796 
L 119.626885 179.623118 
L 119.843393 195.481006 
L 119.951648 191.395041 
L 120.059902 193.264026 
L 120.168156 190.739565 
L 120.27641 192.225474 
L 120.492919 213.67892 
L 120.709428 174.967132 
L 120.925936 194.801433 
L 121.03419 190.150204 
L 121.142445 199.107411 
L 121.250699 197.072885 
L 121.358953 191.948956 
L 121.467207 201.646707 
L 121.575462 181.311471 
L 121.683716 221.783509 
L 121.900224 198.940361 
L 122.008479 202.777344 
L 122.116733 176.410169 
L 122.224987 207.205483 
L 122.333242 158.649118 
L 122.54975 212.010884 
L 122.658004 214.821383 
L 122.766259 195.812173 
L 122.874513 207.579149 
L 122.982767 194.177035 
L 123.091021 194.467231 
L 123.199276 222.205973 
L 123.30753 200.078528 
L 123.415784 203.683282 
L 123.524038 166.695508 
L 123.632293 214.815145 
L 123.740547 176.866289 
L 123.848801 200.392766 
L 123.957056 181.387367 
L 124.173564 209.94549 
L 124.281818 210.984685 
L 124.498327 196.331752 
L 124.606581 199.999008 
L 124.714835 227.539633 
L 124.931344 203.934766 
L 125.039598 200.456171 
L 125.147852 223.430701 
L 125.256107 186.191057 
L 125.472615 249.271336 
L 125.689124 202.817589 
L 125.797378 193.864868 
L 125.905632 229.064277 
L 126.013887 198.581783 
L 126.122141 214.643222 
L 126.230395 182.390803 
L 126.338649 192.399562 
L 126.446904 188.214701 
L 126.555158 197.582131 
L 126.663412 219.797103 
L 126.771666 215.289068 
L 126.879921 183.01916 
L 126.988175 204.581625 
L 127.096429 195.934639 
L 127.204684 176.940513 
L 127.312938 204.302743 
L 127.421192 203.501405 
L 127.529446 208.922559 
L 127.637701 205.206733 
L 127.745955 222.796622 
L 128.070718 186.137835 
L 128.178972 205.225659 
L 128.287226 175.380748 
L 128.39548 207.944372 
L 128.503735 193.177271 
L 128.828498 201.919394 
L 128.936752 219.898751 
L 129.15326 197.405307 
L 129.261515 227.056126 
L 129.478023 201.171078 
L 129.586277 203.259925 
L 129.694532 201.859089 
L 129.802786 194.441487 
L 129.91104 200.19345 
L 130.127549 173.771877 
L 130.235803 205.882095 
L 130.452312 179.133679 
L 130.560566 218.785184 
L 130.777074 193.257417 
L 130.885329 209.239875 
L 130.993583 203.553261 
L 131.101837 191.008652 
L 131.210091 217.54489 
L 131.4266 186.088478 
L 131.751363 219.347588 
L 131.859617 189.122624 
L 131.967871 205.124744 
L 132.18438 188.999635 
L 132.292634 190.12669 
L 132.400888 183.479617 
L 132.509143 201.741163 
L 132.725651 182.324749 
L 132.94216 198.612197 
L 133.050414 174.484458 
L 133.375177 239.614874 
L 133.483431 221.175016 
L 133.591685 178.756497 
L 133.69994 197.461621 
L 133.808194 175.90243 
L 133.916448 207.614547 
L 134.024702 193.878846 
L 134.132957 197.913437 
L 134.241211 212.611498 
L 134.457719 185.715621 
L 134.565974 193.53464 
L 134.674228 224.882649 
L 134.890736 182.977034 
L 134.998991 180.750086 
L 135.215499 201.358046 
L 135.323754 194.806961 
L 135.540262 204.620418 
L 135.648516 186.405373 
L 135.756771 188.98048 
L 135.865025 222.118051 
L 135.973279 202.072245 
L 136.081533 216.699827 
L 136.189788 199.441594 
L 136.298042 219.63864 
L 136.406296 211.41487 
L 136.51455 212.270031 
L 136.622805 207.660274 
L 136.731059 178.194367 
L 136.839313 205.725762 
L 137.164076 194.279827 
L 137.27233 191.051828 
L 137.488839 197.429421 
L 137.597093 218.358207 
L 137.813602 184.823789 
L 138.138364 228.939849 
L 138.246619 214.439049 
L 138.354873 177.458419 
L 138.571382 197.520726 
L 138.679636 186.50634 
L 138.78789 215.685518 
L 138.896144 186.293658 
L 139.004399 206.995104 
L 139.112653 202.840663 
L 139.220907 187.442402 
L 139.437416 218.503301 
L 139.54567 179.866274 
L 139.653924 182.203959 
L 139.870433 207.685838 
L 140.086941 187.758821 
L 140.30345 217.981329 
L 140.519958 200.65126 
L 140.628213 208.28587 
L 140.844721 184.895162 
L 140.952975 187.237373 
L 141.277738 233.104298 
L 141.494247 192.240592 
L 141.602501 221.530478 
L 141.710755 196.37263 
L 141.81901 215.547238 
L 141.927264 195.768795 
L 142.035518 212.149369 
L 142.143772 181.559236 
L 142.360281 201.688547 
L 142.468535 189.986771 
L 142.576789 209.728623 
L 142.685044 199.392716 
L 142.793298 212.074274 
L 142.901552 190.522069 
L 143.009806 218.636125 
L 143.118061 188.873739 
L 143.226315 222.00311 
L 143.334569 202.240897 
L 143.442824 210.669857 
L 143.551078 174.981685 
L 143.659332 197.877033 
L 143.767586 196.534257 
L 143.875841 193.07616 
L 143.984095 213.233958 
L 144.200603 188.517273 
L 144.308858 202.135237 
L 144.525366 187.556936 
L 144.741875 207.680915 
L 144.850129 182.265925 
L 144.958383 218.139629 
L 145.066638 207.799897 
L 145.174892 227.353611 
L 145.283146 188.377107 
L 145.3914 200.246732 
L 145.607909 181.394775 
L 145.716163 184.087563 
L 145.824417 208.6952 
L 145.932672 181.883185 
L 146.14918 219.508956 
L 146.257434 218.11272 
L 146.365689 172.729082 
L 146.473943 194.685019 
L 146.582197 184.38739 
L 146.690452 232.473551 
L 146.90696 186.246169 
L 147.015214 198.29343 
L 147.231723 196.448895 
L 147.339977 225.885527 
L 147.556486 196.744832 
L 147.66474 222.687477 
L 147.772994 206.858559 
L 147.881248 208.100573 
L 148.097757 182.649194 
L 148.206011 210.106436 
L 148.314266 172.536834 
L 148.639028 201.123848 
L 148.747283 183.149467 
L 148.963791 212.697766 
L 149.072045 186.754962 
L 149.1803 209.13289 
L 149.288554 185.155187 
L 149.396808 194.100981 
L 149.505062 185.740537 
L 149.721571 208.553285 
L 149.829825 188.959582 
L 149.93808 193.634315 
L 150.046334 184.842899 
L 150.262842 202.487353 
L 150.371097 202.495764 
L 150.479351 208.302625 
L 150.587605 199.08167 
L 150.695859 208.311972 
L 150.804114 189.881204 
L 150.912368 201.498336 
L 151.020622 194.388657 
L 151.128876 223.805068 
L 151.237131 200.437605 
L 151.345385 203.747495 
L 151.561894 198.732212 
L 151.670148 201.557833 
L 151.994911 178.618162 
L 152.103165 207.213296 
L 152.211419 201.241263 
L 152.319673 178.774176 
L 152.536182 200.872421 
L 152.644436 199.058325 
L 152.75269 176.561995 
L 152.860945 177.14385 
L 153.077453 202.319698 
L 153.185708 200.889373 
L 153.293962 191.882915 
L 153.402216 211.337395 
L 153.51047 211.236492 
L 153.726979 200.917607 
L 153.835233 198.797173 
L 154.051742 200.135916 
L 154.159996 189.828486 
L 154.376504 222.615592 
L 154.484759 190.111835 
L 154.593013 202.181326 
L 154.701267 196.980804 
L 154.809522 183.988883 
L 154.917776 220.688606 
L 155.02603 219.101248 
L 155.134284 193.477725 
L 155.350793 208.923624 
L 155.459047 190.55308 
L 155.675556 203.348442 
L 155.78381 188.068242 
L 156.000318 216.807464 
L 156.216827 189.442759 
L 156.433336 210.882376 
L 156.54159 204.546317 
L 156.649844 185.109699 
L 156.866353 216.455837 
L 157.082861 188.207963 
L 157.191115 193.043135 
L 157.29937 189.805697 
L 157.407624 216.23398 
L 157.624132 183.718041 
L 157.732387 222.36935 
L 157.840641 184.89347 
L 158.05715 225.846617 
L 158.165404 208.536029 
L 158.273658 221.374256 
L 158.490167 202.278713 
L 158.598421 197.583284 
L 158.706675 221.856012 
L 158.923184 190.637603 
L 159.139692 212.887267 
L 159.247946 191.773362 
L 159.356201 200.982976 
L 159.464455 199.784354 
L 159.680964 209.173728 
L 159.789218 203.442868 
L 159.897472 204.888604 
L 160.005726 186.022168 
L 160.113981 213.8198 
L 160.330489 203.645197 
L 160.438743 216.479787 
L 160.655252 193.307148 
L 160.763506 193.209163 
L 160.980015 210.532854 
L 161.088269 208.513212 
L 161.196523 234.284906 
L 161.304778 182.558368 
L 161.413032 224.517934 
L 161.521286 162.426354 
L 161.737795 208.657632 
L 161.846049 222.684455 
L 162.062557 191.087625 
L 162.170812 191.098981 
L 162.38732 193.559145 
L 162.603829 205.909736 
L 162.820337 190.513941 
L 162.928592 186.743306 
L 163.036846 188.925465 
L 163.1451 202.269069 
L 163.253354 174.578357 
L 163.361609 219.268748 
L 163.469863 202.523616 
L 163.578117 219.099765 
L 163.686371 196.563106 
L 163.794626 203.211509 
L 163.90288 202.152662 
L 164.011134 235.321339 
L 164.119388 187.100513 
L 164.227643 192.902211 
L 164.335897 191.321708 
L 164.444151 196.928512 
L 164.552406 196.603141 
L 164.66066 184.261917 
L 164.768914 213.854501 
L 164.877168 199.684664 
L 165.093677 204.560605 
L 165.201931 197.829939 
L 165.310185 171.95489 
L 165.41844 173.634709 
L 165.526694 215.864795 
L 165.634948 180.797445 
L 165.851457 195.47434 
L 165.959711 194.314861 
L 166.067965 191.314264 
L 166.17622 192.50985 
L 166.284474 222.637025 
L 166.392728 182.028143 
L 166.609237 197.179569 
L 166.717491 195.7048 
L 166.825745 203.859219 
L 167.042254 191.995647 
L 167.258762 237.305953 
L 167.583525 194.079018 
L 167.691779 210.563973 
L 167.800034 187.748098 
L 167.908288 193.974307 
L 168.016542 223.196551 
L 168.124796 184.811478 
L 168.233051 230.966038 
L 168.341305 202.946914 
L 168.449559 208.439145 
L 168.557813 207.658229 
L 168.666068 204.574547 
L 168.774322 212.497932 
L 168.882576 190.106431 
L 168.99083 194.807566 
L 169.099085 189.024582 
L 169.207339 197.745289 
L 169.315593 192.414985 
L 169.423848 198.834146 
L 169.532102 191.162718 
L 169.640356 196.326628 
L 169.74861 208.411991 
L 170.073373 173.872376 
L 170.289882 225.481587 
L 170.50639 197.568083 
L 170.722899 219.150028 
L 170.831153 216.31288 
L 170.939407 189.17048 
L 171.047662 193.630237 
L 171.155916 209.737403 
L 171.372424 167.789767 
L 171.588933 227.029911 
L 171.805441 209.661937 
L 171.913696 184.112561 
L 172.02195 219.754615 
L 172.130204 164.741328 
L 172.346713 207.146307 
L 172.454967 195.411548 
L 172.563221 218.720528 
L 172.671476 195.506216 
L 172.77973 217.24198 
L 172.887984 203.808229 
L 172.996238 218.489343 
L 173.104493 184.972168 
L 173.212747 212.922869 
L 173.321001 180.960826 
L 173.429255 193.473758 
L 173.53751 225.652524 
L 173.645764 191.618764 
L 173.862272 217.43324 
L 173.970527 204.014391 
L 174.078781 209.624216 
L 174.187035 209.532196 
L 174.29529 207.562817 
L 174.403544 189.922371 
L 174.511798 199.763379 
L 174.620052 190.204785 
L 174.728307 223.746333 
L 174.836561 189.834511 
L 174.944815 214.145026 
L 175.053069 190.27443 
L 175.269578 207.825128 
L 175.377832 193.490218 
L 175.486086 205.045181 
L 175.702595 188.172831 
L 175.810849 200.602606 
L 175.919104 197.290842 
L 176.027358 220.25329 
L 176.135612 214.560926 
L 176.243866 216.136219 
L 176.352121 188.694639 
L 176.460375 190.83593 
L 176.568629 190.117745 
L 176.676883 198.606721 
L 177.001646 188.724954 
L 177.1099 199.515596 
L 177.218155 188.06119 
L 177.326409 210.680619 
L 177.434663 187.702419 
L 177.542918 216.015632 
L 177.651172 210.752256 
L 177.86768 183.742488 
L 178.084189 208.425763 
L 178.192443 222.093695 
L 178.300697 197.749574 
L 178.408952 203.816039 
L 178.517206 220.671925 
L 178.62546 213.141538 
L 178.733714 233.920757 
L 178.950223 210.738992 
L 179.058477 178.940304 
L 179.166732 203.590041 
L 179.38324 196.860876 
L 179.491494 216.450732 
L 179.599749 186.112567 
L 179.708003 191.564528 
L 179.816257 206.834079 
L 179.924511 185.483276 
L 180.032766 209.121916 
L 180.249274 178.065293 
L 180.357528 197.94427 
L 180.465783 189.469384 
L 180.574037 202.085984 
L 180.682291 197.469952 
L 180.790546 185.55059 
L 180.8988 212.710773 
L 181.007054 205.252805 
L 181.115308 177.17466 
L 181.331817 198.099515 
L 181.440071 200.104886 
L 181.548325 189.607895 
L 181.65658 203.39966 
L 181.764834 182.629177 
L 181.873088 200.318173 
L 181.981342 189.870998 
L 182.197851 196.268054 
L 182.306105 198.54727 
L 182.41436 204.663031 
L 182.522614 181.099161 
L 182.630868 215.859286 
L 182.739122 198.863988 
L 182.955631 220.199796 
L 183.063885 217.959275 
L 183.172139 175.971476 
L 183.280394 210.461368 
L 183.496902 190.099695 
L 183.605156 190.044675 
L 183.821665 228.597136 
L 183.929919 222.167946 
L 184.038174 181.021105 
L 184.146428 187.007782 
L 184.254682 229.910438 
L 184.362936 208.496311 
L 184.471191 217.28674 
L 184.687699 173.840393 
L 184.795953 190.795648 
L 185.012462 170.713827 
L 185.22897 221.244558 
L 185.553733 193.267073 
L 185.661987 187.630928 
L 185.770242 196.976004 
L 185.878496 193.425629 
L 185.98675 179.74061 
L 186.095005 183.935807 
L 186.311513 198.773608 
L 186.419767 199.894502 
L 186.528022 183.117415 
L 186.636276 192.151789 
L 186.74453 183.838143 
L 186.852784 183.968743 
L 186.961039 208.17923 
L 187.069293 177.87218 
L 187.177547 213.62762 
L 187.394056 199.776033 
L 187.50231 195.539472 
L 187.610564 212.835072 
L 187.827073 188.420549 
L 187.935327 188.548824 
L 188.043581 179.617866 
L 188.151836 215.355728 
L 188.26009 184.837691 
L 188.368344 235.865516 
L 188.476598 182.849969 
L 188.584853 210.424906 
L 188.801361 208.547454 
L 189.01787 191.364245 
L 189.234378 211.330857 
L 189.342633 186.074188 
L 189.559141 211.125383 
L 189.667395 182.253516 
L 189.77565 197.304593 
L 189.883904 192.094239 
L 189.992158 208.551865 
L 190.100412 187.201077 
L 190.316921 202.867162 
L 190.533429 186.365143 
L 190.858192 212.917891 
L 190.966447 187.316369 
L 191.074701 202.54116 
L 191.182955 200.554187 
L 191.291209 178.014344 
L 191.399464 214.443623 
L 191.615972 173.984286 
L 191.832481 206.182281 
L 191.940735 187.98693 
L 192.048989 192.629355 
L 192.157243 167.038411 
L 192.373752 212.462427 
L 192.590261 205.942108 
L 192.698515 196.540379 
L 192.806769 200.476616 
L 192.915023 214.098092 
L 193.023278 186.138792 
L 193.131532 192.721887 
L 193.239786 217.433261 
L 193.34804 193.596242 
L 193.456295 212.395383 
L 193.564549 184.95052 
L 193.672803 196.991104 
L 193.781057 190.008165 
L 194.10582 202.56175 
L 194.214075 194.749114 
L 194.322329 199.995829 
L 194.430583 227.573252 
L 194.538837 180.082279 
L 194.8636 247.846861 
L 195.080109 189.369081 
L 195.188363 206.853177 
L 195.296617 187.788385 
L 195.404871 221.678109 
L 195.513126 217.039859 
L 195.62138 219.867111 
L 195.729634 189.120066 
L 195.837889 201.11628 
L 195.946143 194.192809 
L 196.054397 210.813085 
L 196.162651 208.546778 
L 196.270906 200.171916 
L 196.37916 181.652413 
L 196.487414 247.960716 
L 196.703923 188.364407 
L 197.028685 207.159248 
L 197.13694 174.110645 
L 197.245194 196.868952 
L 197.353448 180.922647 
L 197.461703 229.743373 
L 197.569957 207.056721 
L 197.678211 207.31349 
L 197.89472 217.577161 
L 198.111228 205.561283 
L 198.219482 211.479941 
L 198.327737 203.587922 
L 198.435991 172.63273 
L 198.652499 221.320204 
L 198.760754 230.27776 
L 198.977262 187.685922 
L 199.085517 223.034629 
L 199.302025 174.398941 
L 199.410279 214.051302 
L 199.518534 184.283711 
L 199.843296 204.261141 
L 199.951551 193.762081 
L 200.059805 221.563901 
L 200.168059 205.611527 
L 200.276313 211.730952 
L 200.384568 197.264529 
L 200.601076 204.830052 
L 200.709331 218.702639 
L 200.817585 218.694561 
L 200.925839 196.954782 
L 201.034093 205.914971 
L 201.142348 205.912472 
L 201.250602 214.458378 
L 201.358856 201.967797 
L 201.46711 207.395154 
L 201.575365 181.026338 
L 201.791873 215.390161 
L 202.008382 189.682242 
L 202.116636 185.08016 
L 202.22489 232.565188 
L 202.333145 209.489192 
L 202.441399 215.08326 
L 202.549653 196.437569 
L 202.657907 213.472269 
L 202.766162 212.456794 
L 202.98267 215.409664 
L 203.090924 217.092292 
L 203.199179 224.229633 
L 203.307433 195.654368 
L 203.415687 203.603168 
L 203.74045 194.347947 
L 203.848704 184.540653 
L 203.956959 223.632757 
L 204.065213 196.757295 
L 204.173467 210.154965 
L 204.281721 171.867961 
L 204.389976 228.004864 
L 204.49823 214.939694 
L 204.606484 215.705167 
L 204.714738 218.588901 
L 204.822993 217.549728 
L 205.039501 196.081173 
L 205.147755 216.863909 
L 205.25601 181.2334 
L 205.364264 230.171054 
L 205.472518 206.720243 
L 205.580773 220.958692 
L 205.797281 180.247269 
L 206.01379 191.996507 
L 206.122044 238.105417 
L 206.230298 183.494958 
L 206.338552 190.811565 
L 206.446807 216.087417 
L 206.663315 185.200365 
L 206.771569 202.546495 
L 206.879824 190.006309 
L 206.988078 203.852728 
L 207.096332 195.373827 
L 207.204587 198.496916 
L 207.312841 232.038561 
L 207.529349 202.44761 
L 207.637604 197.242124 
L 207.854112 169.947793 
L 208.070621 215.029179 
L 208.178875 187.89881 
L 208.287129 211.963298 
L 208.503638 180.50191 
L 208.611892 195.298999 
L 208.720146 188.115714 
L 208.828401 197.810212 
L 209.044909 179.240158 
L 209.153163 223.624853 
L 209.261418 190.363327 
L 209.369672 203.244441 
L 209.477926 200.178032 
L 209.58618 184.721067 
L 209.910943 228.701726 
L 210.019197 178.74198 
L 210.127452 204.933509 
L 210.235706 172.610985 
L 210.452215 214.203519 
L 210.560469 207.049221 
L 210.668723 234.919014 
L 210.885232 192.075548 
L 210.993486 212.067824 
L 211.10174 194.865669 
L 211.318249 214.395441 
L 211.534757 192.293001 
L 211.643011 193.597122 
L 211.751266 184.667825 
L 211.85952 210.849912 
L 211.967774 169.298998 
L 212.076029 228.937763 
L 212.184283 199.119782 
L 212.400791 211.506442 
L 212.509046 197.113055 
L 212.6173 230.265942 
L 212.725554 207.122388 
L 212.833808 209.915785 
L 212.942063 223.717622 
L 213.050317 184.325716 
L 213.158571 189.31134 
L 213.266825 181.055042 
L 213.37508 190.352748 
L 213.483334 217.811936 
L 213.591588 183.125783 
L 213.699843 225.304089 
L 213.916351 189.608902 
L 214.024605 216.310314 
L 214.13286 200.367312 
L 214.241114 210.863399 
L 214.457622 186.293097 
L 214.565877 185.705285 
L 214.674131 220.851305 
L 214.782385 187.632631 
L 214.890639 200.774761 
L 215.107148 195.845378 
L 215.323657 206.976973 
L 215.431911 193.305428 
L 215.540165 201.675231 
L 215.648419 201.614158 
L 215.756674 202.983954 
L 215.864928 216.562772 
L 215.973182 183.086038 
L 216.081436 192.911958 
L 216.189691 221.413888 
L 216.297945 180.254869 
L 216.406199 201.280625 
L 216.730962 188.370195 
L 216.839216 186.428021 
L 216.947471 212.637121 
L 217.055725 210.544071 
L 217.163979 218.194017 
L 217.272233 197.684591 
L 217.380488 212.223299 
L 217.488742 181.208647 
L 217.596996 200.507906 
L 217.70525 196.877647 
L 217.813505 188.440227 
L 217.921759 214.534569 
L 218.138267 204.930592 
L 218.246522 229.2866 
L 218.354776 211.021482 
L 218.46303 216.478916 
L 218.679539 200.831626 
L 218.896047 181.369876 
L 219.112556 196.567867 
L 219.22081 186.039523 
L 219.329064 199.209194 
L 219.437319 189.380332 
L 219.545573 206.545827 
L 219.653827 192.240874 
L 219.762081 201.70788 
L 219.870336 221.625448 
L 220.086844 196.924176 
L 220.195099 199.600189 
L 220.303353 220.876687 
L 220.519861 185.817311 
L 220.73637 228.014466 
L 220.844624 222.458726 
L 220.952878 194.958921 
L 221.061133 202.795292 
L 221.277641 189.298369 
L 221.385895 190.795953 
L 221.602404 214.048731 
L 221.710658 205.290875 
L 221.818913 205.53014 
L 221.927167 198.062873 
L 222.035421 204.008396 
L 222.143675 202.850673 
L 222.25193 208.478922 
L 222.468438 189.714796 
L 222.576692 196.415139 
L 222.684947 212.373273 
L 222.901455 185.320463 
L 223.117964 207.924576 
L 223.442727 180.204266 
L 223.659235 248.918444 
L 223.767489 191.846727 
L 223.983998 207.317986 
L 224.092252 203.049613 
L 224.200506 194.365175 
L 224.308761 214.936092 
L 224.417015 193.453769 
L 224.525269 197.810727 
L 224.633523 206.716677 
L 224.741778 202.381288 
L 224.850032 233.934095 
L 225.066541 200.930424 
L 225.283049 230.966647 
L 225.391303 215.901546 
L 225.499558 178.297638 
L 225.607812 197.936301 
L 225.716066 168.12485 
L 225.82432 209.956863 
L 225.932575 189.834223 
L 226.040829 240.779707 
L 226.257337 180.011644 
L 226.365592 197.43533 
L 226.473846 184.76759 
L 226.5821 210.408823 
L 226.690355 191.611856 
L 226.798609 218.721576 
L 227.123372 199.560746 
L 227.231626 211.193147 
L 227.33988 203.821512 
L 227.448134 216.457242 
L 227.556389 186.221585 
L 227.664643 197.116699 
L 227.772897 188.566478 
L 227.989406 209.450169 
L 228.09766 202.473731 
L 228.205914 205.863368 
L 228.314169 205.438072 
L 228.422423 200.078439 
L 228.530677 201.313818 
L 228.747186 211.690236 
L 228.963694 190.019589 
L 229.071948 212.615859 
L 229.180203 208.179993 
L 229.288457 219.975873 
L 229.396711 197.10079 
L 229.504965 213.485764 
L 229.721474 183.535451 
L 229.829728 197.892179 
L 229.937983 192.674694 
L 230.046237 198.281924 
L 230.154491 195.933582 
L 230.262745 186.231151 
L 230.371 196.168169 
L 230.479254 220.512124 
L 230.695762 193.214095 
L 230.804017 198.310869 
L 230.912271 209.644238 
L 231.128779 191.850914 
L 231.237034 203.510086 
L 231.345288 198.60409 
L 231.453542 203.904702 
L 231.778305 180.137065 
L 231.886559 204.09138 
L 231.994814 188.953091 
L 232.103068 212.93413 
L 232.211322 191.224545 
L 232.536085 211.016187 
L 232.752593 199.3387 
L 232.860848 208.150012 
L 232.969102 203.981385 
L 233.077356 192.900308 
L 233.185611 198.73599 
L 233.293865 214.612344 
L 233.510373 210.047464 
L 233.618628 221.244928 
L 233.835136 209.261542 
L 233.94339 210.045498 
L 234.051645 211.860078 
L 234.268153 173.138604 
L 234.592916 185.846197 
L 234.70117 209.192444 
L 234.809425 201.640719 
L 234.917679 206.131728 
L 235.025933 193.653589 
L 235.134187 198.374306 
L 235.242442 218.51296 
L 235.350696 192.108861 
L 235.45895 196.970392 
L 235.567204 181.65815 
L 235.675459 195.626349 
L 235.783713 184.759364 
L 235.891967 199.080444 
L 236.000221 185.83389 
L 236.21673 211.185171 
L 236.324984 210.063347 
L 236.433239 179.497883 
L 236.541493 195.146766 
L 236.649747 194.641378 
L 236.758001 216.470124 
L 237.082764 180.607807 
L 237.299273 217.058262 
L 237.407527 224.30122 
L 237.515781 217.408625 
L 237.73229 167.02864 
L 237.948798 221.8566 
L 238.165307 217.38753 
L 238.381815 192.985413 
L 238.49007 206.985312 
L 238.598324 186.549834 
L 238.706578 198.113641 
L 238.814832 222.37559 
L 238.923087 190.001547 
L 239.031341 193.48252 
L 239.139595 185.071268 
L 239.356104 221.466193 
L 239.464358 210.256939 
L 239.572612 179.810905 
L 239.680867 228.907566 
L 239.897375 187.203934 
L 240.005629 198.175988 
L 240.113884 186.617136 
L 240.222138 202.137505 
L 240.330392 194.632205 
L 240.438646 220.503047 
L 240.655155 186.432751 
L 240.763409 204.503087 
L 240.871663 175.010931 
L 241.196426 214.99855 
L 241.304681 188.12836 
L 241.412935 189.569888 
L 241.521189 184.930934 
L 241.629443 208.896813 
L 241.737698 185.879335 
L 241.845952 201.413966 
L 241.954206 173.185559 
L 242.278969 241.143654 
L 242.495477 219.006003 
L 242.711986 245.862964 
L 242.928495 185.235136 
L 243.036749 193.642213 
L 243.145003 215.720219 
L 243.253257 196.272791 
L 243.361512 199.661017 
L 243.469766 190.316512 
L 243.57802 221.570952 
L 243.686274 220.521263 
L 243.794529 221.175514 
L 243.902783 219.767121 
L 244.011037 182.286362 
L 244.3358 221.008178 
L 244.444054 191.737596 
L 244.660563 213.069302 
L 244.768817 212.20336 
L 244.877071 187.004466 
L 245.201834 223.805035 
L 245.418343 201.242173 
L 245.526597 201.962133 
L 245.634851 220.225996 
L 245.85136 182.762314 
L 245.959614 200.794075 
L 246.067868 173.139723 
L 246.176123 180.217113 
L 246.284377 197.176301 
L 246.392631 195.453849 
L 246.500885 196.076985 
L 246.60914 191.31718 
L 246.717394 216.346988 
L 246.933902 191.639767 
L 247.042157 239.449449 
L 247.150411 200.357855 
L 247.258665 211.263979 
L 247.366919 208.421644 
L 247.475174 221.542585 
L 247.691682 185.360928 
L 247.908191 232.650548 
L 248.232954 187.852934 
L 248.341208 201.653281 
L 248.449462 188.124396 
L 248.665971 196.037088 
L 248.774225 195.640473 
L 248.990733 224.342605 
L 249.207242 193.213668 
L 249.315496 204.44071 
L 249.423751 191.462387 
L 249.532005 220.588419 
L 249.748513 192.317384 
L 249.856768 192.223144 
L 249.965022 211.516987 
L 250.073276 179.966834 
L 250.18153 217.996895 
L 250.289785 211.863171 
L 250.506293 197.889413 
L 250.722802 232.71998 
L 250.93931 207.136487 
L 251.047565 226.695536 
L 251.264073 178.40489 
L 251.372327 202.031695 
L 251.480582 192.973495 
L 251.588836 208.359753 
L 251.69709 176.450446 
L 251.913599 200.934097 
L 252.021853 210.598012 
L 252.130107 198.055366 
L 252.238361 207.420665 
L 252.346616 201.302907 
L 252.45487 207.060936 
L 252.563124 199.718758 
L 252.671379 219.128015 
L 252.887887 198.291047 
L 252.996141 182.992241 
L 253.104396 205.896616 
L 253.21265 203.160518 
L 253.320904 207.068171 
L 253.537413 182.844365 
L 253.645667 196.350442 
L 253.753921 186.886483 
L 253.862175 216.24712 
L 253.97043 211.397352 
L 254.078684 187.73711 
L 254.295193 215.311718 
L 254.511701 184.951417 
L 254.72821 192.403406 
L 254.836464 201.938244 
L 254.944718 197.602693 
L 255.052972 185.990905 
L 255.269481 193.402252 
L 255.377735 181.597289 
L 255.485989 216.443684 
L 255.594244 195.662225 
L 255.810752 223.826562 
L 256.027261 188.360213 
L 256.135515 203.389601 
L 256.243769 187.272022 
L 256.460278 199.5733 
L 256.568532 193.401965 
L 256.676786 179.684599 
L 256.785041 220.59315 
L 256.893295 190.711607 
L 257.001549 226.191115 
L 257.109803 180.161397 
L 257.434566 207.584477 
L 257.542821 192.03607 
L 257.867583 204.603396 
L 257.975838 214.244917 
L 258.084092 194.987131 
L 258.192346 198.11245 
L 258.3006 224.11036 
L 258.517109 195.576421 
L 258.625363 197.474671 
L 258.733617 180.097344 
L 258.841872 194.379071 
L 258.950126 193.646226 
L 259.05838 201.984913 
L 259.274889 186.345222 
L 259.383143 192.075548 
L 259.599652 211.47122 
L 259.707906 192.010762 
L 259.81616 207.847548 
L 260.032669 201.172093 
L 260.140923 223.532573 
L 260.249177 203.784162 
L 260.357431 221.971841 
L 260.57394 197.230604 
L 260.682194 190.084964 
L 260.790449 202.120439 
L 260.898703 172.808231 
L 261.115211 216.466835 
L 261.223466 166.520131 
L 261.33172 204.37632 
L 261.439974 157.954229 
L 261.656483 203.756104 
L 261.764737 182.182753 
L 262.197754 227.132538 
L 262.414263 188.705905 
L 262.630771 237.64053 
L 262.739025 183.39834 
L 262.955534 199.976351 
L 263.063788 186.670892 
L 263.172042 198.696771 
L 263.280297 183.988996 
L 263.388551 198.558906 
L 263.496805 230.491216 
L 263.605059 223.674597 
L 263.821568 209.087888 
L 264.038076 184.226366 
L 264.146331 203.553257 
L 264.254585 194.639457 
L 264.471094 208.107439 
L 264.579348 205.066918 
L 264.687602 196.31333 
L 264.795856 223.135388 
L 265.012365 198.704474 
L 265.228873 210.007404 
L 265.337128 202.49215 
L 265.445382 213.565436 
L 265.553636 211.145917 
L 265.66189 217.183101 
L 265.770145 189.242887 
L 265.878399 215.415541 
L 266.094908 196.560834 
L 266.311416 211.257851 
L 266.41967 214.424593 
L 266.527925 201.777022 
L 266.636179 204.496216 
L 266.744433 225.315083 
L 267.069196 200.20572 
L 267.17745 216.523968 
L 267.285704 207.614148 
L 267.393959 189.024467 
L 267.502213 190.476799 
L 267.610467 214.90006 
L 267.718722 211.837997 
L 267.93523 194.228263 
L 268.043484 233.745241 
L 268.151739 176.48085 
L 268.259993 191.294961 
L 268.368247 183.761858 
L 268.476501 216.039917 
L 268.584756 215.230266 
L 268.69301 221.144451 
L 268.909518 184.644588 
L 269.017773 202.696528 
L 269.126027 185.448831 
L 269.234281 201.469454 
L 269.342536 188.994887 
L 269.45079 226.475722 
L 269.559044 222.522589 
L 269.667298 200.947176 
L 269.883807 211.117619 
L 269.992061 194.823314 
L 270.316824 231.735091 
L 270.425078 191.598339 
L 270.533332 199.586763 
L 270.641587 226.792701 
L 270.749841 185.971955 
L 271.074604 202.133199 
L 271.182858 194.319312 
L 271.291112 224.020042 
L 271.399367 176.143889 
L 271.615875 212.053564 
L 271.832384 183.239329 
L 271.940638 208.557915 
L 272.157146 202.302229 
L 272.265401 215.452582 
L 272.373655 191.839056 
L 272.481909 223.724759 
L 272.698418 192.290634 
L 272.806672 197.231735 
L 272.914926 223.251741 
L 273.347943 182.660701 
L 273.456198 189.924335 
L 273.564452 185.996724 
L 273.672706 188.06963 
L 273.78096 186.869644 
L 273.889215 187.007499 
L 273.997469 214.546738 
L 274.213978 180.014102 
L 274.322232 199.429201 
L 274.430486 195.55692 
L 274.646995 231.920238 
L 274.755249 194.390557 
L 274.971757 208.88591 
L 275.080012 200.956367 
L 275.188266 206.546386 
L 275.29652 206.027519 
L 275.513029 194.831784 
L 275.621283 216.722469 
L 275.837792 201.576834 
L 275.946046 207.988265 
L 276.0543 189.750149 
L 276.270809 210.310281 
L 276.487317 192.097411 
L 276.595571 202.520597 
L 276.703826 194.113888 
L 276.81208 209.446019 
L 276.920334 197.214927 
L 277.028588 197.786323 
L 277.136843 197.221251 
L 277.245097 191.98935 
L 277.353351 199.46152 
L 277.461606 223.718432 
L 277.56986 192.772668 
L 277.786368 225.988391 
L 277.894623 179.075997 
L 278.111131 210.831881 
L 278.219385 208.944004 
L 278.435894 185.343948 
L 278.544148 188.377539 
L 278.652402 206.127367 
L 278.760657 197.572344 
L 278.868911 224.090007 
L 278.977165 180.748067 
L 279.08542 187.427529 
L 279.301928 211.251303 
L 279.410182 186.183337 
L 279.518437 200.267575 
L 279.626691 193.094113 
L 279.734945 207.121435 
L 279.951454 188.817737 
L 280.167962 216.453339 
L 280.276216 203.490694 
L 280.384471 206.038246 
L 280.600979 203.853287 
L 280.709234 190.461332 
L 280.817488 214.71707 
L 280.925742 199.638084 
L 281.142251 233.111308 
L 281.250505 177.264512 
L 281.358759 199.09056 
L 281.467013 198.90069 
L 281.575268 203.571354 
L 281.683522 178.837523 
L 281.90003 223.846482 
L 282.224793 200.893777 
L 282.333048 205.041769 
L 282.549556 185.133287 
L 282.65781 197.08661 
L 282.766065 231.937205 
L 282.874319 195.187818 
L 283.090827 230.024458 
L 283.41559 187.873191 
L 283.523844 208.449257 
L 283.632099 206.272586 
L 283.848607 195.65814 
L 283.956862 208.907896 
L 284.065116 207.48005 
L 284.17337 214.940381 
L 284.281624 213.10603 
L 284.498133 185.162655 
L 284.714641 188.421734 
L 284.822896 207.278195 
L 284.93115 181.146722 
L 285.039404 227.815974 
L 285.147658 187.429483 
L 285.364167 207.92176 
L 285.472421 191.609435 
L 285.580676 195.784995 
L 285.68893 187.638093 
L 285.905438 213.693124 
L 286.013693 176.522758 
L 286.121947 219.614069 
L 286.338455 180.165371 
L 286.44671 211.39266 
L 286.663218 170.527077 
L 286.771472 191.605536 
L 286.879727 172.534433 
L 286.987981 192.142801 
L 287.096235 190.513688 
L 287.20449 237.510211 
L 287.312744 179.624444 
L 287.420998 214.263839 
L 287.637507 203.961705 
L 287.745761 221.112179 
L 287.962269 197.08254 
L 288.070524 204.766035 
L 288.178778 179.251803 
L 288.287032 229.764294 
L 288.503541 188.800863 
L 288.611795 188.729517 
L 288.720049 186.940082 
L 288.936558 216.417614 
L 289.044812 191.972819 
L 289.153066 193.125725 
L 289.261321 210.10783 
L 289.477829 185.769395 
L 289.694338 205.841395 
L 289.910846 199.717232 
L 290.0191 192.093349 
L 290.127355 198.57761 
L 290.235609 191.023772 
L 290.343863 210.741711 
L 290.452118 198.788007 
L 290.560372 202.868084 
L 290.668626 170.107698 
L 290.885135 231.834099 
L 290.993389 186.213593 
L 291.101643 225.688265 
L 291.209897 188.816475 
L 291.318152 196.374635 
L 291.426406 217.937298 
L 291.53466 176.23074 
L 291.642914 206.085227 
L 291.751169 204.276228 
L 291.859423 186.316625 
L 292.075932 227.204159 
L 292.184186 182.325208 
L 292.400694 195.732314 
L 292.508949 199.823097 
L 292.617203 217.479872 
L 292.941966 180.663023 
L 293.05022 213.958634 
L 293.266728 194.481329 
L 293.374983 191.515211 
L 293.483237 202.151776 
L 293.591491 182.944765 
L 293.699746 206.68698 
L 293.808 192.047368 
L 294.024508 205.068239 
L 294.132763 207.173603 
L 294.241017 204.816786 
L 294.349271 198.063937 
L 294.457525 202.158711 
L 294.674034 222.876178 
L 294.890542 180.16238 
L 294.998797 203.439361 
L 295.107051 202.650401 
L 295.215305 190.821073 
L 295.32356 200.991094 
L 295.431814 196.729903 
L 295.540068 213.85228 
L 295.864831 176.614598 
L 295.973085 205.640409 
L 296.189594 199.597635 
L 296.297848 224.68391 
L 296.406102 221.545319 
L 296.622611 199.716346 
L 296.730865 206.897591 
L 296.947374 185.759392 
L 297.055628 192.406414 
L 297.163882 218.386131 
L 297.272136 182.628704 
L 297.380391 199.491086 
L 297.488645 195.331665 
L 297.596899 204.806147 
L 297.705153 187.707286 
L 297.921662 212.394703 
L 298.029916 207.602514 
L 298.13817 182.215109 
L 298.246425 184.901218 
L 298.354679 175.712101 
L 298.462933 190.629914 
L 298.571188 189.493993 
L 298.679442 192.677376 
L 298.787696 217.76891 
L 299.004205 182.984342 
L 299.112459 199.676847 
L 299.220713 184.64732 
L 299.328967 261.216 
L 299.437222 188.74614 
L 299.65373 199.594993 
L 299.761984 180.068682 
L 300.086747 204.188522 
L 300.303256 183.649592 
L 300.41151 191.664743 
L 300.519764 208.341225 
L 300.628019 191.564711 
L 300.736273 200.081272 
L 300.844527 219.4355 
L 300.952781 175.789354 
L 301.061036 239.001001 
L 301.277544 191.721736 
L 301.385798 219.35186 
L 301.602307 198.397482 
L 301.710561 207.88411 
L 301.92707 202.705687 
L 302.035324 221.47314 
L 302.360087 178.525562 
L 302.68485 218.291312 
L 302.793104 216.120854 
L 302.901358 219.580432 
L 303.117867 194.100729 
L 303.226121 194.486242 
L 303.334375 220.050866 
L 303.44263 173.839699 
L 303.659138 190.747355 
L 303.767392 170.471341 
L 303.875647 212.735291 
L 303.983901 191.250531 
L 304.092155 194.142469 
L 304.200409 181.151043 
L 304.416918 230.590633 
L 304.525172 212.552789 
L 304.633426 256.4314 
L 304.741681 162.037837 
L 304.849935 174.2595 
L 304.958189 226.665826 
L 305.066444 201.482223 
L 305.174698 218.74876 
L 305.391206 185.242018 
L 305.607715 210.805516 
L 305.715969 204.489507 
L 305.824223 189.398867 
L 305.932478 207.232841 
L 306.040732 206.672755 
L 306.148986 189.230533 
L 306.25724 206.957096 
L 306.365495 187.910287 
L 306.473749 204.571044 
L 306.582003 194.307489 
L 306.690258 217.843404 
L 306.798512 202.257523 
L 306.906766 209.416716 
L 307.01502 185.954972 
L 307.123275 206.001385 
L 307.231529 189.13249 
L 307.339783 194.619519 
L 307.448037 188.123256 
L 307.556292 214.318427 
L 307.7728 205.970585 
L 307.881054 203.260056 
L 307.989309 212.078535 
L 308.097563 206.648991 
L 308.205817 195.067917 
L 308.314072 195.384544 
L 308.422326 208.179262 
L 308.53058 189.278135 
L 308.638834 219.752348 
L 308.747089 211.854883 
L 308.855343 185.744409 
L 309.071851 213.985825 
L 309.180106 217.428516 
L 309.28836 194.117459 
L 309.396614 219.134436 
L 309.504868 185.268698 
L 309.613123 190.363675 
L 309.721377 212.451359 
L 309.829631 179.760121 
L 309.937886 196.475232 
L 310.262648 186.501216 
L 310.479157 228.227361 
L 310.587411 221.38025 
L 310.695665 188.533586 
L 310.80392 192.051528 
L 310.912174 174.755088 
L 311.020428 212.136068 
L 311.128682 192.399803 
L 311.345191 214.862398 
L 311.453445 213.651171 
L 311.5617 198.811177 
L 311.669954 215.952815 
L 311.778208 187.432713 
L 311.994717 210.788085 
L 312.102971 193.766038 
L 312.211225 237.409777 
L 312.427734 210.267303 
L 312.535988 211.27839 
L 312.752496 174.560394 
L 312.860751 188.436225 
L 312.969005 183.772536 
L 313.185514 205.09691 
L 313.293768 182.17269 
L 313.510276 204.985525 
L 313.618531 199.281026 
L 313.726785 210.183361 
L 313.835039 193.099384 
L 313.943293 194.01178 
L 314.051548 228.975538 
L 314.159802 182.307358 
L 314.37631 202.059972 
L 314.484565 215.216864 
L 314.701073 193.334769 
L 314.809328 185.336428 
L 314.917582 196.86063 
L 315.025836 221.35865 
L 315.13409 203.971068 
L 315.350599 214.565706 
L 315.458853 242.582974 
L 315.567107 193.12892 
L 315.675362 218.708308 
L 315.783616 188.942053 
L 315.89187 232.387283 
L 316.108379 181.90082 
L 316.216633 214.480817 
L 316.324887 212.779543 
L 316.541396 193.309379 
L 316.64965 221.977361 
L 316.866159 187.514261 
L 317.082667 206.302115 
L 317.299176 185.436345 
L 317.40743 189.258121 
L 317.515684 197.193816 
L 317.623938 192.459056 
L 317.732193 194.433956 
L 317.840447 209.740669 
L 318.056956 181.424421 
L 318.16521 194.894822 
L 318.273464 192.679475 
L 318.381718 214.384239 
L 318.598227 188.043255 
L 318.92299 221.985918 
L 319.031244 187.586104 
L 319.139498 215.69762 
L 319.247752 206.16301 
L 319.356007 186.048877 
L 319.464261 209.387678 
L 319.572515 200.994683 
L 319.68077 225.001683 
L 319.789024 213.847615 
L 319.897278 189.502483 
L 320.005532 216.746421 
L 320.113787 185.298533 
L 320.222041 185.675269 
L 320.330295 192.538891 
L 320.438549 191.92841 
L 320.546804 234.272331 
L 320.763312 208.015875 
L 320.871566 209.893192 
L 320.979821 203.453837 
L 321.088075 216.819948 
L 321.196329 215.415367 
L 321.304584 210.867317 
L 321.412838 197.344424 
L 321.521092 198.444961 
L 321.629346 183.73462 
L 321.737601 184.953691 
L 321.845855 212.324651 
L 322.062363 189.35759 
L 322.278872 206.493901 
L 322.387126 213.182892 
L 322.49538 202.116747 
L 322.603635 203.52794 
L 322.820143 212.249039 
L 322.928398 203.450833 
L 323.036652 211.576152 
L 323.144906 205.276087 
L 323.25316 184.74891 
L 323.469669 211.480794 
L 323.577923 204.375222 
L 323.686177 172.495855 
L 323.794432 195.957475 
L 323.902686 194.76946 
L 324.119194 182.97245 
L 324.227449 192.913637 
L 324.335703 188.595915 
L 324.443957 192.254075 
L 324.660466 212.904584 
L 324.76872 192.852781 
L 324.985229 238.288655 
L 325.093483 206.267572 
L 325.201737 224.526659 
L 325.418246 189.138781 
L 325.5265 223.358048 
L 325.743008 201.833711 
L 325.851263 199.238658 
L 325.959517 192.337338 
L 326.176026 205.142038 
L 326.28428 204.619494 
L 326.392534 195.976371 
L 326.500788 200.44568 
L 326.609043 198.532026 
L 326.825551 215.007496 
L 327.04206 202.786127 
L 327.150314 206.236223 
L 327.258568 200.689472 
L 327.366822 204.220136 
L 327.583331 180.095382 
L 327.691585 229.81512 
L 327.79984 201.87131 
L 327.908094 242.568152 
L 328.124602 190.342108 
L 328.232857 180.339319 
L 328.449365 211.036932 
L 328.557619 197.524719 
L 328.665874 214.382911 
L 328.882382 185.367877 
L 328.990636 187.465893 
L 329.315399 213.425663 
L 329.531908 190.303512 
L 329.748416 208.717081 
L 329.856671 205.502311 
L 329.964925 216.864139 
L 330.073179 207.813767 
L 330.181433 209.290063 
L 330.289688 225.258729 
L 330.506196 195.593317 
L 330.61445 218.397517 
L 330.722705 198.895589 
L 330.830959 221.334556 
L 330.939213 214.269703 
L 331.047468 220.228088 
L 331.263976 162.992743 
L 331.37223 230.249492 
L 331.480485 195.780358 
L 331.588739 195.884506 
L 331.696993 171.794436 
L 331.913502 209.704035 
L 332.238264 187.888977 
L 332.346519 200.165586 
L 332.454773 197.614478 
L 332.563027 210.225756 
L 332.671282 205.263894 
L 332.779536 205.929045 
L 332.88779 189.714911 
L 332.996044 191.491153 
L 333.104299 186.237212 
L 333.320807 198.528351 
L 333.429061 201.560201 
L 333.64557 220.970402 
L 333.753824 188.433916 
L 333.862078 222.897819 
L 333.970333 187.887199 
L 334.078587 188.133087 
L 334.186841 176.128492 
L 334.40335 199.787162 
L 334.511604 187.604895 
L 334.728113 221.754558 
L 334.836367 216.163147 
L 334.944621 193.159352 
L 335.16113 205.5171 
L 335.269384 230.034094 
L 335.485892 192.397195 
L 335.594147 221.09257 
L 335.702401 181.906579 
L 335.810655 216.363463 
L 335.91891 213.622255 
L 336.027164 188.36067 
L 336.135418 210.570644 
L 336.243672 189.684811 
L 336.351927 193.377436 
L 336.568435 203.253404 
L 336.676689 191.67415 
L 337.001452 206.279112 
L 337.109706 183.976949 
L 337.217961 208.21402 
L 337.326215 199.594159 
L 337.434469 230.449234 
L 337.542724 196.186162 
L 337.650978 203.99822 
L 337.759232 188.044273 
L 337.867486 220.703913 
L 337.975741 209.869378 
L 338.192249 212.280882 
L 338.408758 186.327262 
L 338.517012 185.051108 
L 338.625266 188.045336 
L 338.950029 210.698571 
L 339.058283 191.014257 
L 339.166538 192.710573 
L 339.383046 223.448983 
L 339.4913 196.857678 
L 339.707809 211.712413 
L 339.816063 211.220321 
L 339.924317 193.114373 
L 340.032572 219.162159 
L 340.140826 216.989372 
L 340.24908 206.782607 
L 340.357334 218.052387 
L 340.465589 190.252649 
L 340.682097 205.769947 
L 340.898606 208.665384 
L 341.115114 182.334962 
L 341.331623 208.952754 
L 341.439877 217.893873 
L 341.548131 184.918365 
L 341.76464 227.12741 
L 341.872894 217.96282 
L 341.981148 190.836704 
L 342.089403 201.589685 
L 342.197657 193.597203 
L 342.305911 217.652441 
L 342.414165 191.326784 
L 342.52242 200.037592 
L 342.738928 191.633856 
L 342.847183 193.355611 
L 342.955437 207.712848 
L 343.063691 190.967326 
L 343.171945 192.118792 
L 343.2802 209.80823 
L 343.388454 206.305528 
L 343.604962 222.368588 
L 343.713217 195.52085 
L 343.821471 199.799232 
L 343.929725 177.117843 
L 344.146234 202.51808 
L 344.254488 183.861303 
L 344.362742 200.825299 
L 344.470997 199.421061 
L 344.579251 221.064277 
L 344.795759 207.729467 
L 344.904014 217.299827 
L 345.120522 203.052609 
L 345.228776 203.431339 
L 345.337031 201.12662 
L 345.445285 213.999249 
L 345.553539 189.969926 
L 345.661793 205.670227 
L 345.770048 185.239175 
L 345.878302 226.312161 
L 345.986556 207.883715 
L 346.094811 228.999532 
L 346.311319 213.296302 
L 346.419573 217.207623 
L 346.527828 199.808241 
L 346.744336 224.7354 
L 346.85259 180.536636 
L 346.960845 200.68887 
L 347.069099 195.077193 
L 347.177353 197.060025 
L 347.285607 186.294995 
L 347.393862 198.29134 
L 347.502116 228.701549 
L 347.718625 213.343036 
L 347.826879 203.896948 
L 347.935133 212.392001 
L 348.151642 197.298028 
L 348.259896 201.441333 
L 348.36815 223.008212 
L 348.584659 193.100053 
L 348.801167 186.337044 
L 348.909421 193.082415 
L 349.017676 164.118333 
L 349.12593 215.137157 
L 349.234184 212.210174 
L 349.342439 216.343972 
L 349.450693 198.12506 
L 349.558947 227.866627 
L 349.667201 201.842099 
L 349.775456 228.182083 
L 349.88371 193.574027 
L 349.991964 209.182018 
L 350.100218 197.775714 
L 350.208473 225.615171 
L 350.316727 204.900922 
L 350.424981 228.13408 
L 350.533235 198.558836 
L 350.64149 223.267294 
L 350.857998 195.497088 
L 351.074507 236.596282 
L 351.291015 189.349035 
L 351.507524 208.782434 
L 351.832287 174.891806 
L 351.940541 181.462743 
L 352.157049 230.093619 
L 352.481812 204.705238 
L 352.590067 165.760168 
L 352.806575 214.808828 
L 352.914829 221.939664 
L 353.023084 193.037878 
L 353.131338 226.56853 
L 353.347846 206.49444 
L 353.456101 205.397623 
L 353.780863 188.172899 
L 353.997372 202.497759 
L 354.105626 186.74516 
L 354.213881 206.506725 
L 354.322135 187.163047 
L 354.430389 203.819684 
L 354.538643 199.705216 
L 354.646898 221.913849 
L 354.863406 192.521268 
L 354.97166 207.566975 
L 355.188169 176.981962 
L 355.296423 208.607097 
L 355.404677 206.150101 
L 355.512932 174.420563 
L 355.72944 195.793719 
L 355.837695 237.791481 
L 355.945949 186.224552 
L 356.054203 192.281835 
L 356.162457 189.49701 
L 356.270712 219.825812 
L 356.595474 184.646107 
L 356.703729 212.898409 
L 356.811983 178.909003 
L 357.028491 202.717515 
L 357.136746 205.581189 
L 357.245 218.375643 
L 357.353254 185.820624 
L 357.461509 201.956666 
L 357.678017 182.935506 
L 357.786271 198.087867 
L 357.894526 181.083549 
L 358.00278 186.632794 
L 358.111034 218.544722 
L 358.219288 209.913242 
L 358.327543 212.297515 
L 358.544051 246.797898 
L 358.76056 213.662211 
L 358.868814 215.402705 
L 358.977068 219.838684 
L 359.085323 191.030132 
L 359.193577 218.02634 
L 359.301831 196.52727 
L 359.410085 198.37917 
L 359.626594 187.135789 
L 359.843102 213.041158 
L 360.167865 200.552922 
L 360.276119 191.439262 
L 360.384374 192.786748 
L 360.709137 227.246645 
L 360.817391 216.088953 
L 360.925645 234.4815 
L 361.033899 183.186188 
L 361.142154 211.591228 
L 361.250408 189.813975 
L 361.358662 205.099308 
L 361.466916 193.434159 
L 361.575171 215.825403 
L 361.683425 200.595722 
L 361.791679 205.050067 
L 362.008188 187.35718 
L 362.116442 227.018512 
L 362.224696 221.199202 
L 362.332951 170.227917 
L 362.549459 210.699673 
L 362.874222 185.306743 
L 362.982476 220.409875 
L 363.09073 202.289708 
L 363.198985 211.390847 
L 363.307239 201.02371 
L 363.415493 215.324323 
L 363.523747 190.033799 
L 363.740256 221.036013 
L 364.065019 198.179319 
L 364.281527 166.909402 
L 364.389782 171.033639 
L 364.60629 207.839762 
L 364.714544 194.206042 
L 364.822799 199.573032 
L 364.931053 168.748551 
L 365.039307 197.834543 
L 365.147561 194.47466 
L 365.255816 213.668573 
L 365.36407 200.229587 
L 365.472324 209.894925 
L 365.688833 187.105762 
L 365.905341 217.51262 
L 366.013596 216.67435 
L 366.230104 185.051865 
L 366.338358 208.242829 
L 366.554867 182.631008 
L 366.771375 214.812868 
L 366.87963 180.571527 
L 366.987884 206.911353 
L 367.096138 192.957213 
L 367.204393 208.735242 
L 367.312647 191.322916 
L 367.420901 211.108993 
L 367.63741 201.973665 
L 367.745664 183.312674 
L 367.962172 215.254731 
L 368.070427 215.322513 
L 368.286935 194.727905 
L 368.395189 202.519126 
L 368.503444 177.718754 
L 368.611698 212.514999 
L 368.828207 179.259778 
L 369.044715 199.056177 
L 369.152969 177.687477 
L 369.261224 201.047072 
L 369.369478 198.399862 
L 369.585986 211.031154 
L 369.694241 204.838675 
L 369.802495 213.131713 
L 369.910749 196.462021 
L 370.019003 198.51235 
L 370.127258 231.318568 
L 370.343766 200.663836 
L 370.560275 184.714884 
L 370.776783 213.640468 
L 370.885038 199.503468 
L 370.993292 200.821363 
L 371.101546 200.71833 
L 371.2098 187.271921 
L 371.318055 187.357139 
L 371.426309 200.494517 
L 371.534563 196.42578 
L 371.642817 214.06311 
L 371.751072 202.403776 
L 371.859326 210.551363 
L 372.075835 193.331984 
L 372.184089 185.52568 
L 372.292343 201.587898 
L 372.508852 191.22942 
L 372.617106 203.60759 
L 372.72536 193.771666 
L 372.833614 212.095332 
L 372.941869 189.877075 
L 373.266631 210.943606 
L 373.374886 212.137431 
L 373.48314 204.123873 
L 373.591394 184.517453 
L 373.699649 196.198636 
L 373.916157 184.890045 
L 374.132666 210.883196 
L 374.24092 209.379959 
L 374.565683 185.336433 
L 374.673937 211.895216 
L 374.782191 198.710994 
L 374.890445 226.460094 
L 375.106954 189.030665 
L 375.215208 194.499317 
L 375.431717 224.664835 
L 375.75648 205.451056 
L 375.864734 208.288055 
L 375.972988 216.008421 
L 376.081242 203.036241 
L 376.189497 206.010569 
L 376.297751 179.237094 
L 376.406005 228.522301 
L 376.514259 200.593227 
L 376.622514 224.783131 
L 376.839022 194.199694 
L 376.947277 197.026569 
L 377.055531 211.565679 
L 377.163785 206.25525 
L 377.272039 180.423249 
L 377.380294 212.34158 
L 377.488548 180.613168 
L 377.596802 209.522568 
L 377.705056 196.132393 
L 377.813311 226.599515 
L 377.921565 182.678686 
L 378.029819 190.575016 
L 378.138073 220.759051 
L 378.354582 171.505257 
L 378.462836 189.092481 
L 378.571091 228.408747 
L 378.787599 178.969066 
L 379.004108 215.107532 
L 379.112362 181.636788 
L 379.32887 215.788511 
L 379.437125 184.557715 
L 379.545379 229.199706 
L 379.653633 195.509382 
L 379.761887 201.906641 
L 379.870142 194.974476 
L 380.08665 219.511509 
L 380.194905 185.478598 
L 380.411413 196.307791 
L 380.627922 198.688005 
L 380.736176 190.595301 
L 380.84443 202.62798 
L 380.952684 194.54026 
L 381.060939 208.578592 
L 381.169193 200.931132 
L 381.277447 185.285593 
L 381.385701 239.884212 
L 381.60221 197.19831 
L 381.710464 236.993482 
L 381.926973 201.155274 
L 382.035227 200.943461 
L 382.143481 200.336555 
L 382.251736 192.083295 
L 382.576498 205.32876 
L 382.793007 224.30866 
L 382.901261 172.279413 
L 383.009515 215.798743 
L 383.226024 187.489626 
L 383.550787 211.053873 
L 383.659041 183.002417 
L 383.767295 212.069518 
L 383.87555 184.805727 
L 383.983804 188.462201 
L 384.416821 236.363595 
L 384.633329 198.902422 
L 384.741584 185.339209 
L 384.849838 205.482155 
L 384.958092 195.375699 
L 385.066347 211.170622 
L 385.174601 193.609337 
L 385.282855 220.003784 
L 385.499364 192.779425 
L 385.715872 201.485928 
L 385.824126 203.552115 
L 385.932381 213.96714 
L 386.148889 189.277451 
L 386.257143 222.024092 
L 386.365398 213.971523 
L 386.365398 213.971523 
" clip-path="url(#p1a58c3e669)" style="fill: none; stroke: #1f77b4; stroke-width: 1.5; stroke-linecap: square"/>
   </g>
   <g id="patch_3">
    <path d="M 45.478125 273.312 
L 45.478125 7.2 
" style="fill: none; stroke: #000000; stroke-width: 0.8; stroke-linejoin: miter; stroke-linecap: square"/>
   </g>
   <g id="patch_4">
    <path d="M 402.598125 273.312 
L 402.598125 7.2 
" style="fill: none; stroke: #000000; stroke-width: 0.8; stroke-linejoin: miter; stroke-linecap: square"/>
   </g>
   <g id="patch_5">
    <path d="M 45.478125 273.312 
L 402.598125 273.312 
" style="fill: none; stroke: #000000; stroke-width: 0.8; stroke-linejoin: miter; stroke-linecap: square"/>
   </g>
   <g id="patch_6">
    <path d="M 45.478125 7.2 
L 402.598125 7.2 
" style="fill: none; stroke: #000000; stroke-width: 0.8; stroke-linejoin: miter; stroke-linecap: square"/>
   </g>
  </g>
 </g>
 <defs>
  <clipPath id="p1a58c3e669">
   <rect x="45.478125" y="7.2" width="357.12" height="266.112"/>
  </clipPath>
 </defs>
</svg>
